%TF.GenerationSoftware,KiCad,Pcbnew,8.0.7*%
%TF.CreationDate,2025-01-02T06:30:12+11:00*%
%TF.ProjectId,plasma toroid unified,706c6173-6d61-4207-946f-726f69642075,v1.02*%
%TF.SameCoordinates,Original*%
%TF.FileFunction,Copper,L2,Bot*%
%TF.FilePolarity,Positive*%
%FSLAX46Y46*%
G04 Gerber Fmt 4.6, Leading zero omitted, Abs format (unit mm)*
G04 Created by KiCad (PCBNEW 8.0.7) date 2025-01-02 06:30:12*
%MOMM*%
%LPD*%
G01*
G04 APERTURE LIST*
G04 Aperture macros list*
%AMRoundRect*
0 Rectangle with rounded corners*
0 $1 Rounding radius*
0 $2 $3 $4 $5 $6 $7 $8 $9 X,Y pos of 4 corners*
0 Add a 4 corners polygon primitive as box body*
4,1,4,$2,$3,$4,$5,$6,$7,$8,$9,$2,$3,0*
0 Add four circle primitives for the rounded corners*
1,1,$1+$1,$2,$3*
1,1,$1+$1,$4,$5*
1,1,$1+$1,$6,$7*
1,1,$1+$1,$8,$9*
0 Add four rect primitives between the rounded corners*
20,1,$1+$1,$2,$3,$4,$5,0*
20,1,$1+$1,$4,$5,$6,$7,0*
20,1,$1+$1,$6,$7,$8,$9,0*
20,1,$1+$1,$8,$9,$2,$3,0*%
G04 Aperture macros list end*
%TA.AperFunction,EtchedComponent*%
%ADD10C,0.381000*%
%TD*%
%TA.AperFunction,EtchedComponent*%
%ADD11C,1.000000*%
%TD*%
%TA.AperFunction,EtchedComponent*%
%ADD12C,12.000000*%
%TD*%
%TA.AperFunction,ComponentPad*%
%ADD13C,0.700000*%
%TD*%
%TA.AperFunction,ComponentPad*%
%ADD14C,4.100000*%
%TD*%
%TA.AperFunction,ComponentPad*%
%ADD15C,2.000000*%
%TD*%
%TA.AperFunction,ComponentPad*%
%ADD16R,1.000000X1.000000*%
%TD*%
%TA.AperFunction,ComponentPad*%
%ADD17C,0.600000*%
%TD*%
%TA.AperFunction,SMDPad,CuDef*%
%ADD18RoundRect,0.095250X0.095250X-0.604750X0.095250X0.604750X-0.095250X0.604750X-0.095250X-0.604750X0*%
%TD*%
%TA.AperFunction,ComponentPad*%
%ADD19C,2.500000*%
%TD*%
%TA.AperFunction,WasherPad*%
%ADD20C,4.000000*%
%TD*%
%TA.AperFunction,ComponentPad*%
%ADD21C,1.800000*%
%TD*%
%TA.AperFunction,ComponentPad*%
%ADD22R,1.350000X1.350000*%
%TD*%
%TA.AperFunction,ComponentPad*%
%ADD23O,1.350000X1.350000*%
%TD*%
%TA.AperFunction,ComponentPad*%
%ADD24RoundRect,0.250000X-0.625000X0.350000X-0.625000X-0.350000X0.625000X-0.350000X0.625000X0.350000X0*%
%TD*%
%TA.AperFunction,ComponentPad*%
%ADD25O,1.750000X1.200000*%
%TD*%
%TA.AperFunction,ComponentPad*%
%ADD26C,0.800000*%
%TD*%
%TA.AperFunction,SMDPad,CuDef*%
%ADD27RoundRect,0.500000X2.975000X2.750000X-2.975000X2.750000X-2.975000X-2.750000X2.975000X-2.750000X0*%
%TD*%
%TA.AperFunction,HeatsinkPad*%
%ADD28C,4.200000*%
%TD*%
%TA.AperFunction,ViaPad*%
%ADD29C,0.600000*%
%TD*%
%TA.AperFunction,ViaPad*%
%ADD30C,0.800000*%
%TD*%
%TA.AperFunction,Conductor*%
%ADD31C,0.381000*%
%TD*%
%TA.AperFunction,Conductor*%
%ADD32C,1.000000*%
%TD*%
%TA.AperFunction,Conductor*%
%ADD33C,0.508000*%
%TD*%
%TA.AperFunction,Conductor*%
%ADD34C,0.203200*%
%TD*%
G04 APERTURE END LIST*
D10*
%TO.C,L3*%
X157997710Y-191610654D02*
X157997710Y-196647654D01*
%TO.C,L2*%
D11*
X200623110Y-179170654D02*
X192397710Y-179170654D01*
X192397710Y-190170654D01*
X200623110Y-190170654D01*
X200623110Y-179170654D01*
%TA.AperFunction,EtchedComponent*%
G36*
X200623110Y-179170654D02*
G01*
X192397710Y-179170654D01*
X192397710Y-190170654D01*
X200623110Y-190170654D01*
X200623110Y-179170654D01*
G37*
%TD.AperFunction*%
D12*
X192232392Y-184681564D02*
G75*
G02*
X208997710Y-184520654I7763028J64640256D01*
G01*
%TD*%
D13*
%TO.P,H5,1,1*%
%TO.N,unconnected-(H5-Pad1)_3*%
X247317710Y-63980654D03*
%TO.N,unconnected-(H5-Pad1)_2*%
X247800984Y-62813928D03*
%TO.N,unconnected-(H5-Pad1)_8*%
X247800984Y-65147380D03*
%TO.N,unconnected-(H5-Pad1)_6*%
X248967710Y-62330654D03*
D14*
%TO.N,unconnected-(H5-Pad1)*%
X248967710Y-63980654D03*
D13*
%TO.N,unconnected-(H5-Pad1)_1*%
X248967710Y-65630654D03*
%TO.N,unconnected-(H5-Pad1)_4*%
X250134436Y-62813928D03*
%TO.N,unconnected-(H5-Pad1)_7*%
X250134436Y-65147380D03*
%TO.N,unconnected-(H5-Pad1)_5*%
X250617710Y-63980654D03*
%TD*%
D15*
%TO.P,TP6,1,1*%
%TO.N,/drain*%
X176600000Y-197500000D03*
%TD*%
%TO.P,TP5,1,1*%
%TO.N,Net-(D6-A)*%
X140750000Y-199000000D03*
%TD*%
D13*
%TO.P,H9,1,1*%
%TO.N,GND*%
X175347710Y-230520654D03*
X175830984Y-229353928D03*
X175830984Y-231687380D03*
X176997710Y-228870654D03*
D14*
X176997710Y-230520654D03*
D13*
X176997710Y-232170654D03*
X178164436Y-229353928D03*
X178164436Y-231687380D03*
X178647710Y-230520654D03*
%TD*%
D16*
%TO.P,TPg5,1,1*%
%TO.N,GND*%
X253797710Y-197620654D03*
%TD*%
D17*
%TO.P,L3,*%
%TO.N,*%
X157997710Y-191610654D03*
D18*
%TO.P,L3,1*%
%TO.N,GND*%
X157997710Y-197220654D03*
%TD*%
D15*
%TO.P,TP7,1,1*%
%TO.N,Net-(Q1-G)*%
X201997710Y-213520654D03*
%TD*%
D19*
%TO.P,TPg6,1,1*%
%TO.N,GND*%
X259250000Y-207020654D03*
%TD*%
D15*
%TO.P,TP2,1,1*%
%TO.N,+VDC*%
X140750000Y-203000000D03*
%TD*%
D13*
%TO.P,H10,1,1*%
%TO.N,GND*%
X221347710Y-230520654D03*
X221830984Y-229353928D03*
X221830984Y-231687380D03*
X222997710Y-228870654D03*
D14*
X222997710Y-230520654D03*
D13*
X222997710Y-232170654D03*
X224164436Y-229353928D03*
X224164436Y-231687380D03*
X224647710Y-230520654D03*
%TD*%
D16*
%TO.P,TPg3,1,1*%
%TO.N,GND*%
X217500000Y-209000000D03*
%TD*%
D15*
%TO.P,TP4,1,1*%
%TO.N,Net-(C13-Pad1)*%
X217500000Y-213500000D03*
%TD*%
D13*
%TO.P,H7,1,1*%
%TO.N,unconnected-(H7-Pad1)*%
X148687710Y-63280654D03*
%TO.N,unconnected-(H7-Pad1)_7*%
X149170984Y-62113928D03*
%TO.N,unconnected-(H7-Pad1)_6*%
X149170984Y-64447380D03*
%TO.N,unconnected-(H7-Pad1)_4*%
X150337710Y-61630654D03*
D14*
%TO.N,unconnected-(H7-Pad1)_3*%
X150337710Y-63280654D03*
D13*
%TO.N,unconnected-(H7-Pad1)_2*%
X150337710Y-64930654D03*
%TO.N,unconnected-(H7-Pad1)_8*%
X151504436Y-62113928D03*
%TO.N,unconnected-(H7-Pad1)_1*%
X151504436Y-64447380D03*
%TO.N,unconnected-(H7-Pad1)_5*%
X151987710Y-63280654D03*
%TD*%
%TO.P,H4,1,1*%
%TO.N,GND*%
X247327710Y-220710654D03*
X247810984Y-219543928D03*
X247810984Y-221877380D03*
X248977710Y-219060654D03*
D14*
X248977710Y-220710654D03*
D13*
X248977710Y-222360654D03*
X250144436Y-219543928D03*
X250144436Y-221877380D03*
X250627710Y-220710654D03*
%TD*%
D20*
%TO.P,RV1,*%
%TO.N,*%
X241397710Y-220470654D03*
X232597710Y-220470654D03*
D21*
%TO.P,RV1,1,1*%
%TO.N,Net-(D5-K)*%
X234497710Y-213470654D03*
%TO.P,RV1,2,2*%
%TO.N,Net-(C13-Pad1)*%
X236997710Y-213470654D03*
%TO.P,RV1,3,3*%
%TO.N,GND*%
X239497710Y-213470654D03*
%TD*%
D16*
%TO.P,TPg4,1,1*%
%TO.N,GND*%
X144750000Y-199000000D03*
%TD*%
D15*
%TO.P,TP1,1,1*%
%TO.N,GND*%
X140750000Y-207000000D03*
%TD*%
D13*
%TO.P,H3,1,1*%
%TO.N,GND*%
X254397710Y-213650654D03*
X254880984Y-212483928D03*
X254880984Y-214817380D03*
X256047710Y-212000654D03*
D14*
X256047710Y-213650654D03*
D13*
X256047710Y-215300654D03*
X257214436Y-212483928D03*
X257214436Y-214817380D03*
X257697710Y-213650654D03*
%TD*%
D16*
%TO.P,TPg1,1,1*%
%TO.N,GND*%
X172600000Y-197500000D03*
%TD*%
D13*
%TO.P,H1,1,1*%
%TO.N,GND*%
X142317710Y-213640654D03*
X142800984Y-212473928D03*
X142800984Y-214807380D03*
X143967710Y-211990654D03*
D14*
X143967710Y-213640654D03*
D13*
X143967710Y-215290654D03*
X145134436Y-212473928D03*
X145134436Y-214807380D03*
X145617710Y-213640654D03*
%TD*%
%TO.P,H8,1,1*%
%TO.N,unconnected-(H8-Pad1)_6*%
X141607710Y-70350654D03*
%TO.N,unconnected-(H8-Pad1)_3*%
X142090984Y-69183928D03*
%TO.N,unconnected-(H8-Pad1)*%
X142090984Y-71517380D03*
%TO.N,unconnected-(H8-Pad1)_8*%
X143257710Y-68700654D03*
D14*
%TO.N,unconnected-(H8-Pad1)_5*%
X143257710Y-70350654D03*
D13*
%TO.N,unconnected-(H8-Pad1)_4*%
X143257710Y-72000654D03*
%TO.N,unconnected-(H8-Pad1)_2*%
X144424436Y-69183928D03*
%TO.N,unconnected-(H8-Pad1)_7*%
X144424436Y-71517380D03*
%TO.N,unconnected-(H8-Pad1)_1*%
X144907710Y-70350654D03*
%TD*%
D15*
%TO.P,TP3,1,1*%
%TO.N,/470V*%
X253797710Y-202120654D03*
%TD*%
D13*
%TO.P,H6,1,1*%
%TO.N,unconnected-(H6-Pad1)_8*%
X254387710Y-71050654D03*
%TO.N,unconnected-(H6-Pad1)*%
X254870984Y-69883928D03*
%TO.N,unconnected-(H6-Pad1)_3*%
X254870984Y-72217380D03*
%TO.N,unconnected-(H6-Pad1)_4*%
X256037710Y-69400654D03*
D14*
%TO.N,unconnected-(H6-Pad1)_1*%
X256037710Y-71050654D03*
D13*
%TO.N,unconnected-(H6-Pad1)_7*%
X256037710Y-72700654D03*
%TO.N,unconnected-(H6-Pad1)_6*%
X257204436Y-69883928D03*
%TO.N,unconnected-(H6-Pad1)_2*%
X257204436Y-72217380D03*
%TO.N,unconnected-(H6-Pad1)_5*%
X257687710Y-71050654D03*
%TD*%
D16*
%TO.P,TPg2,1,1*%
%TO.N,GND*%
X197497710Y-213520654D03*
%TD*%
D13*
%TO.P,H2,1,1*%
%TO.N,GND*%
X149387710Y-220710654D03*
X149870984Y-219543928D03*
X149870984Y-221877380D03*
X151037710Y-219060654D03*
D14*
X151037710Y-220710654D03*
D13*
X151037710Y-222360654D03*
X152204436Y-219543928D03*
X152204436Y-221877380D03*
X152687710Y-220710654D03*
%TD*%
D22*
%TO.P,J2,1,Pin_1*%
%TO.N,GND*%
X165997710Y-211020654D03*
D23*
%TO.P,J2,2,Pin_2*%
%TO.N,+12V*%
X165997710Y-209020654D03*
%TD*%
D24*
%TO.P,J1,1,Pin_1*%
%TO.N,+VDC*%
X165997710Y-202520654D03*
D25*
%TO.P,J1,2,Pin_2*%
%TO.N,GND*%
X165997710Y-204520654D03*
%TD*%
D19*
%TO.P,J3,1,Pin_1*%
%TO.N,/striker*%
X229997710Y-191820654D03*
%TD*%
D26*
%TO.P,L2,0*%
%TO.N,unconnected-(L2-Pad0)_6*%
X200597710Y-188945654D03*
%TO.N,unconnected-(L2-Pad0)*%
X200597710Y-187945654D03*
%TO.N,unconnected-(L2-Pad0)_7*%
X200597710Y-186945654D03*
%TO.N,unconnected-(L2-Pad0)_3*%
X200597710Y-185820654D03*
%TO.N,unconnected-(L2-Pad0)_2*%
X200597710Y-184820654D03*
%TO.N,unconnected-(L2-Pad0)_5*%
X200597710Y-183820654D03*
%TO.N,unconnected-(L2-Pad0)_1*%
X200597710Y-182820654D03*
%TO.N,unconnected-(L2-Pad0)_9*%
X200597710Y-181820654D03*
%TO.N,unconnected-(L2-Pad0)_4*%
X200597710Y-180820654D03*
%TO.N,unconnected-(L2-Pad0)_8*%
X200597710Y-179820654D03*
D27*
%TO.P,L2,1,1*%
%TO.N,Net-(Cp1-Pad1)*%
X206472710Y-187770654D03*
%TD*%
D28*
%TO.P,HS1,1*%
%TO.N,GND*%
X183495415Y-197541312D03*
X183495415Y-230541312D03*
X216495415Y-197541312D03*
X216495415Y-230541312D03*
%TD*%
D29*
%TO.N,GND*%
X169525000Y-217000000D03*
X250750000Y-212020654D03*
X197700000Y-205320654D03*
X195700000Y-218341308D03*
X160397710Y-207041312D03*
X160897710Y-215370654D03*
X160897710Y-216720654D03*
X249497710Y-199120654D03*
X196700000Y-218341308D03*
X174595415Y-220941312D03*
X225798207Y-208020654D03*
X158647710Y-216020654D03*
X156897710Y-203141312D03*
X156897710Y-207220654D03*
X217300005Y-225020654D03*
X250495429Y-208054984D03*
X162147710Y-216020654D03*
X253097710Y-206820654D03*
X197700000Y-218341308D03*
X243995415Y-204741312D03*
X198700000Y-205320654D03*
X199600000Y-205320654D03*
X159897710Y-216020654D03*
X163147710Y-216020654D03*
X227197213Y-208020654D03*
X199600000Y-218341308D03*
X248897710Y-199120654D03*
X160397710Y-211041312D03*
X245497710Y-214020654D03*
X160397710Y-203041312D03*
X217500000Y-204141312D03*
X165893130Y-215516308D03*
X174970810Y-217037019D03*
X198700000Y-218341308D03*
X172500000Y-215020654D03*
X208997710Y-205920654D03*
X160895420Y-216041308D03*
X226497710Y-208020654D03*
X196700000Y-205320654D03*
X174997710Y-215020654D03*
X245397710Y-209220654D03*
X177022710Y-220020654D03*
X212974512Y-221900000D03*
X250097710Y-199120654D03*
X212987986Y-214087986D03*
X195700000Y-205320654D03*
%TO.N,+12V*%
X161603310Y-208895654D03*
X166497710Y-219220654D03*
X168997710Y-219220654D03*
%TO.N,/charge*%
X241000000Y-217500000D03*
X239500000Y-215500000D03*
X250312151Y-207088937D03*
X249497710Y-206067154D03*
%TO.N,/drain*%
X191397710Y-223800000D03*
X180197710Y-202100000D03*
X182997710Y-213300000D03*
X189297710Y-220300000D03*
X189997710Y-202100000D03*
X185797710Y-216800000D03*
X189297710Y-219600000D03*
X186497710Y-210500000D03*
X192797710Y-201400000D03*
X179497710Y-216800000D03*
X182297710Y-213300000D03*
X191397710Y-211900000D03*
X182997710Y-216100000D03*
X181597710Y-204200000D03*
X179497710Y-224500000D03*
X186497710Y-212600000D03*
X180197710Y-202800000D03*
X185097710Y-211900000D03*
X189997710Y-204900000D03*
X178797710Y-214000000D03*
X193497710Y-214000000D03*
X194197710Y-218900000D03*
X180197710Y-213300000D03*
X185097710Y-214700000D03*
X185797710Y-217500000D03*
X187897710Y-209100000D03*
X187197710Y-207000000D03*
X191397710Y-206300000D03*
X187897710Y-208400000D03*
X179497710Y-215400000D03*
X193497710Y-202100000D03*
X181597710Y-204900000D03*
X188597710Y-216100000D03*
X187197710Y-221000000D03*
X192097710Y-203500000D03*
X192097710Y-225200000D03*
X184397710Y-210500000D03*
X180197710Y-223800000D03*
X180197710Y-211900000D03*
X180897710Y-216100000D03*
X178797710Y-223100000D03*
X178097710Y-204900000D03*
X178797710Y-210500000D03*
X185797710Y-204200000D03*
X178097710Y-214700000D03*
X178797710Y-203500000D03*
X191397710Y-208400000D03*
X191397710Y-225200000D03*
X186497710Y-216100000D03*
X192797710Y-206300000D03*
X178097710Y-210500000D03*
X188597710Y-221700000D03*
X187197710Y-201400000D03*
X183697710Y-215400000D03*
X192797710Y-210500000D03*
X191397710Y-204200000D03*
X178797710Y-202800000D03*
X180197710Y-214000000D03*
X185797710Y-218900000D03*
X185797710Y-200700000D03*
X183697710Y-216100000D03*
X189297710Y-225200000D03*
X193497710Y-203500000D03*
X194197710Y-225200000D03*
X189997710Y-202800000D03*
X182997710Y-214000000D03*
X182297710Y-222400000D03*
X185797710Y-202800000D03*
X180197710Y-225900000D03*
X189297710Y-217500000D03*
X191397710Y-207000000D03*
X191397710Y-221700000D03*
X189997710Y-208400000D03*
X182297710Y-201400000D03*
X186497710Y-207000000D03*
X182297710Y-225900000D03*
X192097710Y-213300000D03*
X185097710Y-211200000D03*
X186497710Y-200700000D03*
X194197710Y-211200000D03*
X193497710Y-216800000D03*
X182997710Y-223800000D03*
X194197710Y-221000000D03*
X180197710Y-216100000D03*
X184397710Y-204200000D03*
X185797710Y-204900000D03*
X194197710Y-213300000D03*
X189997710Y-207000000D03*
X182297710Y-220300000D03*
X185097710Y-217500000D03*
X180197710Y-206300000D03*
X189297710Y-215400000D03*
X178797710Y-209100000D03*
X184397710Y-203500000D03*
X182297710Y-219600000D03*
X181597710Y-206300000D03*
X186497710Y-202100000D03*
X184397710Y-206300000D03*
X191397710Y-221000000D03*
X188597710Y-214700000D03*
X189997710Y-206300000D03*
X182297710Y-215400000D03*
X180897710Y-216800000D03*
X188597710Y-209100000D03*
X187897710Y-204200000D03*
X184397710Y-202800000D03*
X184397710Y-220300000D03*
X178797710Y-225200000D03*
X180897710Y-202800000D03*
X192097710Y-225900000D03*
X193497710Y-207000000D03*
X182297710Y-209100000D03*
X180897710Y-204900000D03*
X182997710Y-223100000D03*
X185797710Y-214000000D03*
X185797710Y-219600000D03*
X187197710Y-224500000D03*
X180897710Y-223100000D03*
X187897710Y-202100000D03*
X183697710Y-202800000D03*
X182297710Y-209800000D03*
X182297710Y-207000000D03*
X182297710Y-223100000D03*
X184397710Y-202100000D03*
X180197710Y-209100000D03*
X186497710Y-219600000D03*
X187897710Y-204900000D03*
X188597710Y-220300000D03*
X182297710Y-216800000D03*
X185797710Y-223800000D03*
X178797710Y-211200000D03*
X180897710Y-214000000D03*
X186497710Y-206300000D03*
X187197710Y-208400000D03*
X189997710Y-223100000D03*
X181597710Y-211900000D03*
X187897710Y-223100000D03*
X182997710Y-221700000D03*
X179497710Y-200700000D03*
X178097710Y-209800000D03*
X182997710Y-202100000D03*
X192797710Y-211900000D03*
X192797710Y-209800000D03*
X180197710Y-212600000D03*
X194197710Y-214700000D03*
X185097710Y-202100000D03*
X188597710Y-214000000D03*
X189297710Y-216800000D03*
X192797710Y-215400000D03*
X187897710Y-224500000D03*
X188597710Y-202800000D03*
X179497710Y-223800000D03*
X188597710Y-208400000D03*
X189297710Y-211900000D03*
X179497710Y-206300000D03*
X189297710Y-212600000D03*
X178797710Y-208400000D03*
X187197710Y-221700000D03*
X192797710Y-224500000D03*
X185797710Y-215400000D03*
X189297710Y-213300000D03*
X185797710Y-211200000D03*
X180197710Y-217500000D03*
X187197710Y-215400000D03*
X189997710Y-218900000D03*
X183697710Y-213300000D03*
X186497710Y-225900000D03*
X193497710Y-223800000D03*
X180897710Y-201400000D03*
X194197710Y-219600000D03*
X191397710Y-224500000D03*
X178097710Y-203500000D03*
X189297710Y-207000000D03*
X178097710Y-215400000D03*
X178797710Y-213300000D03*
X193497710Y-218900000D03*
X185097710Y-206300000D03*
X186497710Y-216800000D03*
X183697710Y-218900000D03*
X194197710Y-209100000D03*
X189297710Y-218900000D03*
X184397710Y-221000000D03*
X187197710Y-223800000D03*
X192797710Y-225200000D03*
X186497710Y-221700000D03*
X179497710Y-201400000D03*
X182297710Y-202800000D03*
X193497710Y-217500000D03*
X185797710Y-225900000D03*
X187197710Y-218900000D03*
X192097710Y-220300000D03*
X186497710Y-214700000D03*
X179497710Y-204200000D03*
X194197710Y-208400000D03*
X179497710Y-225900000D03*
X192097710Y-202100000D03*
X191397710Y-218900000D03*
X194197710Y-216800000D03*
X194197710Y-215400000D03*
X183697710Y-214000000D03*
X182297710Y-207700000D03*
X182297710Y-211900000D03*
X192797710Y-202100000D03*
X180897710Y-212600000D03*
X189997710Y-225900000D03*
X189297710Y-224500000D03*
X182997710Y-217500000D03*
X182997710Y-224500000D03*
X179497710Y-211900000D03*
X182297710Y-225200000D03*
X192797710Y-200700000D03*
X189997710Y-213300000D03*
X189997710Y-220300000D03*
X193497710Y-204200000D03*
X193497710Y-211900000D03*
X182297710Y-204200000D03*
X187897710Y-201400000D03*
X178797710Y-204200000D03*
X183697710Y-212600000D03*
X184397710Y-212600000D03*
X183697710Y-204200000D03*
X178097710Y-225900000D03*
X194197710Y-202800000D03*
X182297710Y-217500000D03*
X188597710Y-204200000D03*
X178797710Y-202100000D03*
X189297710Y-208400000D03*
X185797710Y-208400000D03*
X193497710Y-211200000D03*
X184397710Y-218900000D03*
X185097710Y-221700000D03*
X183697710Y-221700000D03*
X189997710Y-210500000D03*
X189997710Y-222400000D03*
X187897710Y-214000000D03*
X193497710Y-220300000D03*
X186497710Y-204200000D03*
X180197710Y-224500000D03*
X178797710Y-224500000D03*
X191397710Y-216800000D03*
X178097710Y-216800000D03*
X185097710Y-204900000D03*
X181597710Y-202800000D03*
X183697710Y-219600000D03*
X187897710Y-225900000D03*
X185797710Y-209100000D03*
X184397710Y-225200000D03*
X180197710Y-225200000D03*
X183697710Y-223800000D03*
X185097710Y-225900000D03*
X194197710Y-209800000D03*
X183697710Y-209800000D03*
X184397710Y-217500000D03*
X183697710Y-225200000D03*
X183697710Y-206300000D03*
X193497710Y-221700000D03*
X194197710Y-204900000D03*
X184397710Y-207000000D03*
X179497710Y-222420654D03*
X186497710Y-213300000D03*
X188597710Y-210500000D03*
X189297710Y-223100000D03*
X191397710Y-215400000D03*
X180197710Y-207700000D03*
X188597710Y-217500000D03*
X188597710Y-207700000D03*
X183697710Y-224500000D03*
X182997710Y-218900000D03*
X179497710Y-214700000D03*
X187897710Y-217500000D03*
X182997710Y-221000000D03*
X179497710Y-223100000D03*
X181597710Y-207700000D03*
X179497710Y-210500000D03*
X182997710Y-208400000D03*
X194197710Y-222400000D03*
X178797710Y-201400000D03*
X186497710Y-225200000D03*
X178097710Y-214000000D03*
X194197710Y-206300000D03*
X192097710Y-219600000D03*
X189297710Y-207700000D03*
X187897710Y-211200000D03*
X189297710Y-211200000D03*
X185097710Y-223800000D03*
X193497710Y-221000000D03*
X178097710Y-206300000D03*
X183697710Y-202100000D03*
X185097710Y-223100000D03*
X185797710Y-203500000D03*
X186497710Y-217500000D03*
X192097710Y-223100000D03*
X187897710Y-207000000D03*
X182997710Y-219600000D03*
X187897710Y-207700000D03*
X185797710Y-223100000D03*
X180197710Y-208400000D03*
X180897710Y-224500000D03*
X192797710Y-218900000D03*
X183697710Y-216800000D03*
X178097710Y-202100000D03*
X184397710Y-224500000D03*
X186497710Y-203500000D03*
X182297710Y-208400000D03*
X189997710Y-200700000D03*
X179497710Y-207700000D03*
X181597710Y-214000000D03*
X187197710Y-214000000D03*
X187897710Y-219600000D03*
X181597710Y-224500000D03*
X189297710Y-209100000D03*
X181597710Y-210500000D03*
X187197710Y-206300000D03*
X180897710Y-200700000D03*
X189997710Y-224500000D03*
X188597710Y-221000000D03*
X187197710Y-209800000D03*
X180897710Y-210500000D03*
X189297710Y-200700000D03*
X193497710Y-216100000D03*
X187197710Y-200700000D03*
X189997710Y-225200000D03*
X183697710Y-225900000D03*
X181597710Y-217500000D03*
X184397710Y-222400000D03*
X182997710Y-202800000D03*
X193497710Y-204900000D03*
X185797710Y-207000000D03*
X192097710Y-202800000D03*
X178797710Y-217500000D03*
X192097710Y-211900000D03*
X192797710Y-202800000D03*
X180197710Y-204900000D03*
X191397710Y-219600000D03*
X186497710Y-209800000D03*
X188597710Y-223100000D03*
X182997710Y-209100000D03*
X178097710Y-211900000D03*
X185097710Y-204200000D03*
X192797710Y-203500000D03*
X189297710Y-214000000D03*
X187897710Y-209800000D03*
X192797710Y-209100000D03*
X178097710Y-212600000D03*
X192097710Y-200700000D03*
X189997710Y-221000000D03*
X187897710Y-218900000D03*
X182997710Y-211900000D03*
X183697710Y-207000000D03*
X182297710Y-210500000D03*
X183697710Y-208400000D03*
X191397710Y-225900000D03*
X186497710Y-215400000D03*
X187197710Y-209100000D03*
X188597710Y-206300000D03*
X180197710Y-207000000D03*
X189297710Y-214700000D03*
X184397710Y-216800000D03*
X182297710Y-211200000D03*
X188597710Y-225900000D03*
X194197710Y-202100000D03*
X182297710Y-203500000D03*
X183697710Y-210500000D03*
X189997710Y-204200000D03*
X186497710Y-218900000D03*
X180897710Y-209800000D03*
X185797710Y-201400000D03*
X192797710Y-216100000D03*
X192097710Y-209100000D03*
X193497710Y-209800000D03*
X191397710Y-210500000D03*
X191397710Y-217500000D03*
X185097710Y-213300000D03*
X182997710Y-209800000D03*
X193497710Y-215400000D03*
X191397710Y-214000000D03*
X193497710Y-207700000D03*
X179497710Y-212600000D03*
X188597710Y-212600000D03*
X179497710Y-214000000D03*
X193497710Y-210500000D03*
X191397710Y-204900000D03*
X189997710Y-219600000D03*
X178797710Y-214700000D03*
X191397710Y-216100000D03*
X185097710Y-215400000D03*
X192797710Y-212600000D03*
X187197710Y-203500000D03*
X182997710Y-225900000D03*
X178097710Y-202800000D03*
X182997710Y-212600000D03*
X189297710Y-203500000D03*
X183697710Y-207700000D03*
X187897710Y-200700000D03*
X182997710Y-204900000D03*
X189997710Y-221700000D03*
X182997710Y-207000000D03*
X180897710Y-207700000D03*
X192097710Y-222400000D03*
X185097710Y-202800000D03*
X184397710Y-214700000D03*
X189997710Y-214000000D03*
X184397710Y-216100000D03*
X178797710Y-200700000D03*
X192097710Y-207700000D03*
X185097710Y-212600000D03*
X183697710Y-221000000D03*
X185797710Y-209800000D03*
X193497710Y-223100000D03*
X179497710Y-204900000D03*
X192797710Y-204900000D03*
X181597710Y-222400000D03*
X184397710Y-215400000D03*
X183697710Y-203500000D03*
X185797710Y-221700000D03*
X188597710Y-213300000D03*
X178097710Y-200700000D03*
X194197710Y-217500000D03*
X182997710Y-216800000D03*
X192097710Y-214700000D03*
X186497710Y-220300000D03*
X189997710Y-216800000D03*
X178097710Y-211200000D03*
X181597710Y-202100000D03*
X182297710Y-214700000D03*
X183697710Y-222400000D03*
X187897710Y-213300000D03*
X184397710Y-211200000D03*
X185097710Y-218900000D03*
X182297710Y-212600000D03*
X191397710Y-200700000D03*
X178097710Y-223800000D03*
X185797710Y-221000000D03*
X189297710Y-202800000D03*
X192097710Y-204900000D03*
X189297710Y-204200000D03*
X181597710Y-212600000D03*
X187897710Y-222400000D03*
X187197710Y-219600000D03*
X193497710Y-224500000D03*
X192797710Y-223800000D03*
X189297710Y-210500000D03*
X178097710Y-204200000D03*
X191397710Y-203500000D03*
X193497710Y-222400000D03*
X183697710Y-220300000D03*
X178097710Y-213300000D03*
X180197710Y-211200000D03*
X185097710Y-208400000D03*
X184397710Y-204900000D03*
X186497710Y-201400000D03*
X192097710Y-217500000D03*
X187897710Y-220300000D03*
X181597710Y-223100000D03*
X178797710Y-209800000D03*
X189997710Y-214700000D03*
X184397710Y-221700000D03*
X194197710Y-207000000D03*
X181597710Y-225200000D03*
X192097710Y-221000000D03*
X192097710Y-211200000D03*
X180897710Y-203500000D03*
X187897710Y-210500000D03*
X187197710Y-211900000D03*
X185097710Y-216800000D03*
X180197710Y-204200000D03*
X183697710Y-200700000D03*
X186497710Y-207700000D03*
X193497710Y-214700000D03*
X187897710Y-202800000D03*
X192797710Y-222400000D03*
X187197710Y-216100000D03*
X179497710Y-209800000D03*
X180897710Y-223800000D03*
X188597710Y-215400000D03*
X178097710Y-224500000D03*
X192097710Y-215400000D03*
X179497710Y-217500000D03*
X189297710Y-216100000D03*
X188597710Y-201400000D03*
X178797710Y-225900000D03*
X192097710Y-201400000D03*
X193497710Y-213300000D03*
X184397710Y-209100000D03*
X185097710Y-200700000D03*
X191397710Y-201400000D03*
X184397710Y-213300000D03*
X181597710Y-209800000D03*
X181597710Y-209100000D03*
X192797710Y-207700000D03*
X192097710Y-216800000D03*
X184397710Y-223800000D03*
X194197710Y-210500000D03*
X185097710Y-207000000D03*
X187897710Y-223800000D03*
X187897710Y-221000000D03*
X185797710Y-211900000D03*
X178097710Y-225200000D03*
X187197710Y-211200000D03*
X182997710Y-206300000D03*
X189997710Y-207700000D03*
X180897710Y-206300000D03*
X187197710Y-223100000D03*
X192797710Y-214000000D03*
X191397710Y-220300000D03*
X192097710Y-214000000D03*
X194197710Y-207700000D03*
X188597710Y-223800000D03*
X182297710Y-221700000D03*
X188597710Y-211900000D03*
X185097710Y-222400000D03*
X187197710Y-217500000D03*
X182997710Y-220300000D03*
X185097710Y-225200000D03*
X181597710Y-203500000D03*
X185097710Y-209100000D03*
X189297710Y-225900000D03*
X178797710Y-207700000D03*
X187197710Y-225200000D03*
X191397710Y-212600000D03*
X193497710Y-212600000D03*
X185097710Y-207700000D03*
X183697710Y-209100000D03*
X182997710Y-204200000D03*
X180897710Y-213300000D03*
X184397710Y-211900000D03*
X178097710Y-223100000D03*
X194197710Y-223800000D03*
X191397710Y-213300000D03*
X192097710Y-209800000D03*
X181597710Y-213300000D03*
X181597710Y-201400000D03*
X180197710Y-214700000D03*
X189997710Y-211900000D03*
X181597710Y-200700000D03*
X186497710Y-224500000D03*
X188597710Y-203500000D03*
X184397710Y-225900000D03*
X178097710Y-207700000D03*
X191397710Y-209100000D03*
X188597710Y-200700000D03*
X186497710Y-208400000D03*
X187897710Y-214700000D03*
X181597710Y-223800000D03*
X188597710Y-219600000D03*
X182997710Y-200700000D03*
X179497710Y-216100000D03*
X186497710Y-223800000D03*
X187897710Y-225200000D03*
X182297710Y-218900000D03*
X185797710Y-212600000D03*
X187897710Y-221700000D03*
X194197710Y-211900000D03*
X192097710Y-221700000D03*
X194197710Y-203500000D03*
X183697710Y-204900000D03*
X187897710Y-212600000D03*
X187197710Y-210500000D03*
X180897710Y-207000000D03*
X179497710Y-208400000D03*
X182297710Y-204900000D03*
X182297710Y-206300000D03*
X187197710Y-216800000D03*
X185097710Y-216100000D03*
X186497710Y-211200000D03*
X193497710Y-219600000D03*
X183697710Y-223100000D03*
X186497710Y-221000000D03*
X193497710Y-208400000D03*
X188597710Y-224500000D03*
X186497710Y-222400000D03*
X178797710Y-207000000D03*
X178097710Y-208400000D03*
X180897710Y-208400000D03*
X179497710Y-202100000D03*
X194197710Y-221700000D03*
X178797710Y-216100000D03*
X180897710Y-211200000D03*
X192097710Y-207000000D03*
X181597710Y-208400000D03*
X188597710Y-211200000D03*
X188597710Y-222400000D03*
X192797710Y-211200000D03*
X192097710Y-216100000D03*
X180897710Y-217500000D03*
X180897710Y-211900000D03*
X181597710Y-216100000D03*
X183697710Y-214700000D03*
X188597710Y-218900000D03*
X187197710Y-212600000D03*
X192797710Y-221000000D03*
X189297710Y-222400000D03*
X185797710Y-220300000D03*
X184397710Y-208400000D03*
X191397710Y-223100000D03*
X182997710Y-210500000D03*
X178097710Y-209100000D03*
X180197710Y-216800000D03*
X182297710Y-216100000D03*
X189297710Y-221700000D03*
X192097710Y-206300000D03*
X187197710Y-225900000D03*
X189297710Y-223800000D03*
X187197710Y-222400000D03*
X182297710Y-214000000D03*
X183697710Y-211900000D03*
X189297710Y-201400000D03*
X191397710Y-209800000D03*
X187197710Y-202800000D03*
X187197710Y-204900000D03*
X189997710Y-215400000D03*
X185797710Y-224500000D03*
X191397710Y-207700000D03*
X180897710Y-214700000D03*
X192797710Y-208400000D03*
X185797710Y-206300000D03*
X193497710Y-225900000D03*
X189297710Y-206300000D03*
X187897710Y-211900000D03*
X178097710Y-201400000D03*
X188597710Y-216800000D03*
X187197710Y-207700000D03*
X189997710Y-212600000D03*
X181597710Y-207000000D03*
X189297710Y-202100000D03*
X194197710Y-212600000D03*
X184397710Y-201400000D03*
X180897710Y-202100000D03*
X180197710Y-209800000D03*
X182297710Y-224500000D03*
X179497710Y-213300000D03*
X178797710Y-211900000D03*
X187197710Y-202100000D03*
X188597710Y-204900000D03*
X184397710Y-200700000D03*
X192797710Y-223100000D03*
X189997710Y-223800000D03*
X187197710Y-220300000D03*
X184397710Y-223100000D03*
X186497710Y-209100000D03*
X179497710Y-225200000D03*
X180197710Y-210500000D03*
X182997710Y-207700000D03*
X180197710Y-200700000D03*
X186497710Y-211900000D03*
X192797710Y-220300000D03*
X178797710Y-206300000D03*
X181597710Y-214700000D03*
X180197710Y-203500000D03*
X180897710Y-204200000D03*
X182297710Y-221000000D03*
X180197710Y-201400000D03*
X187897710Y-206300000D03*
X180897710Y-209100000D03*
X192797710Y-214700000D03*
X193497710Y-206300000D03*
X186497710Y-202800000D03*
X182297710Y-223800000D03*
X192797710Y-216800000D03*
X180897710Y-225200000D03*
X191397710Y-214700000D03*
X189297710Y-209800000D03*
X180897710Y-222400000D03*
X183697710Y-201400000D03*
X189997710Y-203500000D03*
X185097710Y-224500000D03*
X192097710Y-223800000D03*
X183697710Y-211200000D03*
X178097710Y-222420654D03*
X182997710Y-215400000D03*
X179497710Y-207000000D03*
X183697710Y-217500000D03*
X180193125Y-222391312D03*
X187197710Y-204200000D03*
X189997710Y-209100000D03*
X184397710Y-209800000D03*
X185797710Y-213300000D03*
X193497710Y-209100000D03*
X181597710Y-215400000D03*
X194197710Y-214000000D03*
X178097710Y-207000000D03*
X192797710Y-207000000D03*
X182297710Y-202100000D03*
X194197710Y-223100000D03*
X192097710Y-218900000D03*
X187897710Y-215400000D03*
X182997710Y-225200000D03*
X188597710Y-209800000D03*
X189297710Y-204900000D03*
X189997710Y-211200000D03*
X182297710Y-200700000D03*
X181597710Y-211200000D03*
X192097710Y-210500000D03*
X181597710Y-216800000D03*
X182997710Y-214700000D03*
X192797710Y-225900000D03*
X187897710Y-216800000D03*
X186497710Y-214000000D03*
X187897710Y-216100000D03*
X188597710Y-207000000D03*
X194197710Y-216100000D03*
X191397710Y-202800000D03*
X182997710Y-201400000D03*
X180197710Y-215400000D03*
X178797710Y-216800000D03*
X178797710Y-212600000D03*
X193497710Y-202800000D03*
X185797710Y-210500000D03*
X185797710Y-222400000D03*
X192797710Y-221700000D03*
X184397710Y-207700000D03*
X185097710Y-201400000D03*
X189997710Y-217500000D03*
X187197710Y-214700000D03*
X185097710Y-203500000D03*
X192097710Y-208400000D03*
X185097710Y-220300000D03*
X188597710Y-202100000D03*
X191397710Y-222400000D03*
X179497710Y-203500000D03*
X191397710Y-202100000D03*
X185097710Y-219600000D03*
X188597710Y-225200000D03*
X180897710Y-215400000D03*
X194197710Y-204200000D03*
X185797710Y-225200000D03*
X187897710Y-203500000D03*
X180197710Y-223100000D03*
X192797710Y-217500000D03*
X178797710Y-223800000D03*
X178797710Y-204900000D03*
X194197710Y-224500000D03*
X178097710Y-217500000D03*
X194197710Y-220300000D03*
X192097710Y-212600000D03*
X181597710Y-225900000D03*
X186497710Y-223100000D03*
X178797710Y-222420654D03*
X184397710Y-214000000D03*
X193497710Y-201400000D03*
X185797710Y-216100000D03*
X192097710Y-204200000D03*
X189997710Y-201400000D03*
X192797710Y-213300000D03*
X182997710Y-203500000D03*
X182997710Y-211200000D03*
X185797710Y-214700000D03*
X185097710Y-209800000D03*
X182997710Y-222400000D03*
X189297710Y-221000000D03*
X193497710Y-225200000D03*
X185097710Y-221000000D03*
X179497710Y-209100000D03*
X189997710Y-209800000D03*
X178097710Y-216100000D03*
X184397710Y-219600000D03*
X179497710Y-211200000D03*
X185797710Y-207700000D03*
X185097710Y-210500000D03*
X179497710Y-202800000D03*
X189997710Y-216100000D03*
X185797710Y-202100000D03*
X192797710Y-219600000D03*
X187197710Y-213300000D03*
X191397710Y-211200000D03*
X192797710Y-204200000D03*
X186497710Y-204900000D03*
X185097710Y-214000000D03*
X192097710Y-224500000D03*
X178797710Y-215400000D03*
X180897710Y-225900000D03*
D30*
%TO.N,Net-(Cp1-Pad1)*%
X208497710Y-192500000D03*
X203600000Y-192500000D03*
X204497710Y-192500000D03*
X207497710Y-192500000D03*
X206497710Y-192500000D03*
X205497710Y-192500000D03*
X209497710Y-192500000D03*
D29*
%TO.N,+5V*%
X174997710Y-222720654D03*
X175497710Y-220020654D03*
X170616019Y-221202345D03*
X167469763Y-221191001D03*
%TO.N,Net-(D6-A)*%
X151082295Y-200520654D03*
X151082295Y-205020654D03*
%TO.N,Net-(U4-OT)*%
X169797710Y-220220654D03*
X166497710Y-220220654D03*
%TD*%
D31*
%TO.N,GND*%
X190697710Y-205606300D02*
X190697710Y-227100000D01*
X195591410Y-205606300D02*
X190697710Y-205606300D01*
X190697710Y-205606300D02*
X177104010Y-205606300D01*
X176906300Y-205606300D02*
X176900000Y-205600000D01*
X190697710Y-205606300D02*
X190697710Y-199300000D01*
X179397710Y-218206300D02*
X176904010Y-218206300D01*
X195700000Y-205300000D02*
X195393700Y-205606300D01*
X195904010Y-218206300D02*
X179397710Y-218206300D01*
X190697710Y-199300000D02*
X190597710Y-199200000D01*
X195997710Y-218300000D02*
X195904010Y-218206300D01*
D32*
X216495415Y-197541312D02*
X216495415Y-200618359D01*
D31*
X176904010Y-218206300D02*
X176897710Y-218200000D01*
D33*
X216495415Y-200618359D02*
X216497710Y-200620654D01*
%TO.N,+12V*%
X165872710Y-208895654D02*
X165997710Y-209020654D01*
X161603310Y-208895654D02*
X165872710Y-208895654D01*
D31*
X168997710Y-219220654D02*
X166497710Y-219220654D01*
D33*
%TO.N,/charge*%
X241000000Y-217000000D02*
X239500000Y-215500000D01*
X241000000Y-217500000D02*
X241000000Y-217000000D01*
D34*
X250312151Y-206881595D02*
X250312151Y-207088937D01*
X249497710Y-206067154D02*
X250312151Y-206881595D01*
D31*
%TO.N,+5V*%
X167499416Y-221220654D02*
X167469763Y-221191001D01*
X170616019Y-221202345D02*
X170597710Y-221220654D01*
X170597710Y-221220654D02*
X167499416Y-221220654D01*
X174997710Y-222720654D02*
X175497710Y-222220654D01*
X175497710Y-222220654D02*
X175497710Y-220020654D01*
%TO.N,Net-(D6-A)*%
X151082295Y-200520654D02*
X151082295Y-205020654D01*
%TO.N,Net-(U4-OT)*%
X169797710Y-220220654D02*
X166497710Y-220220654D01*
%TD*%
%TA.AperFunction,Conductor*%
%TO.N,Net-(Cp1-Pad1)*%
G36*
X204818537Y-189040339D02*
G01*
X204833747Y-189051858D01*
X204890915Y-189102529D01*
X205097406Y-189285551D01*
X205483279Y-189576877D01*
X205890820Y-189837029D01*
X206176258Y-189989132D01*
X206317505Y-190064400D01*
X206317508Y-190064401D01*
X206317515Y-190064405D01*
X206760735Y-190257601D01*
X207217746Y-190415427D01*
X207350859Y-190449981D01*
X207685723Y-190536907D01*
X207685728Y-190536908D01*
X207685732Y-190536909D01*
X208161806Y-190621300D01*
X208161814Y-190621300D01*
X208161822Y-190621302D01*
X208402420Y-190644689D01*
X208643034Y-190668078D01*
X209049040Y-190675533D01*
X209126439Y-190676955D01*
X209126441Y-190676954D01*
X209126449Y-190676955D01*
X209609070Y-190647877D01*
X209756564Y-190627284D01*
X209825681Y-190637510D01*
X209878298Y-190683479D01*
X209897710Y-190750093D01*
X209897710Y-192014561D01*
X209897113Y-192026715D01*
X209879692Y-192203588D01*
X209874950Y-192227429D01*
X209825134Y-192391652D01*
X209815831Y-192414110D01*
X209734937Y-192565452D01*
X209721432Y-192585664D01*
X209612564Y-192718320D01*
X209595376Y-192735508D01*
X209462720Y-192844376D01*
X209442508Y-192857881D01*
X209291166Y-192938775D01*
X209268708Y-192948078D01*
X209104485Y-192997894D01*
X209080644Y-193002636D01*
X208903771Y-193020057D01*
X208891617Y-193020654D01*
X204003803Y-193020654D01*
X203991649Y-193020057D01*
X203814775Y-193002636D01*
X203790934Y-192997894D01*
X203626711Y-192948078D01*
X203604253Y-192938775D01*
X203452911Y-192857881D01*
X203432699Y-192844376D01*
X203300043Y-192735508D01*
X203282855Y-192718320D01*
X203173987Y-192585664D01*
X203160482Y-192565452D01*
X203079588Y-192414110D01*
X203070285Y-192391652D01*
X203020467Y-192227423D01*
X203015728Y-192203595D01*
X202998307Y-192026715D01*
X202997710Y-192014561D01*
X202997710Y-190026746D01*
X202998307Y-190014592D01*
X203015728Y-189837710D01*
X203020467Y-189813886D01*
X203070287Y-189649648D01*
X203079585Y-189627203D01*
X203160485Y-189475849D01*
X203173982Y-189455649D01*
X203282859Y-189322982D01*
X203300038Y-189305803D01*
X203432705Y-189196926D01*
X203452905Y-189183429D01*
X203604259Y-189102529D01*
X203626704Y-189093231D01*
X203790942Y-189043411D01*
X203814766Y-189038672D01*
X203991649Y-189021251D01*
X204003803Y-189020654D01*
X204751498Y-189020654D01*
X204818537Y-189040339D01*
G37*
%TD.AperFunction*%
%TD*%
%TA.AperFunction,Conductor*%
%TO.N,/drain*%
G36*
X190249749Y-218616985D02*
G01*
X190295504Y-218669789D01*
X190306710Y-218721300D01*
X190306710Y-226096654D01*
X190287025Y-226163693D01*
X190234221Y-226209448D01*
X190182710Y-226220654D01*
X178254671Y-226220654D01*
X178240787Y-226219874D01*
X178094704Y-226203414D01*
X178067634Y-226197236D01*
X177935484Y-226150995D01*
X177910466Y-226138947D01*
X177791921Y-226064460D01*
X177770212Y-226047147D01*
X177671216Y-225948151D01*
X177653903Y-225926442D01*
X177579416Y-225807897D01*
X177567368Y-225782879D01*
X177521127Y-225650729D01*
X177514949Y-225623658D01*
X177498490Y-225477575D01*
X177497710Y-225463692D01*
X177497710Y-220212343D01*
X177506499Y-220171948D01*
X177505377Y-220171619D01*
X177507873Y-220163115D01*
X177507875Y-220163111D01*
X177528357Y-220020654D01*
X177507875Y-219878197D01*
X177507875Y-219878196D01*
X177505377Y-219869690D01*
X177506496Y-219869361D01*
X177497710Y-219828964D01*
X177497710Y-218721300D01*
X177517395Y-218654261D01*
X177570199Y-218608506D01*
X177621710Y-218597300D01*
X179346234Y-218597300D01*
X190182710Y-218597300D01*
X190249749Y-218616985D01*
G37*
%TD.AperFunction*%
%TA.AperFunction,Conductor*%
G36*
X194540749Y-218616985D02*
G01*
X194586504Y-218669789D01*
X194597710Y-218721300D01*
X194597710Y-225463692D01*
X194596930Y-225477576D01*
X194580470Y-225623659D01*
X194574292Y-225650729D01*
X194528051Y-225782879D01*
X194516003Y-225807897D01*
X194441516Y-225926442D01*
X194424203Y-225948151D01*
X194325207Y-226047147D01*
X194303498Y-226064460D01*
X194184953Y-226138947D01*
X194159935Y-226150995D01*
X194027785Y-226197236D01*
X194000715Y-226203414D01*
X193854633Y-226219874D01*
X193840749Y-226220654D01*
X191212710Y-226220654D01*
X191145671Y-226200969D01*
X191099916Y-226148165D01*
X191088710Y-226096654D01*
X191088710Y-218721300D01*
X191108395Y-218654261D01*
X191161199Y-218608506D01*
X191212710Y-218597300D01*
X194473710Y-218597300D01*
X194540749Y-218616985D01*
G37*
%TD.AperFunction*%
%TA.AperFunction,Conductor*%
G36*
X190249749Y-206016985D02*
G01*
X190295504Y-206069789D01*
X190306710Y-206121300D01*
X190306710Y-217691300D01*
X190287025Y-217758339D01*
X190234221Y-217804094D01*
X190182710Y-217815300D01*
X177621710Y-217815300D01*
X177554671Y-217795615D01*
X177508916Y-217742811D01*
X177497710Y-217691300D01*
X177497710Y-206121300D01*
X177517395Y-206054261D01*
X177570199Y-206008506D01*
X177621710Y-205997300D01*
X190182710Y-205997300D01*
X190249749Y-206016985D01*
G37*
%TD.AperFunction*%
%TA.AperFunction,Conductor*%
G36*
X194540749Y-206016985D02*
G01*
X194586504Y-206069789D01*
X194597710Y-206121300D01*
X194597710Y-217691300D01*
X194578025Y-217758339D01*
X194525221Y-217804094D01*
X194473710Y-217815300D01*
X191212710Y-217815300D01*
X191145671Y-217795615D01*
X191099916Y-217742811D01*
X191088710Y-217691300D01*
X191088710Y-206121300D01*
X191108395Y-206054261D01*
X191161199Y-206008506D01*
X191212710Y-205997300D01*
X194473710Y-205997300D01*
X194540749Y-206016985D01*
G37*
%TD.AperFunction*%
%TA.AperFunction,Conductor*%
G36*
X190249749Y-200419685D02*
G01*
X190295504Y-200472489D01*
X190306710Y-200524000D01*
X190306710Y-205091300D01*
X190287025Y-205158339D01*
X190234221Y-205204094D01*
X190182710Y-205215300D01*
X177621710Y-205215300D01*
X177554671Y-205195615D01*
X177508916Y-205142811D01*
X177497710Y-205091300D01*
X177497710Y-201156961D01*
X177498490Y-201143078D01*
X177514949Y-200996995D01*
X177521125Y-200969929D01*
X177567370Y-200837768D01*
X177579412Y-200812762D01*
X177653907Y-200694205D01*
X177671212Y-200672506D01*
X177770216Y-200573502D01*
X177791915Y-200556197D01*
X177910472Y-200481702D01*
X177935478Y-200469660D01*
X178067639Y-200423415D01*
X178094701Y-200417239D01*
X178238489Y-200401039D01*
X178240788Y-200400780D01*
X178254671Y-200400000D01*
X190182710Y-200400000D01*
X190249749Y-200419685D01*
G37*
%TD.AperFunction*%
%TA.AperFunction,Conductor*%
G36*
X192650946Y-200401039D02*
G01*
X192683377Y-200405263D01*
X192819069Y-200422937D01*
X192850024Y-200431138D01*
X192999437Y-200492303D01*
X193027260Y-200508164D01*
X193113643Y-200573506D01*
X193162479Y-200610447D01*
X193174625Y-200620937D01*
X194367774Y-201794493D01*
X194378675Y-201806734D01*
X194485015Y-201943359D01*
X194501525Y-201971595D01*
X194565238Y-202123626D01*
X194573792Y-202155198D01*
X194596627Y-202326817D01*
X194597710Y-202343172D01*
X194597710Y-205091300D01*
X194578025Y-205158339D01*
X194525221Y-205204094D01*
X194473710Y-205215300D01*
X191212710Y-205215300D01*
X191145671Y-205195615D01*
X191099916Y-205142811D01*
X191088710Y-205091300D01*
X191088710Y-200524000D01*
X191108395Y-200456961D01*
X191161199Y-200411206D01*
X191212710Y-200400000D01*
X192634931Y-200400000D01*
X192650946Y-200401039D01*
G37*
%TD.AperFunction*%
%TD*%
%TA.AperFunction,Conductor*%
%TO.N,GND*%
G36*
X257563990Y-193391842D02*
G01*
X257569523Y-193391982D01*
X258008382Y-193412894D01*
X258019424Y-193413917D01*
X258451928Y-193473624D01*
X258462828Y-193475630D01*
X258888266Y-193573788D01*
X258898937Y-193576759D01*
X259313884Y-193712578D01*
X259324256Y-193716495D01*
X259725381Y-193888882D01*
X259735359Y-193893710D01*
X260119472Y-194101295D01*
X260128976Y-194106996D01*
X260362810Y-194261885D01*
X260492960Y-194348095D01*
X260501932Y-194354634D01*
X260656954Y-194478618D01*
X260842885Y-194627321D01*
X260851233Y-194634633D01*
X261166443Y-194936741D01*
X261174091Y-194944758D01*
X261198801Y-194973099D01*
X261461010Y-195273846D01*
X261467924Y-195282533D01*
X261724245Y-195635951D01*
X261730355Y-195645222D01*
X261954037Y-196020155D01*
X261959293Y-196029935D01*
X262148541Y-196423375D01*
X262152901Y-196433586D01*
X262306197Y-196842377D01*
X262309626Y-196852937D01*
X262425739Y-197273796D01*
X262428210Y-197284621D01*
X262506213Y-197714185D01*
X262507706Y-197725187D01*
X262546971Y-198160013D01*
X262547473Y-198171104D01*
X262547687Y-198607689D01*
X262547195Y-198618782D01*
X262508108Y-199056390D01*
X262507491Y-199061908D01*
X260150823Y-216561102D01*
X260149920Y-216566801D01*
X260068002Y-217015942D01*
X260065406Y-217027184D01*
X259942876Y-217463992D01*
X259939246Y-217474943D01*
X259776658Y-217898453D01*
X259772027Y-217909020D01*
X259570767Y-218315611D01*
X259565173Y-218325701D01*
X259327008Y-218711807D01*
X259320501Y-218721334D01*
X259047473Y-219083645D01*
X259040108Y-219092526D01*
X258732650Y-219430021D01*
X258728666Y-219434195D01*
X253948916Y-224213945D01*
X253944204Y-224218417D01*
X253683647Y-224453007D01*
X253673553Y-224461180D01*
X253392519Y-224665317D01*
X253381625Y-224672389D01*
X253077974Y-224847630D01*
X253072264Y-224850729D01*
X252625588Y-225078199D01*
X252625139Y-225078426D01*
X252589626Y-225096330D01*
X252588778Y-225096753D01*
X252579100Y-225101534D01*
X252553160Y-225114348D01*
X252552711Y-225114569D01*
X250671851Y-226034228D01*
X250671335Y-226034478D01*
X250630291Y-226054312D01*
X250629251Y-226054809D01*
X250587918Y-226074311D01*
X250587397Y-226074555D01*
X248695382Y-226956539D01*
X248694955Y-226956737D01*
X248658588Y-226973485D01*
X248653531Y-226975814D01*
X248652485Y-226976290D01*
X248610903Y-226994974D01*
X248610377Y-226995209D01*
X246702046Y-227842042D01*
X246701519Y-227842274D01*
X246659831Y-227860542D01*
X246658778Y-227860998D01*
X246638430Y-227869690D01*
X246616971Y-227878858D01*
X246616598Y-227879017D01*
X244692694Y-228690361D01*
X244692162Y-228690583D01*
X244650195Y-228708052D01*
X244649132Y-228708489D01*
X244606929Y-228725599D01*
X244606395Y-228725814D01*
X242668130Y-229501162D01*
X242667596Y-229501374D01*
X242625124Y-229518136D01*
X242624051Y-229518554D01*
X242581539Y-229534877D01*
X242581001Y-229535082D01*
X240628682Y-230274319D01*
X240628143Y-230274522D01*
X240585365Y-230290493D01*
X240584286Y-230290890D01*
X240541549Y-230306396D01*
X240541007Y-230306591D01*
X238575176Y-231009508D01*
X238574636Y-231009700D01*
X238531653Y-231024846D01*
X238530621Y-231025204D01*
X238510326Y-231032143D01*
X238487583Y-231039920D01*
X238487040Y-231040104D01*
X236508499Y-231706414D01*
X236507953Y-231706597D01*
X236464703Y-231720939D01*
X236463609Y-231721296D01*
X236420096Y-231735278D01*
X236419548Y-231735452D01*
X234429172Y-232364861D01*
X234428624Y-232365033D01*
X234385122Y-232378568D01*
X234384021Y-232378905D01*
X234340460Y-232392016D01*
X234339908Y-232392181D01*
X232337994Y-232984598D01*
X232337441Y-232984760D01*
X232293687Y-232997487D01*
X232292582Y-232997803D01*
X232248857Y-233010083D01*
X232248302Y-233010238D01*
X230235588Y-233565436D01*
X230235035Y-233565587D01*
X230191144Y-233577476D01*
X230190030Y-233577772D01*
X230146044Y-233589249D01*
X230145487Y-233589393D01*
X228123055Y-234107075D01*
X228122497Y-234107217D01*
X228078203Y-234118336D01*
X228077084Y-234118611D01*
X228032734Y-234129307D01*
X228032176Y-234129440D01*
X226000489Y-234609494D01*
X225999928Y-234609625D01*
X225955581Y-234619886D01*
X225954480Y-234620135D01*
X225934964Y-234624461D01*
X225910175Y-234629955D01*
X225909614Y-234630078D01*
X223868966Y-235072426D01*
X223868402Y-235072546D01*
X223824056Y-235081943D01*
X223822933Y-235082176D01*
X223778247Y-235091214D01*
X223777680Y-235091327D01*
X221729508Y-235495654D01*
X221728943Y-235495764D01*
X221684341Y-235504354D01*
X221683212Y-235504567D01*
X221638249Y-235512795D01*
X221637681Y-235512897D01*
X219582557Y-235879104D01*
X219581989Y-235879204D01*
X219536953Y-235887013D01*
X219535819Y-235887204D01*
X219490994Y-235894549D01*
X219490426Y-235894641D01*
X217428642Y-236222673D01*
X217428075Y-236222762D01*
X217383009Y-236229718D01*
X217381870Y-236229888D01*
X217336750Y-236236424D01*
X217336180Y-236236505D01*
X215268842Y-236526186D01*
X215268272Y-236526265D01*
X215223099Y-236532381D01*
X215221962Y-236532529D01*
X215176782Y-236538221D01*
X215176207Y-236538293D01*
X213103499Y-236789594D01*
X213102927Y-236789661D01*
X213057859Y-236794913D01*
X213056717Y-236795041D01*
X213011398Y-236799897D01*
X213010824Y-236799957D01*
X210934026Y-237012721D01*
X210933456Y-237012778D01*
X210888149Y-237017208D01*
X210887001Y-237017315D01*
X210841797Y-237021311D01*
X210841224Y-237021361D01*
X208760499Y-237195568D01*
X208759924Y-237195614D01*
X208714748Y-237199185D01*
X208713604Y-237199271D01*
X208667938Y-237202456D01*
X208667361Y-237202494D01*
X206584253Y-237338018D01*
X206583679Y-237338054D01*
X206538202Y-237340801D01*
X206537055Y-237340865D01*
X206491775Y-237343179D01*
X206491198Y-237343208D01*
X204405503Y-237440065D01*
X204404928Y-237440090D01*
X204359508Y-237441988D01*
X204358360Y-237442031D01*
X204312745Y-237443514D01*
X204312168Y-237443531D01*
X202225442Y-237501647D01*
X202224869Y-237501662D01*
X202179221Y-237502722D01*
X202178070Y-237502743D01*
X202133539Y-237503363D01*
X202132638Y-237503376D01*
X202132068Y-237503383D01*
X200044401Y-237522758D01*
X200043827Y-237522762D01*
X199998287Y-237522974D01*
X199997133Y-237522974D01*
X199951592Y-237522762D01*
X199951018Y-237522758D01*
X197863351Y-237503383D01*
X197862788Y-237503376D01*
X197860827Y-237503348D01*
X197817349Y-237502743D01*
X197816198Y-237502722D01*
X197770550Y-237501662D01*
X197769977Y-237501647D01*
X195683251Y-237443531D01*
X195682674Y-237443514D01*
X195637059Y-237442031D01*
X195635911Y-237441988D01*
X195590491Y-237440090D01*
X195589916Y-237440065D01*
X193504221Y-237343208D01*
X193503644Y-237343179D01*
X193458364Y-237340865D01*
X193457217Y-237340801D01*
X193411740Y-237338054D01*
X193411166Y-237338018D01*
X191328058Y-237202494D01*
X191327481Y-237202456D01*
X191281815Y-237199271D01*
X191280671Y-237199185D01*
X191235495Y-237195614D01*
X191234920Y-237195568D01*
X189154195Y-237021361D01*
X189153622Y-237021311D01*
X189108418Y-237017315D01*
X189107270Y-237017208D01*
X189061963Y-237012778D01*
X189061393Y-237012721D01*
X186984595Y-236799957D01*
X186984021Y-236799897D01*
X186938702Y-236795041D01*
X186937560Y-236794913D01*
X186892492Y-236789661D01*
X186891920Y-236789594D01*
X184819212Y-236538293D01*
X184818637Y-236538221D01*
X184773457Y-236532529D01*
X184772320Y-236532381D01*
X184727147Y-236526265D01*
X184726577Y-236526186D01*
X182659239Y-236236505D01*
X182658669Y-236236424D01*
X182613549Y-236229888D01*
X182612410Y-236229718D01*
X182567344Y-236222762D01*
X182566777Y-236222673D01*
X180504993Y-235894641D01*
X180504425Y-235894549D01*
X180459600Y-235887204D01*
X180458466Y-235887013D01*
X180413430Y-235879204D01*
X180412862Y-235879104D01*
X178357738Y-235512897D01*
X178357213Y-235512802D01*
X178312207Y-235504567D01*
X178311078Y-235504354D01*
X178266476Y-235495764D01*
X178265911Y-235495654D01*
X176217739Y-235091327D01*
X176217236Y-235091226D01*
X176195463Y-235086823D01*
X176172486Y-235082176D01*
X176171363Y-235081943D01*
X176127017Y-235072546D01*
X176126453Y-235072426D01*
X174085805Y-234630078D01*
X174085244Y-234629955D01*
X174040897Y-234620126D01*
X174039838Y-234619886D01*
X173995491Y-234609625D01*
X173994930Y-234609494D01*
X171963243Y-234129440D01*
X171962685Y-234129307D01*
X171918335Y-234118611D01*
X171917216Y-234118336D01*
X171872922Y-234107217D01*
X171872364Y-234107075D01*
X169849932Y-233589393D01*
X169849472Y-233589274D01*
X169829654Y-233584103D01*
X169805389Y-233577772D01*
X169804275Y-233577476D01*
X169760384Y-233565587D01*
X169759831Y-233565436D01*
X167747117Y-233010238D01*
X167746562Y-233010083D01*
X167702837Y-232997803D01*
X167701732Y-232997487D01*
X167657978Y-232984760D01*
X167657425Y-232984598D01*
X165655511Y-232392181D01*
X165654959Y-232392016D01*
X165611398Y-232378905D01*
X165610297Y-232378568D01*
X165566795Y-232365033D01*
X165566247Y-232364861D01*
X163575871Y-231735452D01*
X163575323Y-231735278D01*
X163531810Y-231721296D01*
X163530782Y-231720960D01*
X163505947Y-231712725D01*
X163487466Y-231706597D01*
X163486920Y-231706414D01*
X161508379Y-231040104D01*
X161507836Y-231039920D01*
X161507391Y-231039768D01*
X161464730Y-231025180D01*
X161463832Y-231024868D01*
X161438720Y-231016020D01*
X161420783Y-231009700D01*
X161420243Y-231009508D01*
X159454412Y-230306591D01*
X159454028Y-230306452D01*
X159428550Y-230297209D01*
X159411133Y-230290890D01*
X159410054Y-230290493D01*
X159367276Y-230274522D01*
X159366737Y-230274319D01*
X157414418Y-229535082D01*
X157413880Y-229534877D01*
X157404736Y-229531366D01*
X157371316Y-229518533D01*
X157370295Y-229518136D01*
X157327823Y-229501374D01*
X157327289Y-229501162D01*
X155389024Y-228725814D01*
X155388490Y-228725599D01*
X155346287Y-228708489D01*
X155345224Y-228708052D01*
X155303257Y-228690583D01*
X155302725Y-228690361D01*
X153378821Y-227879017D01*
X153378625Y-227878934D01*
X153336629Y-227860993D01*
X153335588Y-227860542D01*
X153293900Y-227842274D01*
X153293373Y-227842042D01*
X151385042Y-226995209D01*
X151384516Y-226994974D01*
X151342934Y-226976290D01*
X151341962Y-226975847D01*
X151300323Y-226956672D01*
X149408017Y-226074552D01*
X149407501Y-226074311D01*
X149366168Y-226054809D01*
X149365128Y-226054312D01*
X149324084Y-226034478D01*
X149323568Y-226034228D01*
X147442708Y-225114569D01*
X147442259Y-225114348D01*
X147431470Y-225109019D01*
X147406549Y-225096707D01*
X147405858Y-225096362D01*
X147388934Y-225087830D01*
X147370280Y-225078426D01*
X147369831Y-225078199D01*
X146923156Y-224850729D01*
X146917454Y-224847634D01*
X146613794Y-224672389D01*
X146602900Y-224665317D01*
X146321866Y-224461180D01*
X146311772Y-224453007D01*
X146051215Y-224218417D01*
X146046503Y-224213945D01*
X144553212Y-222720654D01*
X174492063Y-222720654D01*
X174512544Y-222863110D01*
X174572332Y-222994025D01*
X174572333Y-222994027D01*
X174666582Y-223102797D01*
X174787657Y-223180607D01*
X174787660Y-223180608D01*
X174787659Y-223180608D01*
X174925746Y-223221153D01*
X174925748Y-223221154D01*
X174925749Y-223221154D01*
X175069672Y-223221154D01*
X175069672Y-223221153D01*
X175207763Y-223180607D01*
X175328838Y-223102797D01*
X175423087Y-222994027D01*
X175482875Y-222863111D01*
X175489538Y-222816760D01*
X175518561Y-222753206D01*
X175524566Y-222746754D01*
X175810588Y-222460734D01*
X175862064Y-222371574D01*
X175888711Y-222272130D01*
X175888711Y-222169178D01*
X175888711Y-222161583D01*
X175888710Y-222161565D01*
X175888710Y-220379949D01*
X175908395Y-220312910D01*
X175918996Y-220298747D01*
X175923087Y-220294027D01*
X175982875Y-220163111D01*
X176003357Y-220020654D01*
X175982875Y-219878197D01*
X175923087Y-219747281D01*
X175828838Y-219638511D01*
X175707763Y-219560701D01*
X175707761Y-219560700D01*
X175707759Y-219560699D01*
X175707760Y-219560699D01*
X175569673Y-219520154D01*
X175569671Y-219520154D01*
X175425749Y-219520154D01*
X175425746Y-219520154D01*
X175287659Y-219560699D01*
X175166583Y-219638510D01*
X175072333Y-219747280D01*
X175072332Y-219747282D01*
X175012544Y-219878197D01*
X174992063Y-220020654D01*
X175012544Y-220163110D01*
X175021544Y-220182816D01*
X175072333Y-220294027D01*
X175076420Y-220298744D01*
X175105447Y-220362298D01*
X175106710Y-220379949D01*
X175106710Y-222007334D01*
X175087025Y-222074373D01*
X175070395Y-222095010D01*
X175003841Y-222161565D01*
X174975739Y-222189667D01*
X174922993Y-222220962D01*
X174787659Y-222260699D01*
X174666583Y-222338510D01*
X174572333Y-222447280D01*
X174572332Y-222447282D01*
X174512544Y-222578197D01*
X174492063Y-222720654D01*
X144553212Y-222720654D01*
X141266753Y-219434195D01*
X141262769Y-219430021D01*
X141072036Y-219220654D01*
X165992063Y-219220654D01*
X166012544Y-219363110D01*
X166014797Y-219368043D01*
X166072333Y-219494027D01*
X166166582Y-219602797D01*
X166166584Y-219602798D01*
X166187653Y-219616339D01*
X166233408Y-219669143D01*
X166243351Y-219738302D01*
X166214325Y-219801857D01*
X166187653Y-219824969D01*
X166166584Y-219838509D01*
X166072333Y-219947280D01*
X166072332Y-219947282D01*
X166012544Y-220078197D01*
X165992063Y-220220654D01*
X166012544Y-220363110D01*
X166061659Y-220470654D01*
X166072333Y-220494027D01*
X166166582Y-220602797D01*
X166287657Y-220680607D01*
X166287660Y-220680608D01*
X166287659Y-220680608D01*
X166425746Y-220721153D01*
X166425748Y-220721154D01*
X166425749Y-220721154D01*
X166569672Y-220721154D01*
X166569672Y-220721153D01*
X166682561Y-220688007D01*
X166707760Y-220680608D01*
X166707761Y-220680608D01*
X166707763Y-220680607D01*
X166784425Y-220631338D01*
X166851465Y-220611654D01*
X167037992Y-220611654D01*
X167105031Y-220631339D01*
X167150786Y-220684143D01*
X167160730Y-220753301D01*
X167131706Y-220816854D01*
X167044386Y-220917628D01*
X167044385Y-220917629D01*
X166984597Y-221048544D01*
X166964116Y-221191001D01*
X166984597Y-221333457D01*
X167044385Y-221464372D01*
X167044386Y-221464374D01*
X167138635Y-221573144D01*
X167259710Y-221650954D01*
X167259713Y-221650955D01*
X167259712Y-221650955D01*
X167397799Y-221691500D01*
X167397801Y-221691501D01*
X167397802Y-221691501D01*
X167541725Y-221691501D01*
X167541725Y-221691500D01*
X167679813Y-221650955D01*
X167679814Y-221650955D01*
X167679816Y-221650954D01*
X167710337Y-221631338D01*
X167777376Y-221611654D01*
X170290753Y-221611654D01*
X170357790Y-221631337D01*
X170405966Y-221662298D01*
X170405967Y-221662298D01*
X170405970Y-221662300D01*
X170544055Y-221702844D01*
X170544057Y-221702845D01*
X170544058Y-221702845D01*
X170687981Y-221702845D01*
X170687981Y-221702844D01*
X170795140Y-221671380D01*
X170826069Y-221662299D01*
X170826069Y-221662298D01*
X170826072Y-221662298D01*
X170947147Y-221584488D01*
X171041396Y-221475718D01*
X171101184Y-221344802D01*
X171121666Y-221202345D01*
X171101184Y-221059888D01*
X171041396Y-220928972D01*
X170947147Y-220820202D01*
X170826072Y-220742392D01*
X170826070Y-220742391D01*
X170826068Y-220742390D01*
X170826069Y-220742390D01*
X170687982Y-220701845D01*
X170687980Y-220701845D01*
X170544058Y-220701845D01*
X170544055Y-220701845D01*
X170405968Y-220742390D01*
X170405963Y-220742392D01*
X170300813Y-220809969D01*
X170233774Y-220829654D01*
X170198147Y-220829654D01*
X170131108Y-220809969D01*
X170085353Y-220757165D01*
X170075409Y-220688007D01*
X170104434Y-220624451D01*
X170122384Y-220608897D01*
X170122133Y-220608607D01*
X170128830Y-220602801D01*
X170128838Y-220602797D01*
X170223087Y-220494027D01*
X170282875Y-220363111D01*
X170303357Y-220220654D01*
X170282875Y-220078197D01*
X170223087Y-219947281D01*
X170128838Y-219838511D01*
X170007763Y-219760701D01*
X170007761Y-219760700D01*
X170007759Y-219760699D01*
X170007760Y-219760699D01*
X169869673Y-219720154D01*
X169869671Y-219720154D01*
X169725749Y-219720154D01*
X169725746Y-219720154D01*
X169587659Y-219760699D01*
X169587658Y-219760699D01*
X169526404Y-219800065D01*
X169510994Y-219809969D01*
X169443955Y-219829654D01*
X169398147Y-219829654D01*
X169331108Y-219809969D01*
X169285353Y-219757165D01*
X169275409Y-219688007D01*
X169304434Y-219624451D01*
X169322384Y-219608897D01*
X169322133Y-219608607D01*
X169328830Y-219602801D01*
X169328838Y-219602797D01*
X169423087Y-219494027D01*
X169482875Y-219363111D01*
X169503357Y-219220654D01*
X169482875Y-219078197D01*
X169423087Y-218947281D01*
X169328838Y-218838511D01*
X169207763Y-218760701D01*
X169207761Y-218760700D01*
X169207759Y-218760699D01*
X169207760Y-218760699D01*
X169073586Y-218721303D01*
X177292210Y-218721303D01*
X177292210Y-219828969D01*
X177296904Y-219872637D01*
X177303516Y-219903041D01*
X177305086Y-219911746D01*
X177318206Y-220003008D01*
X177318206Y-220038299D01*
X177305080Y-220129600D01*
X177303508Y-220138314D01*
X177296908Y-220168648D01*
X177296907Y-220168653D01*
X177292210Y-220212337D01*
X177292210Y-225463690D01*
X177292533Y-225475207D01*
X177292534Y-225475219D01*
X177292534Y-225475220D01*
X177293314Y-225489103D01*
X177294282Y-225500583D01*
X177294284Y-225500605D01*
X177294285Y-225500611D01*
X177310737Y-225646644D01*
X177310741Y-225646673D01*
X177314600Y-225669381D01*
X177314601Y-225669388D01*
X177320778Y-225696452D01*
X177327159Y-225718601D01*
X177373400Y-225850751D01*
X177373406Y-225850767D01*
X177373407Y-225850768D01*
X177382213Y-225872029D01*
X177382217Y-225872038D01*
X177382219Y-225872042D01*
X177394267Y-225897060D01*
X177405414Y-225917230D01*
X177479901Y-226035775D01*
X177493239Y-226054572D01*
X177493248Y-226054583D01*
X177510540Y-226076267D01*
X177510552Y-226076281D01*
X177525904Y-226093459D01*
X177624903Y-226192458D01*
X177642081Y-226207810D01*
X177642095Y-226207822D01*
X177655003Y-226218115D01*
X177663791Y-226225124D01*
X177682588Y-226238462D01*
X177801133Y-226312949D01*
X177821303Y-226324096D01*
X177846321Y-226336144D01*
X177846361Y-226336160D01*
X177846362Y-226336161D01*
X177848139Y-226336898D01*
X177867714Y-226347136D01*
X177887657Y-226359953D01*
X177887659Y-226359953D01*
X177887660Y-226359954D01*
X177887662Y-226359955D01*
X177994089Y-226391204D01*
X178025749Y-226400500D01*
X178025753Y-226400500D01*
X178034526Y-226401762D01*
X178034484Y-226402051D01*
X178047264Y-226403492D01*
X178047268Y-226403472D01*
X178047277Y-226403473D01*
X178047287Y-226403426D01*
X178048081Y-226403584D01*
X178048308Y-226403609D01*
X178048980Y-226403763D01*
X178062302Y-226406026D01*
X178071687Y-226407621D01*
X178071715Y-226407625D01*
X178162282Y-226417829D01*
X178217778Y-226424082D01*
X178229260Y-226425050D01*
X178243144Y-226425830D01*
X178254671Y-226426154D01*
X178254673Y-226426154D01*
X190182701Y-226426154D01*
X190182710Y-226426154D01*
X190226394Y-226421457D01*
X190255585Y-226415106D01*
X190277884Y-226410256D01*
X190277900Y-226410252D01*
X190277905Y-226410251D01*
X190288083Y-226407764D01*
X190368795Y-226364754D01*
X190421599Y-226318999D01*
X190439553Y-226301408D01*
X190484200Y-226221591D01*
X190503885Y-226154552D01*
X190512210Y-226096654D01*
X190512210Y-218721303D01*
X190883210Y-218721303D01*
X190883210Y-226096661D01*
X190887907Y-226140340D01*
X190899107Y-226191828D01*
X190901600Y-226202026D01*
X190901601Y-226202029D01*
X190944609Y-226282737D01*
X190944611Y-226282740D01*
X190990370Y-226335549D01*
X191007952Y-226353493D01*
X191007956Y-226353497D01*
X191007957Y-226353498D01*
X191007959Y-226353499D01*
X191087769Y-226398142D01*
X191087773Y-226398144D01*
X191154812Y-226417829D01*
X191212710Y-226426154D01*
X191212714Y-226426154D01*
X193840747Y-226426154D01*
X193840749Y-226426154D01*
X193852276Y-226425830D01*
X193866160Y-226425050D01*
X193877642Y-226424082D01*
X193934895Y-226417630D01*
X194023703Y-226407625D01*
X194023731Y-226407621D01*
X194026938Y-226407075D01*
X194046439Y-226403763D01*
X194073509Y-226397585D01*
X194095657Y-226391204D01*
X194227807Y-226344963D01*
X194249098Y-226336144D01*
X194274116Y-226324096D01*
X194294286Y-226312949D01*
X194412831Y-226238462D01*
X194431628Y-226225124D01*
X194453337Y-226207811D01*
X194470517Y-226192457D01*
X194569513Y-226093461D01*
X194584867Y-226076281D01*
X194602180Y-226054572D01*
X194615518Y-226035775D01*
X194690005Y-225917230D01*
X194701152Y-225897060D01*
X194713200Y-225872042D01*
X194722019Y-225850751D01*
X194768260Y-225718601D01*
X194774641Y-225696453D01*
X194780819Y-225669383D01*
X194784678Y-225646668D01*
X194784678Y-225646666D01*
X194784681Y-225646647D01*
X194801135Y-225500608D01*
X194801138Y-225500585D01*
X194802106Y-225489103D01*
X194802886Y-225475219D01*
X194803210Y-225463692D01*
X194803210Y-220470654D01*
X230392488Y-220470654D01*
X230411354Y-220758491D01*
X230411356Y-220758503D01*
X230467627Y-221041399D01*
X230467631Y-221041414D01*
X230560352Y-221314559D01*
X230687929Y-221573260D01*
X230687933Y-221573267D01*
X230848188Y-221813106D01*
X231038382Y-222029981D01*
X231255257Y-222220175D01*
X231432358Y-222338510D01*
X231495099Y-222380432D01*
X231753808Y-222508013D01*
X232026957Y-222600735D01*
X232309871Y-222657010D01*
X232597710Y-222675876D01*
X232885549Y-222657010D01*
X233168463Y-222600735D01*
X233441612Y-222508013D01*
X233700321Y-222380432D01*
X233940164Y-222220174D01*
X234157037Y-222029981D01*
X234347230Y-221813108D01*
X234507488Y-221573265D01*
X234635069Y-221314556D01*
X234727791Y-221041407D01*
X234784066Y-220758493D01*
X234802932Y-220470654D01*
X239192488Y-220470654D01*
X239211354Y-220758491D01*
X239211356Y-220758503D01*
X239267627Y-221041399D01*
X239267631Y-221041414D01*
X239360352Y-221314559D01*
X239487929Y-221573260D01*
X239487933Y-221573267D01*
X239648188Y-221813106D01*
X239838382Y-222029981D01*
X240055257Y-222220175D01*
X240232358Y-222338510D01*
X240295099Y-222380432D01*
X240553808Y-222508013D01*
X240826957Y-222600735D01*
X241109871Y-222657010D01*
X241397710Y-222675876D01*
X241685549Y-222657010D01*
X241968463Y-222600735D01*
X242241612Y-222508013D01*
X242500321Y-222380432D01*
X242740164Y-222220174D01*
X242957037Y-222029981D01*
X243147230Y-221813108D01*
X243307488Y-221573265D01*
X243435069Y-221314556D01*
X243527791Y-221041407D01*
X243584066Y-220758493D01*
X243602932Y-220470654D01*
X243584066Y-220182815D01*
X243527791Y-219899901D01*
X243435069Y-219626752D01*
X243307488Y-219368043D01*
X243147230Y-219128200D01*
X243108156Y-219083645D01*
X242957037Y-218911326D01*
X242740162Y-218721132D01*
X242500323Y-218560877D01*
X242500316Y-218560873D01*
X242241615Y-218433296D01*
X241968470Y-218340575D01*
X241968464Y-218340573D01*
X241968463Y-218340573D01*
X241968461Y-218340572D01*
X241968455Y-218340571D01*
X241685559Y-218284300D01*
X241685549Y-218284298D01*
X241397710Y-218265432D01*
X241109871Y-218284298D01*
X241109865Y-218284299D01*
X241109860Y-218284300D01*
X240826964Y-218340571D01*
X240826949Y-218340575D01*
X240553804Y-218433296D01*
X240295103Y-218560873D01*
X240295096Y-218560877D01*
X240055257Y-218721132D01*
X239838382Y-218911326D01*
X239648188Y-219128201D01*
X239487933Y-219368040D01*
X239487929Y-219368047D01*
X239360352Y-219626748D01*
X239267631Y-219899893D01*
X239267627Y-219899908D01*
X239211356Y-220182804D01*
X239211354Y-220182816D01*
X239192488Y-220470654D01*
X234802932Y-220470654D01*
X234784066Y-220182815D01*
X234727791Y-219899901D01*
X234635069Y-219626752D01*
X234507488Y-219368043D01*
X234347230Y-219128200D01*
X234308156Y-219083645D01*
X234157037Y-218911326D01*
X233940162Y-218721132D01*
X233700323Y-218560877D01*
X233700316Y-218560873D01*
X233441615Y-218433296D01*
X233168470Y-218340575D01*
X233168464Y-218340573D01*
X233168463Y-218340573D01*
X233168461Y-218340572D01*
X233168455Y-218340571D01*
X232885559Y-218284300D01*
X232885549Y-218284298D01*
X232597710Y-218265432D01*
X232309871Y-218284298D01*
X232309865Y-218284299D01*
X232309860Y-218284300D01*
X232026964Y-218340571D01*
X232026949Y-218340575D01*
X231753804Y-218433296D01*
X231495103Y-218560873D01*
X231495096Y-218560877D01*
X231255257Y-218721132D01*
X231038382Y-218911326D01*
X230848188Y-219128201D01*
X230687933Y-219368040D01*
X230687929Y-219368047D01*
X230560352Y-219626748D01*
X230467631Y-219899893D01*
X230467627Y-219899908D01*
X230411356Y-220182804D01*
X230411354Y-220182816D01*
X230392488Y-220470654D01*
X194803210Y-220470654D01*
X194803210Y-218721300D01*
X194798513Y-218677616D01*
X194794607Y-218659664D01*
X194787312Y-218626125D01*
X194787058Y-218625089D01*
X194784820Y-218615927D01*
X194741810Y-218535215D01*
X194696055Y-218482411D01*
X194696049Y-218482404D01*
X194678467Y-218464460D01*
X194678466Y-218464459D01*
X194678464Y-218464457D01*
X194678462Y-218464456D01*
X194678460Y-218464454D01*
X194598650Y-218419811D01*
X194598645Y-218419809D01*
X194531613Y-218400126D01*
X194531609Y-218400125D01*
X194531608Y-218400125D01*
X194473710Y-218391800D01*
X191212710Y-218391800D01*
X191212702Y-218391800D01*
X191169023Y-218396497D01*
X191117535Y-218407697D01*
X191107337Y-218410190D01*
X191107334Y-218410191D01*
X191026626Y-218453199D01*
X191026623Y-218453201D01*
X190973814Y-218498960D01*
X190955870Y-218516542D01*
X190955864Y-218516549D01*
X190911221Y-218596359D01*
X190911219Y-218596364D01*
X190891536Y-218663396D01*
X190891535Y-218663401D01*
X190891535Y-218663402D01*
X190883212Y-218721292D01*
X190883210Y-218721303D01*
X190512210Y-218721303D01*
X190512210Y-218721300D01*
X190507513Y-218677616D01*
X190503607Y-218659664D01*
X190496312Y-218626125D01*
X190496058Y-218625089D01*
X190493820Y-218615927D01*
X190450810Y-218535215D01*
X190405055Y-218482411D01*
X190405049Y-218482404D01*
X190387467Y-218464460D01*
X190387466Y-218464459D01*
X190387464Y-218464457D01*
X190387462Y-218464456D01*
X190387460Y-218464454D01*
X190307650Y-218419811D01*
X190307645Y-218419809D01*
X190240613Y-218400126D01*
X190240609Y-218400125D01*
X190240608Y-218400125D01*
X190182710Y-218391800D01*
X177621710Y-218391800D01*
X177621702Y-218391800D01*
X177578023Y-218396497D01*
X177526535Y-218407697D01*
X177516337Y-218410190D01*
X177516334Y-218410191D01*
X177435626Y-218453199D01*
X177435623Y-218453201D01*
X177382814Y-218498960D01*
X177364870Y-218516542D01*
X177364864Y-218516549D01*
X177320221Y-218596359D01*
X177320219Y-218596364D01*
X177300536Y-218663396D01*
X177300535Y-218663401D01*
X177300535Y-218663402D01*
X177292212Y-218721292D01*
X177292210Y-218721303D01*
X169073586Y-218721303D01*
X169069673Y-218720154D01*
X169069671Y-218720154D01*
X168925749Y-218720154D01*
X168925746Y-218720154D01*
X168787659Y-218760699D01*
X168787658Y-218760699D01*
X168726404Y-218800065D01*
X168710994Y-218809969D01*
X168643955Y-218829654D01*
X166851465Y-218829654D01*
X166784426Y-218809969D01*
X166759637Y-218794039D01*
X166707761Y-218760699D01*
X166569673Y-218720154D01*
X166569671Y-218720154D01*
X166425749Y-218720154D01*
X166425746Y-218720154D01*
X166287659Y-218760699D01*
X166166583Y-218838510D01*
X166072333Y-218947280D01*
X166072332Y-218947282D01*
X166012544Y-219078197D01*
X165992063Y-219220654D01*
X141072036Y-219220654D01*
X140955311Y-219092526D01*
X140947946Y-219083645D01*
X140674918Y-218721334D01*
X140668411Y-218711807D01*
X140430246Y-218325701D01*
X140424652Y-218315611D01*
X140394415Y-218254526D01*
X140223387Y-217909009D01*
X140218766Y-217898465D01*
X140056173Y-217474943D01*
X140052543Y-217463992D01*
X139996281Y-217263422D01*
X139930010Y-217027171D01*
X139927420Y-217015955D01*
X139845493Y-216566767D01*
X139844601Y-216561137D01*
X138812268Y-208895654D01*
X161097663Y-208895654D01*
X161118144Y-209038110D01*
X161177932Y-209169025D01*
X161177933Y-209169027D01*
X161272182Y-209277797D01*
X161393257Y-209355607D01*
X161393260Y-209355608D01*
X161393259Y-209355608D01*
X161531346Y-209396153D01*
X161531348Y-209396154D01*
X161531349Y-209396154D01*
X161675272Y-209396154D01*
X161675272Y-209396153D01*
X161725023Y-209381545D01*
X161814830Y-209355177D01*
X161849764Y-209350154D01*
X165105416Y-209350154D01*
X165172455Y-209369839D01*
X165212803Y-209412154D01*
X165285514Y-209538092D01*
X165285513Y-209538092D01*
X165408659Y-209674860D01*
X165408661Y-209674862D01*
X165557544Y-209783032D01*
X165557545Y-209783032D01*
X165557549Y-209783035D01*
X165694663Y-209844082D01*
X165725671Y-209857888D01*
X165725676Y-209857890D01*
X165905691Y-209896154D01*
X166089729Y-209896154D01*
X166269744Y-209857890D01*
X166437871Y-209783035D01*
X166586760Y-209674861D01*
X166709905Y-209538094D01*
X166801924Y-209378713D01*
X166858795Y-209203683D01*
X166878032Y-209020654D01*
X166858795Y-208837625D01*
X166801924Y-208662595D01*
X166709905Y-208503214D01*
X166586760Y-208366447D01*
X166586759Y-208366446D01*
X166586758Y-208366445D01*
X166437875Y-208258275D01*
X166437872Y-208258273D01*
X166437871Y-208258273D01*
X166376822Y-208231092D01*
X166269748Y-208183419D01*
X166269743Y-208183417D01*
X166089729Y-208145154D01*
X165905691Y-208145154D01*
X165725676Y-208183417D01*
X165725671Y-208183419D01*
X165557549Y-208258273D01*
X165557544Y-208258275D01*
X165408661Y-208366445D01*
X165408660Y-208366446D01*
X165390326Y-208386809D01*
X165378335Y-208400125D01*
X165318851Y-208436774D01*
X165286186Y-208441154D01*
X161849764Y-208441154D01*
X161814830Y-208436131D01*
X161675273Y-208395154D01*
X161675271Y-208395154D01*
X161531349Y-208395154D01*
X161531346Y-208395154D01*
X161393259Y-208435699D01*
X161272183Y-208513510D01*
X161177933Y-208622280D01*
X161177932Y-208622282D01*
X161118144Y-208753197D01*
X161097663Y-208895654D01*
X138812268Y-208895654D01*
X138438638Y-206121303D01*
X177292210Y-206121303D01*
X177292210Y-217691307D01*
X177296907Y-217734986D01*
X177308107Y-217786474D01*
X177310600Y-217796672D01*
X177310601Y-217796675D01*
X177353609Y-217877383D01*
X177353611Y-217877386D01*
X177399370Y-217930195D01*
X177416952Y-217948139D01*
X177416956Y-217948143D01*
X177416957Y-217948144D01*
X177416959Y-217948145D01*
X177496769Y-217992788D01*
X177496773Y-217992790D01*
X177563812Y-218012475D01*
X177621710Y-218020800D01*
X177621714Y-218020800D01*
X190182701Y-218020800D01*
X190182710Y-218020800D01*
X190226394Y-218016103D01*
X190255585Y-218009752D01*
X190277884Y-218004902D01*
X190277900Y-218004898D01*
X190277905Y-218004897D01*
X190288083Y-218002410D01*
X190368795Y-217959400D01*
X190421599Y-217913645D01*
X190439553Y-217896054D01*
X190484200Y-217816237D01*
X190503885Y-217749198D01*
X190512210Y-217691300D01*
X190512210Y-206121303D01*
X190883210Y-206121303D01*
X190883210Y-217691307D01*
X190887907Y-217734986D01*
X190899107Y-217786474D01*
X190901600Y-217796672D01*
X190901601Y-217796675D01*
X190944609Y-217877383D01*
X190944611Y-217877386D01*
X190990370Y-217930195D01*
X191007952Y-217948139D01*
X191007956Y-217948143D01*
X191007957Y-217948144D01*
X191007959Y-217948145D01*
X191087769Y-217992788D01*
X191087773Y-217992790D01*
X191154812Y-218012475D01*
X191212710Y-218020800D01*
X191212714Y-218020800D01*
X194473701Y-218020800D01*
X194473710Y-218020800D01*
X194517394Y-218016103D01*
X194546585Y-218009752D01*
X194568884Y-218004902D01*
X194568900Y-218004898D01*
X194568905Y-218004897D01*
X194579083Y-218002410D01*
X194659795Y-217959400D01*
X194712599Y-217913645D01*
X194730553Y-217896054D01*
X194775200Y-217816237D01*
X194794885Y-217749198D01*
X194803210Y-217691300D01*
X194803210Y-215500000D01*
X238994353Y-215500000D01*
X239014834Y-215642456D01*
X239074622Y-215773371D01*
X239074623Y-215773373D01*
X239168872Y-215882143D01*
X239289947Y-215959953D01*
X239298149Y-215962361D01*
X239350898Y-215993658D01*
X240509181Y-217151941D01*
X240542666Y-217213264D01*
X240545500Y-217239622D01*
X240545500Y-217263422D01*
X240534294Y-217314932D01*
X240514835Y-217357543D01*
X240514834Y-217357543D01*
X240494353Y-217500000D01*
X240514834Y-217642456D01*
X240563585Y-217749203D01*
X240574623Y-217773373D01*
X240668872Y-217882143D01*
X240789947Y-217959953D01*
X240789950Y-217959954D01*
X240789949Y-217959954D01*
X240928036Y-218000499D01*
X240928038Y-218000500D01*
X240928039Y-218000500D01*
X241071962Y-218000500D01*
X241071962Y-218000499D01*
X241210053Y-217959953D01*
X241331128Y-217882143D01*
X241425377Y-217773373D01*
X241485165Y-217642457D01*
X241505647Y-217500000D01*
X241485165Y-217357543D01*
X241465705Y-217314932D01*
X241454500Y-217263422D01*
X241454500Y-216940166D01*
X241454500Y-216940164D01*
X241423527Y-216824569D01*
X241363691Y-216720930D01*
X241279070Y-216636309D01*
X241279069Y-216636308D01*
X241274739Y-216631978D01*
X241274728Y-216631968D01*
X239988259Y-215345499D01*
X239963146Y-215309329D01*
X239925379Y-215226630D01*
X239925376Y-215226626D01*
X239831128Y-215117857D01*
X239710053Y-215040047D01*
X239710051Y-215040046D01*
X239710049Y-215040045D01*
X239710050Y-215040045D01*
X239571963Y-214999500D01*
X239571961Y-214999500D01*
X239428039Y-214999500D01*
X239428036Y-214999500D01*
X239289949Y-215040045D01*
X239168873Y-215117856D01*
X239074623Y-215226626D01*
X239074622Y-215226628D01*
X239014834Y-215357543D01*
X238994353Y-215500000D01*
X194803210Y-215500000D01*
X194803210Y-213520653D01*
X200792067Y-213520653D01*
X200792067Y-213520654D01*
X200812594Y-213742189D01*
X200812595Y-213742191D01*
X200873479Y-213956177D01*
X200873485Y-213956192D01*
X200972648Y-214155337D01*
X200972653Y-214155345D01*
X201106730Y-214332892D01*
X201271147Y-214482777D01*
X201271149Y-214482779D01*
X201460305Y-214599899D01*
X201460306Y-214599899D01*
X201460309Y-214599901D01*
X201667770Y-214680272D01*
X201886467Y-214721154D01*
X201886469Y-214721154D01*
X202108951Y-214721154D01*
X202108953Y-214721154D01*
X202327650Y-214680272D01*
X202535111Y-214599901D01*
X202724272Y-214482778D01*
X202888691Y-214332890D01*
X203022768Y-214155343D01*
X203121939Y-213956182D01*
X203182825Y-213742190D01*
X203203353Y-213520654D01*
X203201439Y-213499999D01*
X216294357Y-213499999D01*
X216294357Y-213500000D01*
X216314884Y-213721535D01*
X216314885Y-213721537D01*
X216375769Y-213935523D01*
X216375775Y-213935538D01*
X216474938Y-214134683D01*
X216474943Y-214134691D01*
X216609020Y-214312238D01*
X216773437Y-214462123D01*
X216773439Y-214462125D01*
X216962595Y-214579245D01*
X216962596Y-214579245D01*
X216962599Y-214579247D01*
X217170060Y-214659618D01*
X217388757Y-214700500D01*
X217388759Y-214700500D01*
X217611241Y-214700500D01*
X217611243Y-214700500D01*
X217829940Y-214659618D01*
X218037401Y-214579247D01*
X218226562Y-214462124D01*
X218366282Y-214334751D01*
X218390979Y-214312238D01*
X218464233Y-214215235D01*
X218525058Y-214134689D01*
X218624229Y-213935528D01*
X218685115Y-213721536D01*
X218705643Y-213500000D01*
X218702924Y-213470653D01*
X233392495Y-213470653D01*
X233392495Y-213470654D01*
X233411312Y-213673736D01*
X233467127Y-213869901D01*
X233467132Y-213869914D01*
X233558037Y-214052475D01*
X233680947Y-214215235D01*
X233831668Y-214352634D01*
X233831670Y-214352636D01*
X233930851Y-214414046D01*
X234005073Y-214460002D01*
X234195254Y-214533678D01*
X234395734Y-214571154D01*
X234395736Y-214571154D01*
X234599684Y-214571154D01*
X234599686Y-214571154D01*
X234800166Y-214533678D01*
X234990347Y-214460002D01*
X235163751Y-214352635D01*
X235314474Y-214215233D01*
X235437383Y-214052475D01*
X235528292Y-213869904D01*
X235584107Y-213673737D01*
X235602925Y-213470654D01*
X235602925Y-213470653D01*
X235892495Y-213470653D01*
X235892495Y-213470654D01*
X235911312Y-213673736D01*
X235967127Y-213869901D01*
X235967132Y-213869914D01*
X236058037Y-214052475D01*
X236180947Y-214215235D01*
X236331668Y-214352634D01*
X236331670Y-214352636D01*
X236430851Y-214414046D01*
X236505073Y-214460002D01*
X236695254Y-214533678D01*
X236895734Y-214571154D01*
X236895736Y-214571154D01*
X237099684Y-214571154D01*
X237099686Y-214571154D01*
X237300166Y-214533678D01*
X237490347Y-214460002D01*
X237663751Y-214352635D01*
X237814474Y-214215233D01*
X237937383Y-214052475D01*
X238028292Y-213869904D01*
X238084107Y-213673737D01*
X238102925Y-213470654D01*
X238084107Y-213267571D01*
X238028292Y-213071404D01*
X238024842Y-213064476D01*
X237983982Y-212982418D01*
X237937383Y-212888833D01*
X237814474Y-212726075D01*
X237814472Y-212726072D01*
X237663751Y-212588673D01*
X237663749Y-212588671D01*
X237490352Y-212481309D01*
X237490345Y-212481305D01*
X237387355Y-212441407D01*
X237300166Y-212407630D01*
X237099686Y-212370154D01*
X236895734Y-212370154D01*
X236695254Y-212407630D01*
X236695251Y-212407630D01*
X236695251Y-212407631D01*
X236505074Y-212481305D01*
X236505067Y-212481309D01*
X236331670Y-212588671D01*
X236331668Y-212588673D01*
X236180947Y-212726072D01*
X236058037Y-212888832D01*
X235967132Y-213071393D01*
X235967127Y-213071406D01*
X235911312Y-213267571D01*
X235892495Y-213470653D01*
X235602925Y-213470653D01*
X235584107Y-213267571D01*
X235528292Y-213071404D01*
X235524842Y-213064476D01*
X235483982Y-212982418D01*
X235437383Y-212888833D01*
X235314474Y-212726075D01*
X235314472Y-212726072D01*
X235163751Y-212588673D01*
X235163749Y-212588671D01*
X234990352Y-212481309D01*
X234990345Y-212481305D01*
X234887355Y-212441407D01*
X234800166Y-212407630D01*
X234599686Y-212370154D01*
X234395734Y-212370154D01*
X234195254Y-212407630D01*
X234195251Y-212407630D01*
X234195251Y-212407631D01*
X234005074Y-212481305D01*
X234005067Y-212481309D01*
X233831670Y-212588671D01*
X233831668Y-212588673D01*
X233680947Y-212726072D01*
X233558037Y-212888832D01*
X233467132Y-213071393D01*
X233467127Y-213071406D01*
X233411312Y-213267571D01*
X233392495Y-213470653D01*
X218702924Y-213470653D01*
X218685115Y-213278464D01*
X218624229Y-213064472D01*
X218536771Y-212888833D01*
X218525061Y-212865316D01*
X218525056Y-212865308D01*
X218390979Y-212687761D01*
X218226562Y-212537876D01*
X218226560Y-212537874D01*
X218037404Y-212420754D01*
X218037398Y-212420752D01*
X217829940Y-212340382D01*
X217611243Y-212299500D01*
X217388757Y-212299500D01*
X217170060Y-212340382D01*
X217093210Y-212370154D01*
X216962601Y-212420752D01*
X216962595Y-212420754D01*
X216773439Y-212537874D01*
X216773437Y-212537876D01*
X216609020Y-212687761D01*
X216474943Y-212865308D01*
X216474938Y-212865316D01*
X216375775Y-213064461D01*
X216375769Y-213064476D01*
X216314885Y-213278462D01*
X216314884Y-213278464D01*
X216294357Y-213499999D01*
X203201439Y-213499999D01*
X203182825Y-213299118D01*
X203121939Y-213085126D01*
X203121934Y-213085115D01*
X203022771Y-212885970D01*
X203022766Y-212885962D01*
X202888689Y-212708415D01*
X202724272Y-212558530D01*
X202724270Y-212558528D01*
X202535114Y-212441408D01*
X202535108Y-212441406D01*
X202327650Y-212361036D01*
X202108953Y-212320154D01*
X201886467Y-212320154D01*
X201667770Y-212361036D01*
X201547497Y-212407630D01*
X201460311Y-212441406D01*
X201460305Y-212441408D01*
X201271149Y-212558528D01*
X201271147Y-212558530D01*
X201106730Y-212708415D01*
X200972653Y-212885962D01*
X200972648Y-212885970D01*
X200873485Y-213085115D01*
X200873479Y-213085130D01*
X200812595Y-213299116D01*
X200812594Y-213299118D01*
X200792067Y-213520653D01*
X194803210Y-213520653D01*
X194803210Y-206121300D01*
X194798513Y-206077616D01*
X194796237Y-206067154D01*
X248992063Y-206067154D01*
X249012544Y-206209610D01*
X249072332Y-206340525D01*
X249072333Y-206340527D01*
X249166582Y-206449297D01*
X249287657Y-206527107D01*
X249287660Y-206527108D01*
X249287659Y-206527108D01*
X249394817Y-206558571D01*
X249424737Y-206567357D01*
X249425746Y-206567653D01*
X249425748Y-206567654D01*
X249519614Y-206567654D01*
X249586653Y-206587339D01*
X249607295Y-206603973D01*
X249804611Y-206801289D01*
X249838096Y-206862612D01*
X249833112Y-206932304D01*
X249829727Y-206940477D01*
X249826986Y-206946478D01*
X249826985Y-206946480D01*
X249806504Y-207088937D01*
X249826985Y-207231393D01*
X249886773Y-207362308D01*
X249886774Y-207362310D01*
X249981023Y-207471080D01*
X250102098Y-207548890D01*
X250102101Y-207548891D01*
X250102100Y-207548891D01*
X250240187Y-207589436D01*
X250240189Y-207589437D01*
X250240190Y-207589437D01*
X250384113Y-207589437D01*
X250384113Y-207589436D01*
X250522204Y-207548890D01*
X250643279Y-207471080D01*
X250737528Y-207362310D01*
X250797316Y-207231394D01*
X250817798Y-207088937D01*
X250797316Y-206946480D01*
X250737528Y-206815564D01*
X250643279Y-206706794D01*
X250522204Y-206628984D01*
X250522201Y-206628983D01*
X250522199Y-206628982D01*
X250502409Y-206623171D01*
X250449666Y-206591876D01*
X250037390Y-206179600D01*
X250003905Y-206118277D01*
X250002334Y-206074268D01*
X250003357Y-206067154D01*
X249982875Y-205924697D01*
X249923087Y-205793781D01*
X249828838Y-205685011D01*
X249707763Y-205607201D01*
X249707761Y-205607200D01*
X249707759Y-205607199D01*
X249707760Y-205607199D01*
X249569673Y-205566654D01*
X249569671Y-205566654D01*
X249425749Y-205566654D01*
X249425746Y-205566654D01*
X249287659Y-205607199D01*
X249166583Y-205685010D01*
X249072333Y-205793780D01*
X249072332Y-205793782D01*
X249012544Y-205924697D01*
X248992063Y-206067154D01*
X194796237Y-206067154D01*
X194794607Y-206059664D01*
X194787312Y-206026125D01*
X194787058Y-206025089D01*
X194784820Y-206015927D01*
X194741810Y-205935215D01*
X194696055Y-205882411D01*
X194696049Y-205882404D01*
X194678467Y-205864460D01*
X194678466Y-205864459D01*
X194678464Y-205864457D01*
X194678462Y-205864456D01*
X194678460Y-205864454D01*
X194598650Y-205819811D01*
X194598645Y-205819809D01*
X194531613Y-205800126D01*
X194531609Y-205800125D01*
X194531608Y-205800125D01*
X194473710Y-205791800D01*
X191212710Y-205791800D01*
X191212702Y-205791800D01*
X191169023Y-205796497D01*
X191117535Y-205807697D01*
X191107337Y-205810190D01*
X191107334Y-205810191D01*
X191026626Y-205853199D01*
X191026623Y-205853201D01*
X190973814Y-205898960D01*
X190955870Y-205916542D01*
X190955864Y-205916549D01*
X190911221Y-205996359D01*
X190911219Y-205996364D01*
X190891536Y-206063396D01*
X190891535Y-206063401D01*
X190891535Y-206063402D01*
X190883212Y-206121292D01*
X190883210Y-206121303D01*
X190512210Y-206121303D01*
X190512210Y-206121300D01*
X190507513Y-206077616D01*
X190503607Y-206059664D01*
X190496312Y-206026125D01*
X190496058Y-206025089D01*
X190493820Y-206015927D01*
X190450810Y-205935215D01*
X190405055Y-205882411D01*
X190405049Y-205882404D01*
X190387467Y-205864460D01*
X190387466Y-205864459D01*
X190387464Y-205864457D01*
X190387462Y-205864456D01*
X190387460Y-205864454D01*
X190307650Y-205819811D01*
X190307645Y-205819809D01*
X190240613Y-205800126D01*
X190240609Y-205800125D01*
X190240608Y-205800125D01*
X190182710Y-205791800D01*
X177621710Y-205791800D01*
X177621702Y-205791800D01*
X177578023Y-205796497D01*
X177526535Y-205807697D01*
X177516337Y-205810190D01*
X177516334Y-205810191D01*
X177435626Y-205853199D01*
X177435623Y-205853201D01*
X177382814Y-205898960D01*
X177364870Y-205916542D01*
X177364864Y-205916549D01*
X177320221Y-205996359D01*
X177320219Y-205996364D01*
X177300536Y-206063396D01*
X177300535Y-206063401D01*
X177300535Y-206063402D01*
X177292212Y-206121292D01*
X177292210Y-206121303D01*
X138438638Y-206121303D01*
X138043966Y-203190709D01*
X138043355Y-203185243D01*
X138026823Y-202999999D01*
X139544357Y-202999999D01*
X139544357Y-203000000D01*
X139564884Y-203221535D01*
X139564885Y-203221537D01*
X139625769Y-203435523D01*
X139625775Y-203435538D01*
X139724938Y-203634683D01*
X139724943Y-203634691D01*
X139859020Y-203812238D01*
X140023437Y-203962123D01*
X140023439Y-203962125D01*
X140212595Y-204079245D01*
X140212596Y-204079245D01*
X140212599Y-204079247D01*
X140420060Y-204159618D01*
X140638757Y-204200500D01*
X140638759Y-204200500D01*
X140861241Y-204200500D01*
X140861243Y-204200500D01*
X141079940Y-204159618D01*
X141287401Y-204079247D01*
X141476562Y-203962124D01*
X141640981Y-203812236D01*
X141775058Y-203634689D01*
X141874229Y-203435528D01*
X141935115Y-203221536D01*
X141955643Y-203000000D01*
X141949424Y-202932890D01*
X141935115Y-202778464D01*
X141935114Y-202778462D01*
X141928536Y-202755343D01*
X141874229Y-202564472D01*
X141874224Y-202564461D01*
X141775061Y-202365316D01*
X141775056Y-202365308D01*
X141640979Y-202187761D01*
X141476562Y-202037876D01*
X141476560Y-202037874D01*
X141287404Y-201920754D01*
X141287398Y-201920752D01*
X141079940Y-201840382D01*
X140861243Y-201799500D01*
X140638757Y-201799500D01*
X140420060Y-201840382D01*
X140349085Y-201867878D01*
X140212601Y-201920752D01*
X140212595Y-201920754D01*
X140023439Y-202037874D01*
X140023437Y-202037876D01*
X139859020Y-202187761D01*
X139724943Y-202365308D01*
X139724938Y-202365316D01*
X139625775Y-202564461D01*
X139625769Y-202564476D01*
X139564885Y-202778462D01*
X139564884Y-202778464D01*
X139544357Y-202999999D01*
X138026823Y-202999999D01*
X138004231Y-202746848D01*
X138003741Y-202735780D01*
X138004053Y-202298440D01*
X138004560Y-202287331D01*
X138021416Y-202101440D01*
X138044052Y-201851803D01*
X138045552Y-201840790D01*
X138045627Y-201840382D01*
X138123908Y-201410553D01*
X138126389Y-201399716D01*
X138151644Y-201308415D01*
X138242986Y-200978203D01*
X138246414Y-200967672D01*
X138400307Y-200558310D01*
X138404680Y-200548093D01*
X138416297Y-200524003D01*
X138417912Y-200520654D01*
X150576648Y-200520654D01*
X150597129Y-200663110D01*
X150615540Y-200703423D01*
X150656918Y-200794027D01*
X150661005Y-200798744D01*
X150690032Y-200862298D01*
X150691295Y-200879949D01*
X150691295Y-204661357D01*
X150671610Y-204728396D01*
X150661012Y-204742555D01*
X150656920Y-204747277D01*
X150656917Y-204747282D01*
X150597129Y-204878197D01*
X150576648Y-205020654D01*
X150597129Y-205163110D01*
X150607809Y-205186495D01*
X150656918Y-205294027D01*
X150751167Y-205402797D01*
X150872242Y-205480607D01*
X150872245Y-205480608D01*
X150872244Y-205480608D01*
X151010331Y-205521153D01*
X151010333Y-205521154D01*
X151010334Y-205521154D01*
X151154257Y-205521154D01*
X151154257Y-205521153D01*
X151292348Y-205480607D01*
X151413423Y-205402797D01*
X151507672Y-205294027D01*
X151567460Y-205163111D01*
X151587942Y-205020654D01*
X151567460Y-204878197D01*
X151507672Y-204747281D01*
X151507669Y-204747277D01*
X151503578Y-204742555D01*
X151474556Y-204678998D01*
X151473295Y-204661357D01*
X151473295Y-202116384D01*
X164922210Y-202116384D01*
X164922210Y-202924923D01*
X164925063Y-202955353D01*
X164925063Y-202955355D01*
X164969652Y-203082779D01*
X164969917Y-203083536D01*
X165050560Y-203192804D01*
X165159828Y-203273447D01*
X165179330Y-203280271D01*
X165288009Y-203318300D01*
X165318440Y-203321154D01*
X165318444Y-203321154D01*
X166676980Y-203321154D01*
X166707409Y-203318300D01*
X166707411Y-203318300D01*
X166771500Y-203295873D01*
X166835592Y-203273447D01*
X166944860Y-203192804D01*
X167025503Y-203083536D01*
X167047929Y-203019444D01*
X167070356Y-202955355D01*
X167070356Y-202955353D01*
X167073210Y-202924923D01*
X167073210Y-202116384D01*
X167070356Y-202085954D01*
X167070356Y-202085952D01*
X167025503Y-201957773D01*
X167025502Y-201957771D01*
X166944860Y-201848504D01*
X166835592Y-201767861D01*
X166835590Y-201767860D01*
X166707410Y-201723007D01*
X166676980Y-201720154D01*
X166676976Y-201720154D01*
X165318444Y-201720154D01*
X165318440Y-201720154D01*
X165288010Y-201723007D01*
X165288008Y-201723007D01*
X165159829Y-201767860D01*
X165159827Y-201767861D01*
X165050560Y-201848504D01*
X164969917Y-201957771D01*
X164969916Y-201957773D01*
X164925063Y-202085952D01*
X164925063Y-202085954D01*
X164922210Y-202116384D01*
X151473295Y-202116384D01*
X151473295Y-201156962D01*
X177292210Y-201156962D01*
X177292210Y-205091307D01*
X177296907Y-205134986D01*
X177308107Y-205186474D01*
X177310600Y-205196672D01*
X177310601Y-205196675D01*
X177353609Y-205277383D01*
X177353611Y-205277386D01*
X177399370Y-205330195D01*
X177416952Y-205348139D01*
X177416956Y-205348143D01*
X177416957Y-205348144D01*
X177416959Y-205348145D01*
X177496769Y-205392788D01*
X177496773Y-205392790D01*
X177563812Y-205412475D01*
X177621710Y-205420800D01*
X177621714Y-205420800D01*
X190182701Y-205420800D01*
X190182710Y-205420800D01*
X190226394Y-205416103D01*
X190255585Y-205409752D01*
X190277884Y-205404902D01*
X190277900Y-205404898D01*
X190277905Y-205404897D01*
X190288083Y-205402410D01*
X190368795Y-205359400D01*
X190421599Y-205313645D01*
X190439553Y-205296054D01*
X190484200Y-205216237D01*
X190503885Y-205149198D01*
X190512210Y-205091300D01*
X190512210Y-200524003D01*
X190883210Y-200524003D01*
X190883210Y-205091307D01*
X190887907Y-205134986D01*
X190899107Y-205186474D01*
X190901600Y-205196672D01*
X190901601Y-205196675D01*
X190944609Y-205277383D01*
X190944611Y-205277386D01*
X190990370Y-205330195D01*
X191007952Y-205348139D01*
X191007956Y-205348143D01*
X191007957Y-205348144D01*
X191007959Y-205348145D01*
X191087769Y-205392788D01*
X191087773Y-205392790D01*
X191154812Y-205412475D01*
X191212710Y-205420800D01*
X191212714Y-205420800D01*
X194473701Y-205420800D01*
X194473710Y-205420800D01*
X194517394Y-205416103D01*
X194546585Y-205409752D01*
X194568884Y-205404902D01*
X194568900Y-205404898D01*
X194568905Y-205404897D01*
X194579083Y-205402410D01*
X194659795Y-205359400D01*
X194712599Y-205313645D01*
X194730553Y-205296054D01*
X194775200Y-205216237D01*
X194794885Y-205149198D01*
X194803210Y-205091300D01*
X194803210Y-202343172D01*
X194803177Y-202342189D01*
X194803151Y-202341415D01*
X194802761Y-202329594D01*
X194801678Y-202313239D01*
X194800332Y-202299713D01*
X194777497Y-202128094D01*
X194776001Y-202120653D01*
X252592067Y-202120653D01*
X252592067Y-202120654D01*
X252612594Y-202342189D01*
X252612595Y-202342191D01*
X252673479Y-202556177D01*
X252673485Y-202556192D01*
X252772648Y-202755337D01*
X252772653Y-202755345D01*
X252906730Y-202932892D01*
X253071147Y-203082777D01*
X253071149Y-203082779D01*
X253260305Y-203199899D01*
X253260306Y-203199899D01*
X253260309Y-203199901D01*
X253467770Y-203280272D01*
X253686467Y-203321154D01*
X253686469Y-203321154D01*
X253908951Y-203321154D01*
X253908953Y-203321154D01*
X254127650Y-203280272D01*
X254335111Y-203199901D01*
X254524272Y-203082778D01*
X254688691Y-202932890D01*
X254822768Y-202755343D01*
X254921939Y-202556182D01*
X254982825Y-202342190D01*
X255003353Y-202120654D01*
X255000137Y-202085952D01*
X254982825Y-201899118D01*
X254982824Y-201899116D01*
X254980852Y-201892186D01*
X254921939Y-201685126D01*
X254921934Y-201685115D01*
X254822771Y-201485970D01*
X254822766Y-201485962D01*
X254688689Y-201308415D01*
X254524272Y-201158530D01*
X254524270Y-201158528D01*
X254335114Y-201041408D01*
X254335108Y-201041406D01*
X254127650Y-200961036D01*
X253908953Y-200920154D01*
X253686467Y-200920154D01*
X253467770Y-200961036D01*
X253336574Y-201011861D01*
X253260311Y-201041406D01*
X253260305Y-201041408D01*
X253071149Y-201158528D01*
X253071147Y-201158530D01*
X252906730Y-201308415D01*
X252772653Y-201485962D01*
X252772648Y-201485970D01*
X252673485Y-201685115D01*
X252673479Y-201685130D01*
X252612595Y-201899116D01*
X252612594Y-201899118D01*
X252592067Y-202120653D01*
X194776001Y-202120653D01*
X194772141Y-202101458D01*
X194763587Y-202069886D01*
X194754768Y-202044198D01*
X194750930Y-202035041D01*
X194691064Y-201892186D01*
X194691050Y-201892157D01*
X194678931Y-201867878D01*
X194678924Y-201867865D01*
X194662419Y-201839638D01*
X194662403Y-201839613D01*
X194647187Y-201817144D01*
X194647172Y-201817123D01*
X194540854Y-201680526D01*
X194532137Y-201670059D01*
X194521238Y-201657821D01*
X194511878Y-201647985D01*
X193318728Y-200474429D01*
X193308951Y-200465416D01*
X193296803Y-200454925D01*
X193296800Y-200454922D01*
X193286452Y-200446554D01*
X193237616Y-200409613D01*
X193223663Y-200399059D01*
X193163045Y-200353206D01*
X193144138Y-200335514D01*
X193128839Y-200317858D01*
X193128837Y-200317856D01*
X193077873Y-200285104D01*
X193007763Y-200240047D01*
X193007761Y-200240046D01*
X193007759Y-200240045D01*
X193007760Y-200240045D01*
X192869673Y-200199500D01*
X192869671Y-200199500D01*
X192725749Y-200199500D01*
X192716882Y-200199500D01*
X192716882Y-200199277D01*
X192694135Y-200199428D01*
X192677507Y-200197262D01*
X192677488Y-200197260D01*
X192677487Y-200197260D01*
X192673064Y-200196829D01*
X192664241Y-200195969D01*
X192648231Y-200194930D01*
X192634931Y-200194500D01*
X191212710Y-200194500D01*
X191212702Y-200194500D01*
X191169023Y-200199197D01*
X191117535Y-200210397D01*
X191107337Y-200212890D01*
X191107334Y-200212891D01*
X191026626Y-200255899D01*
X191026623Y-200255901D01*
X190973814Y-200301660D01*
X190955870Y-200319242D01*
X190955864Y-200319249D01*
X190911221Y-200399059D01*
X190911219Y-200399064D01*
X190891536Y-200466096D01*
X190891535Y-200466101D01*
X190891535Y-200466102D01*
X190883212Y-200523992D01*
X190883210Y-200524003D01*
X190512210Y-200524003D01*
X190512210Y-200524000D01*
X190507513Y-200480316D01*
X190500170Y-200446562D01*
X190496312Y-200428825D01*
X190496058Y-200427789D01*
X190493820Y-200418627D01*
X190450810Y-200337915D01*
X190405055Y-200285111D01*
X190405049Y-200285104D01*
X190387467Y-200267160D01*
X190387466Y-200267159D01*
X190387464Y-200267157D01*
X190387462Y-200267156D01*
X190387460Y-200267154D01*
X190307650Y-200222511D01*
X190307645Y-200222509D01*
X190240613Y-200202826D01*
X190240609Y-200202825D01*
X190240608Y-200202825D01*
X190182710Y-200194500D01*
X178254671Y-200194500D01*
X178254221Y-200194512D01*
X178243154Y-200194823D01*
X178235517Y-200195252D01*
X178229260Y-200195604D01*
X178229248Y-200195604D01*
X178229230Y-200195606D01*
X178217793Y-200196570D01*
X178217640Y-200196588D01*
X178217639Y-200196587D01*
X178215483Y-200196829D01*
X178215484Y-200196830D01*
X178195186Y-200199117D01*
X178178539Y-200198863D01*
X178178539Y-200199500D01*
X178025746Y-200199500D01*
X177887659Y-200240045D01*
X177766578Y-200317859D01*
X177756690Y-200329270D01*
X177728958Y-200353053D01*
X177682592Y-200382188D01*
X177663780Y-200395536D01*
X177663776Y-200395539D01*
X177642099Y-200412826D01*
X177642085Y-200412838D01*
X177624907Y-200428190D01*
X177525900Y-200527197D01*
X177510548Y-200544375D01*
X177510536Y-200544389D01*
X177493249Y-200566066D01*
X177493239Y-200566079D01*
X177479903Y-200584875D01*
X177405414Y-200703423D01*
X177405411Y-200703429D01*
X177394262Y-200723600D01*
X177382220Y-200748606D01*
X177373402Y-200769896D01*
X177327157Y-200902057D01*
X177327154Y-200902065D01*
X177327153Y-200902070D01*
X177320776Y-200924206D01*
X177320765Y-200924249D01*
X177314601Y-200951269D01*
X177314599Y-200951278D01*
X177310741Y-200973980D01*
X177310737Y-200974008D01*
X177294285Y-201120041D01*
X177294282Y-201120070D01*
X177293314Y-201131550D01*
X177293314Y-201131553D01*
X177292533Y-201145445D01*
X177292210Y-201156962D01*
X151473295Y-201156962D01*
X151473295Y-200879949D01*
X151492980Y-200812910D01*
X151503581Y-200798747D01*
X151507672Y-200794027D01*
X151567460Y-200663111D01*
X151587942Y-200520654D01*
X151567460Y-200378197D01*
X151507672Y-200247281D01*
X151413423Y-200138511D01*
X151292348Y-200060701D01*
X151292346Y-200060700D01*
X151292344Y-200060699D01*
X151292345Y-200060699D01*
X151154258Y-200020154D01*
X151154256Y-200020154D01*
X151010334Y-200020154D01*
X151010331Y-200020154D01*
X150872244Y-200060699D01*
X150751168Y-200138510D01*
X150656918Y-200247280D01*
X150656917Y-200247282D01*
X150597129Y-200378197D01*
X150576648Y-200520654D01*
X138417912Y-200520654D01*
X138594631Y-200154169D01*
X138599905Y-200144382D01*
X138603417Y-200138510D01*
X138824389Y-199769056D01*
X138830489Y-199759824D01*
X139087714Y-199406102D01*
X139094633Y-199397433D01*
X139344398Y-199111776D01*
X139403343Y-199074266D01*
X139473212Y-199074578D01*
X139531821Y-199112615D01*
X139560561Y-199176299D01*
X139561217Y-199181956D01*
X139564884Y-199221535D01*
X139564885Y-199221537D01*
X139625769Y-199435523D01*
X139625775Y-199435538D01*
X139724938Y-199634683D01*
X139724943Y-199634691D01*
X139859020Y-199812238D01*
X140023437Y-199962123D01*
X140023439Y-199962125D01*
X140212595Y-200079245D01*
X140212596Y-200079245D01*
X140212599Y-200079247D01*
X140420060Y-200159618D01*
X140638757Y-200200500D01*
X140638759Y-200200500D01*
X140861241Y-200200500D01*
X140861243Y-200200500D01*
X141079940Y-200159618D01*
X141287401Y-200079247D01*
X141476562Y-199962124D01*
X141640981Y-199812236D01*
X141775058Y-199634689D01*
X141874229Y-199435528D01*
X141935115Y-199221536D01*
X141955643Y-199000000D01*
X141935115Y-198778464D01*
X141874229Y-198564472D01*
X141823266Y-198462125D01*
X141775061Y-198365316D01*
X141775056Y-198365308D01*
X141640979Y-198187761D01*
X141476563Y-198037877D01*
X141476562Y-198037876D01*
X141440212Y-198015369D01*
X141412986Y-197998511D01*
X141366351Y-197946482D01*
X141355247Y-197877501D01*
X141383201Y-197813466D01*
X141439960Y-197775148D01*
X141663985Y-197702394D01*
X141674695Y-197699440D01*
X142101064Y-197602169D01*
X142111983Y-197600189D01*
X142545365Y-197541509D01*
X142556434Y-197540514D01*
X142996081Y-197520778D01*
X143001642Y-197520654D01*
X162871780Y-197520654D01*
X162871791Y-197520654D01*
X163320327Y-197500495D01*
X163323986Y-197499999D01*
X175394357Y-197499999D01*
X175394357Y-197500000D01*
X175414884Y-197721535D01*
X175414885Y-197721537D01*
X175475769Y-197935523D01*
X175475775Y-197935538D01*
X175574938Y-198134683D01*
X175574943Y-198134691D01*
X175709020Y-198312238D01*
X175873437Y-198462123D01*
X175873439Y-198462125D01*
X176062595Y-198579245D01*
X176062596Y-198579245D01*
X176062599Y-198579247D01*
X176270060Y-198659618D01*
X176488757Y-198700500D01*
X176488759Y-198700500D01*
X176711241Y-198700500D01*
X176711243Y-198700500D01*
X176929940Y-198659618D01*
X177137401Y-198579247D01*
X177326562Y-198462124D01*
X177490981Y-198312236D01*
X177625058Y-198134689D01*
X177724229Y-197935528D01*
X177785115Y-197721536D01*
X177805643Y-197500000D01*
X177785115Y-197278464D01*
X177724229Y-197064472D01*
X177724224Y-197064461D01*
X177625061Y-196865316D01*
X177625056Y-196865308D01*
X177490979Y-196687761D01*
X177326562Y-196537876D01*
X177326560Y-196537874D01*
X177137404Y-196420754D01*
X177137398Y-196420752D01*
X176929940Y-196340382D01*
X176711243Y-196299500D01*
X176488757Y-196299500D01*
X176270060Y-196340382D01*
X176138864Y-196391207D01*
X176062601Y-196420752D01*
X176062595Y-196420754D01*
X175873439Y-196537874D01*
X175873437Y-196537876D01*
X175709020Y-196687761D01*
X175574943Y-196865308D01*
X175574938Y-196865316D01*
X175475775Y-197064461D01*
X175475769Y-197064476D01*
X175414885Y-197278462D01*
X175414884Y-197278464D01*
X175394357Y-197499999D01*
X163323986Y-197499999D01*
X163765247Y-197440180D01*
X164202962Y-197340196D01*
X164629943Y-197201349D01*
X165042729Y-197024766D01*
X165042731Y-197024764D01*
X165042747Y-197024758D01*
X165438045Y-196811847D01*
X165812649Y-196564334D01*
X167519446Y-195323028D01*
X167645029Y-195231695D01*
X168045315Y-194940578D01*
X168680541Y-194478595D01*
X168685052Y-194475466D01*
X169052734Y-194232527D01*
X169062267Y-194226825D01*
X169447785Y-194019182D01*
X169457793Y-194014359D01*
X169860357Y-193842149D01*
X169870761Y-193838240D01*
X170287180Y-193702828D01*
X170297878Y-193699873D01*
X170724759Y-193602364D01*
X170735670Y-193600382D01*
X171169585Y-193541559D01*
X171180642Y-193540563D01*
X171620848Y-193520779D01*
X171626415Y-193520654D01*
X187305703Y-193520654D01*
X187311387Y-193520784D01*
X187760772Y-193541404D01*
X187772086Y-193542444D01*
X188214888Y-193603745D01*
X188226041Y-193605814D01*
X188661355Y-193707406D01*
X188672279Y-193710489D01*
X189096476Y-193851525D01*
X189107065Y-193855594D01*
X189469672Y-194014354D01*
X189516549Y-194034878D01*
X189526741Y-194039909D01*
X189918093Y-194255945D01*
X189927766Y-194261880D01*
X190297676Y-194512840D01*
X190306776Y-194519643D01*
X190442051Y-194630794D01*
X190652146Y-194803422D01*
X190660590Y-194811034D01*
X190980547Y-195127253D01*
X190984498Y-195131341D01*
X191450292Y-195635951D01*
X193842753Y-198227785D01*
X194007691Y-198406467D01*
X194007696Y-198406472D01*
X194334762Y-198729626D01*
X194334767Y-198729630D01*
X194334768Y-198729631D01*
X194690148Y-199021382D01*
X195070826Y-199279254D01*
X195473584Y-199501065D01*
X195743363Y-199618773D01*
X195895007Y-199684938D01*
X195895011Y-199684939D01*
X195895015Y-199684941D01*
X196331555Y-199829325D01*
X196779512Y-199932997D01*
X197235092Y-199995079D01*
X197235095Y-199995079D01*
X197235099Y-199995080D01*
X197694463Y-200015050D01*
X232225441Y-199926961D01*
X232683943Y-199904719D01*
X232683960Y-199904716D01*
X232683966Y-199904716D01*
X233138472Y-199840522D01*
X233138487Y-199840519D01*
X233440661Y-199769080D01*
X233585199Y-199734909D01*
X234020356Y-199588772D01*
X234440278Y-199403341D01*
X234841423Y-199180181D01*
X235220412Y-198921171D01*
X235574049Y-198628496D01*
X235899354Y-198304621D01*
X236140900Y-198015369D01*
X236193575Y-197952291D01*
X236193591Y-197952270D01*
X236299076Y-197813466D01*
X236384790Y-197700678D01*
X236521600Y-197520654D01*
X238189959Y-195325310D01*
X238193520Y-195320842D01*
X238351853Y-195131341D01*
X238484072Y-194973094D01*
X238491808Y-194964660D01*
X238811170Y-194647215D01*
X238819619Y-194639559D01*
X239166912Y-194352921D01*
X239176041Y-194346069D01*
X239548291Y-194092692D01*
X239558014Y-194086712D01*
X239952043Y-193868757D01*
X239962278Y-193863697D01*
X240374737Y-193683019D01*
X240385415Y-193678918D01*
X240812762Y-193537065D01*
X240823770Y-193533967D01*
X241262392Y-193432137D01*
X241273643Y-193430069D01*
X241719776Y-193369136D01*
X241731156Y-193368115D01*
X242183856Y-193348472D01*
X242189578Y-193348356D01*
X257563990Y-193391842D01*
G37*
%TD.AperFunction*%
%TD*%
M02*
