%TF.GenerationSoftware,KiCad,Pcbnew,8.0.7*%
%TF.CreationDate,2025-01-02T06:30:13+11:00*%
%TF.ProjectId,plasma toroid unified,706c6173-6d61-4207-946f-726f69642075,v1.02*%
%TF.SameCoordinates,Original*%
%TF.FileFunction,Other,Comment*%
%FSLAX46Y46*%
G04 Gerber Fmt 4.6, Leading zero omitted, Abs format (unit mm)*
G04 Created by KiCad (PCBNEW 8.0.7) date 2025-01-02 06:30:13*
%MOMM*%
%LPD*%
G01*
G04 APERTURE LIST*
%ADD10C,0.150000*%
G04 APERTURE END LIST*
D10*
X184405917Y-157525626D02*
X184358298Y-157573246D01*
X184358298Y-157573246D02*
X184215441Y-157620865D01*
X184215441Y-157620865D02*
X184120203Y-157620865D01*
X184120203Y-157620865D02*
X183977346Y-157573246D01*
X183977346Y-157573246D02*
X183882108Y-157478007D01*
X183882108Y-157478007D02*
X183834489Y-157382769D01*
X183834489Y-157382769D02*
X183786870Y-157192293D01*
X183786870Y-157192293D02*
X183786870Y-157049436D01*
X183786870Y-157049436D02*
X183834489Y-156858960D01*
X183834489Y-156858960D02*
X183882108Y-156763722D01*
X183882108Y-156763722D02*
X183977346Y-156668484D01*
X183977346Y-156668484D02*
X184120203Y-156620865D01*
X184120203Y-156620865D02*
X184215441Y-156620865D01*
X184215441Y-156620865D02*
X184358298Y-156668484D01*
X184358298Y-156668484D02*
X184405917Y-156716103D01*
X184834489Y-157620865D02*
X184834489Y-156620865D01*
X184834489Y-157097055D02*
X185405917Y-157097055D01*
X185405917Y-157620865D02*
X185405917Y-156620865D01*
X185834489Y-157335150D02*
X186310679Y-157335150D01*
X185739251Y-157620865D02*
X186072584Y-156620865D01*
X186072584Y-156620865D02*
X186405917Y-157620865D01*
X186739251Y-157620865D02*
X186739251Y-156620865D01*
X186739251Y-156620865D02*
X187310679Y-157620865D01*
X187310679Y-157620865D02*
X187310679Y-156620865D01*
X188310679Y-156668484D02*
X188215441Y-156620865D01*
X188215441Y-156620865D02*
X188072584Y-156620865D01*
X188072584Y-156620865D02*
X187929727Y-156668484D01*
X187929727Y-156668484D02*
X187834489Y-156763722D01*
X187834489Y-156763722D02*
X187786870Y-156858960D01*
X187786870Y-156858960D02*
X187739251Y-157049436D01*
X187739251Y-157049436D02*
X187739251Y-157192293D01*
X187739251Y-157192293D02*
X187786870Y-157382769D01*
X187786870Y-157382769D02*
X187834489Y-157478007D01*
X187834489Y-157478007D02*
X187929727Y-157573246D01*
X187929727Y-157573246D02*
X188072584Y-157620865D01*
X188072584Y-157620865D02*
X188167822Y-157620865D01*
X188167822Y-157620865D02*
X188310679Y-157573246D01*
X188310679Y-157573246D02*
X188358298Y-157525626D01*
X188358298Y-157525626D02*
X188358298Y-157192293D01*
X188358298Y-157192293D02*
X188167822Y-157192293D01*
X188786870Y-157097055D02*
X189120203Y-157097055D01*
X189263060Y-157620865D02*
X188786870Y-157620865D01*
X188786870Y-157620865D02*
X188786870Y-156620865D01*
X188786870Y-156620865D02*
X189263060Y-156620865D01*
X189644013Y-157573246D02*
X189786870Y-157620865D01*
X189786870Y-157620865D02*
X190024965Y-157620865D01*
X190024965Y-157620865D02*
X190120203Y-157573246D01*
X190120203Y-157573246D02*
X190167822Y-157525626D01*
X190167822Y-157525626D02*
X190215441Y-157430388D01*
X190215441Y-157430388D02*
X190215441Y-157335150D01*
X190215441Y-157335150D02*
X190167822Y-157239912D01*
X190167822Y-157239912D02*
X190120203Y-157192293D01*
X190120203Y-157192293D02*
X190024965Y-157144674D01*
X190024965Y-157144674D02*
X189834489Y-157097055D01*
X189834489Y-157097055D02*
X189739251Y-157049436D01*
X189739251Y-157049436D02*
X189691632Y-157001817D01*
X189691632Y-157001817D02*
X189644013Y-156906579D01*
X189644013Y-156906579D02*
X189644013Y-156811341D01*
X189644013Y-156811341D02*
X189691632Y-156716103D01*
X189691632Y-156716103D02*
X189739251Y-156668484D01*
X189739251Y-156668484D02*
X189834489Y-156620865D01*
X189834489Y-156620865D02*
X190072584Y-156620865D01*
X190072584Y-156620865D02*
X190215441Y-156668484D01*
X191358299Y-157573246D02*
X191501156Y-157620865D01*
X191501156Y-157620865D02*
X191739251Y-157620865D01*
X191739251Y-157620865D02*
X191834489Y-157573246D01*
X191834489Y-157573246D02*
X191882108Y-157525626D01*
X191882108Y-157525626D02*
X191929727Y-157430388D01*
X191929727Y-157430388D02*
X191929727Y-157335150D01*
X191929727Y-157335150D02*
X191882108Y-157239912D01*
X191882108Y-157239912D02*
X191834489Y-157192293D01*
X191834489Y-157192293D02*
X191739251Y-157144674D01*
X191739251Y-157144674D02*
X191548775Y-157097055D01*
X191548775Y-157097055D02*
X191453537Y-157049436D01*
X191453537Y-157049436D02*
X191405918Y-157001817D01*
X191405918Y-157001817D02*
X191358299Y-156906579D01*
X191358299Y-156906579D02*
X191358299Y-156811341D01*
X191358299Y-156811341D02*
X191405918Y-156716103D01*
X191405918Y-156716103D02*
X191453537Y-156668484D01*
X191453537Y-156668484D02*
X191548775Y-156620865D01*
X191548775Y-156620865D02*
X191786870Y-156620865D01*
X191786870Y-156620865D02*
X191929727Y-156668484D01*
X192358299Y-157620865D02*
X192358299Y-156620865D01*
X192834489Y-157620865D02*
X192834489Y-156620865D01*
X192834489Y-156620865D02*
X193405917Y-157620865D01*
X193405917Y-157620865D02*
X193405917Y-156620865D01*
X194453536Y-157525626D02*
X194405917Y-157573246D01*
X194405917Y-157573246D02*
X194263060Y-157620865D01*
X194263060Y-157620865D02*
X194167822Y-157620865D01*
X194167822Y-157620865D02*
X194024965Y-157573246D01*
X194024965Y-157573246D02*
X193929727Y-157478007D01*
X193929727Y-157478007D02*
X193882108Y-157382769D01*
X193882108Y-157382769D02*
X193834489Y-157192293D01*
X193834489Y-157192293D02*
X193834489Y-157049436D01*
X193834489Y-157049436D02*
X193882108Y-156858960D01*
X193882108Y-156858960D02*
X193929727Y-156763722D01*
X193929727Y-156763722D02*
X194024965Y-156668484D01*
X194024965Y-156668484D02*
X194167822Y-156620865D01*
X194167822Y-156620865D02*
X194263060Y-156620865D01*
X194263060Y-156620865D02*
X194405917Y-156668484D01*
X194405917Y-156668484D02*
X194453536Y-156716103D01*
X194882108Y-157097055D02*
X195215441Y-157097055D01*
X195358298Y-157620865D02*
X194882108Y-157620865D01*
X194882108Y-157620865D02*
X194882108Y-156620865D01*
X194882108Y-156620865D02*
X195358298Y-156620865D01*
X196882108Y-157097055D02*
X197024965Y-157144674D01*
X197024965Y-157144674D02*
X197072584Y-157192293D01*
X197072584Y-157192293D02*
X197120203Y-157287531D01*
X197120203Y-157287531D02*
X197120203Y-157430388D01*
X197120203Y-157430388D02*
X197072584Y-157525626D01*
X197072584Y-157525626D02*
X197024965Y-157573246D01*
X197024965Y-157573246D02*
X196929727Y-157620865D01*
X196929727Y-157620865D02*
X196548775Y-157620865D01*
X196548775Y-157620865D02*
X196548775Y-156620865D01*
X196548775Y-156620865D02*
X196882108Y-156620865D01*
X196882108Y-156620865D02*
X196977346Y-156668484D01*
X196977346Y-156668484D02*
X197024965Y-156716103D01*
X197024965Y-156716103D02*
X197072584Y-156811341D01*
X197072584Y-156811341D02*
X197072584Y-156906579D01*
X197072584Y-156906579D02*
X197024965Y-157001817D01*
X197024965Y-157001817D02*
X196977346Y-157049436D01*
X196977346Y-157049436D02*
X196882108Y-157097055D01*
X196882108Y-157097055D02*
X196548775Y-157097055D01*
X198120203Y-157620865D02*
X197786870Y-157144674D01*
X197548775Y-157620865D02*
X197548775Y-156620865D01*
X197548775Y-156620865D02*
X197929727Y-156620865D01*
X197929727Y-156620865D02*
X198024965Y-156668484D01*
X198024965Y-156668484D02*
X198072584Y-156716103D01*
X198072584Y-156716103D02*
X198120203Y-156811341D01*
X198120203Y-156811341D02*
X198120203Y-156954198D01*
X198120203Y-156954198D02*
X198072584Y-157049436D01*
X198072584Y-157049436D02*
X198024965Y-157097055D01*
X198024965Y-157097055D02*
X197929727Y-157144674D01*
X197929727Y-157144674D02*
X197548775Y-157144674D01*
X198739251Y-156620865D02*
X198929727Y-156620865D01*
X198929727Y-156620865D02*
X199024965Y-156668484D01*
X199024965Y-156668484D02*
X199120203Y-156763722D01*
X199120203Y-156763722D02*
X199167822Y-156954198D01*
X199167822Y-156954198D02*
X199167822Y-157287531D01*
X199167822Y-157287531D02*
X199120203Y-157478007D01*
X199120203Y-157478007D02*
X199024965Y-157573246D01*
X199024965Y-157573246D02*
X198929727Y-157620865D01*
X198929727Y-157620865D02*
X198739251Y-157620865D01*
X198739251Y-157620865D02*
X198644013Y-157573246D01*
X198644013Y-157573246D02*
X198548775Y-157478007D01*
X198548775Y-157478007D02*
X198501156Y-157287531D01*
X198501156Y-157287531D02*
X198501156Y-156954198D01*
X198501156Y-156954198D02*
X198548775Y-156763722D01*
X198548775Y-156763722D02*
X198644013Y-156668484D01*
X198644013Y-156668484D02*
X198739251Y-156620865D01*
X199596394Y-157620865D02*
X199596394Y-156620865D01*
X199596394Y-156620865D02*
X200167822Y-157620865D01*
X200167822Y-157620865D02*
X200167822Y-156620865D01*
X200548775Y-156620865D02*
X201215441Y-156620865D01*
X201215441Y-156620865D02*
X200548775Y-157620865D01*
X200548775Y-157620865D02*
X201215441Y-157620865D01*
X201596394Y-157097055D02*
X201929727Y-157097055D01*
X202072584Y-157620865D02*
X201596394Y-157620865D01*
X201596394Y-157620865D02*
X201596394Y-156620865D01*
X201596394Y-156620865D02*
X202072584Y-156620865D01*
X203548775Y-158001817D02*
X203501156Y-157954198D01*
X203501156Y-157954198D02*
X203405918Y-157811341D01*
X203405918Y-157811341D02*
X203358299Y-157716103D01*
X203358299Y-157716103D02*
X203310680Y-157573246D01*
X203310680Y-157573246D02*
X203263061Y-157335150D01*
X203263061Y-157335150D02*
X203263061Y-157144674D01*
X203263061Y-157144674D02*
X203310680Y-156906579D01*
X203310680Y-156906579D02*
X203358299Y-156763722D01*
X203358299Y-156763722D02*
X203405918Y-156668484D01*
X203405918Y-156668484D02*
X203501156Y-156525626D01*
X203501156Y-156525626D02*
X203548775Y-156478007D01*
X203834490Y-156954198D02*
X204072585Y-157620865D01*
X204072585Y-157620865D02*
X204310680Y-156954198D01*
X204691633Y-157620865D02*
X204691633Y-156954198D01*
X204691633Y-156620865D02*
X204644014Y-156668484D01*
X204644014Y-156668484D02*
X204691633Y-156716103D01*
X204691633Y-156716103D02*
X204739252Y-156668484D01*
X204739252Y-156668484D02*
X204691633Y-156620865D01*
X204691633Y-156620865D02*
X204691633Y-156716103D01*
X205596394Y-157620865D02*
X205596394Y-156620865D01*
X205596394Y-157573246D02*
X205501156Y-157620865D01*
X205501156Y-157620865D02*
X205310680Y-157620865D01*
X205310680Y-157620865D02*
X205215442Y-157573246D01*
X205215442Y-157573246D02*
X205167823Y-157525626D01*
X205167823Y-157525626D02*
X205120204Y-157430388D01*
X205120204Y-157430388D02*
X205120204Y-157144674D01*
X205120204Y-157144674D02*
X205167823Y-157049436D01*
X205167823Y-157049436D02*
X205215442Y-157001817D01*
X205215442Y-157001817D02*
X205310680Y-156954198D01*
X205310680Y-156954198D02*
X205501156Y-156954198D01*
X205501156Y-156954198D02*
X205596394Y-157001817D01*
X206453537Y-157573246D02*
X206358299Y-157620865D01*
X206358299Y-157620865D02*
X206167823Y-157620865D01*
X206167823Y-157620865D02*
X206072585Y-157573246D01*
X206072585Y-157573246D02*
X206024966Y-157478007D01*
X206024966Y-157478007D02*
X206024966Y-157097055D01*
X206024966Y-157097055D02*
X206072585Y-157001817D01*
X206072585Y-157001817D02*
X206167823Y-156954198D01*
X206167823Y-156954198D02*
X206358299Y-156954198D01*
X206358299Y-156954198D02*
X206453537Y-157001817D01*
X206453537Y-157001817D02*
X206501156Y-157097055D01*
X206501156Y-157097055D02*
X206501156Y-157192293D01*
X206501156Y-157192293D02*
X206024966Y-157287531D01*
X207072585Y-157620865D02*
X206977347Y-157573246D01*
X206977347Y-157573246D02*
X206929728Y-157525626D01*
X206929728Y-157525626D02*
X206882109Y-157430388D01*
X206882109Y-157430388D02*
X206882109Y-157144674D01*
X206882109Y-157144674D02*
X206929728Y-157049436D01*
X206929728Y-157049436D02*
X206977347Y-157001817D01*
X206977347Y-157001817D02*
X207072585Y-156954198D01*
X207072585Y-156954198D02*
X207215442Y-156954198D01*
X207215442Y-156954198D02*
X207310680Y-157001817D01*
X207310680Y-157001817D02*
X207358299Y-157049436D01*
X207358299Y-157049436D02*
X207405918Y-157144674D01*
X207405918Y-157144674D02*
X207405918Y-157430388D01*
X207405918Y-157430388D02*
X207358299Y-157525626D01*
X207358299Y-157525626D02*
X207310680Y-157573246D01*
X207310680Y-157573246D02*
X207215442Y-157620865D01*
X207215442Y-157620865D02*
X207072585Y-157620865D01*
X207739252Y-158001817D02*
X207786871Y-157954198D01*
X207786871Y-157954198D02*
X207882109Y-157811341D01*
X207882109Y-157811341D02*
X207929728Y-157716103D01*
X207929728Y-157716103D02*
X207977347Y-157573246D01*
X207977347Y-157573246D02*
X208024966Y-157335150D01*
X208024966Y-157335150D02*
X208024966Y-157144674D01*
X208024966Y-157144674D02*
X207977347Y-156906579D01*
X207977347Y-156906579D02*
X207929728Y-156763722D01*
X207929728Y-156763722D02*
X207882109Y-156668484D01*
X207882109Y-156668484D02*
X207786871Y-156525626D01*
X207786871Y-156525626D02*
X207739252Y-156478007D01*
X209263062Y-157097055D02*
X209596395Y-157097055D01*
X209739252Y-157620865D02*
X209263062Y-157620865D01*
X209263062Y-157620865D02*
X209263062Y-156620865D01*
X209263062Y-156620865D02*
X209739252Y-156620865D01*
X210167824Y-157620865D02*
X210167824Y-156620865D01*
X210167824Y-156620865D02*
X210405919Y-156620865D01*
X210405919Y-156620865D02*
X210548776Y-156668484D01*
X210548776Y-156668484D02*
X210644014Y-156763722D01*
X210644014Y-156763722D02*
X210691633Y-156858960D01*
X210691633Y-156858960D02*
X210739252Y-157049436D01*
X210739252Y-157049436D02*
X210739252Y-157192293D01*
X210739252Y-157192293D02*
X210691633Y-157382769D01*
X210691633Y-157382769D02*
X210644014Y-157478007D01*
X210644014Y-157478007D02*
X210548776Y-157573246D01*
X210548776Y-157573246D02*
X210405919Y-157620865D01*
X210405919Y-157620865D02*
X210167824Y-157620865D01*
X211167824Y-157620865D02*
X211167824Y-156620865D01*
X211501157Y-156620865D02*
X212072585Y-156620865D01*
X211786871Y-157620865D02*
X211786871Y-156620865D01*
X212405919Y-157620865D02*
X212405919Y-156620865D01*
X213072585Y-156620865D02*
X213263061Y-156620865D01*
X213263061Y-156620865D02*
X213358299Y-156668484D01*
X213358299Y-156668484D02*
X213453537Y-156763722D01*
X213453537Y-156763722D02*
X213501156Y-156954198D01*
X213501156Y-156954198D02*
X213501156Y-157287531D01*
X213501156Y-157287531D02*
X213453537Y-157478007D01*
X213453537Y-157478007D02*
X213358299Y-157573246D01*
X213358299Y-157573246D02*
X213263061Y-157620865D01*
X213263061Y-157620865D02*
X213072585Y-157620865D01*
X213072585Y-157620865D02*
X212977347Y-157573246D01*
X212977347Y-157573246D02*
X212882109Y-157478007D01*
X212882109Y-157478007D02*
X212834490Y-157287531D01*
X212834490Y-157287531D02*
X212834490Y-156954198D01*
X212834490Y-156954198D02*
X212882109Y-156763722D01*
X212882109Y-156763722D02*
X212977347Y-156668484D01*
X212977347Y-156668484D02*
X213072585Y-156620865D01*
X213929728Y-157620865D02*
X213929728Y-156620865D01*
X213929728Y-156620865D02*
X214501156Y-157620865D01*
X214501156Y-157620865D02*
X214501156Y-156620865D01*
X184358298Y-159230809D02*
X183786870Y-159230809D01*
X184072584Y-159230809D02*
X184072584Y-158230809D01*
X184072584Y-158230809D02*
X183977346Y-158373666D01*
X183977346Y-158373666D02*
X183882108Y-158468904D01*
X183882108Y-158468904D02*
X183786870Y-158516523D01*
X184786870Y-159135570D02*
X184834489Y-159183190D01*
X184834489Y-159183190D02*
X184786870Y-159230809D01*
X184786870Y-159230809D02*
X184739251Y-159183190D01*
X184739251Y-159183190D02*
X184786870Y-159135570D01*
X184786870Y-159135570D02*
X184786870Y-159230809D01*
X185453536Y-158230809D02*
X185548774Y-158230809D01*
X185548774Y-158230809D02*
X185644012Y-158278428D01*
X185644012Y-158278428D02*
X185691631Y-158326047D01*
X185691631Y-158326047D02*
X185739250Y-158421285D01*
X185739250Y-158421285D02*
X185786869Y-158611761D01*
X185786869Y-158611761D02*
X185786869Y-158849856D01*
X185786869Y-158849856D02*
X185739250Y-159040332D01*
X185739250Y-159040332D02*
X185691631Y-159135570D01*
X185691631Y-159135570D02*
X185644012Y-159183190D01*
X185644012Y-159183190D02*
X185548774Y-159230809D01*
X185548774Y-159230809D02*
X185453536Y-159230809D01*
X185453536Y-159230809D02*
X185358298Y-159183190D01*
X185358298Y-159183190D02*
X185310679Y-159135570D01*
X185310679Y-159135570D02*
X185263060Y-159040332D01*
X185263060Y-159040332D02*
X185215441Y-158849856D01*
X185215441Y-158849856D02*
X185215441Y-158611761D01*
X185215441Y-158611761D02*
X185263060Y-158421285D01*
X185263060Y-158421285D02*
X185310679Y-158326047D01*
X185310679Y-158326047D02*
X185358298Y-158278428D01*
X185358298Y-158278428D02*
X185453536Y-158230809D01*
X186167822Y-158326047D02*
X186215441Y-158278428D01*
X186215441Y-158278428D02*
X186310679Y-158230809D01*
X186310679Y-158230809D02*
X186548774Y-158230809D01*
X186548774Y-158230809D02*
X186644012Y-158278428D01*
X186644012Y-158278428D02*
X186691631Y-158326047D01*
X186691631Y-158326047D02*
X186739250Y-158421285D01*
X186739250Y-158421285D02*
X186739250Y-158516523D01*
X186739250Y-158516523D02*
X186691631Y-158659380D01*
X186691631Y-158659380D02*
X186120203Y-159230809D01*
X186120203Y-159230809D02*
X186739250Y-159230809D01*
X183834489Y-160459800D02*
X184596394Y-160459800D01*
X185834489Y-160840753D02*
X185834489Y-160174086D01*
X185834489Y-159840753D02*
X185786870Y-159888372D01*
X185786870Y-159888372D02*
X185834489Y-159935991D01*
X185834489Y-159935991D02*
X185882108Y-159888372D01*
X185882108Y-159888372D02*
X185834489Y-159840753D01*
X185834489Y-159840753D02*
X185834489Y-159935991D01*
X186310679Y-160174086D02*
X186310679Y-160840753D01*
X186310679Y-160269324D02*
X186358298Y-160221705D01*
X186358298Y-160221705D02*
X186453536Y-160174086D01*
X186453536Y-160174086D02*
X186596393Y-160174086D01*
X186596393Y-160174086D02*
X186691631Y-160221705D01*
X186691631Y-160221705D02*
X186739250Y-160316943D01*
X186739250Y-160316943D02*
X186739250Y-160840753D01*
X187644012Y-160793134D02*
X187548774Y-160840753D01*
X187548774Y-160840753D02*
X187358298Y-160840753D01*
X187358298Y-160840753D02*
X187263060Y-160793134D01*
X187263060Y-160793134D02*
X187215441Y-160745514D01*
X187215441Y-160745514D02*
X187167822Y-160650276D01*
X187167822Y-160650276D02*
X187167822Y-160364562D01*
X187167822Y-160364562D02*
X187215441Y-160269324D01*
X187215441Y-160269324D02*
X187263060Y-160221705D01*
X187263060Y-160221705D02*
X187358298Y-160174086D01*
X187358298Y-160174086D02*
X187548774Y-160174086D01*
X187548774Y-160174086D02*
X187644012Y-160221705D01*
X188072584Y-160840753D02*
X188072584Y-160174086D01*
X188072584Y-160364562D02*
X188120203Y-160269324D01*
X188120203Y-160269324D02*
X188167822Y-160221705D01*
X188167822Y-160221705D02*
X188263060Y-160174086D01*
X188263060Y-160174086D02*
X188358298Y-160174086D01*
X189072584Y-160793134D02*
X188977346Y-160840753D01*
X188977346Y-160840753D02*
X188786870Y-160840753D01*
X188786870Y-160840753D02*
X188691632Y-160793134D01*
X188691632Y-160793134D02*
X188644013Y-160697895D01*
X188644013Y-160697895D02*
X188644013Y-160316943D01*
X188644013Y-160316943D02*
X188691632Y-160221705D01*
X188691632Y-160221705D02*
X188786870Y-160174086D01*
X188786870Y-160174086D02*
X188977346Y-160174086D01*
X188977346Y-160174086D02*
X189072584Y-160221705D01*
X189072584Y-160221705D02*
X189120203Y-160316943D01*
X189120203Y-160316943D02*
X189120203Y-160412181D01*
X189120203Y-160412181D02*
X188644013Y-160507419D01*
X189977346Y-160840753D02*
X189977346Y-160316943D01*
X189977346Y-160316943D02*
X189929727Y-160221705D01*
X189929727Y-160221705D02*
X189834489Y-160174086D01*
X189834489Y-160174086D02*
X189644013Y-160174086D01*
X189644013Y-160174086D02*
X189548775Y-160221705D01*
X189977346Y-160793134D02*
X189882108Y-160840753D01*
X189882108Y-160840753D02*
X189644013Y-160840753D01*
X189644013Y-160840753D02*
X189548775Y-160793134D01*
X189548775Y-160793134D02*
X189501156Y-160697895D01*
X189501156Y-160697895D02*
X189501156Y-160602657D01*
X189501156Y-160602657D02*
X189548775Y-160507419D01*
X189548775Y-160507419D02*
X189644013Y-160459800D01*
X189644013Y-160459800D02*
X189882108Y-160459800D01*
X189882108Y-160459800D02*
X189977346Y-160412181D01*
X190405918Y-160793134D02*
X190501156Y-160840753D01*
X190501156Y-160840753D02*
X190691632Y-160840753D01*
X190691632Y-160840753D02*
X190786870Y-160793134D01*
X190786870Y-160793134D02*
X190834489Y-160697895D01*
X190834489Y-160697895D02*
X190834489Y-160650276D01*
X190834489Y-160650276D02*
X190786870Y-160555038D01*
X190786870Y-160555038D02*
X190691632Y-160507419D01*
X190691632Y-160507419D02*
X190548775Y-160507419D01*
X190548775Y-160507419D02*
X190453537Y-160459800D01*
X190453537Y-160459800D02*
X190405918Y-160364562D01*
X190405918Y-160364562D02*
X190405918Y-160316943D01*
X190405918Y-160316943D02*
X190453537Y-160221705D01*
X190453537Y-160221705D02*
X190548775Y-160174086D01*
X190548775Y-160174086D02*
X190691632Y-160174086D01*
X190691632Y-160174086D02*
X190786870Y-160221705D01*
X191644013Y-160793134D02*
X191548775Y-160840753D01*
X191548775Y-160840753D02*
X191358299Y-160840753D01*
X191358299Y-160840753D02*
X191263061Y-160793134D01*
X191263061Y-160793134D02*
X191215442Y-160697895D01*
X191215442Y-160697895D02*
X191215442Y-160316943D01*
X191215442Y-160316943D02*
X191263061Y-160221705D01*
X191263061Y-160221705D02*
X191358299Y-160174086D01*
X191358299Y-160174086D02*
X191548775Y-160174086D01*
X191548775Y-160174086D02*
X191644013Y-160221705D01*
X191644013Y-160221705D02*
X191691632Y-160316943D01*
X191691632Y-160316943D02*
X191691632Y-160412181D01*
X191691632Y-160412181D02*
X191215442Y-160507419D01*
X192548775Y-160840753D02*
X192548775Y-159840753D01*
X192548775Y-160793134D02*
X192453537Y-160840753D01*
X192453537Y-160840753D02*
X192263061Y-160840753D01*
X192263061Y-160840753D02*
X192167823Y-160793134D01*
X192167823Y-160793134D02*
X192120204Y-160745514D01*
X192120204Y-160745514D02*
X192072585Y-160650276D01*
X192072585Y-160650276D02*
X192072585Y-160364562D01*
X192072585Y-160364562D02*
X192120204Y-160269324D01*
X192120204Y-160269324D02*
X192167823Y-160221705D01*
X192167823Y-160221705D02*
X192263061Y-160174086D01*
X192263061Y-160174086D02*
X192453537Y-160174086D01*
X192453537Y-160174086D02*
X192548775Y-160221705D01*
X194215442Y-160174086D02*
X194215442Y-160983610D01*
X194215442Y-160983610D02*
X194167823Y-161078848D01*
X194167823Y-161078848D02*
X194120204Y-161126467D01*
X194120204Y-161126467D02*
X194024966Y-161174086D01*
X194024966Y-161174086D02*
X193882109Y-161174086D01*
X193882109Y-161174086D02*
X193786871Y-161126467D01*
X194215442Y-160793134D02*
X194120204Y-160840753D01*
X194120204Y-160840753D02*
X193929728Y-160840753D01*
X193929728Y-160840753D02*
X193834490Y-160793134D01*
X193834490Y-160793134D02*
X193786871Y-160745514D01*
X193786871Y-160745514D02*
X193739252Y-160650276D01*
X193739252Y-160650276D02*
X193739252Y-160364562D01*
X193739252Y-160364562D02*
X193786871Y-160269324D01*
X193786871Y-160269324D02*
X193834490Y-160221705D01*
X193834490Y-160221705D02*
X193929728Y-160174086D01*
X193929728Y-160174086D02*
X194120204Y-160174086D01*
X194120204Y-160174086D02*
X194215442Y-160221705D01*
X195120204Y-160840753D02*
X195120204Y-160316943D01*
X195120204Y-160316943D02*
X195072585Y-160221705D01*
X195072585Y-160221705D02*
X194977347Y-160174086D01*
X194977347Y-160174086D02*
X194786871Y-160174086D01*
X194786871Y-160174086D02*
X194691633Y-160221705D01*
X195120204Y-160793134D02*
X195024966Y-160840753D01*
X195024966Y-160840753D02*
X194786871Y-160840753D01*
X194786871Y-160840753D02*
X194691633Y-160793134D01*
X194691633Y-160793134D02*
X194644014Y-160697895D01*
X194644014Y-160697895D02*
X194644014Y-160602657D01*
X194644014Y-160602657D02*
X194691633Y-160507419D01*
X194691633Y-160507419D02*
X194786871Y-160459800D01*
X194786871Y-160459800D02*
X195024966Y-160459800D01*
X195024966Y-160459800D02*
X195120204Y-160412181D01*
X195453538Y-160174086D02*
X195834490Y-160174086D01*
X195596395Y-159840753D02*
X195596395Y-160697895D01*
X195596395Y-160697895D02*
X195644014Y-160793134D01*
X195644014Y-160793134D02*
X195739252Y-160840753D01*
X195739252Y-160840753D02*
X195834490Y-160840753D01*
X196548776Y-160793134D02*
X196453538Y-160840753D01*
X196453538Y-160840753D02*
X196263062Y-160840753D01*
X196263062Y-160840753D02*
X196167824Y-160793134D01*
X196167824Y-160793134D02*
X196120205Y-160697895D01*
X196120205Y-160697895D02*
X196120205Y-160316943D01*
X196120205Y-160316943D02*
X196167824Y-160221705D01*
X196167824Y-160221705D02*
X196263062Y-160174086D01*
X196263062Y-160174086D02*
X196453538Y-160174086D01*
X196453538Y-160174086D02*
X196548776Y-160221705D01*
X196548776Y-160221705D02*
X196596395Y-160316943D01*
X196596395Y-160316943D02*
X196596395Y-160412181D01*
X196596395Y-160412181D02*
X196120205Y-160507419D01*
X197786872Y-160840753D02*
X197786872Y-160174086D01*
X197786872Y-160364562D02*
X197834491Y-160269324D01*
X197834491Y-160269324D02*
X197882110Y-160221705D01*
X197882110Y-160221705D02*
X197977348Y-160174086D01*
X197977348Y-160174086D02*
X198072586Y-160174086D01*
X198786872Y-160793134D02*
X198691634Y-160840753D01*
X198691634Y-160840753D02*
X198501158Y-160840753D01*
X198501158Y-160840753D02*
X198405920Y-160793134D01*
X198405920Y-160793134D02*
X198358301Y-160697895D01*
X198358301Y-160697895D02*
X198358301Y-160316943D01*
X198358301Y-160316943D02*
X198405920Y-160221705D01*
X198405920Y-160221705D02*
X198501158Y-160174086D01*
X198501158Y-160174086D02*
X198691634Y-160174086D01*
X198691634Y-160174086D02*
X198786872Y-160221705D01*
X198786872Y-160221705D02*
X198834491Y-160316943D01*
X198834491Y-160316943D02*
X198834491Y-160412181D01*
X198834491Y-160412181D02*
X198358301Y-160507419D01*
X199215444Y-160793134D02*
X199310682Y-160840753D01*
X199310682Y-160840753D02*
X199501158Y-160840753D01*
X199501158Y-160840753D02*
X199596396Y-160793134D01*
X199596396Y-160793134D02*
X199644015Y-160697895D01*
X199644015Y-160697895D02*
X199644015Y-160650276D01*
X199644015Y-160650276D02*
X199596396Y-160555038D01*
X199596396Y-160555038D02*
X199501158Y-160507419D01*
X199501158Y-160507419D02*
X199358301Y-160507419D01*
X199358301Y-160507419D02*
X199263063Y-160459800D01*
X199263063Y-160459800D02*
X199215444Y-160364562D01*
X199215444Y-160364562D02*
X199215444Y-160316943D01*
X199215444Y-160316943D02*
X199263063Y-160221705D01*
X199263063Y-160221705D02*
X199358301Y-160174086D01*
X199358301Y-160174086D02*
X199501158Y-160174086D01*
X199501158Y-160174086D02*
X199596396Y-160221705D01*
X200072587Y-160840753D02*
X200072587Y-160174086D01*
X200072587Y-159840753D02*
X200024968Y-159888372D01*
X200024968Y-159888372D02*
X200072587Y-159935991D01*
X200072587Y-159935991D02*
X200120206Y-159888372D01*
X200120206Y-159888372D02*
X200072587Y-159840753D01*
X200072587Y-159840753D02*
X200072587Y-159935991D01*
X200501158Y-160793134D02*
X200596396Y-160840753D01*
X200596396Y-160840753D02*
X200786872Y-160840753D01*
X200786872Y-160840753D02*
X200882110Y-160793134D01*
X200882110Y-160793134D02*
X200929729Y-160697895D01*
X200929729Y-160697895D02*
X200929729Y-160650276D01*
X200929729Y-160650276D02*
X200882110Y-160555038D01*
X200882110Y-160555038D02*
X200786872Y-160507419D01*
X200786872Y-160507419D02*
X200644015Y-160507419D01*
X200644015Y-160507419D02*
X200548777Y-160459800D01*
X200548777Y-160459800D02*
X200501158Y-160364562D01*
X200501158Y-160364562D02*
X200501158Y-160316943D01*
X200501158Y-160316943D02*
X200548777Y-160221705D01*
X200548777Y-160221705D02*
X200644015Y-160174086D01*
X200644015Y-160174086D02*
X200786872Y-160174086D01*
X200786872Y-160174086D02*
X200882110Y-160221705D01*
X201215444Y-160174086D02*
X201596396Y-160174086D01*
X201358301Y-159840753D02*
X201358301Y-160697895D01*
X201358301Y-160697895D02*
X201405920Y-160793134D01*
X201405920Y-160793134D02*
X201501158Y-160840753D01*
X201501158Y-160840753D02*
X201596396Y-160840753D01*
X202072587Y-160840753D02*
X201977349Y-160793134D01*
X201977349Y-160793134D02*
X201929730Y-160745514D01*
X201929730Y-160745514D02*
X201882111Y-160650276D01*
X201882111Y-160650276D02*
X201882111Y-160364562D01*
X201882111Y-160364562D02*
X201929730Y-160269324D01*
X201929730Y-160269324D02*
X201977349Y-160221705D01*
X201977349Y-160221705D02*
X202072587Y-160174086D01*
X202072587Y-160174086D02*
X202215444Y-160174086D01*
X202215444Y-160174086D02*
X202310682Y-160221705D01*
X202310682Y-160221705D02*
X202358301Y-160269324D01*
X202358301Y-160269324D02*
X202405920Y-160364562D01*
X202405920Y-160364562D02*
X202405920Y-160650276D01*
X202405920Y-160650276D02*
X202358301Y-160745514D01*
X202358301Y-160745514D02*
X202310682Y-160793134D01*
X202310682Y-160793134D02*
X202215444Y-160840753D01*
X202215444Y-160840753D02*
X202072587Y-160840753D01*
X202834492Y-160840753D02*
X202834492Y-160174086D01*
X202834492Y-160364562D02*
X202882111Y-160269324D01*
X202882111Y-160269324D02*
X202929730Y-160221705D01*
X202929730Y-160221705D02*
X203024968Y-160174086D01*
X203024968Y-160174086D02*
X203120206Y-160174086D01*
X203405921Y-160793134D02*
X203501159Y-160840753D01*
X203501159Y-160840753D02*
X203691635Y-160840753D01*
X203691635Y-160840753D02*
X203786873Y-160793134D01*
X203786873Y-160793134D02*
X203834492Y-160697895D01*
X203834492Y-160697895D02*
X203834492Y-160650276D01*
X203834492Y-160650276D02*
X203786873Y-160555038D01*
X203786873Y-160555038D02*
X203691635Y-160507419D01*
X203691635Y-160507419D02*
X203548778Y-160507419D01*
X203548778Y-160507419D02*
X203453540Y-160459800D01*
X203453540Y-160459800D02*
X203405921Y-160364562D01*
X203405921Y-160364562D02*
X203405921Y-160316943D01*
X203405921Y-160316943D02*
X203453540Y-160221705D01*
X203453540Y-160221705D02*
X203548778Y-160174086D01*
X203548778Y-160174086D02*
X203691635Y-160174086D01*
X203691635Y-160174086D02*
X203786873Y-160221705D01*
X204882112Y-160174086D02*
X205263064Y-160174086D01*
X205024969Y-159840753D02*
X205024969Y-160697895D01*
X205024969Y-160697895D02*
X205072588Y-160793134D01*
X205072588Y-160793134D02*
X205167826Y-160840753D01*
X205167826Y-160840753D02*
X205263064Y-160840753D01*
X205739255Y-160840753D02*
X205644017Y-160793134D01*
X205644017Y-160793134D02*
X205596398Y-160745514D01*
X205596398Y-160745514D02*
X205548779Y-160650276D01*
X205548779Y-160650276D02*
X205548779Y-160364562D01*
X205548779Y-160364562D02*
X205596398Y-160269324D01*
X205596398Y-160269324D02*
X205644017Y-160221705D01*
X205644017Y-160221705D02*
X205739255Y-160174086D01*
X205739255Y-160174086D02*
X205882112Y-160174086D01*
X205882112Y-160174086D02*
X205977350Y-160221705D01*
X205977350Y-160221705D02*
X206024969Y-160269324D01*
X206024969Y-160269324D02*
X206072588Y-160364562D01*
X206072588Y-160364562D02*
X206072588Y-160650276D01*
X206072588Y-160650276D02*
X206024969Y-160745514D01*
X206024969Y-160745514D02*
X205977350Y-160793134D01*
X205977350Y-160793134D02*
X205882112Y-160840753D01*
X205882112Y-160840753D02*
X205739255Y-160840753D01*
X207215446Y-160793134D02*
X207310684Y-160840753D01*
X207310684Y-160840753D02*
X207501160Y-160840753D01*
X207501160Y-160840753D02*
X207596398Y-160793134D01*
X207596398Y-160793134D02*
X207644017Y-160697895D01*
X207644017Y-160697895D02*
X207644017Y-160650276D01*
X207644017Y-160650276D02*
X207596398Y-160555038D01*
X207596398Y-160555038D02*
X207501160Y-160507419D01*
X207501160Y-160507419D02*
X207358303Y-160507419D01*
X207358303Y-160507419D02*
X207263065Y-160459800D01*
X207263065Y-160459800D02*
X207215446Y-160364562D01*
X207215446Y-160364562D02*
X207215446Y-160316943D01*
X207215446Y-160316943D02*
X207263065Y-160221705D01*
X207263065Y-160221705D02*
X207358303Y-160174086D01*
X207358303Y-160174086D02*
X207501160Y-160174086D01*
X207501160Y-160174086D02*
X207596398Y-160221705D01*
X208072589Y-160840753D02*
X208072589Y-160174086D01*
X208072589Y-159840753D02*
X208024970Y-159888372D01*
X208024970Y-159888372D02*
X208072589Y-159935991D01*
X208072589Y-159935991D02*
X208120208Y-159888372D01*
X208120208Y-159888372D02*
X208072589Y-159840753D01*
X208072589Y-159840753D02*
X208072589Y-159935991D01*
X208453541Y-160174086D02*
X208977350Y-160174086D01*
X208977350Y-160174086D02*
X208453541Y-160840753D01*
X208453541Y-160840753D02*
X208977350Y-160840753D01*
X209739255Y-160793134D02*
X209644017Y-160840753D01*
X209644017Y-160840753D02*
X209453541Y-160840753D01*
X209453541Y-160840753D02*
X209358303Y-160793134D01*
X209358303Y-160793134D02*
X209310684Y-160697895D01*
X209310684Y-160697895D02*
X209310684Y-160316943D01*
X209310684Y-160316943D02*
X209358303Y-160221705D01*
X209358303Y-160221705D02*
X209453541Y-160174086D01*
X209453541Y-160174086D02*
X209644017Y-160174086D01*
X209644017Y-160174086D02*
X209739255Y-160221705D01*
X209739255Y-160221705D02*
X209786874Y-160316943D01*
X209786874Y-160316943D02*
X209786874Y-160412181D01*
X209786874Y-160412181D02*
X209310684Y-160507419D01*
X210929732Y-159935991D02*
X210977351Y-159888372D01*
X210977351Y-159888372D02*
X211072589Y-159840753D01*
X211072589Y-159840753D02*
X211310684Y-159840753D01*
X211310684Y-159840753D02*
X211405922Y-159888372D01*
X211405922Y-159888372D02*
X211453541Y-159935991D01*
X211453541Y-159935991D02*
X211501160Y-160031229D01*
X211501160Y-160031229D02*
X211501160Y-160126467D01*
X211501160Y-160126467D02*
X211453541Y-160269324D01*
X211453541Y-160269324D02*
X210882113Y-160840753D01*
X210882113Y-160840753D02*
X211501160Y-160840753D01*
X212120208Y-159840753D02*
X212215446Y-159840753D01*
X212215446Y-159840753D02*
X212310684Y-159888372D01*
X212310684Y-159888372D02*
X212358303Y-159935991D01*
X212358303Y-159935991D02*
X212405922Y-160031229D01*
X212405922Y-160031229D02*
X212453541Y-160221705D01*
X212453541Y-160221705D02*
X212453541Y-160459800D01*
X212453541Y-160459800D02*
X212405922Y-160650276D01*
X212405922Y-160650276D02*
X212358303Y-160745514D01*
X212358303Y-160745514D02*
X212310684Y-160793134D01*
X212310684Y-160793134D02*
X212215446Y-160840753D01*
X212215446Y-160840753D02*
X212120208Y-160840753D01*
X212120208Y-160840753D02*
X212024970Y-160793134D01*
X212024970Y-160793134D02*
X211977351Y-160745514D01*
X211977351Y-160745514D02*
X211929732Y-160650276D01*
X211929732Y-160650276D02*
X211882113Y-160459800D01*
X211882113Y-160459800D02*
X211882113Y-160221705D01*
X211882113Y-160221705D02*
X211929732Y-160031229D01*
X211929732Y-160031229D02*
X211977351Y-159935991D01*
X211977351Y-159935991D02*
X212024970Y-159888372D01*
X212024970Y-159888372D02*
X212120208Y-159840753D01*
X213405922Y-160840753D02*
X212834494Y-160840753D01*
X213120208Y-160840753D02*
X213120208Y-159840753D01*
X213120208Y-159840753D02*
X213024970Y-159983610D01*
X213024970Y-159983610D02*
X212929732Y-160078848D01*
X212929732Y-160078848D02*
X212834494Y-160126467D01*
X214024970Y-159840753D02*
X214120208Y-159840753D01*
X214120208Y-159840753D02*
X214215446Y-159888372D01*
X214215446Y-159888372D02*
X214263065Y-159935991D01*
X214263065Y-159935991D02*
X214310684Y-160031229D01*
X214310684Y-160031229D02*
X214358303Y-160221705D01*
X214358303Y-160221705D02*
X214358303Y-160459800D01*
X214358303Y-160459800D02*
X214310684Y-160650276D01*
X214310684Y-160650276D02*
X214263065Y-160745514D01*
X214263065Y-160745514D02*
X214215446Y-160793134D01*
X214215446Y-160793134D02*
X214120208Y-160840753D01*
X214120208Y-160840753D02*
X214024970Y-160840753D01*
X214024970Y-160840753D02*
X213929732Y-160793134D01*
X213929732Y-160793134D02*
X213882113Y-160745514D01*
X213882113Y-160745514D02*
X213834494Y-160650276D01*
X213834494Y-160650276D02*
X213786875Y-160459800D01*
X213786875Y-160459800D02*
X213786875Y-160221705D01*
X213786875Y-160221705D02*
X213834494Y-160031229D01*
X213834494Y-160031229D02*
X213882113Y-159935991D01*
X213882113Y-159935991D02*
X213929732Y-159888372D01*
X213929732Y-159888372D02*
X214024970Y-159840753D01*
X183834489Y-162069744D02*
X184596394Y-162069744D01*
X185834489Y-162450697D02*
X185834489Y-161784030D01*
X185834489Y-161450697D02*
X185786870Y-161498316D01*
X185786870Y-161498316D02*
X185834489Y-161545935D01*
X185834489Y-161545935D02*
X185882108Y-161498316D01*
X185882108Y-161498316D02*
X185834489Y-161450697D01*
X185834489Y-161450697D02*
X185834489Y-161545935D01*
X186310679Y-161784030D02*
X186310679Y-162450697D01*
X186310679Y-161879268D02*
X186358298Y-161831649D01*
X186358298Y-161831649D02*
X186453536Y-161784030D01*
X186453536Y-161784030D02*
X186596393Y-161784030D01*
X186596393Y-161784030D02*
X186691631Y-161831649D01*
X186691631Y-161831649D02*
X186739250Y-161926887D01*
X186739250Y-161926887D02*
X186739250Y-162450697D01*
X187644012Y-162403078D02*
X187548774Y-162450697D01*
X187548774Y-162450697D02*
X187358298Y-162450697D01*
X187358298Y-162450697D02*
X187263060Y-162403078D01*
X187263060Y-162403078D02*
X187215441Y-162355458D01*
X187215441Y-162355458D02*
X187167822Y-162260220D01*
X187167822Y-162260220D02*
X187167822Y-161974506D01*
X187167822Y-161974506D02*
X187215441Y-161879268D01*
X187215441Y-161879268D02*
X187263060Y-161831649D01*
X187263060Y-161831649D02*
X187358298Y-161784030D01*
X187358298Y-161784030D02*
X187548774Y-161784030D01*
X187548774Y-161784030D02*
X187644012Y-161831649D01*
X188072584Y-162450697D02*
X188072584Y-161784030D01*
X188072584Y-161974506D02*
X188120203Y-161879268D01*
X188120203Y-161879268D02*
X188167822Y-161831649D01*
X188167822Y-161831649D02*
X188263060Y-161784030D01*
X188263060Y-161784030D02*
X188358298Y-161784030D01*
X189072584Y-162403078D02*
X188977346Y-162450697D01*
X188977346Y-162450697D02*
X188786870Y-162450697D01*
X188786870Y-162450697D02*
X188691632Y-162403078D01*
X188691632Y-162403078D02*
X188644013Y-162307839D01*
X188644013Y-162307839D02*
X188644013Y-161926887D01*
X188644013Y-161926887D02*
X188691632Y-161831649D01*
X188691632Y-161831649D02*
X188786870Y-161784030D01*
X188786870Y-161784030D02*
X188977346Y-161784030D01*
X188977346Y-161784030D02*
X189072584Y-161831649D01*
X189072584Y-161831649D02*
X189120203Y-161926887D01*
X189120203Y-161926887D02*
X189120203Y-162022125D01*
X189120203Y-162022125D02*
X188644013Y-162117363D01*
X189977346Y-162450697D02*
X189977346Y-161926887D01*
X189977346Y-161926887D02*
X189929727Y-161831649D01*
X189929727Y-161831649D02*
X189834489Y-161784030D01*
X189834489Y-161784030D02*
X189644013Y-161784030D01*
X189644013Y-161784030D02*
X189548775Y-161831649D01*
X189977346Y-162403078D02*
X189882108Y-162450697D01*
X189882108Y-162450697D02*
X189644013Y-162450697D01*
X189644013Y-162450697D02*
X189548775Y-162403078D01*
X189548775Y-162403078D02*
X189501156Y-162307839D01*
X189501156Y-162307839D02*
X189501156Y-162212601D01*
X189501156Y-162212601D02*
X189548775Y-162117363D01*
X189548775Y-162117363D02*
X189644013Y-162069744D01*
X189644013Y-162069744D02*
X189882108Y-162069744D01*
X189882108Y-162069744D02*
X189977346Y-162022125D01*
X190405918Y-162403078D02*
X190501156Y-162450697D01*
X190501156Y-162450697D02*
X190691632Y-162450697D01*
X190691632Y-162450697D02*
X190786870Y-162403078D01*
X190786870Y-162403078D02*
X190834489Y-162307839D01*
X190834489Y-162307839D02*
X190834489Y-162260220D01*
X190834489Y-162260220D02*
X190786870Y-162164982D01*
X190786870Y-162164982D02*
X190691632Y-162117363D01*
X190691632Y-162117363D02*
X190548775Y-162117363D01*
X190548775Y-162117363D02*
X190453537Y-162069744D01*
X190453537Y-162069744D02*
X190405918Y-161974506D01*
X190405918Y-161974506D02*
X190405918Y-161926887D01*
X190405918Y-161926887D02*
X190453537Y-161831649D01*
X190453537Y-161831649D02*
X190548775Y-161784030D01*
X190548775Y-161784030D02*
X190691632Y-161784030D01*
X190691632Y-161784030D02*
X190786870Y-161831649D01*
X191644013Y-162403078D02*
X191548775Y-162450697D01*
X191548775Y-162450697D02*
X191358299Y-162450697D01*
X191358299Y-162450697D02*
X191263061Y-162403078D01*
X191263061Y-162403078D02*
X191215442Y-162307839D01*
X191215442Y-162307839D02*
X191215442Y-161926887D01*
X191215442Y-161926887D02*
X191263061Y-161831649D01*
X191263061Y-161831649D02*
X191358299Y-161784030D01*
X191358299Y-161784030D02*
X191548775Y-161784030D01*
X191548775Y-161784030D02*
X191644013Y-161831649D01*
X191644013Y-161831649D02*
X191691632Y-161926887D01*
X191691632Y-161926887D02*
X191691632Y-162022125D01*
X191691632Y-162022125D02*
X191215442Y-162117363D01*
X192548775Y-162450697D02*
X192548775Y-161450697D01*
X192548775Y-162403078D02*
X192453537Y-162450697D01*
X192453537Y-162450697D02*
X192263061Y-162450697D01*
X192263061Y-162450697D02*
X192167823Y-162403078D01*
X192167823Y-162403078D02*
X192120204Y-162355458D01*
X192120204Y-162355458D02*
X192072585Y-162260220D01*
X192072585Y-162260220D02*
X192072585Y-161974506D01*
X192072585Y-161974506D02*
X192120204Y-161879268D01*
X192120204Y-161879268D02*
X192167823Y-161831649D01*
X192167823Y-161831649D02*
X192263061Y-161784030D01*
X192263061Y-161784030D02*
X192453537Y-161784030D01*
X192453537Y-161784030D02*
X192548775Y-161831649D01*
X193786871Y-162450697D02*
X193786871Y-161450697D01*
X194215442Y-162450697D02*
X194215442Y-161926887D01*
X194215442Y-161926887D02*
X194167823Y-161831649D01*
X194167823Y-161831649D02*
X194072585Y-161784030D01*
X194072585Y-161784030D02*
X193929728Y-161784030D01*
X193929728Y-161784030D02*
X193834490Y-161831649D01*
X193834490Y-161831649D02*
X193786871Y-161879268D01*
X195072585Y-162403078D02*
X194977347Y-162450697D01*
X194977347Y-162450697D02*
X194786871Y-162450697D01*
X194786871Y-162450697D02*
X194691633Y-162403078D01*
X194691633Y-162403078D02*
X194644014Y-162307839D01*
X194644014Y-162307839D02*
X194644014Y-161926887D01*
X194644014Y-161926887D02*
X194691633Y-161831649D01*
X194691633Y-161831649D02*
X194786871Y-161784030D01*
X194786871Y-161784030D02*
X194977347Y-161784030D01*
X194977347Y-161784030D02*
X195072585Y-161831649D01*
X195072585Y-161831649D02*
X195120204Y-161926887D01*
X195120204Y-161926887D02*
X195120204Y-162022125D01*
X195120204Y-162022125D02*
X194644014Y-162117363D01*
X195977347Y-162450697D02*
X195977347Y-161926887D01*
X195977347Y-161926887D02*
X195929728Y-161831649D01*
X195929728Y-161831649D02*
X195834490Y-161784030D01*
X195834490Y-161784030D02*
X195644014Y-161784030D01*
X195644014Y-161784030D02*
X195548776Y-161831649D01*
X195977347Y-162403078D02*
X195882109Y-162450697D01*
X195882109Y-162450697D02*
X195644014Y-162450697D01*
X195644014Y-162450697D02*
X195548776Y-162403078D01*
X195548776Y-162403078D02*
X195501157Y-162307839D01*
X195501157Y-162307839D02*
X195501157Y-162212601D01*
X195501157Y-162212601D02*
X195548776Y-162117363D01*
X195548776Y-162117363D02*
X195644014Y-162069744D01*
X195644014Y-162069744D02*
X195882109Y-162069744D01*
X195882109Y-162069744D02*
X195977347Y-162022125D01*
X196310681Y-161784030D02*
X196691633Y-161784030D01*
X196453538Y-161450697D02*
X196453538Y-162307839D01*
X196453538Y-162307839D02*
X196501157Y-162403078D01*
X196501157Y-162403078D02*
X196596395Y-162450697D01*
X196596395Y-162450697D02*
X196691633Y-162450697D01*
X196977348Y-162403078D02*
X197072586Y-162450697D01*
X197072586Y-162450697D02*
X197263062Y-162450697D01*
X197263062Y-162450697D02*
X197358300Y-162403078D01*
X197358300Y-162403078D02*
X197405919Y-162307839D01*
X197405919Y-162307839D02*
X197405919Y-162260220D01*
X197405919Y-162260220D02*
X197358300Y-162164982D01*
X197358300Y-162164982D02*
X197263062Y-162117363D01*
X197263062Y-162117363D02*
X197120205Y-162117363D01*
X197120205Y-162117363D02*
X197024967Y-162069744D01*
X197024967Y-162069744D02*
X196977348Y-161974506D01*
X196977348Y-161974506D02*
X196977348Y-161926887D01*
X196977348Y-161926887D02*
X197024967Y-161831649D01*
X197024967Y-161831649D02*
X197120205Y-161784030D01*
X197120205Y-161784030D02*
X197263062Y-161784030D01*
X197263062Y-161784030D02*
X197358300Y-161831649D01*
X197834491Y-162450697D02*
X197834491Y-161784030D01*
X197834491Y-161450697D02*
X197786872Y-161498316D01*
X197786872Y-161498316D02*
X197834491Y-161545935D01*
X197834491Y-161545935D02*
X197882110Y-161498316D01*
X197882110Y-161498316D02*
X197834491Y-161450697D01*
X197834491Y-161450697D02*
X197834491Y-161545935D01*
X198310681Y-161784030D02*
X198310681Y-162450697D01*
X198310681Y-161879268D02*
X198358300Y-161831649D01*
X198358300Y-161831649D02*
X198453538Y-161784030D01*
X198453538Y-161784030D02*
X198596395Y-161784030D01*
X198596395Y-161784030D02*
X198691633Y-161831649D01*
X198691633Y-161831649D02*
X198739252Y-161926887D01*
X198739252Y-161926887D02*
X198739252Y-162450697D01*
X199215443Y-162450697D02*
X199215443Y-161450697D01*
X199310681Y-162069744D02*
X199596395Y-162450697D01*
X199596395Y-161784030D02*
X199215443Y-162164982D01*
X200786872Y-161784030D02*
X200786872Y-162784030D01*
X200786872Y-161831649D02*
X200882110Y-161784030D01*
X200882110Y-161784030D02*
X201072586Y-161784030D01*
X201072586Y-161784030D02*
X201167824Y-161831649D01*
X201167824Y-161831649D02*
X201215443Y-161879268D01*
X201215443Y-161879268D02*
X201263062Y-161974506D01*
X201263062Y-161974506D02*
X201263062Y-162260220D01*
X201263062Y-162260220D02*
X201215443Y-162355458D01*
X201215443Y-162355458D02*
X201167824Y-162403078D01*
X201167824Y-162403078D02*
X201072586Y-162450697D01*
X201072586Y-162450697D02*
X200882110Y-162450697D01*
X200882110Y-162450697D02*
X200786872Y-162403078D01*
X202120205Y-161784030D02*
X202120205Y-162450697D01*
X201691634Y-161784030D02*
X201691634Y-162307839D01*
X201691634Y-162307839D02*
X201739253Y-162403078D01*
X201739253Y-162403078D02*
X201834491Y-162450697D01*
X201834491Y-162450697D02*
X201977348Y-162450697D01*
X201977348Y-162450697D02*
X202072586Y-162403078D01*
X202072586Y-162403078D02*
X202120205Y-162355458D01*
X202548777Y-162403078D02*
X202644015Y-162450697D01*
X202644015Y-162450697D02*
X202834491Y-162450697D01*
X202834491Y-162450697D02*
X202929729Y-162403078D01*
X202929729Y-162403078D02*
X202977348Y-162307839D01*
X202977348Y-162307839D02*
X202977348Y-162260220D01*
X202977348Y-162260220D02*
X202929729Y-162164982D01*
X202929729Y-162164982D02*
X202834491Y-162117363D01*
X202834491Y-162117363D02*
X202691634Y-162117363D01*
X202691634Y-162117363D02*
X202596396Y-162069744D01*
X202596396Y-162069744D02*
X202548777Y-161974506D01*
X202548777Y-161974506D02*
X202548777Y-161926887D01*
X202548777Y-161926887D02*
X202596396Y-161831649D01*
X202596396Y-161831649D02*
X202691634Y-161784030D01*
X202691634Y-161784030D02*
X202834491Y-161784030D01*
X202834491Y-161784030D02*
X202929729Y-161831649D01*
X203405920Y-162450697D02*
X203405920Y-161450697D01*
X203834491Y-162450697D02*
X203834491Y-161926887D01*
X203834491Y-161926887D02*
X203786872Y-161831649D01*
X203786872Y-161831649D02*
X203691634Y-161784030D01*
X203691634Y-161784030D02*
X203548777Y-161784030D01*
X203548777Y-161784030D02*
X203453539Y-161831649D01*
X203453539Y-161831649D02*
X203405920Y-161879268D01*
X204310682Y-161784030D02*
X204310682Y-162784030D01*
X204310682Y-161831649D02*
X204405920Y-161784030D01*
X204405920Y-161784030D02*
X204596396Y-161784030D01*
X204596396Y-161784030D02*
X204691634Y-161831649D01*
X204691634Y-161831649D02*
X204739253Y-161879268D01*
X204739253Y-161879268D02*
X204786872Y-161974506D01*
X204786872Y-161974506D02*
X204786872Y-162260220D01*
X204786872Y-162260220D02*
X204739253Y-162355458D01*
X204739253Y-162355458D02*
X204691634Y-162403078D01*
X204691634Y-162403078D02*
X204596396Y-162450697D01*
X204596396Y-162450697D02*
X204405920Y-162450697D01*
X204405920Y-162450697D02*
X204310682Y-162403078D01*
X205215444Y-162450697D02*
X205215444Y-161784030D01*
X205215444Y-161450697D02*
X205167825Y-161498316D01*
X205167825Y-161498316D02*
X205215444Y-161545935D01*
X205215444Y-161545935D02*
X205263063Y-161498316D01*
X205263063Y-161498316D02*
X205215444Y-161450697D01*
X205215444Y-161450697D02*
X205215444Y-161545935D01*
X205691634Y-161784030D02*
X205691634Y-162450697D01*
X205691634Y-161879268D02*
X205739253Y-161831649D01*
X205739253Y-161831649D02*
X205834491Y-161784030D01*
X205834491Y-161784030D02*
X205977348Y-161784030D01*
X205977348Y-161784030D02*
X206072586Y-161831649D01*
X206072586Y-161831649D02*
X206120205Y-161926887D01*
X206120205Y-161926887D02*
X206120205Y-162450697D01*
X207358301Y-162450697D02*
X207358301Y-161450697D01*
X207786872Y-162450697D02*
X207786872Y-161926887D01*
X207786872Y-161926887D02*
X207739253Y-161831649D01*
X207739253Y-161831649D02*
X207644015Y-161784030D01*
X207644015Y-161784030D02*
X207501158Y-161784030D01*
X207501158Y-161784030D02*
X207405920Y-161831649D01*
X207405920Y-161831649D02*
X207358301Y-161879268D01*
X208405920Y-162450697D02*
X208310682Y-162403078D01*
X208310682Y-162403078D02*
X208263063Y-162355458D01*
X208263063Y-162355458D02*
X208215444Y-162260220D01*
X208215444Y-162260220D02*
X208215444Y-161974506D01*
X208215444Y-161974506D02*
X208263063Y-161879268D01*
X208263063Y-161879268D02*
X208310682Y-161831649D01*
X208310682Y-161831649D02*
X208405920Y-161784030D01*
X208405920Y-161784030D02*
X208548777Y-161784030D01*
X208548777Y-161784030D02*
X208644015Y-161831649D01*
X208644015Y-161831649D02*
X208691634Y-161879268D01*
X208691634Y-161879268D02*
X208739253Y-161974506D01*
X208739253Y-161974506D02*
X208739253Y-162260220D01*
X208739253Y-162260220D02*
X208691634Y-162355458D01*
X208691634Y-162355458D02*
X208644015Y-162403078D01*
X208644015Y-162403078D02*
X208548777Y-162450697D01*
X208548777Y-162450697D02*
X208405920Y-162450697D01*
X209310682Y-162450697D02*
X209215444Y-162403078D01*
X209215444Y-162403078D02*
X209167825Y-162307839D01*
X209167825Y-162307839D02*
X209167825Y-161450697D01*
X210072587Y-162403078D02*
X209977349Y-162450697D01*
X209977349Y-162450697D02*
X209786873Y-162450697D01*
X209786873Y-162450697D02*
X209691635Y-162403078D01*
X209691635Y-162403078D02*
X209644016Y-162307839D01*
X209644016Y-162307839D02*
X209644016Y-161926887D01*
X209644016Y-161926887D02*
X209691635Y-161831649D01*
X209691635Y-161831649D02*
X209786873Y-161784030D01*
X209786873Y-161784030D02*
X209977349Y-161784030D01*
X209977349Y-161784030D02*
X210072587Y-161831649D01*
X210072587Y-161831649D02*
X210120206Y-161926887D01*
X210120206Y-161926887D02*
X210120206Y-162022125D01*
X210120206Y-162022125D02*
X209644016Y-162117363D01*
X210501159Y-162403078D02*
X210596397Y-162450697D01*
X210596397Y-162450697D02*
X210786873Y-162450697D01*
X210786873Y-162450697D02*
X210882111Y-162403078D01*
X210882111Y-162403078D02*
X210929730Y-162307839D01*
X210929730Y-162307839D02*
X210929730Y-162260220D01*
X210929730Y-162260220D02*
X210882111Y-162164982D01*
X210882111Y-162164982D02*
X210786873Y-162117363D01*
X210786873Y-162117363D02*
X210644016Y-162117363D01*
X210644016Y-162117363D02*
X210548778Y-162069744D01*
X210548778Y-162069744D02*
X210501159Y-161974506D01*
X210501159Y-161974506D02*
X210501159Y-161926887D01*
X210501159Y-161926887D02*
X210548778Y-161831649D01*
X210548778Y-161831649D02*
X210644016Y-161784030D01*
X210644016Y-161784030D02*
X210786873Y-161784030D01*
X210786873Y-161784030D02*
X210882111Y-161831649D01*
X211977350Y-161784030D02*
X212358302Y-161784030D01*
X212120207Y-162450697D02*
X212120207Y-161593554D01*
X212120207Y-161593554D02*
X212167826Y-161498316D01*
X212167826Y-161498316D02*
X212263064Y-161450697D01*
X212263064Y-161450697D02*
X212358302Y-161450697D01*
X212691636Y-162450697D02*
X212691636Y-161784030D01*
X212691636Y-161974506D02*
X212739255Y-161879268D01*
X212739255Y-161879268D02*
X212786874Y-161831649D01*
X212786874Y-161831649D02*
X212882112Y-161784030D01*
X212882112Y-161784030D02*
X212977350Y-161784030D01*
X213453541Y-162450697D02*
X213358303Y-162403078D01*
X213358303Y-162403078D02*
X213310684Y-162355458D01*
X213310684Y-162355458D02*
X213263065Y-162260220D01*
X213263065Y-162260220D02*
X213263065Y-161974506D01*
X213263065Y-161974506D02*
X213310684Y-161879268D01*
X213310684Y-161879268D02*
X213358303Y-161831649D01*
X213358303Y-161831649D02*
X213453541Y-161784030D01*
X213453541Y-161784030D02*
X213596398Y-161784030D01*
X213596398Y-161784030D02*
X213691636Y-161831649D01*
X213691636Y-161831649D02*
X213739255Y-161879268D01*
X213739255Y-161879268D02*
X213786874Y-161974506D01*
X213786874Y-161974506D02*
X213786874Y-162260220D01*
X213786874Y-162260220D02*
X213739255Y-162355458D01*
X213739255Y-162355458D02*
X213691636Y-162403078D01*
X213691636Y-162403078D02*
X213596398Y-162450697D01*
X213596398Y-162450697D02*
X213453541Y-162450697D01*
X214215446Y-162450697D02*
X214215446Y-161784030D01*
X214215446Y-161879268D02*
X214263065Y-161831649D01*
X214263065Y-161831649D02*
X214358303Y-161784030D01*
X214358303Y-161784030D02*
X214501160Y-161784030D01*
X214501160Y-161784030D02*
X214596398Y-161831649D01*
X214596398Y-161831649D02*
X214644017Y-161926887D01*
X214644017Y-161926887D02*
X214644017Y-162450697D01*
X214644017Y-161926887D02*
X214691636Y-161831649D01*
X214691636Y-161831649D02*
X214786874Y-161784030D01*
X214786874Y-161784030D02*
X214929731Y-161784030D01*
X214929731Y-161784030D02*
X215024970Y-161831649D01*
X215024970Y-161831649D02*
X215072589Y-161926887D01*
X215072589Y-161926887D02*
X215072589Y-162450697D01*
X216215446Y-161450697D02*
X216834493Y-161450697D01*
X216834493Y-161450697D02*
X216501160Y-161831649D01*
X216501160Y-161831649D02*
X216644017Y-161831649D01*
X216644017Y-161831649D02*
X216739255Y-161879268D01*
X216739255Y-161879268D02*
X216786874Y-161926887D01*
X216786874Y-161926887D02*
X216834493Y-162022125D01*
X216834493Y-162022125D02*
X216834493Y-162260220D01*
X216834493Y-162260220D02*
X216786874Y-162355458D01*
X216786874Y-162355458D02*
X216739255Y-162403078D01*
X216739255Y-162403078D02*
X216644017Y-162450697D01*
X216644017Y-162450697D02*
X216358303Y-162450697D01*
X216358303Y-162450697D02*
X216263065Y-162403078D01*
X216263065Y-162403078D02*
X216215446Y-162355458D01*
X217263065Y-162450697D02*
X217263065Y-161784030D01*
X217263065Y-161879268D02*
X217310684Y-161831649D01*
X217310684Y-161831649D02*
X217405922Y-161784030D01*
X217405922Y-161784030D02*
X217548779Y-161784030D01*
X217548779Y-161784030D02*
X217644017Y-161831649D01*
X217644017Y-161831649D02*
X217691636Y-161926887D01*
X217691636Y-161926887D02*
X217691636Y-162450697D01*
X217691636Y-161926887D02*
X217739255Y-161831649D01*
X217739255Y-161831649D02*
X217834493Y-161784030D01*
X217834493Y-161784030D02*
X217977350Y-161784030D01*
X217977350Y-161784030D02*
X218072589Y-161831649D01*
X218072589Y-161831649D02*
X218120208Y-161926887D01*
X218120208Y-161926887D02*
X218120208Y-162450697D01*
X218596398Y-162450697D02*
X218596398Y-161784030D01*
X218596398Y-161879268D02*
X218644017Y-161831649D01*
X218644017Y-161831649D02*
X218739255Y-161784030D01*
X218739255Y-161784030D02*
X218882112Y-161784030D01*
X218882112Y-161784030D02*
X218977350Y-161831649D01*
X218977350Y-161831649D02*
X219024969Y-161926887D01*
X219024969Y-161926887D02*
X219024969Y-162450697D01*
X219024969Y-161926887D02*
X219072588Y-161831649D01*
X219072588Y-161831649D02*
X219167826Y-161784030D01*
X219167826Y-161784030D02*
X219310683Y-161784030D01*
X219310683Y-161784030D02*
X219405922Y-161831649D01*
X219405922Y-161831649D02*
X219453541Y-161926887D01*
X219453541Y-161926887D02*
X219453541Y-162450697D01*
X220548779Y-161784030D02*
X220929731Y-161784030D01*
X220691636Y-161450697D02*
X220691636Y-162307839D01*
X220691636Y-162307839D02*
X220739255Y-162403078D01*
X220739255Y-162403078D02*
X220834493Y-162450697D01*
X220834493Y-162450697D02*
X220929731Y-162450697D01*
X221405922Y-162450697D02*
X221310684Y-162403078D01*
X221310684Y-162403078D02*
X221263065Y-162355458D01*
X221263065Y-162355458D02*
X221215446Y-162260220D01*
X221215446Y-162260220D02*
X221215446Y-161974506D01*
X221215446Y-161974506D02*
X221263065Y-161879268D01*
X221263065Y-161879268D02*
X221310684Y-161831649D01*
X221310684Y-161831649D02*
X221405922Y-161784030D01*
X221405922Y-161784030D02*
X221548779Y-161784030D01*
X221548779Y-161784030D02*
X221644017Y-161831649D01*
X221644017Y-161831649D02*
X221691636Y-161879268D01*
X221691636Y-161879268D02*
X221739255Y-161974506D01*
X221739255Y-161974506D02*
X221739255Y-162260220D01*
X221739255Y-162260220D02*
X221691636Y-162355458D01*
X221691636Y-162355458D02*
X221644017Y-162403078D01*
X221644017Y-162403078D02*
X221548779Y-162450697D01*
X221548779Y-162450697D02*
X221405922Y-162450697D01*
X222834494Y-161450697D02*
X223453541Y-161450697D01*
X223453541Y-161450697D02*
X223120208Y-161831649D01*
X223120208Y-161831649D02*
X223263065Y-161831649D01*
X223263065Y-161831649D02*
X223358303Y-161879268D01*
X223358303Y-161879268D02*
X223405922Y-161926887D01*
X223405922Y-161926887D02*
X223453541Y-162022125D01*
X223453541Y-162022125D02*
X223453541Y-162260220D01*
X223453541Y-162260220D02*
X223405922Y-162355458D01*
X223405922Y-162355458D02*
X223358303Y-162403078D01*
X223358303Y-162403078D02*
X223263065Y-162450697D01*
X223263065Y-162450697D02*
X222977351Y-162450697D01*
X222977351Y-162450697D02*
X222882113Y-162403078D01*
X222882113Y-162403078D02*
X222834494Y-162355458D01*
X223882113Y-162355458D02*
X223929732Y-162403078D01*
X223929732Y-162403078D02*
X223882113Y-162450697D01*
X223882113Y-162450697D02*
X223834494Y-162403078D01*
X223834494Y-162403078D02*
X223882113Y-162355458D01*
X223882113Y-162355458D02*
X223882113Y-162450697D01*
X224882112Y-162450697D02*
X224310684Y-162450697D01*
X224596398Y-162450697D02*
X224596398Y-161450697D01*
X224596398Y-161450697D02*
X224501160Y-161593554D01*
X224501160Y-161593554D02*
X224405922Y-161688792D01*
X224405922Y-161688792D02*
X224310684Y-161736411D01*
X225310684Y-162450697D02*
X225310684Y-161784030D01*
X225310684Y-161879268D02*
X225358303Y-161831649D01*
X225358303Y-161831649D02*
X225453541Y-161784030D01*
X225453541Y-161784030D02*
X225596398Y-161784030D01*
X225596398Y-161784030D02*
X225691636Y-161831649D01*
X225691636Y-161831649D02*
X225739255Y-161926887D01*
X225739255Y-161926887D02*
X225739255Y-162450697D01*
X225739255Y-161926887D02*
X225786874Y-161831649D01*
X225786874Y-161831649D02*
X225882112Y-161784030D01*
X225882112Y-161784030D02*
X226024969Y-161784030D01*
X226024969Y-161784030D02*
X226120208Y-161831649D01*
X226120208Y-161831649D02*
X226167827Y-161926887D01*
X226167827Y-161926887D02*
X226167827Y-162450697D01*
X226644017Y-162450697D02*
X226644017Y-161784030D01*
X226644017Y-161879268D02*
X226691636Y-161831649D01*
X226691636Y-161831649D02*
X226786874Y-161784030D01*
X226786874Y-161784030D02*
X226929731Y-161784030D01*
X226929731Y-161784030D02*
X227024969Y-161831649D01*
X227024969Y-161831649D02*
X227072588Y-161926887D01*
X227072588Y-161926887D02*
X227072588Y-162450697D01*
X227072588Y-161926887D02*
X227120207Y-161831649D01*
X227120207Y-161831649D02*
X227215445Y-161784030D01*
X227215445Y-161784030D02*
X227358302Y-161784030D01*
X227358302Y-161784030D02*
X227453541Y-161831649D01*
X227453541Y-161831649D02*
X227501160Y-161926887D01*
X227501160Y-161926887D02*
X227501160Y-162450697D01*
X183834489Y-163679688D02*
X184596394Y-163679688D01*
X185834489Y-164060641D02*
X185834489Y-163393974D01*
X185834489Y-163489212D02*
X185882108Y-163441593D01*
X185882108Y-163441593D02*
X185977346Y-163393974D01*
X185977346Y-163393974D02*
X186120203Y-163393974D01*
X186120203Y-163393974D02*
X186215441Y-163441593D01*
X186215441Y-163441593D02*
X186263060Y-163536831D01*
X186263060Y-163536831D02*
X186263060Y-164060641D01*
X186263060Y-163536831D02*
X186310679Y-163441593D01*
X186310679Y-163441593D02*
X186405917Y-163393974D01*
X186405917Y-163393974D02*
X186548774Y-163393974D01*
X186548774Y-163393974D02*
X186644013Y-163441593D01*
X186644013Y-163441593D02*
X186691632Y-163536831D01*
X186691632Y-163536831D02*
X186691632Y-164060641D01*
X187310679Y-164060641D02*
X187215441Y-164013022D01*
X187215441Y-164013022D02*
X187167822Y-163965402D01*
X187167822Y-163965402D02*
X187120203Y-163870164D01*
X187120203Y-163870164D02*
X187120203Y-163584450D01*
X187120203Y-163584450D02*
X187167822Y-163489212D01*
X187167822Y-163489212D02*
X187215441Y-163441593D01*
X187215441Y-163441593D02*
X187310679Y-163393974D01*
X187310679Y-163393974D02*
X187453536Y-163393974D01*
X187453536Y-163393974D02*
X187548774Y-163441593D01*
X187548774Y-163441593D02*
X187596393Y-163489212D01*
X187596393Y-163489212D02*
X187644012Y-163584450D01*
X187644012Y-163584450D02*
X187644012Y-163870164D01*
X187644012Y-163870164D02*
X187596393Y-163965402D01*
X187596393Y-163965402D02*
X187548774Y-164013022D01*
X187548774Y-164013022D02*
X187453536Y-164060641D01*
X187453536Y-164060641D02*
X187310679Y-164060641D01*
X187977346Y-163393974D02*
X188215441Y-164060641D01*
X188215441Y-164060641D02*
X188453536Y-163393974D01*
X189215441Y-164013022D02*
X189120203Y-164060641D01*
X189120203Y-164060641D02*
X188929727Y-164060641D01*
X188929727Y-164060641D02*
X188834489Y-164013022D01*
X188834489Y-164013022D02*
X188786870Y-163917783D01*
X188786870Y-163917783D02*
X188786870Y-163536831D01*
X188786870Y-163536831D02*
X188834489Y-163441593D01*
X188834489Y-163441593D02*
X188929727Y-163393974D01*
X188929727Y-163393974D02*
X189120203Y-163393974D01*
X189120203Y-163393974D02*
X189215441Y-163441593D01*
X189215441Y-163441593D02*
X189263060Y-163536831D01*
X189263060Y-163536831D02*
X189263060Y-163632069D01*
X189263060Y-163632069D02*
X188786870Y-163727307D01*
X190120203Y-164060641D02*
X190120203Y-163060641D01*
X190120203Y-164013022D02*
X190024965Y-164060641D01*
X190024965Y-164060641D02*
X189834489Y-164060641D01*
X189834489Y-164060641D02*
X189739251Y-164013022D01*
X189739251Y-164013022D02*
X189691632Y-163965402D01*
X189691632Y-163965402D02*
X189644013Y-163870164D01*
X189644013Y-163870164D02*
X189644013Y-163584450D01*
X189644013Y-163584450D02*
X189691632Y-163489212D01*
X189691632Y-163489212D02*
X189739251Y-163441593D01*
X189739251Y-163441593D02*
X189834489Y-163393974D01*
X189834489Y-163393974D02*
X190024965Y-163393974D01*
X190024965Y-163393974D02*
X190120203Y-163441593D01*
X191310680Y-164013022D02*
X191405918Y-164060641D01*
X191405918Y-164060641D02*
X191596394Y-164060641D01*
X191596394Y-164060641D02*
X191691632Y-164013022D01*
X191691632Y-164013022D02*
X191739251Y-163917783D01*
X191739251Y-163917783D02*
X191739251Y-163870164D01*
X191739251Y-163870164D02*
X191691632Y-163774926D01*
X191691632Y-163774926D02*
X191596394Y-163727307D01*
X191596394Y-163727307D02*
X191453537Y-163727307D01*
X191453537Y-163727307D02*
X191358299Y-163679688D01*
X191358299Y-163679688D02*
X191310680Y-163584450D01*
X191310680Y-163584450D02*
X191310680Y-163536831D01*
X191310680Y-163536831D02*
X191358299Y-163441593D01*
X191358299Y-163441593D02*
X191453537Y-163393974D01*
X191453537Y-163393974D02*
X191596394Y-163393974D01*
X191596394Y-163393974D02*
X191691632Y-163441593D01*
X192024966Y-163393974D02*
X192405918Y-163393974D01*
X192167823Y-163060641D02*
X192167823Y-163917783D01*
X192167823Y-163917783D02*
X192215442Y-164013022D01*
X192215442Y-164013022D02*
X192310680Y-164060641D01*
X192310680Y-164060641D02*
X192405918Y-164060641D01*
X192739252Y-164060641D02*
X192739252Y-163393974D01*
X192739252Y-163584450D02*
X192786871Y-163489212D01*
X192786871Y-163489212D02*
X192834490Y-163441593D01*
X192834490Y-163441593D02*
X192929728Y-163393974D01*
X192929728Y-163393974D02*
X193024966Y-163393974D01*
X193358300Y-164060641D02*
X193358300Y-163393974D01*
X193358300Y-163060641D02*
X193310681Y-163108260D01*
X193310681Y-163108260D02*
X193358300Y-163155879D01*
X193358300Y-163155879D02*
X193405919Y-163108260D01*
X193405919Y-163108260D02*
X193358300Y-163060641D01*
X193358300Y-163060641D02*
X193358300Y-163155879D01*
X193834490Y-164060641D02*
X193834490Y-163060641D01*
X193929728Y-163679688D02*
X194215442Y-164060641D01*
X194215442Y-163393974D02*
X193834490Y-163774926D01*
X195024966Y-164013022D02*
X194929728Y-164060641D01*
X194929728Y-164060641D02*
X194739252Y-164060641D01*
X194739252Y-164060641D02*
X194644014Y-164013022D01*
X194644014Y-164013022D02*
X194596395Y-163917783D01*
X194596395Y-163917783D02*
X194596395Y-163536831D01*
X194596395Y-163536831D02*
X194644014Y-163441593D01*
X194644014Y-163441593D02*
X194739252Y-163393974D01*
X194739252Y-163393974D02*
X194929728Y-163393974D01*
X194929728Y-163393974D02*
X195024966Y-163441593D01*
X195024966Y-163441593D02*
X195072585Y-163536831D01*
X195072585Y-163536831D02*
X195072585Y-163632069D01*
X195072585Y-163632069D02*
X194596395Y-163727307D01*
X195501157Y-164060641D02*
X195501157Y-163393974D01*
X195501157Y-163584450D02*
X195548776Y-163489212D01*
X195548776Y-163489212D02*
X195596395Y-163441593D01*
X195596395Y-163441593D02*
X195691633Y-163393974D01*
X195691633Y-163393974D02*
X195786871Y-163393974D01*
X196786872Y-163393974D02*
X196977348Y-164060641D01*
X196977348Y-164060641D02*
X197167824Y-163584450D01*
X197167824Y-163584450D02*
X197358300Y-164060641D01*
X197358300Y-164060641D02*
X197548776Y-163393974D01*
X197929729Y-164060641D02*
X197929729Y-163393974D01*
X197929729Y-163060641D02*
X197882110Y-163108260D01*
X197882110Y-163108260D02*
X197929729Y-163155879D01*
X197929729Y-163155879D02*
X197977348Y-163108260D01*
X197977348Y-163108260D02*
X197929729Y-163060641D01*
X197929729Y-163060641D02*
X197929729Y-163155879D01*
X198405919Y-164060641D02*
X198405919Y-163393974D01*
X198405919Y-163584450D02*
X198453538Y-163489212D01*
X198453538Y-163489212D02*
X198501157Y-163441593D01*
X198501157Y-163441593D02*
X198596395Y-163393974D01*
X198596395Y-163393974D02*
X198691633Y-163393974D01*
X199405919Y-164013022D02*
X199310681Y-164060641D01*
X199310681Y-164060641D02*
X199120205Y-164060641D01*
X199120205Y-164060641D02*
X199024967Y-164013022D01*
X199024967Y-164013022D02*
X198977348Y-163917783D01*
X198977348Y-163917783D02*
X198977348Y-163536831D01*
X198977348Y-163536831D02*
X199024967Y-163441593D01*
X199024967Y-163441593D02*
X199120205Y-163393974D01*
X199120205Y-163393974D02*
X199310681Y-163393974D01*
X199310681Y-163393974D02*
X199405919Y-163441593D01*
X199405919Y-163441593D02*
X199453538Y-163536831D01*
X199453538Y-163536831D02*
X199453538Y-163632069D01*
X199453538Y-163632069D02*
X198977348Y-163727307D01*
X200501158Y-163393974D02*
X200882110Y-163393974D01*
X200644015Y-163060641D02*
X200644015Y-163917783D01*
X200644015Y-163917783D02*
X200691634Y-164013022D01*
X200691634Y-164013022D02*
X200786872Y-164060641D01*
X200786872Y-164060641D02*
X200882110Y-164060641D01*
X201358301Y-164060641D02*
X201263063Y-164013022D01*
X201263063Y-164013022D02*
X201215444Y-163965402D01*
X201215444Y-163965402D02*
X201167825Y-163870164D01*
X201167825Y-163870164D02*
X201167825Y-163584450D01*
X201167825Y-163584450D02*
X201215444Y-163489212D01*
X201215444Y-163489212D02*
X201263063Y-163441593D01*
X201263063Y-163441593D02*
X201358301Y-163393974D01*
X201358301Y-163393974D02*
X201501158Y-163393974D01*
X201501158Y-163393974D02*
X201596396Y-163441593D01*
X201596396Y-163441593D02*
X201644015Y-163489212D01*
X201644015Y-163489212D02*
X201691634Y-163584450D01*
X201691634Y-163584450D02*
X201691634Y-163870164D01*
X201691634Y-163870164D02*
X201644015Y-163965402D01*
X201644015Y-163965402D02*
X201596396Y-164013022D01*
X201596396Y-164013022D02*
X201501158Y-164060641D01*
X201501158Y-164060641D02*
X201358301Y-164060641D01*
X202882111Y-164060641D02*
X202882111Y-163393974D01*
X202882111Y-163060641D02*
X202834492Y-163108260D01*
X202834492Y-163108260D02*
X202882111Y-163155879D01*
X202882111Y-163155879D02*
X202929730Y-163108260D01*
X202929730Y-163108260D02*
X202882111Y-163060641D01*
X202882111Y-163060641D02*
X202882111Y-163155879D01*
X203358301Y-163393974D02*
X203358301Y-164060641D01*
X203358301Y-163489212D02*
X203405920Y-163441593D01*
X203405920Y-163441593D02*
X203501158Y-163393974D01*
X203501158Y-163393974D02*
X203644015Y-163393974D01*
X203644015Y-163393974D02*
X203739253Y-163441593D01*
X203739253Y-163441593D02*
X203786872Y-163536831D01*
X203786872Y-163536831D02*
X203786872Y-164060641D01*
X204691634Y-164013022D02*
X204596396Y-164060641D01*
X204596396Y-164060641D02*
X204405920Y-164060641D01*
X204405920Y-164060641D02*
X204310682Y-164013022D01*
X204310682Y-164013022D02*
X204263063Y-163965402D01*
X204263063Y-163965402D02*
X204215444Y-163870164D01*
X204215444Y-163870164D02*
X204215444Y-163584450D01*
X204215444Y-163584450D02*
X204263063Y-163489212D01*
X204263063Y-163489212D02*
X204310682Y-163441593D01*
X204310682Y-163441593D02*
X204405920Y-163393974D01*
X204405920Y-163393974D02*
X204596396Y-163393974D01*
X204596396Y-163393974D02*
X204691634Y-163441593D01*
X205120206Y-164060641D02*
X205120206Y-163393974D01*
X205120206Y-163584450D02*
X205167825Y-163489212D01*
X205167825Y-163489212D02*
X205215444Y-163441593D01*
X205215444Y-163441593D02*
X205310682Y-163393974D01*
X205310682Y-163393974D02*
X205405920Y-163393974D01*
X206120206Y-164013022D02*
X206024968Y-164060641D01*
X206024968Y-164060641D02*
X205834492Y-164060641D01*
X205834492Y-164060641D02*
X205739254Y-164013022D01*
X205739254Y-164013022D02*
X205691635Y-163917783D01*
X205691635Y-163917783D02*
X205691635Y-163536831D01*
X205691635Y-163536831D02*
X205739254Y-163441593D01*
X205739254Y-163441593D02*
X205834492Y-163393974D01*
X205834492Y-163393974D02*
X206024968Y-163393974D01*
X206024968Y-163393974D02*
X206120206Y-163441593D01*
X206120206Y-163441593D02*
X206167825Y-163536831D01*
X206167825Y-163536831D02*
X206167825Y-163632069D01*
X206167825Y-163632069D02*
X205691635Y-163727307D01*
X207024968Y-164060641D02*
X207024968Y-163536831D01*
X207024968Y-163536831D02*
X206977349Y-163441593D01*
X206977349Y-163441593D02*
X206882111Y-163393974D01*
X206882111Y-163393974D02*
X206691635Y-163393974D01*
X206691635Y-163393974D02*
X206596397Y-163441593D01*
X207024968Y-164013022D02*
X206929730Y-164060641D01*
X206929730Y-164060641D02*
X206691635Y-164060641D01*
X206691635Y-164060641D02*
X206596397Y-164013022D01*
X206596397Y-164013022D02*
X206548778Y-163917783D01*
X206548778Y-163917783D02*
X206548778Y-163822545D01*
X206548778Y-163822545D02*
X206596397Y-163727307D01*
X206596397Y-163727307D02*
X206691635Y-163679688D01*
X206691635Y-163679688D02*
X206929730Y-163679688D01*
X206929730Y-163679688D02*
X207024968Y-163632069D01*
X207453540Y-164013022D02*
X207548778Y-164060641D01*
X207548778Y-164060641D02*
X207739254Y-164060641D01*
X207739254Y-164060641D02*
X207834492Y-164013022D01*
X207834492Y-164013022D02*
X207882111Y-163917783D01*
X207882111Y-163917783D02*
X207882111Y-163870164D01*
X207882111Y-163870164D02*
X207834492Y-163774926D01*
X207834492Y-163774926D02*
X207739254Y-163727307D01*
X207739254Y-163727307D02*
X207596397Y-163727307D01*
X207596397Y-163727307D02*
X207501159Y-163679688D01*
X207501159Y-163679688D02*
X207453540Y-163584450D01*
X207453540Y-163584450D02*
X207453540Y-163536831D01*
X207453540Y-163536831D02*
X207501159Y-163441593D01*
X207501159Y-163441593D02*
X207596397Y-163393974D01*
X207596397Y-163393974D02*
X207739254Y-163393974D01*
X207739254Y-163393974D02*
X207834492Y-163441593D01*
X208691635Y-164013022D02*
X208596397Y-164060641D01*
X208596397Y-164060641D02*
X208405921Y-164060641D01*
X208405921Y-164060641D02*
X208310683Y-164013022D01*
X208310683Y-164013022D02*
X208263064Y-163917783D01*
X208263064Y-163917783D02*
X208263064Y-163536831D01*
X208263064Y-163536831D02*
X208310683Y-163441593D01*
X208310683Y-163441593D02*
X208405921Y-163393974D01*
X208405921Y-163393974D02*
X208596397Y-163393974D01*
X208596397Y-163393974D02*
X208691635Y-163441593D01*
X208691635Y-163441593D02*
X208739254Y-163536831D01*
X208739254Y-163536831D02*
X208739254Y-163632069D01*
X208739254Y-163632069D02*
X208263064Y-163727307D01*
X210358302Y-164013022D02*
X210263064Y-164060641D01*
X210263064Y-164060641D02*
X210072588Y-164060641D01*
X210072588Y-164060641D02*
X209977350Y-164013022D01*
X209977350Y-164013022D02*
X209929731Y-163965402D01*
X209929731Y-163965402D02*
X209882112Y-163870164D01*
X209882112Y-163870164D02*
X209882112Y-163584450D01*
X209882112Y-163584450D02*
X209929731Y-163489212D01*
X209929731Y-163489212D02*
X209977350Y-163441593D01*
X209977350Y-163441593D02*
X210072588Y-163393974D01*
X210072588Y-163393974D02*
X210263064Y-163393974D01*
X210263064Y-163393974D02*
X210358302Y-163441593D01*
X210929731Y-164060641D02*
X210834493Y-164013022D01*
X210834493Y-164013022D02*
X210786874Y-163917783D01*
X210786874Y-163917783D02*
X210786874Y-163060641D01*
X211691636Y-164013022D02*
X211596398Y-164060641D01*
X211596398Y-164060641D02*
X211405922Y-164060641D01*
X211405922Y-164060641D02*
X211310684Y-164013022D01*
X211310684Y-164013022D02*
X211263065Y-163917783D01*
X211263065Y-163917783D02*
X211263065Y-163536831D01*
X211263065Y-163536831D02*
X211310684Y-163441593D01*
X211310684Y-163441593D02*
X211405922Y-163393974D01*
X211405922Y-163393974D02*
X211596398Y-163393974D01*
X211596398Y-163393974D02*
X211691636Y-163441593D01*
X211691636Y-163441593D02*
X211739255Y-163536831D01*
X211739255Y-163536831D02*
X211739255Y-163632069D01*
X211739255Y-163632069D02*
X211263065Y-163727307D01*
X212596398Y-164060641D02*
X212596398Y-163536831D01*
X212596398Y-163536831D02*
X212548779Y-163441593D01*
X212548779Y-163441593D02*
X212453541Y-163393974D01*
X212453541Y-163393974D02*
X212263065Y-163393974D01*
X212263065Y-163393974D02*
X212167827Y-163441593D01*
X212596398Y-164013022D02*
X212501160Y-164060641D01*
X212501160Y-164060641D02*
X212263065Y-164060641D01*
X212263065Y-164060641D02*
X212167827Y-164013022D01*
X212167827Y-164013022D02*
X212120208Y-163917783D01*
X212120208Y-163917783D02*
X212120208Y-163822545D01*
X212120208Y-163822545D02*
X212167827Y-163727307D01*
X212167827Y-163727307D02*
X212263065Y-163679688D01*
X212263065Y-163679688D02*
X212501160Y-163679688D01*
X212501160Y-163679688D02*
X212596398Y-163632069D01*
X213072589Y-164060641D02*
X213072589Y-163393974D01*
X213072589Y-163584450D02*
X213120208Y-163489212D01*
X213120208Y-163489212D02*
X213167827Y-163441593D01*
X213167827Y-163441593D02*
X213263065Y-163393974D01*
X213263065Y-163393974D02*
X213358303Y-163393974D01*
X214120208Y-164060641D02*
X214120208Y-163536831D01*
X214120208Y-163536831D02*
X214072589Y-163441593D01*
X214072589Y-163441593D02*
X213977351Y-163393974D01*
X213977351Y-163393974D02*
X213786875Y-163393974D01*
X213786875Y-163393974D02*
X213691637Y-163441593D01*
X214120208Y-164013022D02*
X214024970Y-164060641D01*
X214024970Y-164060641D02*
X213786875Y-164060641D01*
X213786875Y-164060641D02*
X213691637Y-164013022D01*
X213691637Y-164013022D02*
X213644018Y-163917783D01*
X213644018Y-163917783D02*
X213644018Y-163822545D01*
X213644018Y-163822545D02*
X213691637Y-163727307D01*
X213691637Y-163727307D02*
X213786875Y-163679688D01*
X213786875Y-163679688D02*
X214024970Y-163679688D01*
X214024970Y-163679688D02*
X214120208Y-163632069D01*
X214596399Y-163393974D02*
X214596399Y-164060641D01*
X214596399Y-163489212D02*
X214644018Y-163441593D01*
X214644018Y-163441593D02*
X214739256Y-163393974D01*
X214739256Y-163393974D02*
X214882113Y-163393974D01*
X214882113Y-163393974D02*
X214977351Y-163441593D01*
X214977351Y-163441593D02*
X215024970Y-163536831D01*
X215024970Y-163536831D02*
X215024970Y-164060641D01*
X215929732Y-164013022D02*
X215834494Y-164060641D01*
X215834494Y-164060641D02*
X215644018Y-164060641D01*
X215644018Y-164060641D02*
X215548780Y-164013022D01*
X215548780Y-164013022D02*
X215501161Y-163965402D01*
X215501161Y-163965402D02*
X215453542Y-163870164D01*
X215453542Y-163870164D02*
X215453542Y-163584450D01*
X215453542Y-163584450D02*
X215501161Y-163489212D01*
X215501161Y-163489212D02*
X215548780Y-163441593D01*
X215548780Y-163441593D02*
X215644018Y-163393974D01*
X215644018Y-163393974D02*
X215834494Y-163393974D01*
X215834494Y-163393974D02*
X215929732Y-163441593D01*
X216739256Y-164013022D02*
X216644018Y-164060641D01*
X216644018Y-164060641D02*
X216453542Y-164060641D01*
X216453542Y-164060641D02*
X216358304Y-164013022D01*
X216358304Y-164013022D02*
X216310685Y-163917783D01*
X216310685Y-163917783D02*
X216310685Y-163536831D01*
X216310685Y-163536831D02*
X216358304Y-163441593D01*
X216358304Y-163441593D02*
X216453542Y-163393974D01*
X216453542Y-163393974D02*
X216644018Y-163393974D01*
X216644018Y-163393974D02*
X216739256Y-163441593D01*
X216739256Y-163441593D02*
X216786875Y-163536831D01*
X216786875Y-163536831D02*
X216786875Y-163632069D01*
X216786875Y-163632069D02*
X216310685Y-163727307D01*
X217834495Y-163393974D02*
X218215447Y-163393974D01*
X217977352Y-164060641D02*
X217977352Y-163203498D01*
X217977352Y-163203498D02*
X218024971Y-163108260D01*
X218024971Y-163108260D02*
X218120209Y-163060641D01*
X218120209Y-163060641D02*
X218215447Y-163060641D01*
X218548781Y-164060641D02*
X218548781Y-163393974D01*
X218548781Y-163584450D02*
X218596400Y-163489212D01*
X218596400Y-163489212D02*
X218644019Y-163441593D01*
X218644019Y-163441593D02*
X218739257Y-163393974D01*
X218739257Y-163393974D02*
X218834495Y-163393974D01*
X219310686Y-164060641D02*
X219215448Y-164013022D01*
X219215448Y-164013022D02*
X219167829Y-163965402D01*
X219167829Y-163965402D02*
X219120210Y-163870164D01*
X219120210Y-163870164D02*
X219120210Y-163584450D01*
X219120210Y-163584450D02*
X219167829Y-163489212D01*
X219167829Y-163489212D02*
X219215448Y-163441593D01*
X219215448Y-163441593D02*
X219310686Y-163393974D01*
X219310686Y-163393974D02*
X219453543Y-163393974D01*
X219453543Y-163393974D02*
X219548781Y-163441593D01*
X219548781Y-163441593D02*
X219596400Y-163489212D01*
X219596400Y-163489212D02*
X219644019Y-163584450D01*
X219644019Y-163584450D02*
X219644019Y-163870164D01*
X219644019Y-163870164D02*
X219596400Y-163965402D01*
X219596400Y-163965402D02*
X219548781Y-164013022D01*
X219548781Y-164013022D02*
X219453543Y-164060641D01*
X219453543Y-164060641D02*
X219310686Y-164060641D01*
X220072591Y-164060641D02*
X220072591Y-163393974D01*
X220072591Y-163489212D02*
X220120210Y-163441593D01*
X220120210Y-163441593D02*
X220215448Y-163393974D01*
X220215448Y-163393974D02*
X220358305Y-163393974D01*
X220358305Y-163393974D02*
X220453543Y-163441593D01*
X220453543Y-163441593D02*
X220501162Y-163536831D01*
X220501162Y-163536831D02*
X220501162Y-164060641D01*
X220501162Y-163536831D02*
X220548781Y-163441593D01*
X220548781Y-163441593D02*
X220644019Y-163393974D01*
X220644019Y-163393974D02*
X220786876Y-163393974D01*
X220786876Y-163393974D02*
X220882115Y-163441593D01*
X220882115Y-163441593D02*
X220929734Y-163536831D01*
X220929734Y-163536831D02*
X220929734Y-164060641D01*
X222596400Y-164013022D02*
X222501162Y-164060641D01*
X222501162Y-164060641D02*
X222310686Y-164060641D01*
X222310686Y-164060641D02*
X222215448Y-164013022D01*
X222215448Y-164013022D02*
X222167829Y-163965402D01*
X222167829Y-163965402D02*
X222120210Y-163870164D01*
X222120210Y-163870164D02*
X222120210Y-163584450D01*
X222120210Y-163584450D02*
X222167829Y-163489212D01*
X222167829Y-163489212D02*
X222215448Y-163441593D01*
X222215448Y-163441593D02*
X222310686Y-163393974D01*
X222310686Y-163393974D02*
X222501162Y-163393974D01*
X222501162Y-163393974D02*
X222596400Y-163441593D01*
X223167829Y-164060641D02*
X223072591Y-164013022D01*
X223072591Y-164013022D02*
X223024972Y-163965402D01*
X223024972Y-163965402D02*
X222977353Y-163870164D01*
X222977353Y-163870164D02*
X222977353Y-163584450D01*
X222977353Y-163584450D02*
X223024972Y-163489212D01*
X223024972Y-163489212D02*
X223072591Y-163441593D01*
X223072591Y-163441593D02*
X223167829Y-163393974D01*
X223167829Y-163393974D02*
X223310686Y-163393974D01*
X223310686Y-163393974D02*
X223405924Y-163441593D01*
X223405924Y-163441593D02*
X223453543Y-163489212D01*
X223453543Y-163489212D02*
X223501162Y-163584450D01*
X223501162Y-163584450D02*
X223501162Y-163870164D01*
X223501162Y-163870164D02*
X223453543Y-163965402D01*
X223453543Y-163965402D02*
X223405924Y-164013022D01*
X223405924Y-164013022D02*
X223310686Y-164060641D01*
X223310686Y-164060641D02*
X223167829Y-164060641D01*
X223929734Y-164060641D02*
X223929734Y-163393974D01*
X223929734Y-163060641D02*
X223882115Y-163108260D01*
X223882115Y-163108260D02*
X223929734Y-163155879D01*
X223929734Y-163155879D02*
X223977353Y-163108260D01*
X223977353Y-163108260D02*
X223929734Y-163060641D01*
X223929734Y-163060641D02*
X223929734Y-163155879D01*
X224548781Y-164060641D02*
X224453543Y-164013022D01*
X224453543Y-164013022D02*
X224405924Y-163917783D01*
X224405924Y-163917783D02*
X224405924Y-163060641D01*
X183834489Y-165289632D02*
X184596394Y-165289632D01*
X186263060Y-165670585D02*
X186263060Y-165146775D01*
X186263060Y-165146775D02*
X186215441Y-165051537D01*
X186215441Y-165051537D02*
X186120203Y-165003918D01*
X186120203Y-165003918D02*
X185929727Y-165003918D01*
X185929727Y-165003918D02*
X185834489Y-165051537D01*
X186263060Y-165622966D02*
X186167822Y-165670585D01*
X186167822Y-165670585D02*
X185929727Y-165670585D01*
X185929727Y-165670585D02*
X185834489Y-165622966D01*
X185834489Y-165622966D02*
X185786870Y-165527727D01*
X185786870Y-165527727D02*
X185786870Y-165432489D01*
X185786870Y-165432489D02*
X185834489Y-165337251D01*
X185834489Y-165337251D02*
X185929727Y-165289632D01*
X185929727Y-165289632D02*
X186167822Y-165289632D01*
X186167822Y-165289632D02*
X186263060Y-165242013D01*
X187167822Y-165670585D02*
X187167822Y-164670585D01*
X187167822Y-165622966D02*
X187072584Y-165670585D01*
X187072584Y-165670585D02*
X186882108Y-165670585D01*
X186882108Y-165670585D02*
X186786870Y-165622966D01*
X186786870Y-165622966D02*
X186739251Y-165575346D01*
X186739251Y-165575346D02*
X186691632Y-165480108D01*
X186691632Y-165480108D02*
X186691632Y-165194394D01*
X186691632Y-165194394D02*
X186739251Y-165099156D01*
X186739251Y-165099156D02*
X186786870Y-165051537D01*
X186786870Y-165051537D02*
X186882108Y-165003918D01*
X186882108Y-165003918D02*
X187072584Y-165003918D01*
X187072584Y-165003918D02*
X187167822Y-165051537D01*
X188072584Y-165670585D02*
X188072584Y-164670585D01*
X188072584Y-165622966D02*
X187977346Y-165670585D01*
X187977346Y-165670585D02*
X187786870Y-165670585D01*
X187786870Y-165670585D02*
X187691632Y-165622966D01*
X187691632Y-165622966D02*
X187644013Y-165575346D01*
X187644013Y-165575346D02*
X187596394Y-165480108D01*
X187596394Y-165480108D02*
X187596394Y-165194394D01*
X187596394Y-165194394D02*
X187644013Y-165099156D01*
X187644013Y-165099156D02*
X187691632Y-165051537D01*
X187691632Y-165051537D02*
X187786870Y-165003918D01*
X187786870Y-165003918D02*
X187977346Y-165003918D01*
X187977346Y-165003918D02*
X188072584Y-165051537D01*
X188929727Y-165622966D02*
X188834489Y-165670585D01*
X188834489Y-165670585D02*
X188644013Y-165670585D01*
X188644013Y-165670585D02*
X188548775Y-165622966D01*
X188548775Y-165622966D02*
X188501156Y-165527727D01*
X188501156Y-165527727D02*
X188501156Y-165146775D01*
X188501156Y-165146775D02*
X188548775Y-165051537D01*
X188548775Y-165051537D02*
X188644013Y-165003918D01*
X188644013Y-165003918D02*
X188834489Y-165003918D01*
X188834489Y-165003918D02*
X188929727Y-165051537D01*
X188929727Y-165051537D02*
X188977346Y-165146775D01*
X188977346Y-165146775D02*
X188977346Y-165242013D01*
X188977346Y-165242013D02*
X188501156Y-165337251D01*
X189834489Y-165670585D02*
X189834489Y-164670585D01*
X189834489Y-165622966D02*
X189739251Y-165670585D01*
X189739251Y-165670585D02*
X189548775Y-165670585D01*
X189548775Y-165670585D02*
X189453537Y-165622966D01*
X189453537Y-165622966D02*
X189405918Y-165575346D01*
X189405918Y-165575346D02*
X189358299Y-165480108D01*
X189358299Y-165480108D02*
X189358299Y-165194394D01*
X189358299Y-165194394D02*
X189405918Y-165099156D01*
X189405918Y-165099156D02*
X189453537Y-165051537D01*
X189453537Y-165051537D02*
X189548775Y-165003918D01*
X189548775Y-165003918D02*
X189739251Y-165003918D01*
X189739251Y-165003918D02*
X189834489Y-165051537D01*
X190977347Y-165003918D02*
X191167823Y-165670585D01*
X191167823Y-165670585D02*
X191358299Y-165194394D01*
X191358299Y-165194394D02*
X191548775Y-165670585D01*
X191548775Y-165670585D02*
X191739251Y-165003918D01*
X192548775Y-165670585D02*
X192548775Y-165146775D01*
X192548775Y-165146775D02*
X192501156Y-165051537D01*
X192501156Y-165051537D02*
X192405918Y-165003918D01*
X192405918Y-165003918D02*
X192215442Y-165003918D01*
X192215442Y-165003918D02*
X192120204Y-165051537D01*
X192548775Y-165622966D02*
X192453537Y-165670585D01*
X192453537Y-165670585D02*
X192215442Y-165670585D01*
X192215442Y-165670585D02*
X192120204Y-165622966D01*
X192120204Y-165622966D02*
X192072585Y-165527727D01*
X192072585Y-165527727D02*
X192072585Y-165432489D01*
X192072585Y-165432489D02*
X192120204Y-165337251D01*
X192120204Y-165337251D02*
X192215442Y-165289632D01*
X192215442Y-165289632D02*
X192453537Y-165289632D01*
X192453537Y-165289632D02*
X192548775Y-165242013D01*
X193024966Y-165670585D02*
X193024966Y-165003918D01*
X193024966Y-165194394D02*
X193072585Y-165099156D01*
X193072585Y-165099156D02*
X193120204Y-165051537D01*
X193120204Y-165051537D02*
X193215442Y-165003918D01*
X193215442Y-165003918D02*
X193310680Y-165003918D01*
X193644014Y-165003918D02*
X193644014Y-165670585D01*
X193644014Y-165099156D02*
X193691633Y-165051537D01*
X193691633Y-165051537D02*
X193786871Y-165003918D01*
X193786871Y-165003918D02*
X193929728Y-165003918D01*
X193929728Y-165003918D02*
X194024966Y-165051537D01*
X194024966Y-165051537D02*
X194072585Y-165146775D01*
X194072585Y-165146775D02*
X194072585Y-165670585D01*
X194548776Y-165670585D02*
X194548776Y-165003918D01*
X194548776Y-164670585D02*
X194501157Y-164718204D01*
X194501157Y-164718204D02*
X194548776Y-164765823D01*
X194548776Y-164765823D02*
X194596395Y-164718204D01*
X194596395Y-164718204D02*
X194548776Y-164670585D01*
X194548776Y-164670585D02*
X194548776Y-164765823D01*
X195024966Y-165003918D02*
X195024966Y-165670585D01*
X195024966Y-165099156D02*
X195072585Y-165051537D01*
X195072585Y-165051537D02*
X195167823Y-165003918D01*
X195167823Y-165003918D02*
X195310680Y-165003918D01*
X195310680Y-165003918D02*
X195405918Y-165051537D01*
X195405918Y-165051537D02*
X195453537Y-165146775D01*
X195453537Y-165146775D02*
X195453537Y-165670585D01*
X196358299Y-165003918D02*
X196358299Y-165813442D01*
X196358299Y-165813442D02*
X196310680Y-165908680D01*
X196310680Y-165908680D02*
X196263061Y-165956299D01*
X196263061Y-165956299D02*
X196167823Y-166003918D01*
X196167823Y-166003918D02*
X196024966Y-166003918D01*
X196024966Y-166003918D02*
X195929728Y-165956299D01*
X196358299Y-165622966D02*
X196263061Y-165670585D01*
X196263061Y-165670585D02*
X196072585Y-165670585D01*
X196072585Y-165670585D02*
X195977347Y-165622966D01*
X195977347Y-165622966D02*
X195929728Y-165575346D01*
X195929728Y-165575346D02*
X195882109Y-165480108D01*
X195882109Y-165480108D02*
X195882109Y-165194394D01*
X195882109Y-165194394D02*
X195929728Y-165099156D01*
X195929728Y-165099156D02*
X195977347Y-165051537D01*
X195977347Y-165051537D02*
X196072585Y-165003918D01*
X196072585Y-165003918D02*
X196263061Y-165003918D01*
X196263061Y-165003918D02*
X196358299Y-165051537D01*
X196786871Y-165622966D02*
X196882109Y-165670585D01*
X196882109Y-165670585D02*
X197072585Y-165670585D01*
X197072585Y-165670585D02*
X197167823Y-165622966D01*
X197167823Y-165622966D02*
X197215442Y-165527727D01*
X197215442Y-165527727D02*
X197215442Y-165480108D01*
X197215442Y-165480108D02*
X197167823Y-165384870D01*
X197167823Y-165384870D02*
X197072585Y-165337251D01*
X197072585Y-165337251D02*
X196929728Y-165337251D01*
X196929728Y-165337251D02*
X196834490Y-165289632D01*
X196834490Y-165289632D02*
X196786871Y-165194394D01*
X196786871Y-165194394D02*
X196786871Y-165146775D01*
X196786871Y-165146775D02*
X196834490Y-165051537D01*
X196834490Y-165051537D02*
X196929728Y-165003918D01*
X196929728Y-165003918D02*
X197072585Y-165003918D01*
X197072585Y-165003918D02*
X197167823Y-165051537D01*
X198263062Y-165003918D02*
X198644014Y-165003918D01*
X198405919Y-164670585D02*
X198405919Y-165527727D01*
X198405919Y-165527727D02*
X198453538Y-165622966D01*
X198453538Y-165622966D02*
X198548776Y-165670585D01*
X198548776Y-165670585D02*
X198644014Y-165670585D01*
X199120205Y-165670585D02*
X199024967Y-165622966D01*
X199024967Y-165622966D02*
X198977348Y-165575346D01*
X198977348Y-165575346D02*
X198929729Y-165480108D01*
X198929729Y-165480108D02*
X198929729Y-165194394D01*
X198929729Y-165194394D02*
X198977348Y-165099156D01*
X198977348Y-165099156D02*
X199024967Y-165051537D01*
X199024967Y-165051537D02*
X199120205Y-165003918D01*
X199120205Y-165003918D02*
X199263062Y-165003918D01*
X199263062Y-165003918D02*
X199358300Y-165051537D01*
X199358300Y-165051537D02*
X199405919Y-165099156D01*
X199405919Y-165099156D02*
X199453538Y-165194394D01*
X199453538Y-165194394D02*
X199453538Y-165480108D01*
X199453538Y-165480108D02*
X199405919Y-165575346D01*
X199405919Y-165575346D02*
X199358300Y-165622966D01*
X199358300Y-165622966D02*
X199263062Y-165670585D01*
X199263062Y-165670585D02*
X199120205Y-165670585D01*
X200644015Y-165670585D02*
X200644015Y-164670585D01*
X200644015Y-165051537D02*
X200739253Y-165003918D01*
X200739253Y-165003918D02*
X200929729Y-165003918D01*
X200929729Y-165003918D02*
X201024967Y-165051537D01*
X201024967Y-165051537D02*
X201072586Y-165099156D01*
X201072586Y-165099156D02*
X201120205Y-165194394D01*
X201120205Y-165194394D02*
X201120205Y-165480108D01*
X201120205Y-165480108D02*
X201072586Y-165575346D01*
X201072586Y-165575346D02*
X201024967Y-165622966D01*
X201024967Y-165622966D02*
X200929729Y-165670585D01*
X200929729Y-165670585D02*
X200739253Y-165670585D01*
X200739253Y-165670585D02*
X200644015Y-165622966D01*
X201691634Y-165670585D02*
X201596396Y-165622966D01*
X201596396Y-165622966D02*
X201548777Y-165575346D01*
X201548777Y-165575346D02*
X201501158Y-165480108D01*
X201501158Y-165480108D02*
X201501158Y-165194394D01*
X201501158Y-165194394D02*
X201548777Y-165099156D01*
X201548777Y-165099156D02*
X201596396Y-165051537D01*
X201596396Y-165051537D02*
X201691634Y-165003918D01*
X201691634Y-165003918D02*
X201834491Y-165003918D01*
X201834491Y-165003918D02*
X201929729Y-165051537D01*
X201929729Y-165051537D02*
X201977348Y-165099156D01*
X201977348Y-165099156D02*
X202024967Y-165194394D01*
X202024967Y-165194394D02*
X202024967Y-165480108D01*
X202024967Y-165480108D02*
X201977348Y-165575346D01*
X201977348Y-165575346D02*
X201929729Y-165622966D01*
X201929729Y-165622966D02*
X201834491Y-165670585D01*
X201834491Y-165670585D02*
X201691634Y-165670585D01*
X202882110Y-165670585D02*
X202882110Y-165146775D01*
X202882110Y-165146775D02*
X202834491Y-165051537D01*
X202834491Y-165051537D02*
X202739253Y-165003918D01*
X202739253Y-165003918D02*
X202548777Y-165003918D01*
X202548777Y-165003918D02*
X202453539Y-165051537D01*
X202882110Y-165622966D02*
X202786872Y-165670585D01*
X202786872Y-165670585D02*
X202548777Y-165670585D01*
X202548777Y-165670585D02*
X202453539Y-165622966D01*
X202453539Y-165622966D02*
X202405920Y-165527727D01*
X202405920Y-165527727D02*
X202405920Y-165432489D01*
X202405920Y-165432489D02*
X202453539Y-165337251D01*
X202453539Y-165337251D02*
X202548777Y-165289632D01*
X202548777Y-165289632D02*
X202786872Y-165289632D01*
X202786872Y-165289632D02*
X202882110Y-165242013D01*
X203358301Y-165670585D02*
X203358301Y-165003918D01*
X203358301Y-165194394D02*
X203405920Y-165099156D01*
X203405920Y-165099156D02*
X203453539Y-165051537D01*
X203453539Y-165051537D02*
X203548777Y-165003918D01*
X203548777Y-165003918D02*
X203644015Y-165003918D01*
X204405920Y-165670585D02*
X204405920Y-164670585D01*
X204405920Y-165622966D02*
X204310682Y-165670585D01*
X204310682Y-165670585D02*
X204120206Y-165670585D01*
X204120206Y-165670585D02*
X204024968Y-165622966D01*
X204024968Y-165622966D02*
X203977349Y-165575346D01*
X203977349Y-165575346D02*
X203929730Y-165480108D01*
X203929730Y-165480108D02*
X203929730Y-165194394D01*
X203929730Y-165194394D02*
X203977349Y-165099156D01*
X203977349Y-165099156D02*
X204024968Y-165051537D01*
X204024968Y-165051537D02*
X204120206Y-165003918D01*
X204120206Y-165003918D02*
X204310682Y-165003918D01*
X204310682Y-165003918D02*
X204405920Y-165051537D01*
X205501159Y-165003918D02*
X205882111Y-165003918D01*
X205644016Y-165670585D02*
X205644016Y-164813442D01*
X205644016Y-164813442D02*
X205691635Y-164718204D01*
X205691635Y-164718204D02*
X205786873Y-164670585D01*
X205786873Y-164670585D02*
X205882111Y-164670585D01*
X206215445Y-165670585D02*
X206215445Y-165003918D01*
X206215445Y-165194394D02*
X206263064Y-165099156D01*
X206263064Y-165099156D02*
X206310683Y-165051537D01*
X206310683Y-165051537D02*
X206405921Y-165003918D01*
X206405921Y-165003918D02*
X206501159Y-165003918D01*
X206977350Y-165670585D02*
X206882112Y-165622966D01*
X206882112Y-165622966D02*
X206834493Y-165575346D01*
X206834493Y-165575346D02*
X206786874Y-165480108D01*
X206786874Y-165480108D02*
X206786874Y-165194394D01*
X206786874Y-165194394D02*
X206834493Y-165099156D01*
X206834493Y-165099156D02*
X206882112Y-165051537D01*
X206882112Y-165051537D02*
X206977350Y-165003918D01*
X206977350Y-165003918D02*
X207120207Y-165003918D01*
X207120207Y-165003918D02*
X207215445Y-165051537D01*
X207215445Y-165051537D02*
X207263064Y-165099156D01*
X207263064Y-165099156D02*
X207310683Y-165194394D01*
X207310683Y-165194394D02*
X207310683Y-165480108D01*
X207310683Y-165480108D02*
X207263064Y-165575346D01*
X207263064Y-165575346D02*
X207215445Y-165622966D01*
X207215445Y-165622966D02*
X207120207Y-165670585D01*
X207120207Y-165670585D02*
X206977350Y-165670585D01*
X207739255Y-165003918D02*
X207739255Y-165670585D01*
X207739255Y-165099156D02*
X207786874Y-165051537D01*
X207786874Y-165051537D02*
X207882112Y-165003918D01*
X207882112Y-165003918D02*
X208024969Y-165003918D01*
X208024969Y-165003918D02*
X208120207Y-165051537D01*
X208120207Y-165051537D02*
X208167826Y-165146775D01*
X208167826Y-165146775D02*
X208167826Y-165670585D01*
X208501160Y-165003918D02*
X208882112Y-165003918D01*
X208644017Y-164670585D02*
X208644017Y-165527727D01*
X208644017Y-165527727D02*
X208691636Y-165622966D01*
X208691636Y-165622966D02*
X208786874Y-165670585D01*
X208786874Y-165670585D02*
X208882112Y-165670585D01*
X183739251Y-166613862D02*
X183977346Y-167280529D01*
X183977346Y-167280529D02*
X184215441Y-166613862D01*
X185120203Y-167280529D02*
X184548775Y-167280529D01*
X184834489Y-167280529D02*
X184834489Y-166280529D01*
X184834489Y-166280529D02*
X184739251Y-166423386D01*
X184739251Y-166423386D02*
X184644013Y-166518624D01*
X184644013Y-166518624D02*
X184548775Y-166566243D01*
X185548775Y-167185290D02*
X185596394Y-167232910D01*
X185596394Y-167232910D02*
X185548775Y-167280529D01*
X185548775Y-167280529D02*
X185501156Y-167232910D01*
X185501156Y-167232910D02*
X185548775Y-167185290D01*
X185548775Y-167185290D02*
X185548775Y-167280529D01*
X186215441Y-166280529D02*
X186310679Y-166280529D01*
X186310679Y-166280529D02*
X186405917Y-166328148D01*
X186405917Y-166328148D02*
X186453536Y-166375767D01*
X186453536Y-166375767D02*
X186501155Y-166471005D01*
X186501155Y-166471005D02*
X186548774Y-166661481D01*
X186548774Y-166661481D02*
X186548774Y-166899576D01*
X186548774Y-166899576D02*
X186501155Y-167090052D01*
X186501155Y-167090052D02*
X186453536Y-167185290D01*
X186453536Y-167185290D02*
X186405917Y-167232910D01*
X186405917Y-167232910D02*
X186310679Y-167280529D01*
X186310679Y-167280529D02*
X186215441Y-167280529D01*
X186215441Y-167280529D02*
X186120203Y-167232910D01*
X186120203Y-167232910D02*
X186072584Y-167185290D01*
X186072584Y-167185290D02*
X186024965Y-167090052D01*
X186024965Y-167090052D02*
X185977346Y-166899576D01*
X185977346Y-166899576D02*
X185977346Y-166661481D01*
X185977346Y-166661481D02*
X186024965Y-166471005D01*
X186024965Y-166471005D02*
X186072584Y-166375767D01*
X186072584Y-166375767D02*
X186120203Y-166328148D01*
X186120203Y-166328148D02*
X186215441Y-166280529D01*
X186882108Y-166280529D02*
X187501155Y-166280529D01*
X187501155Y-166280529D02*
X187167822Y-166661481D01*
X187167822Y-166661481D02*
X187310679Y-166661481D01*
X187310679Y-166661481D02*
X187405917Y-166709100D01*
X187405917Y-166709100D02*
X187453536Y-166756719D01*
X187453536Y-166756719D02*
X187501155Y-166851957D01*
X187501155Y-166851957D02*
X187501155Y-167090052D01*
X187501155Y-167090052D02*
X187453536Y-167185290D01*
X187453536Y-167185290D02*
X187405917Y-167232910D01*
X187405917Y-167232910D02*
X187310679Y-167280529D01*
X187310679Y-167280529D02*
X187024965Y-167280529D01*
X187024965Y-167280529D02*
X186929727Y-167232910D01*
X186929727Y-167232910D02*
X186882108Y-167185290D01*
X183834489Y-168509520D02*
X184596394Y-168509520D01*
X186263060Y-168890473D02*
X186263060Y-168366663D01*
X186263060Y-168366663D02*
X186215441Y-168271425D01*
X186215441Y-168271425D02*
X186120203Y-168223806D01*
X186120203Y-168223806D02*
X185929727Y-168223806D01*
X185929727Y-168223806D02*
X185834489Y-168271425D01*
X186263060Y-168842854D02*
X186167822Y-168890473D01*
X186167822Y-168890473D02*
X185929727Y-168890473D01*
X185929727Y-168890473D02*
X185834489Y-168842854D01*
X185834489Y-168842854D02*
X185786870Y-168747615D01*
X185786870Y-168747615D02*
X185786870Y-168652377D01*
X185786870Y-168652377D02*
X185834489Y-168557139D01*
X185834489Y-168557139D02*
X185929727Y-168509520D01*
X185929727Y-168509520D02*
X186167822Y-168509520D01*
X186167822Y-168509520D02*
X186263060Y-168461901D01*
X187167822Y-168890473D02*
X187167822Y-167890473D01*
X187167822Y-168842854D02*
X187072584Y-168890473D01*
X187072584Y-168890473D02*
X186882108Y-168890473D01*
X186882108Y-168890473D02*
X186786870Y-168842854D01*
X186786870Y-168842854D02*
X186739251Y-168795234D01*
X186739251Y-168795234D02*
X186691632Y-168699996D01*
X186691632Y-168699996D02*
X186691632Y-168414282D01*
X186691632Y-168414282D02*
X186739251Y-168319044D01*
X186739251Y-168319044D02*
X186786870Y-168271425D01*
X186786870Y-168271425D02*
X186882108Y-168223806D01*
X186882108Y-168223806D02*
X187072584Y-168223806D01*
X187072584Y-168223806D02*
X187167822Y-168271425D01*
X188072584Y-168890473D02*
X188072584Y-167890473D01*
X188072584Y-168842854D02*
X187977346Y-168890473D01*
X187977346Y-168890473D02*
X187786870Y-168890473D01*
X187786870Y-168890473D02*
X187691632Y-168842854D01*
X187691632Y-168842854D02*
X187644013Y-168795234D01*
X187644013Y-168795234D02*
X187596394Y-168699996D01*
X187596394Y-168699996D02*
X187596394Y-168414282D01*
X187596394Y-168414282D02*
X187644013Y-168319044D01*
X187644013Y-168319044D02*
X187691632Y-168271425D01*
X187691632Y-168271425D02*
X187786870Y-168223806D01*
X187786870Y-168223806D02*
X187977346Y-168223806D01*
X187977346Y-168223806D02*
X188072584Y-168271425D01*
X188929727Y-168842854D02*
X188834489Y-168890473D01*
X188834489Y-168890473D02*
X188644013Y-168890473D01*
X188644013Y-168890473D02*
X188548775Y-168842854D01*
X188548775Y-168842854D02*
X188501156Y-168747615D01*
X188501156Y-168747615D02*
X188501156Y-168366663D01*
X188501156Y-168366663D02*
X188548775Y-168271425D01*
X188548775Y-168271425D02*
X188644013Y-168223806D01*
X188644013Y-168223806D02*
X188834489Y-168223806D01*
X188834489Y-168223806D02*
X188929727Y-168271425D01*
X188929727Y-168271425D02*
X188977346Y-168366663D01*
X188977346Y-168366663D02*
X188977346Y-168461901D01*
X188977346Y-168461901D02*
X188501156Y-168557139D01*
X189834489Y-168890473D02*
X189834489Y-167890473D01*
X189834489Y-168842854D02*
X189739251Y-168890473D01*
X189739251Y-168890473D02*
X189548775Y-168890473D01*
X189548775Y-168890473D02*
X189453537Y-168842854D01*
X189453537Y-168842854D02*
X189405918Y-168795234D01*
X189405918Y-168795234D02*
X189358299Y-168699996D01*
X189358299Y-168699996D02*
X189358299Y-168414282D01*
X189358299Y-168414282D02*
X189405918Y-168319044D01*
X189405918Y-168319044D02*
X189453537Y-168271425D01*
X189453537Y-168271425D02*
X189548775Y-168223806D01*
X189548775Y-168223806D02*
X189739251Y-168223806D01*
X189739251Y-168223806D02*
X189834489Y-168271425D01*
X191501156Y-168842854D02*
X191405918Y-168890473D01*
X191405918Y-168890473D02*
X191215442Y-168890473D01*
X191215442Y-168890473D02*
X191120204Y-168842854D01*
X191120204Y-168842854D02*
X191072585Y-168795234D01*
X191072585Y-168795234D02*
X191024966Y-168699996D01*
X191024966Y-168699996D02*
X191024966Y-168414282D01*
X191024966Y-168414282D02*
X191072585Y-168319044D01*
X191072585Y-168319044D02*
X191120204Y-168271425D01*
X191120204Y-168271425D02*
X191215442Y-168223806D01*
X191215442Y-168223806D02*
X191405918Y-168223806D01*
X191405918Y-168223806D02*
X191501156Y-168271425D01*
X192072585Y-168890473D02*
X191977347Y-168842854D01*
X191977347Y-168842854D02*
X191929728Y-168747615D01*
X191929728Y-168747615D02*
X191929728Y-167890473D01*
X192834490Y-168842854D02*
X192739252Y-168890473D01*
X192739252Y-168890473D02*
X192548776Y-168890473D01*
X192548776Y-168890473D02*
X192453538Y-168842854D01*
X192453538Y-168842854D02*
X192405919Y-168747615D01*
X192405919Y-168747615D02*
X192405919Y-168366663D01*
X192405919Y-168366663D02*
X192453538Y-168271425D01*
X192453538Y-168271425D02*
X192548776Y-168223806D01*
X192548776Y-168223806D02*
X192739252Y-168223806D01*
X192739252Y-168223806D02*
X192834490Y-168271425D01*
X192834490Y-168271425D02*
X192882109Y-168366663D01*
X192882109Y-168366663D02*
X192882109Y-168461901D01*
X192882109Y-168461901D02*
X192405919Y-168557139D01*
X193739252Y-168890473D02*
X193739252Y-168366663D01*
X193739252Y-168366663D02*
X193691633Y-168271425D01*
X193691633Y-168271425D02*
X193596395Y-168223806D01*
X193596395Y-168223806D02*
X193405919Y-168223806D01*
X193405919Y-168223806D02*
X193310681Y-168271425D01*
X193739252Y-168842854D02*
X193644014Y-168890473D01*
X193644014Y-168890473D02*
X193405919Y-168890473D01*
X193405919Y-168890473D02*
X193310681Y-168842854D01*
X193310681Y-168842854D02*
X193263062Y-168747615D01*
X193263062Y-168747615D02*
X193263062Y-168652377D01*
X193263062Y-168652377D02*
X193310681Y-168557139D01*
X193310681Y-168557139D02*
X193405919Y-168509520D01*
X193405919Y-168509520D02*
X193644014Y-168509520D01*
X193644014Y-168509520D02*
X193739252Y-168461901D01*
X194215443Y-168890473D02*
X194215443Y-168223806D01*
X194215443Y-168414282D02*
X194263062Y-168319044D01*
X194263062Y-168319044D02*
X194310681Y-168271425D01*
X194310681Y-168271425D02*
X194405919Y-168223806D01*
X194405919Y-168223806D02*
X194501157Y-168223806D01*
X195263062Y-168890473D02*
X195263062Y-168366663D01*
X195263062Y-168366663D02*
X195215443Y-168271425D01*
X195215443Y-168271425D02*
X195120205Y-168223806D01*
X195120205Y-168223806D02*
X194929729Y-168223806D01*
X194929729Y-168223806D02*
X194834491Y-168271425D01*
X195263062Y-168842854D02*
X195167824Y-168890473D01*
X195167824Y-168890473D02*
X194929729Y-168890473D01*
X194929729Y-168890473D02*
X194834491Y-168842854D01*
X194834491Y-168842854D02*
X194786872Y-168747615D01*
X194786872Y-168747615D02*
X194786872Y-168652377D01*
X194786872Y-168652377D02*
X194834491Y-168557139D01*
X194834491Y-168557139D02*
X194929729Y-168509520D01*
X194929729Y-168509520D02*
X195167824Y-168509520D01*
X195167824Y-168509520D02*
X195263062Y-168461901D01*
X195739253Y-168223806D02*
X195739253Y-168890473D01*
X195739253Y-168319044D02*
X195786872Y-168271425D01*
X195786872Y-168271425D02*
X195882110Y-168223806D01*
X195882110Y-168223806D02*
X196024967Y-168223806D01*
X196024967Y-168223806D02*
X196120205Y-168271425D01*
X196120205Y-168271425D02*
X196167824Y-168366663D01*
X196167824Y-168366663D02*
X196167824Y-168890473D01*
X197072586Y-168842854D02*
X196977348Y-168890473D01*
X196977348Y-168890473D02*
X196786872Y-168890473D01*
X196786872Y-168890473D02*
X196691634Y-168842854D01*
X196691634Y-168842854D02*
X196644015Y-168795234D01*
X196644015Y-168795234D02*
X196596396Y-168699996D01*
X196596396Y-168699996D02*
X196596396Y-168414282D01*
X196596396Y-168414282D02*
X196644015Y-168319044D01*
X196644015Y-168319044D02*
X196691634Y-168271425D01*
X196691634Y-168271425D02*
X196786872Y-168223806D01*
X196786872Y-168223806D02*
X196977348Y-168223806D01*
X196977348Y-168223806D02*
X197072586Y-168271425D01*
X197882110Y-168842854D02*
X197786872Y-168890473D01*
X197786872Y-168890473D02*
X197596396Y-168890473D01*
X197596396Y-168890473D02*
X197501158Y-168842854D01*
X197501158Y-168842854D02*
X197453539Y-168747615D01*
X197453539Y-168747615D02*
X197453539Y-168366663D01*
X197453539Y-168366663D02*
X197501158Y-168271425D01*
X197501158Y-168271425D02*
X197596396Y-168223806D01*
X197596396Y-168223806D02*
X197786872Y-168223806D01*
X197786872Y-168223806D02*
X197882110Y-168271425D01*
X197882110Y-168271425D02*
X197929729Y-168366663D01*
X197929729Y-168366663D02*
X197929729Y-168461901D01*
X197929729Y-168461901D02*
X197453539Y-168557139D01*
X199548777Y-168890473D02*
X199548777Y-168366663D01*
X199548777Y-168366663D02*
X199501158Y-168271425D01*
X199501158Y-168271425D02*
X199405920Y-168223806D01*
X199405920Y-168223806D02*
X199215444Y-168223806D01*
X199215444Y-168223806D02*
X199120206Y-168271425D01*
X199548777Y-168842854D02*
X199453539Y-168890473D01*
X199453539Y-168890473D02*
X199215444Y-168890473D01*
X199215444Y-168890473D02*
X199120206Y-168842854D01*
X199120206Y-168842854D02*
X199072587Y-168747615D01*
X199072587Y-168747615D02*
X199072587Y-168652377D01*
X199072587Y-168652377D02*
X199120206Y-168557139D01*
X199120206Y-168557139D02*
X199215444Y-168509520D01*
X199215444Y-168509520D02*
X199453539Y-168509520D01*
X199453539Y-168509520D02*
X199548777Y-168461901D01*
X200024968Y-168890473D02*
X200024968Y-168223806D01*
X200024968Y-168414282D02*
X200072587Y-168319044D01*
X200072587Y-168319044D02*
X200120206Y-168271425D01*
X200120206Y-168271425D02*
X200215444Y-168223806D01*
X200215444Y-168223806D02*
X200310682Y-168223806D01*
X200786873Y-168890473D02*
X200691635Y-168842854D01*
X200691635Y-168842854D02*
X200644016Y-168795234D01*
X200644016Y-168795234D02*
X200596397Y-168699996D01*
X200596397Y-168699996D02*
X200596397Y-168414282D01*
X200596397Y-168414282D02*
X200644016Y-168319044D01*
X200644016Y-168319044D02*
X200691635Y-168271425D01*
X200691635Y-168271425D02*
X200786873Y-168223806D01*
X200786873Y-168223806D02*
X200929730Y-168223806D01*
X200929730Y-168223806D02*
X201024968Y-168271425D01*
X201024968Y-168271425D02*
X201072587Y-168319044D01*
X201072587Y-168319044D02*
X201120206Y-168414282D01*
X201120206Y-168414282D02*
X201120206Y-168699996D01*
X201120206Y-168699996D02*
X201072587Y-168795234D01*
X201072587Y-168795234D02*
X201024968Y-168842854D01*
X201024968Y-168842854D02*
X200929730Y-168890473D01*
X200929730Y-168890473D02*
X200786873Y-168890473D01*
X201977349Y-168223806D02*
X201977349Y-168890473D01*
X201548778Y-168223806D02*
X201548778Y-168747615D01*
X201548778Y-168747615D02*
X201596397Y-168842854D01*
X201596397Y-168842854D02*
X201691635Y-168890473D01*
X201691635Y-168890473D02*
X201834492Y-168890473D01*
X201834492Y-168890473D02*
X201929730Y-168842854D01*
X201929730Y-168842854D02*
X201977349Y-168795234D01*
X202453540Y-168223806D02*
X202453540Y-168890473D01*
X202453540Y-168319044D02*
X202501159Y-168271425D01*
X202501159Y-168271425D02*
X202596397Y-168223806D01*
X202596397Y-168223806D02*
X202739254Y-168223806D01*
X202739254Y-168223806D02*
X202834492Y-168271425D01*
X202834492Y-168271425D02*
X202882111Y-168366663D01*
X202882111Y-168366663D02*
X202882111Y-168890473D01*
X203786873Y-168890473D02*
X203786873Y-167890473D01*
X203786873Y-168842854D02*
X203691635Y-168890473D01*
X203691635Y-168890473D02*
X203501159Y-168890473D01*
X203501159Y-168890473D02*
X203405921Y-168842854D01*
X203405921Y-168842854D02*
X203358302Y-168795234D01*
X203358302Y-168795234D02*
X203310683Y-168699996D01*
X203310683Y-168699996D02*
X203310683Y-168414282D01*
X203310683Y-168414282D02*
X203358302Y-168319044D01*
X203358302Y-168319044D02*
X203405921Y-168271425D01*
X203405921Y-168271425D02*
X203501159Y-168223806D01*
X203501159Y-168223806D02*
X203691635Y-168223806D01*
X203691635Y-168223806D02*
X203786873Y-168271425D01*
X205453540Y-168890473D02*
X205453540Y-168366663D01*
X205453540Y-168366663D02*
X205405921Y-168271425D01*
X205405921Y-168271425D02*
X205310683Y-168223806D01*
X205310683Y-168223806D02*
X205120207Y-168223806D01*
X205120207Y-168223806D02*
X205024969Y-168271425D01*
X205453540Y-168842854D02*
X205358302Y-168890473D01*
X205358302Y-168890473D02*
X205120207Y-168890473D01*
X205120207Y-168890473D02*
X205024969Y-168842854D01*
X205024969Y-168842854D02*
X204977350Y-168747615D01*
X204977350Y-168747615D02*
X204977350Y-168652377D01*
X204977350Y-168652377D02*
X205024969Y-168557139D01*
X205024969Y-168557139D02*
X205120207Y-168509520D01*
X205120207Y-168509520D02*
X205358302Y-168509520D01*
X205358302Y-168509520D02*
X205453540Y-168461901D01*
X205929731Y-168890473D02*
X205929731Y-168223806D01*
X205929731Y-168414282D02*
X205977350Y-168319044D01*
X205977350Y-168319044D02*
X206024969Y-168271425D01*
X206024969Y-168271425D02*
X206120207Y-168223806D01*
X206120207Y-168223806D02*
X206215445Y-168223806D01*
X206977350Y-168842854D02*
X206882112Y-168890473D01*
X206882112Y-168890473D02*
X206691636Y-168890473D01*
X206691636Y-168890473D02*
X206596398Y-168842854D01*
X206596398Y-168842854D02*
X206548779Y-168795234D01*
X206548779Y-168795234D02*
X206501160Y-168699996D01*
X206501160Y-168699996D02*
X206501160Y-168414282D01*
X206501160Y-168414282D02*
X206548779Y-168319044D01*
X206548779Y-168319044D02*
X206596398Y-168271425D01*
X206596398Y-168271425D02*
X206691636Y-168223806D01*
X206691636Y-168223806D02*
X206882112Y-168223806D01*
X206882112Y-168223806D02*
X206977350Y-168271425D01*
X208120208Y-168842854D02*
X208215446Y-168890473D01*
X208215446Y-168890473D02*
X208405922Y-168890473D01*
X208405922Y-168890473D02*
X208501160Y-168842854D01*
X208501160Y-168842854D02*
X208548779Y-168747615D01*
X208548779Y-168747615D02*
X208548779Y-168699996D01*
X208548779Y-168699996D02*
X208501160Y-168604758D01*
X208501160Y-168604758D02*
X208405922Y-168557139D01*
X208405922Y-168557139D02*
X208263065Y-168557139D01*
X208263065Y-168557139D02*
X208167827Y-168509520D01*
X208167827Y-168509520D02*
X208120208Y-168414282D01*
X208120208Y-168414282D02*
X208120208Y-168366663D01*
X208120208Y-168366663D02*
X208167827Y-168271425D01*
X208167827Y-168271425D02*
X208263065Y-168223806D01*
X208263065Y-168223806D02*
X208405922Y-168223806D01*
X208405922Y-168223806D02*
X208501160Y-168271425D01*
X208834494Y-168223806D02*
X209215446Y-168223806D01*
X208977351Y-167890473D02*
X208977351Y-168747615D01*
X208977351Y-168747615D02*
X209024970Y-168842854D01*
X209024970Y-168842854D02*
X209120208Y-168890473D01*
X209120208Y-168890473D02*
X209215446Y-168890473D01*
X209548780Y-168890473D02*
X209548780Y-168223806D01*
X209548780Y-168414282D02*
X209596399Y-168319044D01*
X209596399Y-168319044D02*
X209644018Y-168271425D01*
X209644018Y-168271425D02*
X209739256Y-168223806D01*
X209739256Y-168223806D02*
X209834494Y-168223806D01*
X210167828Y-168890473D02*
X210167828Y-168223806D01*
X210167828Y-167890473D02*
X210120209Y-167938092D01*
X210120209Y-167938092D02*
X210167828Y-167985711D01*
X210167828Y-167985711D02*
X210215447Y-167938092D01*
X210215447Y-167938092D02*
X210167828Y-167890473D01*
X210167828Y-167890473D02*
X210167828Y-167985711D01*
X210644018Y-168890473D02*
X210644018Y-167890473D01*
X210739256Y-168509520D02*
X211024970Y-168890473D01*
X211024970Y-168223806D02*
X210644018Y-168604758D01*
X211834494Y-168842854D02*
X211739256Y-168890473D01*
X211739256Y-168890473D02*
X211548780Y-168890473D01*
X211548780Y-168890473D02*
X211453542Y-168842854D01*
X211453542Y-168842854D02*
X211405923Y-168747615D01*
X211405923Y-168747615D02*
X211405923Y-168366663D01*
X211405923Y-168366663D02*
X211453542Y-168271425D01*
X211453542Y-168271425D02*
X211548780Y-168223806D01*
X211548780Y-168223806D02*
X211739256Y-168223806D01*
X211739256Y-168223806D02*
X211834494Y-168271425D01*
X211834494Y-168271425D02*
X211882113Y-168366663D01*
X211882113Y-168366663D02*
X211882113Y-168461901D01*
X211882113Y-168461901D02*
X211405923Y-168557139D01*
X212310685Y-168890473D02*
X212310685Y-168223806D01*
X212310685Y-168414282D02*
X212358304Y-168319044D01*
X212358304Y-168319044D02*
X212405923Y-168271425D01*
X212405923Y-168271425D02*
X212501161Y-168223806D01*
X212501161Y-168223806D02*
X212596399Y-168223806D01*
%TO.C,H5*%
X251167710Y-63980654D02*
G75*
G02*
X246767710Y-63980654I-2200000J0D01*
G01*
X246767710Y-63980654D02*
G75*
G02*
X251167710Y-63980654I2200000J0D01*
G01*
%TO.C,H9*%
X179197710Y-230520654D02*
G75*
G02*
X174797710Y-230520654I-2200000J0D01*
G01*
X174797710Y-230520654D02*
G75*
G02*
X179197710Y-230520654I2200000J0D01*
G01*
%TO.C,H10*%
X225197710Y-230520654D02*
G75*
G02*
X220797710Y-230520654I-2200000J0D01*
G01*
X220797710Y-230520654D02*
G75*
G02*
X225197710Y-230520654I2200000J0D01*
G01*
%TO.C,H7*%
X152537710Y-63280654D02*
G75*
G02*
X148137710Y-63280654I-2200000J0D01*
G01*
X148137710Y-63280654D02*
G75*
G02*
X152537710Y-63280654I2200000J0D01*
G01*
%TO.C,H4*%
X251177710Y-220710654D02*
G75*
G02*
X246777710Y-220710654I-2200000J0D01*
G01*
X246777710Y-220710654D02*
G75*
G02*
X251177710Y-220710654I2200000J0D01*
G01*
%TO.C,H3*%
X258247710Y-213650654D02*
G75*
G02*
X253847710Y-213650654I-2200000J0D01*
G01*
X253847710Y-213650654D02*
G75*
G02*
X258247710Y-213650654I2200000J0D01*
G01*
%TO.C,H1*%
X146167710Y-213640654D02*
G75*
G02*
X141767710Y-213640654I-2200000J0D01*
G01*
X141767710Y-213640654D02*
G75*
G02*
X146167710Y-213640654I2200000J0D01*
G01*
%TO.C,H8*%
X145457710Y-70350654D02*
G75*
G02*
X141057710Y-70350654I-2200000J0D01*
G01*
X141057710Y-70350654D02*
G75*
G02*
X145457710Y-70350654I2200000J0D01*
G01*
%TO.C,H6*%
X258237710Y-71050654D02*
G75*
G02*
X253837710Y-71050654I-2200000J0D01*
G01*
X253837710Y-71050654D02*
G75*
G02*
X258237710Y-71050654I2200000J0D01*
G01*
%TO.C,H2*%
X153237710Y-220710654D02*
G75*
G02*
X148837710Y-220710654I-2200000J0D01*
G01*
X148837710Y-220710654D02*
G75*
G02*
X153237710Y-220710654I2200000J0D01*
G01*
%TD*%
M02*
