M48
; DRILL file {KiCad 8.0.7} date 2025-01-02T06:30:13+1100
; FORMAT={-:-/ absolute / inch / decimal}
; #@! TF.CreationDate,2025-01-02T06:30:13+11:00
; #@! TF.GenerationSoftware,Kicad,Pcbnew,8.0.7
; #@! TF.FileFunction,Plated,1,2,PTH
FMAT,2
INCH
; #@! TA.AperFunction,Plated,PTH,ViaDrill
T1C0.0118
; #@! TA.AperFunction,Plated,PTH,ComponentDrill
T2C0.0118
; #@! TA.AperFunction,Plated,PTH,ViaDrill
T3C0.0157
; #@! TA.AperFunction,Plated,PTH,ComponentDrill
T4C0.0157
; #@! TA.AperFunction,Plated,PTH,ComponentDrill
T5C0.0197
; #@! TA.AperFunction,Plated,PTH,ComponentDrill
T6C0.0295
; #@! TA.AperFunction,Plated,PTH,ComponentDrill
T7C0.0315
; #@! TA.AperFunction,Plated,PTH,ComponentDrill
T8C0.0394
; #@! TA.AperFunction,Plated,PTH,ComponentDrill
T9C0.0472
; #@! TA.AperFunction,Plated,PTH,ComponentDrill
T10C0.0591
; #@! TA.AperFunction,Plated,PTH,ComponentDrill
T11C0.0866
; #@! TA.AperFunction,Plated,PTH,ComponentDrill
T12C0.1220
%
G90
G05
T1
X5.9481Y-7.8945
X5.9481Y-8.0717
X6.1771Y-7.9977
X6.1771Y-8.1583
X6.246Y-8.5048
X6.2952Y-8.5048
X6.3149Y-7.9938
X6.3149Y-8.1512
X6.3149Y-8.3087
X6.3345Y-8.5056
X6.3346Y-8.4792
X6.3346Y-8.5323
X6.3623Y-8.2242
X6.3838Y-8.5048
X6.4231Y-8.5048
X6.5312Y-8.4849
X6.555Y-8.6307
X6.555Y-8.6701
X6.5933Y-8.7083
X6.6535Y-8.6307
X6.6742Y-8.5433
X6.6849Y-8.6701
X6.7172Y-8.7088
X6.7913Y-8.4654
X6.8738Y-8.6985
X6.8886Y-8.5448
X6.8897Y-8.4654
X6.8897Y-8.7685
X6.9094Y-8.6622
X6.9694Y-8.6622
X7.0117Y-7.9016
X7.0117Y-7.9291
X7.0117Y-7.9567
X7.0117Y-7.9843
X7.0117Y-8.0118
X7.0117Y-8.0394
X7.0117Y-8.0669
X7.0117Y-8.122
X7.0117Y-8.1496
X7.0117Y-8.1772
X7.0117Y-8.2047
X7.0117Y-8.2323
X7.0117Y-8.2598
X7.0117Y-8.2874
X7.0117Y-8.315
X7.0117Y-8.3425
X7.0117Y-8.3701
X7.0117Y-8.3976
X7.0117Y-8.4252
X7.0117Y-8.4528
X7.0117Y-8.4803
X7.0117Y-8.5079
X7.0117Y-8.5354
X7.0117Y-8.563
X7.0117Y-8.7567
X7.0117Y-8.7835
X7.0117Y-8.811
X7.0117Y-8.8386
X7.0117Y-8.8661
X7.0117Y-8.8937
X7.0393Y-7.9016
X7.0393Y-7.9291
X7.0393Y-7.9567
X7.0393Y-7.9843
X7.0393Y-8.0118
X7.0393Y-8.0394
X7.0393Y-8.0669
X7.0393Y-8.122
X7.0393Y-8.1496
X7.0393Y-8.1772
X7.0393Y-8.2047
X7.0393Y-8.2323
X7.0393Y-8.2598
X7.0393Y-8.2874
X7.0393Y-8.315
X7.0393Y-8.3425
X7.0393Y-8.3701
X7.0393Y-8.3976
X7.0393Y-8.4252
X7.0393Y-8.4528
X7.0393Y-8.4803
X7.0393Y-8.5079
X7.0393Y-8.5354
X7.0393Y-8.563
X7.0393Y-8.7567
X7.0393Y-8.7835
X7.0393Y-8.811
X7.0393Y-8.8386
X7.0393Y-8.8661
X7.0393Y-8.8937
X7.0668Y-7.9016
X7.0668Y-7.9291
X7.0668Y-7.9567
X7.0668Y-7.9843
X7.0668Y-8.0118
X7.0668Y-8.0394
X7.0668Y-8.0669
X7.0668Y-8.122
X7.0668Y-8.1496
X7.0668Y-8.1772
X7.0668Y-8.2047
X7.0668Y-8.2323
X7.0668Y-8.2598
X7.0668Y-8.2874
X7.0668Y-8.315
X7.0668Y-8.3425
X7.0668Y-8.3701
X7.0668Y-8.3976
X7.0668Y-8.4252
X7.0668Y-8.4528
X7.0668Y-8.4803
X7.0668Y-8.5079
X7.0668Y-8.5354
X7.0668Y-8.563
X7.0668Y-8.7567
X7.0668Y-8.7835
X7.0668Y-8.811
X7.0668Y-8.8386
X7.0668Y-8.8661
X7.0668Y-8.8937
X7.0942Y-8.7556
X7.0944Y-7.9016
X7.0944Y-7.9291
X7.0944Y-7.9567
X7.0944Y-7.9843
X7.0944Y-8.0118
X7.0944Y-8.0394
X7.0944Y-8.0669
X7.0944Y-8.122
X7.0944Y-8.1496
X7.0944Y-8.1772
X7.0944Y-8.2047
X7.0944Y-8.2323
X7.0944Y-8.2598
X7.0944Y-8.2874
X7.0944Y-8.315
X7.0944Y-8.3425
X7.0944Y-8.3701
X7.0944Y-8.3976
X7.0944Y-8.4252
X7.0944Y-8.4528
X7.0944Y-8.4803
X7.0944Y-8.5079
X7.0944Y-8.5354
X7.0944Y-8.563
X7.0944Y-8.7835
X7.0944Y-8.811
X7.0944Y-8.8386
X7.0944Y-8.8661
X7.0944Y-8.8937
X7.122Y-7.9016
X7.122Y-7.9291
X7.122Y-7.9567
X7.122Y-7.9843
X7.122Y-8.0118
X7.122Y-8.0394
X7.122Y-8.0669
X7.122Y-8.122
X7.122Y-8.1496
X7.122Y-8.1772
X7.122Y-8.2047
X7.122Y-8.2323
X7.122Y-8.2598
X7.122Y-8.2874
X7.122Y-8.315
X7.122Y-8.3425
X7.122Y-8.3701
X7.122Y-8.3976
X7.122Y-8.4252
X7.122Y-8.4528
X7.122Y-8.4803
X7.122Y-8.5079
X7.122Y-8.5354
X7.122Y-8.563
X7.122Y-8.7559
X7.122Y-8.7835
X7.122Y-8.811
X7.122Y-8.8386
X7.122Y-8.8661
X7.122Y-8.8937
X7.1495Y-7.9016
X7.1495Y-7.9291
X7.1495Y-7.9567
X7.1495Y-7.9843
X7.1495Y-8.0118
X7.1495Y-8.0394
X7.1495Y-8.0669
X7.1495Y-8.122
X7.1495Y-8.1496
X7.1495Y-8.1772
X7.1495Y-8.2047
X7.1495Y-8.2323
X7.1495Y-8.2598
X7.1495Y-8.2874
X7.1495Y-8.315
X7.1495Y-8.3425
X7.1495Y-8.3701
X7.1495Y-8.3976
X7.1495Y-8.4252
X7.1495Y-8.4528
X7.1495Y-8.4803
X7.1495Y-8.5079
X7.1495Y-8.5354
X7.1495Y-8.563
X7.1495Y-8.7559
X7.1495Y-8.7835
X7.1495Y-8.811
X7.1495Y-8.8386
X7.1495Y-8.8661
X7.1495Y-8.8937
X7.1771Y-7.9016
X7.1771Y-7.9291
X7.1771Y-7.9567
X7.1771Y-7.9843
X7.1771Y-8.0118
X7.1771Y-8.0394
X7.1771Y-8.0669
X7.1771Y-8.122
X7.1771Y-8.1496
X7.1771Y-8.1772
X7.1771Y-8.2047
X7.1771Y-8.2323
X7.1771Y-8.2598
X7.1771Y-8.2874
X7.1771Y-8.315
X7.1771Y-8.3425
X7.1771Y-8.3701
X7.1771Y-8.3976
X7.1771Y-8.4252
X7.1771Y-8.4528
X7.1771Y-8.4803
X7.1771Y-8.5079
X7.1771Y-8.5354
X7.1771Y-8.563
X7.1771Y-8.6181
X7.1771Y-8.6457
X7.1771Y-8.6732
X7.1771Y-8.7008
X7.1771Y-8.7283
X7.1771Y-8.7559
X7.1771Y-8.7835
X7.1771Y-8.811
X7.1771Y-8.8386
X7.1771Y-8.8661
X7.1771Y-8.8937
X7.2046Y-7.9016
X7.2046Y-7.9291
X7.2046Y-7.9567
X7.2046Y-7.9843
X7.2046Y-8.0118
X7.2046Y-8.0394
X7.2046Y-8.0669
X7.2046Y-8.122
X7.2046Y-8.1496
X7.2046Y-8.1772
X7.2046Y-8.2047
X7.2046Y-8.2323
X7.2046Y-8.2598
X7.2046Y-8.2874
X7.2046Y-8.315
X7.2046Y-8.3425
X7.2046Y-8.3701
X7.2046Y-8.3976
X7.2046Y-8.4252
X7.2046Y-8.4528
X7.2046Y-8.4803
X7.2046Y-8.5079
X7.2046Y-8.5354
X7.2046Y-8.563
X7.2046Y-8.6181
X7.2046Y-8.6457
X7.2046Y-8.6732
X7.2046Y-8.7008
X7.2046Y-8.7283
X7.2046Y-8.7559
X7.2046Y-8.7835
X7.2046Y-8.811
X7.2046Y-8.8386
X7.2046Y-8.8661
X7.2046Y-8.8937
X7.2322Y-7.9016
X7.2322Y-7.9291
X7.2322Y-7.9567
X7.2322Y-7.9843
X7.2322Y-8.0118
X7.2322Y-8.0394
X7.2322Y-8.0669
X7.2322Y-8.122
X7.2322Y-8.1496
X7.2322Y-8.1772
X7.2322Y-8.2047
X7.2322Y-8.2323
X7.2322Y-8.2598
X7.2322Y-8.2874
X7.2322Y-8.315
X7.2322Y-8.3425
X7.2322Y-8.3701
X7.2322Y-8.3976
X7.2322Y-8.4252
X7.2322Y-8.4528
X7.2322Y-8.4803
X7.2322Y-8.5079
X7.2322Y-8.5354
X7.2322Y-8.563
X7.2322Y-8.6181
X7.2322Y-8.6457
X7.2322Y-8.6732
X7.2322Y-8.7008
X7.2322Y-8.7283
X7.2322Y-8.7559
X7.2322Y-8.7835
X7.2322Y-8.811
X7.2322Y-8.8386
X7.2322Y-8.8661
X7.2322Y-8.8937
X7.2598Y-7.9016
X7.2598Y-7.9291
X7.2598Y-7.9567
X7.2598Y-7.9843
X7.2598Y-8.0118
X7.2598Y-8.0394
X7.2598Y-8.0669
X7.2598Y-8.122
X7.2598Y-8.1496
X7.2598Y-8.1772
X7.2598Y-8.2047
X7.2598Y-8.2323
X7.2598Y-8.2598
X7.2598Y-8.2874
X7.2598Y-8.315
X7.2598Y-8.3425
X7.2598Y-8.3701
X7.2598Y-8.3976
X7.2598Y-8.4252
X7.2598Y-8.4528
X7.2598Y-8.4803
X7.2598Y-8.5079
X7.2598Y-8.5354
X7.2598Y-8.563
X7.2598Y-8.6181
X7.2598Y-8.6457
X7.2598Y-8.6732
X7.2598Y-8.7008
X7.2598Y-8.7283
X7.2598Y-8.7559
X7.2598Y-8.7835
X7.2598Y-8.811
X7.2598Y-8.8386
X7.2598Y-8.8661
X7.2598Y-8.8937
X7.2873Y-7.9016
X7.2873Y-7.9291
X7.2873Y-7.9567
X7.2873Y-7.9843
X7.2873Y-8.0118
X7.2873Y-8.0394
X7.2873Y-8.0669
X7.2873Y-8.122
X7.2873Y-8.1496
X7.2873Y-8.1772
X7.2873Y-8.2047
X7.2873Y-8.2323
X7.2873Y-8.2598
X7.2873Y-8.2874
X7.2873Y-8.315
X7.2873Y-8.3425
X7.2873Y-8.3701
X7.2873Y-8.3976
X7.2873Y-8.4252
X7.2873Y-8.4528
X7.2873Y-8.4803
X7.2873Y-8.5079
X7.2873Y-8.5354
X7.2873Y-8.563
X7.2873Y-8.6181
X7.2873Y-8.6457
X7.2873Y-8.6732
X7.2873Y-8.7008
X7.2873Y-8.7283
X7.2873Y-8.7559
X7.2873Y-8.7835
X7.2873Y-8.811
X7.2873Y-8.8386
X7.2873Y-8.8661
X7.2873Y-8.8937
X7.3149Y-7.9016
X7.3149Y-7.9291
X7.3149Y-7.9567
X7.3149Y-7.9843
X7.3149Y-8.0118
X7.3149Y-8.0394
X7.3149Y-8.0669
X7.3149Y-8.122
X7.3149Y-8.1496
X7.3149Y-8.1772
X7.3149Y-8.2047
X7.3149Y-8.2323
X7.3149Y-8.2598
X7.3149Y-8.2874
X7.3149Y-8.315
X7.3149Y-8.3425
X7.3149Y-8.3701
X7.3149Y-8.3976
X7.3149Y-8.4252
X7.3149Y-8.4528
X7.3149Y-8.4803
X7.3149Y-8.5079
X7.3149Y-8.5354
X7.3149Y-8.563
X7.3149Y-8.6181
X7.3149Y-8.6457
X7.3149Y-8.6732
X7.3149Y-8.7008
X7.3149Y-8.7283
X7.3149Y-8.7559
X7.3149Y-8.7835
X7.3149Y-8.811
X7.3149Y-8.8386
X7.3149Y-8.8661
X7.3149Y-8.8937
X7.3424Y-7.9016
X7.3424Y-7.9291
X7.3424Y-7.9567
X7.3424Y-7.9843
X7.3424Y-8.0118
X7.3424Y-8.0394
X7.3424Y-8.0669
X7.3424Y-8.122
X7.3424Y-8.1496
X7.3424Y-8.1772
X7.3424Y-8.2047
X7.3424Y-8.2323
X7.3424Y-8.2598
X7.3424Y-8.2874
X7.3424Y-8.315
X7.3424Y-8.3425
X7.3424Y-8.3701
X7.3424Y-8.3976
X7.3424Y-8.4252
X7.3424Y-8.4528
X7.3424Y-8.4803
X7.3424Y-8.5079
X7.3424Y-8.5354
X7.3424Y-8.563
X7.3424Y-8.6181
X7.3424Y-8.6457
X7.3424Y-8.6732
X7.3424Y-8.7008
X7.3424Y-8.7283
X7.3424Y-8.7559
X7.3424Y-8.7835
X7.3424Y-8.811
X7.3424Y-8.8386
X7.3424Y-8.8661
X7.3424Y-8.8937
X7.37Y-7.9016
X7.37Y-7.9291
X7.37Y-7.9567
X7.37Y-7.9843
X7.37Y-8.0118
X7.37Y-8.0394
X7.37Y-8.0669
X7.37Y-8.122
X7.37Y-8.1496
X7.37Y-8.1772
X7.37Y-8.2047
X7.37Y-8.2323
X7.37Y-8.2598
X7.37Y-8.2874
X7.37Y-8.315
X7.37Y-8.3425
X7.37Y-8.3701
X7.37Y-8.3976
X7.37Y-8.4252
X7.37Y-8.4528
X7.37Y-8.4803
X7.37Y-8.5079
X7.37Y-8.5354
X7.37Y-8.563
X7.37Y-8.6181
X7.37Y-8.6457
X7.37Y-8.6732
X7.37Y-8.7008
X7.37Y-8.7283
X7.37Y-8.7559
X7.37Y-8.7835
X7.37Y-8.811
X7.37Y-8.8386
X7.37Y-8.8661
X7.37Y-8.8937
X7.3975Y-7.9016
X7.3975Y-7.9291
X7.3975Y-7.9567
X7.3975Y-7.9843
X7.3975Y-8.0118
X7.3975Y-8.0394
X7.3975Y-8.0669
X7.3975Y-8.122
X7.3975Y-8.1496
X7.3975Y-8.1772
X7.3975Y-8.2047
X7.3975Y-8.2323
X7.3975Y-8.2598
X7.3975Y-8.2874
X7.3975Y-8.315
X7.3975Y-8.3425
X7.3975Y-8.3701
X7.3975Y-8.3976
X7.3975Y-8.4252
X7.3975Y-8.4528
X7.3975Y-8.4803
X7.3975Y-8.5079
X7.3975Y-8.5354
X7.3975Y-8.563
X7.3975Y-8.6181
X7.3975Y-8.6457
X7.3975Y-8.6732
X7.3975Y-8.7008
X7.3975Y-8.7283
X7.3975Y-8.7559
X7.3975Y-8.7835
X7.3975Y-8.811
X7.3975Y-8.8386
X7.3975Y-8.8661
X7.3975Y-8.8937
X7.4251Y-7.9016
X7.4251Y-7.9291
X7.4251Y-7.9567
X7.4251Y-7.9843
X7.4251Y-8.0118
X7.4251Y-8.0394
X7.4251Y-8.0669
X7.4251Y-8.122
X7.4251Y-8.1496
X7.4251Y-8.1772
X7.4251Y-8.2047
X7.4251Y-8.2323
X7.4251Y-8.2598
X7.4251Y-8.2874
X7.4251Y-8.315
X7.4251Y-8.3425
X7.4251Y-8.3701
X7.4251Y-8.3976
X7.4251Y-8.4252
X7.4251Y-8.4528
X7.4251Y-8.4803
X7.4251Y-8.5079
X7.4251Y-8.5354
X7.4251Y-8.563
X7.4251Y-8.6181
X7.4251Y-8.6457
X7.4251Y-8.6732
X7.4251Y-8.7008
X7.4251Y-8.7283
X7.4251Y-8.7559
X7.4251Y-8.7835
X7.4251Y-8.811
X7.4251Y-8.8386
X7.4251Y-8.8661
X7.4251Y-8.8937
X7.4527Y-7.9016
X7.4527Y-7.9291
X7.4527Y-7.9567
X7.4527Y-7.9843
X7.4527Y-8.0118
X7.4527Y-8.0394
X7.4527Y-8.0669
X7.4527Y-8.122
X7.4527Y-8.1496
X7.4527Y-8.1772
X7.4527Y-8.2047
X7.4527Y-8.2323
X7.4527Y-8.2598
X7.4527Y-8.2874
X7.4527Y-8.315
X7.4527Y-8.3425
X7.4527Y-8.3701
X7.4527Y-8.3976
X7.4527Y-8.4252
X7.4527Y-8.4528
X7.4527Y-8.4803
X7.4527Y-8.5079
X7.4527Y-8.5354
X7.4527Y-8.563
X7.4527Y-8.6181
X7.4527Y-8.6457
X7.4527Y-8.6732
X7.4527Y-8.7008
X7.4527Y-8.7283
X7.4527Y-8.7559
X7.4527Y-8.7835
X7.4527Y-8.811
X7.4527Y-8.8386
X7.4527Y-8.8661
X7.4527Y-8.8937
X7.4802Y-7.9016
X7.4802Y-7.9291
X7.4802Y-7.9567
X7.4802Y-7.9843
X7.4802Y-8.0118
X7.4802Y-8.0394
X7.4802Y-8.0669
X7.4802Y-8.122
X7.4802Y-8.1496
X7.4802Y-8.1772
X7.4802Y-8.2047
X7.4802Y-8.2323
X7.4802Y-8.2598
X7.4802Y-8.2874
X7.4802Y-8.315
X7.4802Y-8.3425
X7.4802Y-8.3701
X7.4802Y-8.3976
X7.4802Y-8.4252
X7.4802Y-8.4528
X7.4802Y-8.4803
X7.4802Y-8.5079
X7.4802Y-8.5354
X7.4802Y-8.563
X7.4802Y-8.6181
X7.4802Y-8.6457
X7.4802Y-8.6732
X7.4802Y-8.7008
X7.4802Y-8.7283
X7.4802Y-8.7559
X7.4802Y-8.7835
X7.4802Y-8.811
X7.4802Y-8.8386
X7.4802Y-8.8661
X7.4802Y-8.8937
X7.5353Y-7.9016
X7.5353Y-7.9291
X7.5353Y-7.9567
X7.5353Y-7.9843
X7.5353Y-8.0118
X7.5353Y-8.0394
X7.5353Y-8.0669
X7.5353Y-8.122
X7.5353Y-8.1496
X7.5353Y-8.1772
X7.5353Y-8.2047
X7.5353Y-8.2323
X7.5353Y-8.2598
X7.5353Y-8.2874
X7.5353Y-8.315
X7.5353Y-8.3425
X7.5353Y-8.3701
X7.5353Y-8.3976
X7.5353Y-8.4252
X7.5353Y-8.4528
X7.5353Y-8.4803
X7.5353Y-8.5079
X7.5353Y-8.5354
X7.5353Y-8.563
X7.5353Y-8.6181
X7.5353Y-8.6457
X7.5353Y-8.6732
X7.5353Y-8.7008
X7.5353Y-8.7283
X7.5353Y-8.7559
X7.5353Y-8.7835
X7.5353Y-8.811
X7.5353Y-8.8386
X7.5353Y-8.8661
X7.5353Y-8.8937
X7.5629Y-7.9016
X7.5629Y-7.9291
X7.5629Y-7.9567
X7.5629Y-7.9843
X7.5629Y-8.0118
X7.5629Y-8.0394
X7.5629Y-8.0669
X7.5629Y-8.122
X7.5629Y-8.1496
X7.5629Y-8.1772
X7.5629Y-8.2047
X7.5629Y-8.2323
X7.5629Y-8.2598
X7.5629Y-8.2874
X7.5629Y-8.315
X7.5629Y-8.3425
X7.5629Y-8.3701
X7.5629Y-8.3976
X7.5629Y-8.4252
X7.5629Y-8.4528
X7.5629Y-8.4803
X7.5629Y-8.5079
X7.5629Y-8.5354
X7.5629Y-8.563
X7.5629Y-8.6181
X7.5629Y-8.6457
X7.5629Y-8.6732
X7.5629Y-8.7008
X7.5629Y-8.7283
X7.5629Y-8.7559
X7.5629Y-8.7835
X7.5629Y-8.811
X7.5629Y-8.8386
X7.5629Y-8.8661
X7.5629Y-8.8937
X7.5905Y-7.9016
X7.5905Y-7.9291
X7.5905Y-7.9567
X7.5905Y-7.9843
X7.5905Y-8.0118
X7.5905Y-8.0394
X7.5905Y-8.0669
X7.5905Y-8.122
X7.5905Y-8.1496
X7.5905Y-8.1772
X7.5905Y-8.2047
X7.5905Y-8.2323
X7.5905Y-8.2598
X7.5905Y-8.2874
X7.5905Y-8.315
X7.5905Y-8.3425
X7.5905Y-8.3701
X7.5905Y-8.3976
X7.5905Y-8.4252
X7.5905Y-8.4528
X7.5905Y-8.4803
X7.5905Y-8.5079
X7.5905Y-8.5354
X7.5905Y-8.563
X7.5905Y-8.6181
X7.5905Y-8.6457
X7.5905Y-8.6732
X7.5905Y-8.7008
X7.5905Y-8.7283
X7.5905Y-8.7559
X7.5905Y-8.7835
X7.5905Y-8.811
X7.5905Y-8.8386
X7.5905Y-8.8661
X7.5905Y-8.8937
X7.618Y-7.9291
X7.618Y-7.9567
X7.618Y-7.9843
X7.618Y-8.0118
X7.618Y-8.0394
X7.618Y-8.0669
X7.618Y-8.122
X7.618Y-8.1496
X7.618Y-8.1772
X7.618Y-8.2047
X7.618Y-8.2323
X7.618Y-8.2598
X7.618Y-8.2874
X7.618Y-8.315
X7.618Y-8.3425
X7.618Y-8.3701
X7.618Y-8.3976
X7.618Y-8.4252
X7.618Y-8.4528
X7.618Y-8.4803
X7.618Y-8.5079
X7.618Y-8.5354
X7.618Y-8.563
X7.618Y-8.6181
X7.618Y-8.6457
X7.618Y-8.6732
X7.618Y-8.7008
X7.618Y-8.7283
X7.618Y-8.7559
X7.618Y-8.7835
X7.618Y-8.811
X7.618Y-8.8386
X7.618Y-8.8661
X7.618Y-8.8937
X7.6456Y-7.9567
X7.6456Y-7.9843
X7.6456Y-8.0118
X7.6456Y-8.0394
X7.6456Y-8.0669
X7.6456Y-8.122
X7.6456Y-8.1496
X7.6456Y-8.1772
X7.6456Y-8.2047
X7.6456Y-8.2323
X7.6456Y-8.2598
X7.6456Y-8.2874
X7.6456Y-8.315
X7.6456Y-8.3425
X7.6456Y-8.3701
X7.6456Y-8.3976
X7.6456Y-8.4252
X7.6456Y-8.4528
X7.6456Y-8.4803
X7.6456Y-8.5079
X7.6456Y-8.5354
X7.6456Y-8.563
X7.6456Y-8.6181
X7.6456Y-8.6457
X7.6456Y-8.6732
X7.6456Y-8.7008
X7.6456Y-8.7283
X7.6456Y-8.7559
X7.6456Y-8.7835
X7.6456Y-8.811
X7.6456Y-8.8386
X7.6456Y-8.8661
X7.7047Y-8.0835
X7.7047Y-8.5961
X7.7441Y-8.0835
X7.7441Y-8.5961
X7.7835Y-8.0835
X7.7835Y-8.5961
X7.8228Y-8.0835
X7.8228Y-8.5961
X7.8583Y-8.0835
X7.8583Y-8.5961
X8.2283Y-8.1071
X8.3848Y-8.7362
X8.3854Y-8.4287
X8.5551Y-8.8591
X8.563Y-8.0371
X8.8897Y-8.1898
X8.9172Y-8.1898
X8.9448Y-8.1898
X9.4291Y-8.4843
X9.4882Y-8.563
X9.6061Y-8.0607
X9.6613Y-8.237
X9.6653Y-8.426
X9.7991Y-7.8394
X9.8227Y-7.8394
X9.8227Y-8.1129
X9.8464Y-7.8394
X9.8548Y-8.1531
X9.862Y-8.1911
X9.872Y-8.3473
X9.9645Y-8.1425
T2
X6.2204Y-7.5437
T3
X8.0157Y-7.5787
X8.0511Y-7.5787
X8.0905Y-7.5787
X8.1298Y-7.5787
X8.1692Y-7.5787
X8.2086Y-7.5787
X8.2479Y-7.5787
T4
X5.5751Y-2.7697
X5.5941Y-2.7238
X5.5941Y-2.8156
X5.6031Y-8.411
X5.6221Y-8.3651
X5.6221Y-8.457
X5.6401Y-2.7048
X5.6401Y-2.8347
X5.668Y-8.3461
X5.668Y-8.476
X5.686Y-2.7238
X5.686Y-2.8156
X5.705Y-2.7697
X5.714Y-8.3651
X5.714Y-8.457
X5.733Y-8.411
X5.8538Y-2.4914
X5.8729Y-2.4454
X5.8729Y-2.5373
X5.8814Y-8.6894
X5.9004Y-8.6435
X5.9004Y-8.7353
X5.9188Y-2.4264
X5.9188Y-2.5563
X5.9464Y-8.6244
X5.9464Y-8.7544
X5.9647Y-2.4454
X5.9647Y-2.5373
X5.9838Y-2.4914
X5.9923Y-8.6435
X5.9923Y-8.7353
X6.0113Y-8.6894
X6.9035Y-9.0756
X6.9225Y-9.0297
X6.9225Y-9.1216
X6.9684Y-9.0107
X6.9684Y-9.1406
X7.0143Y-9.0297
X7.0143Y-9.1216
X7.0334Y-9.0756
X7.8975Y-7.0796
X7.8975Y-7.1189
X7.8975Y-7.1583
X7.8975Y-7.1977
X7.8975Y-7.237
X7.8975Y-7.2764
X7.8975Y-7.3158
X7.8975Y-7.3601
X7.8975Y-7.3994
X7.8975Y-7.4388
X8.7145Y-9.0756
X8.7335Y-9.0297
X8.7335Y-9.1216
X8.7794Y-9.0107
X8.7794Y-9.1406
X8.8254Y-9.0297
X8.8254Y-9.1216
X8.8444Y-9.0756
X9.7369Y-2.5189
X9.7373Y-8.6894
X9.7559Y-2.473
X9.7559Y-2.5649
X9.7563Y-8.6435
X9.7563Y-8.7353
X9.8019Y-2.454
X9.8019Y-2.5839
X9.8023Y-8.6244
X9.8023Y-8.7544
X9.8478Y-2.473
X9.8478Y-2.5649
X9.8482Y-8.6435
X9.8482Y-8.7353
X9.8668Y-2.5189
X9.8672Y-8.6894
X10.0153Y-2.7973
X10.0157Y-8.4114
X10.0343Y-2.7513
X10.0343Y-2.8432
X10.0347Y-8.3655
X10.0347Y-8.4574
X10.0802Y-2.7323
X10.0802Y-2.8622
X10.0806Y-8.3465
X10.0806Y-8.4764
X10.1262Y-2.7513
X10.1262Y-2.8432
X10.1266Y-8.3655
X10.1266Y-8.4574
X10.1452Y-2.7973
X10.1456Y-8.4114
T5
X5.6988Y-7.8346
X6.7953Y-7.7756
X7.7755Y-8.4063
X8.563Y-8.2283
X9.992Y-7.7803
T6
X6.5353Y-7.9733
X6.5353Y-8.052
T7
X6.5353Y-8.2292
X6.5353Y-8.3079
T8
X5.5413Y-7.8346
X5.5413Y-7.9921
X5.5413Y-8.1496
X6.9528Y-7.7756
X7.9527Y-8.4063
X8.563Y-8.4055
X9.2322Y-8.4044
X9.3306Y-8.4044
X9.429Y-8.4044
X9.992Y-7.9575
T9
X10.2067Y-8.1504
T10
X9.055Y-7.552
T11
X5.6401Y-2.7697
X5.668Y-8.411
X5.9188Y-2.4914
X5.9464Y-8.6894
X6.9684Y-9.0756
X8.7794Y-9.0756
X9.8019Y-2.5189
X9.8023Y-8.6894
X10.0802Y-2.7973
X10.0806Y-8.4114
T12
X7.2242Y-7.7772
X7.2242Y-9.0764
X8.5234Y-7.7772
X8.5234Y-9.0764
M30
