%TF.GenerationSoftware,KiCad,Pcbnew,8.0.7*%
%TF.CreationDate,2025-01-02T06:30:13+11:00*%
%TF.ProjectId,plasma toroid unified,706c6173-6d61-4207-946f-726f69642075,v1.02*%
%TF.SameCoordinates,Original*%
%TF.FileFunction,Soldermask,Bot*%
%TF.FilePolarity,Negative*%
%FSLAX46Y46*%
G04 Gerber Fmt 4.6, Leading zero omitted, Abs format (unit mm)*
G04 Created by KiCad (PCBNEW 8.0.7) date 2025-01-02 06:30:13*
%MOMM*%
%LPD*%
G01*
G04 APERTURE LIST*
G04 Aperture macros list*
%AMRoundRect*
0 Rectangle with rounded corners*
0 $1 Rounding radius*
0 $2 $3 $4 $5 $6 $7 $8 $9 X,Y pos of 4 corners*
0 Add a 4 corners polygon primitive as box body*
4,1,4,$2,$3,$4,$5,$6,$7,$8,$9,$2,$3,0*
0 Add four circle primitives for the rounded corners*
1,1,$1+$1,$2,$3*
1,1,$1+$1,$4,$5*
1,1,$1+$1,$6,$7*
1,1,$1+$1,$8,$9*
0 Add four rect primitives between the rounded corners*
20,1,$1+$1,$2,$3,$4,$5,0*
20,1,$1+$1,$4,$5,$6,$7,0*
20,1,$1+$1,$6,$7,$8,$9,0*
20,1,$1+$1,$8,$9,$2,$3,0*%
G04 Aperture macros list end*
%ADD10C,0.200000*%
%ADD11C,0.000000*%
%ADD12C,0.700000*%
%ADD13C,4.100000*%
%ADD14C,2.000000*%
%ADD15R,1.000000X1.000000*%
%ADD16C,2.500000*%
%ADD17C,4.000000*%
%ADD18C,1.800000*%
%ADD19R,1.350000X1.350000*%
%ADD20O,1.350000X1.350000*%
%ADD21RoundRect,0.250000X-0.625000X0.350000X-0.625000X-0.350000X0.625000X-0.350000X0.625000X0.350000X0*%
%ADD22O,1.750000X1.200000*%
%ADD23C,4.200000*%
G04 APERTURE END LIST*
D10*
X246515838Y-210940254D02*
X246420600Y-210987873D01*
X246420600Y-210987873D02*
X246230124Y-210987873D01*
X246230124Y-210987873D02*
X246134886Y-210940254D01*
X246134886Y-210940254D02*
X246087267Y-210845015D01*
X246087267Y-210845015D02*
X246087267Y-210797396D01*
X246087267Y-210797396D02*
X246134886Y-210702158D01*
X246134886Y-210702158D02*
X246230124Y-210654539D01*
X246230124Y-210654539D02*
X246372981Y-210654539D01*
X246372981Y-210654539D02*
X246468219Y-210606920D01*
X246468219Y-210606920D02*
X246515838Y-210511682D01*
X246515838Y-210511682D02*
X246515838Y-210464063D01*
X246515838Y-210464063D02*
X246468219Y-210368825D01*
X246468219Y-210368825D02*
X246372981Y-210321206D01*
X246372981Y-210321206D02*
X246230124Y-210321206D01*
X246230124Y-210321206D02*
X246134886Y-210368825D01*
X245658695Y-210987873D02*
X245658695Y-209987873D01*
X245563457Y-210606920D02*
X245277743Y-210987873D01*
X245277743Y-210321206D02*
X245658695Y-210702158D01*
X244944409Y-210321206D02*
X244706314Y-210987873D01*
X244468219Y-210321206D02*
X244706314Y-210987873D01*
X244706314Y-210987873D02*
X244801552Y-211225968D01*
X244801552Y-211225968D02*
X244849171Y-211273587D01*
X244849171Y-211273587D02*
X244944409Y-211321206D01*
X244087266Y-210606920D02*
X243325362Y-210606920D01*
X242420600Y-210321206D02*
X242420600Y-211130730D01*
X242420600Y-211130730D02*
X242468219Y-211225968D01*
X242468219Y-211225968D02*
X242515838Y-211273587D01*
X242515838Y-211273587D02*
X242611076Y-211321206D01*
X242611076Y-211321206D02*
X242753933Y-211321206D01*
X242753933Y-211321206D02*
X242849171Y-211273587D01*
X242420600Y-210940254D02*
X242515838Y-210987873D01*
X242515838Y-210987873D02*
X242706314Y-210987873D01*
X242706314Y-210987873D02*
X242801552Y-210940254D01*
X242801552Y-210940254D02*
X242849171Y-210892634D01*
X242849171Y-210892634D02*
X242896790Y-210797396D01*
X242896790Y-210797396D02*
X242896790Y-210511682D01*
X242896790Y-210511682D02*
X242849171Y-210416444D01*
X242849171Y-210416444D02*
X242801552Y-210368825D01*
X242801552Y-210368825D02*
X242706314Y-210321206D01*
X242706314Y-210321206D02*
X242515838Y-210321206D01*
X242515838Y-210321206D02*
X242420600Y-210368825D01*
X241515838Y-210321206D02*
X241515838Y-210987873D01*
X241944409Y-210321206D02*
X241944409Y-210845015D01*
X241944409Y-210845015D02*
X241896790Y-210940254D01*
X241896790Y-210940254D02*
X241801552Y-210987873D01*
X241801552Y-210987873D02*
X241658695Y-210987873D01*
X241658695Y-210987873D02*
X241563457Y-210940254D01*
X241563457Y-210940254D02*
X241515838Y-210892634D01*
X241039647Y-210987873D02*
X241039647Y-210321206D01*
X241039647Y-209987873D02*
X241087266Y-210035492D01*
X241087266Y-210035492D02*
X241039647Y-210083111D01*
X241039647Y-210083111D02*
X240992028Y-210035492D01*
X240992028Y-210035492D02*
X241039647Y-209987873D01*
X241039647Y-209987873D02*
X241039647Y-210083111D01*
X240134886Y-210987873D02*
X240134886Y-209987873D01*
X240134886Y-210940254D02*
X240230124Y-210987873D01*
X240230124Y-210987873D02*
X240420600Y-210987873D01*
X240420600Y-210987873D02*
X240515838Y-210940254D01*
X240515838Y-210940254D02*
X240563457Y-210892634D01*
X240563457Y-210892634D02*
X240611076Y-210797396D01*
X240611076Y-210797396D02*
X240611076Y-210511682D01*
X240611076Y-210511682D02*
X240563457Y-210416444D01*
X240563457Y-210416444D02*
X240515838Y-210368825D01*
X240515838Y-210368825D02*
X240420600Y-210321206D01*
X240420600Y-210321206D02*
X240230124Y-210321206D01*
X240230124Y-210321206D02*
X240134886Y-210368825D01*
X239277743Y-210940254D02*
X239372981Y-210987873D01*
X239372981Y-210987873D02*
X239563457Y-210987873D01*
X239563457Y-210987873D02*
X239658695Y-210940254D01*
X239658695Y-210940254D02*
X239706314Y-210845015D01*
X239706314Y-210845015D02*
X239706314Y-210464063D01*
X239706314Y-210464063D02*
X239658695Y-210368825D01*
X239658695Y-210368825D02*
X239563457Y-210321206D01*
X239563457Y-210321206D02*
X239372981Y-210321206D01*
X239372981Y-210321206D02*
X239277743Y-210368825D01*
X239277743Y-210368825D02*
X239230124Y-210464063D01*
X239230124Y-210464063D02*
X239230124Y-210559301D01*
X239230124Y-210559301D02*
X239706314Y-210654539D01*
X238372981Y-210987873D02*
X238372981Y-209987873D01*
X238372981Y-210940254D02*
X238468219Y-210987873D01*
X238468219Y-210987873D02*
X238658695Y-210987873D01*
X238658695Y-210987873D02*
X238753933Y-210940254D01*
X238753933Y-210940254D02*
X238801552Y-210892634D01*
X238801552Y-210892634D02*
X238849171Y-210797396D01*
X238849171Y-210797396D02*
X238849171Y-210511682D01*
X238849171Y-210511682D02*
X238801552Y-210416444D01*
X238801552Y-210416444D02*
X238753933Y-210368825D01*
X238753933Y-210368825D02*
X238658695Y-210321206D01*
X238658695Y-210321206D02*
X238468219Y-210321206D01*
X238468219Y-210321206D02*
X238372981Y-210368825D01*
X237849171Y-210940254D02*
X237849171Y-210987873D01*
X237849171Y-210987873D02*
X237896790Y-211083111D01*
X237896790Y-211083111D02*
X237944409Y-211130730D01*
X236706314Y-210083111D02*
X236658695Y-210035492D01*
X236658695Y-210035492D02*
X236563457Y-209987873D01*
X236563457Y-209987873D02*
X236325362Y-209987873D01*
X236325362Y-209987873D02*
X236230124Y-210035492D01*
X236230124Y-210035492D02*
X236182505Y-210083111D01*
X236182505Y-210083111D02*
X236134886Y-210178349D01*
X236134886Y-210178349D02*
X236134886Y-210273587D01*
X236134886Y-210273587D02*
X236182505Y-210416444D01*
X236182505Y-210416444D02*
X236753933Y-210987873D01*
X236753933Y-210987873D02*
X236134886Y-210987873D01*
X235515838Y-209987873D02*
X235420600Y-209987873D01*
X235420600Y-209987873D02*
X235325362Y-210035492D01*
X235325362Y-210035492D02*
X235277743Y-210083111D01*
X235277743Y-210083111D02*
X235230124Y-210178349D01*
X235230124Y-210178349D02*
X235182505Y-210368825D01*
X235182505Y-210368825D02*
X235182505Y-210606920D01*
X235182505Y-210606920D02*
X235230124Y-210797396D01*
X235230124Y-210797396D02*
X235277743Y-210892634D01*
X235277743Y-210892634D02*
X235325362Y-210940254D01*
X235325362Y-210940254D02*
X235420600Y-210987873D01*
X235420600Y-210987873D02*
X235515838Y-210987873D01*
X235515838Y-210987873D02*
X235611076Y-210940254D01*
X235611076Y-210940254D02*
X235658695Y-210892634D01*
X235658695Y-210892634D02*
X235706314Y-210797396D01*
X235706314Y-210797396D02*
X235753933Y-210606920D01*
X235753933Y-210606920D02*
X235753933Y-210368825D01*
X235753933Y-210368825D02*
X235706314Y-210178349D01*
X235706314Y-210178349D02*
X235658695Y-210083111D01*
X235658695Y-210083111D02*
X235611076Y-210035492D01*
X235611076Y-210035492D02*
X235515838Y-209987873D01*
X234801552Y-210083111D02*
X234753933Y-210035492D01*
X234753933Y-210035492D02*
X234658695Y-209987873D01*
X234658695Y-209987873D02*
X234420600Y-209987873D01*
X234420600Y-209987873D02*
X234325362Y-210035492D01*
X234325362Y-210035492D02*
X234277743Y-210083111D01*
X234277743Y-210083111D02*
X234230124Y-210178349D01*
X234230124Y-210178349D02*
X234230124Y-210273587D01*
X234230124Y-210273587D02*
X234277743Y-210416444D01*
X234277743Y-210416444D02*
X234849171Y-210987873D01*
X234849171Y-210987873D02*
X234230124Y-210987873D01*
X233372981Y-210321206D02*
X233372981Y-210987873D01*
X233611076Y-209940254D02*
X233849171Y-210654539D01*
X233849171Y-210654539D02*
X233230124Y-210654539D01*
D11*
%TO.C,G\u002A\u002A\u002A*%
G36*
X240641793Y-197120992D02*
G01*
X240653587Y-197130208D01*
X240658519Y-197136682D01*
X240668716Y-197154266D01*
X240680909Y-197179078D01*
X240694471Y-197209574D01*
X240708770Y-197244208D01*
X240723177Y-197281435D01*
X240737063Y-197319709D01*
X240749798Y-197357486D01*
X240760752Y-197393219D01*
X240770467Y-197428899D01*
X240781600Y-197474821D01*
X240791584Y-197521436D01*
X240800037Y-197566668D01*
X240806577Y-197608439D01*
X240810820Y-197644672D01*
X240812383Y-197673290D01*
X240812476Y-197696734D01*
X240765467Y-197713473D01*
X240761233Y-197715006D01*
X240729032Y-197727933D01*
X240692479Y-197744356D01*
X240654355Y-197762883D01*
X240617442Y-197782121D01*
X240584522Y-197800678D01*
X240558374Y-197817162D01*
X240554221Y-197820008D01*
X240539291Y-197830149D01*
X240528528Y-197837323D01*
X240524030Y-197840126D01*
X240523502Y-197839930D01*
X240516655Y-197836167D01*
X240503221Y-197828346D01*
X240484813Y-197817415D01*
X240463045Y-197804320D01*
X240423822Y-197781390D01*
X240316931Y-197726142D01*
X240202470Y-197676809D01*
X240081133Y-197633672D01*
X239953612Y-197597015D01*
X239941003Y-197593729D01*
X239916592Y-197586984D01*
X239896711Y-197580969D01*
X239883144Y-197576242D01*
X239877672Y-197573357D01*
X239879520Y-197568687D01*
X239888299Y-197558923D01*
X239902874Y-197545528D01*
X239921875Y-197529642D01*
X239943931Y-197512406D01*
X239967672Y-197494961D01*
X239991728Y-197478447D01*
X239994591Y-197476607D01*
X240011429Y-197466632D01*
X240035798Y-197453064D01*
X240066410Y-197436580D01*
X240101975Y-197417862D01*
X240141205Y-197397590D01*
X240182810Y-197376443D01*
X240225501Y-197355103D01*
X240258811Y-197338515D01*
X240317674Y-197308672D01*
X240368818Y-197281891D01*
X240413315Y-197257539D01*
X240452237Y-197234985D01*
X240486657Y-197213598D01*
X240517645Y-197192746D01*
X240546276Y-197171799D01*
X240573620Y-197150125D01*
X240593093Y-197135064D01*
X240612851Y-197123095D01*
X240628649Y-197118514D01*
X240641793Y-197120992D01*
G37*
G36*
X244438823Y-207248895D02*
G01*
X244452288Y-207338741D01*
X244452428Y-207339805D01*
X244454587Y-207362870D01*
X244456333Y-207394684D01*
X244457620Y-207433917D01*
X244458404Y-207479238D01*
X244458642Y-207529318D01*
X244458611Y-207547188D01*
X244458370Y-207589045D01*
X244457815Y-207623396D01*
X244456841Y-207652180D01*
X244455344Y-207677334D01*
X244453218Y-207700795D01*
X244450358Y-207724500D01*
X244446660Y-207750386D01*
X244445189Y-207759983D01*
X244421084Y-207883588D01*
X244388160Y-208002358D01*
X244346495Y-208116138D01*
X244296167Y-208224777D01*
X244237254Y-208328121D01*
X244169834Y-208426018D01*
X244093986Y-208518315D01*
X244009787Y-208604859D01*
X243949535Y-208658992D01*
X243849945Y-208737305D01*
X243743161Y-208808547D01*
X243629283Y-208872678D01*
X243508412Y-208929661D01*
X243380651Y-208979459D01*
X243246099Y-209022033D01*
X243104858Y-209057344D01*
X242957028Y-209085356D01*
X242802711Y-209106031D01*
X242642008Y-209119329D01*
X242630510Y-209119708D01*
X242609608Y-209120006D01*
X242581234Y-209120187D01*
X242546784Y-209120250D01*
X242507655Y-209120191D01*
X242465241Y-209120008D01*
X242420939Y-209119699D01*
X242373936Y-209119158D01*
X242290909Y-209117306D01*
X242213122Y-209114201D01*
X242138421Y-209109652D01*
X242064655Y-209103467D01*
X241989670Y-209095452D01*
X241911316Y-209085417D01*
X241827440Y-209073168D01*
X241735889Y-209058513D01*
X241617919Y-209039679D01*
X241504648Y-209023208D01*
X241396282Y-209009294D01*
X241290397Y-208997697D01*
X241184570Y-208988175D01*
X241076379Y-208980488D01*
X240963399Y-208974393D01*
X240843208Y-208969649D01*
X240792401Y-208968282D01*
X240698899Y-208967179D01*
X240600499Y-208967607D01*
X240500198Y-208969502D01*
X240400996Y-208972798D01*
X240305890Y-208977429D01*
X240217878Y-208983330D01*
X240174643Y-208986326D01*
X240120065Y-208989260D01*
X240062630Y-208991575D01*
X240004194Y-208993239D01*
X239946612Y-208994224D01*
X239891738Y-208994499D01*
X239841429Y-208994032D01*
X239797539Y-208992796D01*
X239761924Y-208990758D01*
X239701116Y-208985085D01*
X239552793Y-208964117D01*
X239405734Y-208933237D01*
X239260437Y-208892611D01*
X239117400Y-208842407D01*
X238977121Y-208782793D01*
X238840097Y-208713937D01*
X238706828Y-208636005D01*
X238661945Y-208607817D01*
X238498465Y-208607070D01*
X238448453Y-208606719D01*
X238403985Y-208606020D01*
X238366112Y-208604823D01*
X238333003Y-208602963D01*
X238302831Y-208600276D01*
X238273764Y-208596596D01*
X238243973Y-208591758D01*
X238211629Y-208585600D01*
X238174901Y-208577955D01*
X238128960Y-208566631D01*
X238072365Y-208549551D01*
X238012689Y-208528702D01*
X237952755Y-208505078D01*
X237895389Y-208479670D01*
X237839111Y-208453415D01*
X237689034Y-208385836D01*
X237540554Y-208322476D01*
X237394305Y-208263547D01*
X237250925Y-208209260D01*
X237111047Y-208159826D01*
X236975309Y-208115456D01*
X236844344Y-208076362D01*
X236718790Y-208042752D01*
X236599281Y-208014840D01*
X236486454Y-207992836D01*
X236380943Y-207976951D01*
X236281219Y-207966301D01*
X236164730Y-207959233D01*
X236054756Y-207958981D01*
X235950622Y-207965672D01*
X235851651Y-207979431D01*
X235757165Y-208000387D01*
X235666489Y-208028665D01*
X235578945Y-208064392D01*
X235493858Y-208107696D01*
X235410550Y-208158702D01*
X235390336Y-208172010D01*
X235368819Y-208185879D01*
X235351536Y-208196681D01*
X235339887Y-208203547D01*
X235335268Y-208205605D01*
X235334941Y-208202583D01*
X235335379Y-208190588D01*
X235336763Y-208170747D01*
X235338967Y-208144380D01*
X235341864Y-208112810D01*
X235345328Y-208077358D01*
X235349231Y-208039347D01*
X235353449Y-208000099D01*
X235356756Y-207970691D01*
X235476949Y-207970691D01*
X235477359Y-207976707D01*
X235482715Y-207976263D01*
X235494545Y-207972014D01*
X235510131Y-207964847D01*
X235561462Y-207941370D01*
X235635672Y-207913623D01*
X235716732Y-207889490D01*
X235802985Y-207869453D01*
X235892774Y-207853992D01*
X235916848Y-207851183D01*
X235953736Y-207848252D01*
X235996880Y-207845905D01*
X236044139Y-207844186D01*
X236093371Y-207843137D01*
X236142436Y-207842801D01*
X236189194Y-207843221D01*
X236231502Y-207844439D01*
X236267222Y-207846499D01*
X236329901Y-207852277D01*
X236464185Y-207869937D01*
X236604514Y-207895227D01*
X236750540Y-207928058D01*
X236901914Y-207968340D01*
X237058289Y-208015984D01*
X237219315Y-208070900D01*
X237384645Y-208133001D01*
X237393091Y-208136315D01*
X237420767Y-208147193D01*
X237446757Y-208157430D01*
X237468468Y-208166003D01*
X237483307Y-208171891D01*
X237489460Y-208174376D01*
X237499572Y-208178360D01*
X237504921Y-208179538D01*
X237505203Y-208176871D01*
X237500114Y-208169324D01*
X237489349Y-208155861D01*
X237472605Y-208135445D01*
X237472087Y-208134811D01*
X237458238Y-208117323D01*
X237442763Y-208096945D01*
X237426772Y-208075246D01*
X237411376Y-208053795D01*
X237397688Y-208034160D01*
X237386816Y-208017911D01*
X237379874Y-208006616D01*
X237377972Y-208001843D01*
X237379734Y-208001892D01*
X237389464Y-208004343D01*
X237406147Y-208009420D01*
X237428081Y-208016595D01*
X237453564Y-208025340D01*
X237494321Y-208038997D01*
X237551055Y-208056237D01*
X237607792Y-208071645D01*
X237661461Y-208084401D01*
X237708990Y-208093682D01*
X237723785Y-208095994D01*
X237787012Y-208102693D01*
X237853219Y-208105156D01*
X237919326Y-208103441D01*
X237982254Y-208097603D01*
X238038922Y-208087698D01*
X238044222Y-208086485D01*
X238059891Y-208082502D01*
X238067830Y-208079116D01*
X238069832Y-208075202D01*
X238067686Y-208069635D01*
X238066648Y-208067916D01*
X238058100Y-208057103D01*
X238043690Y-208041244D01*
X238024821Y-208021701D01*
X238002895Y-207999837D01*
X237979316Y-207977013D01*
X237955485Y-207954592D01*
X237932805Y-207933936D01*
X237912679Y-207916407D01*
X237896509Y-207903369D01*
X237889175Y-207897916D01*
X237863626Y-207879660D01*
X237836533Y-207861163D01*
X237812655Y-207845698D01*
X237794573Y-207835029D01*
X237767738Y-207820326D01*
X237737358Y-207804535D01*
X237705906Y-207788884D01*
X237675855Y-207774598D01*
X237649679Y-207762905D01*
X237629853Y-207755032D01*
X237625859Y-207753542D01*
X237615109Y-207748390D01*
X237610795Y-207744356D01*
X237614069Y-207740536D01*
X237624793Y-207733715D01*
X237640764Y-207725397D01*
X237659685Y-207716692D01*
X237679259Y-207708711D01*
X237697190Y-207702567D01*
X237719844Y-207696784D01*
X237769973Y-207689113D01*
X237825067Y-207686575D01*
X237882491Y-207689356D01*
X237909917Y-207692441D01*
X237957702Y-207699549D01*
X238006790Y-207708672D01*
X238053359Y-207719074D01*
X238093588Y-207730018D01*
X238110777Y-207735017D01*
X238125359Y-207738744D01*
X238133477Y-207740183D01*
X238134020Y-207740122D01*
X238133960Y-207736050D01*
X238127649Y-207726456D01*
X238116171Y-207712532D01*
X238100607Y-207695472D01*
X238082041Y-207676468D01*
X238061553Y-207656713D01*
X238040227Y-207637401D01*
X238006390Y-207609308D01*
X237929756Y-207554997D01*
X237846700Y-207507659D01*
X237758338Y-207467828D01*
X237665780Y-207436034D01*
X237570139Y-207412810D01*
X237542841Y-207407595D01*
X237523773Y-207403733D01*
X237512737Y-207400573D01*
X237508785Y-207397317D01*
X237510970Y-207393167D01*
X237518345Y-207387326D01*
X237529962Y-207378996D01*
X237534151Y-207375998D01*
X237562897Y-207357920D01*
X237597253Y-207339485D01*
X237633794Y-207322321D01*
X237669095Y-207308054D01*
X237699731Y-207298313D01*
X237745021Y-207288494D01*
X237817786Y-207279684D01*
X237893882Y-207278806D01*
X237974013Y-207285901D01*
X238058885Y-207301008D01*
X238149200Y-207324168D01*
X238213916Y-207341818D01*
X238275600Y-207355689D01*
X238330518Y-207364516D01*
X238379664Y-207368418D01*
X238424030Y-207367512D01*
X238464610Y-207361919D01*
X238482275Y-207357814D01*
X238528395Y-207341506D01*
X238568525Y-207318685D01*
X238601240Y-207290098D01*
X238609475Y-207280642D01*
X238622759Y-207263771D01*
X238634925Y-207246623D01*
X238644638Y-207231230D01*
X238650564Y-207219623D01*
X238651366Y-207213833D01*
X238649492Y-207213018D01*
X238639423Y-207209775D01*
X238622230Y-207204687D01*
X238599650Y-207198262D01*
X238573417Y-207191010D01*
X238558584Y-207186916D01*
X238487004Y-207165902D01*
X238415293Y-207142892D01*
X238345142Y-207118516D01*
X238278238Y-207093402D01*
X238216273Y-207068180D01*
X238160936Y-207043478D01*
X238113917Y-207019927D01*
X238111988Y-207018886D01*
X238085956Y-207004358D01*
X238060044Y-206989112D01*
X238035710Y-206974095D01*
X238014413Y-206960253D01*
X237997612Y-206948532D01*
X237986765Y-206939877D01*
X237983332Y-206935236D01*
X237983423Y-206934995D01*
X237989767Y-206928907D01*
X238003767Y-206920175D01*
X238023647Y-206909650D01*
X238047634Y-206898181D01*
X238073953Y-206886619D01*
X238100830Y-206875815D01*
X238126490Y-206866620D01*
X238173696Y-206851974D01*
X238229352Y-206837576D01*
X238286696Y-206826084D01*
X238348527Y-206816950D01*
X238417646Y-206809626D01*
X238485060Y-206803587D01*
X238469470Y-206794106D01*
X238455972Y-206786337D01*
X238430052Y-206772661D01*
X238400017Y-206757820D01*
X238369064Y-206743339D01*
X238340391Y-206730742D01*
X238317198Y-206721552D01*
X238292552Y-206713304D01*
X238253979Y-206702192D01*
X238214043Y-206692411D01*
X238176327Y-206684818D01*
X238144415Y-206680270D01*
X238142662Y-206680092D01*
X238126033Y-206677803D01*
X238114877Y-206675179D01*
X238111525Y-206672753D01*
X238113320Y-206671478D01*
X238123378Y-206667059D01*
X238140759Y-206660540D01*
X238163860Y-206652453D01*
X238191081Y-206643331D01*
X238220821Y-206633704D01*
X238251477Y-206624105D01*
X238281450Y-206615065D01*
X238309138Y-206607117D01*
X238329184Y-206601479D01*
X238347907Y-206596058D01*
X238360864Y-206592126D01*
X238366035Y-206590278D01*
X238362450Y-206589339D01*
X238350289Y-206587314D01*
X238331040Y-206584469D01*
X238306267Y-206581034D01*
X238277536Y-206577242D01*
X238264693Y-206575535D01*
X238236985Y-206571694D01*
X238201295Y-206566610D01*
X238158887Y-206560471D01*
X238111025Y-206553460D01*
X238058972Y-206545763D01*
X238003992Y-206537567D01*
X237947349Y-206529056D01*
X237890307Y-206520416D01*
X237803403Y-206507260D01*
X237709627Y-206493250D01*
X237624363Y-206480759D01*
X237546795Y-206469694D01*
X237476106Y-206459962D01*
X237411480Y-206451471D01*
X237352100Y-206444128D01*
X237297149Y-206437839D01*
X237245811Y-206432513D01*
X237197269Y-206428055D01*
X237150706Y-206424374D01*
X237105307Y-206421377D01*
X237060253Y-206418970D01*
X237014729Y-206417061D01*
X236967918Y-206415557D01*
X236923411Y-206414743D01*
X236811990Y-206416509D01*
X236703851Y-206423654D01*
X236600149Y-206436018D01*
X236502043Y-206453445D01*
X236410691Y-206475777D01*
X236327251Y-206502856D01*
X236253676Y-206533247D01*
X236162246Y-206580210D01*
X236076445Y-206635087D01*
X235997011Y-206697393D01*
X235924684Y-206766644D01*
X235896110Y-206798084D01*
X235833288Y-206876522D01*
X235775349Y-206962699D01*
X235722195Y-207056833D01*
X235673729Y-207159139D01*
X235629853Y-207269835D01*
X235590470Y-207389136D01*
X235555482Y-207517261D01*
X235524791Y-207654424D01*
X235523020Y-207663358D01*
X235517357Y-207693605D01*
X235511386Y-207727641D01*
X235505312Y-207764087D01*
X235499337Y-207801561D01*
X235493664Y-207838683D01*
X235488497Y-207874073D01*
X235484039Y-207906349D01*
X235480492Y-207934131D01*
X235478062Y-207956038D01*
X235476949Y-207970691D01*
X235356756Y-207970691D01*
X235357853Y-207960934D01*
X235362317Y-207923175D01*
X235374163Y-207833488D01*
X235399635Y-207677549D01*
X235430258Y-207530318D01*
X235466055Y-207391746D01*
X235507050Y-207261784D01*
X235553265Y-207140384D01*
X235604724Y-207027497D01*
X235661449Y-206923075D01*
X235723463Y-206827070D01*
X235790790Y-206739431D01*
X235863453Y-206660112D01*
X235941474Y-206589063D01*
X236024877Y-206526235D01*
X236091014Y-206484326D01*
X236179642Y-206437304D01*
X236273619Y-206397261D01*
X236373314Y-206364109D01*
X236479095Y-206337759D01*
X236591332Y-206318121D01*
X236710392Y-206305108D01*
X236836645Y-206298630D01*
X236970459Y-206298599D01*
X236992488Y-206299147D01*
X237041164Y-206300700D01*
X237088864Y-206302760D01*
X237136433Y-206305424D01*
X237184716Y-206308785D01*
X237234559Y-206312937D01*
X237286808Y-206317975D01*
X237342307Y-206323994D01*
X237401902Y-206331086D01*
X237466440Y-206339347D01*
X237536764Y-206348871D01*
X237613722Y-206359753D01*
X237698158Y-206372085D01*
X237790919Y-206385964D01*
X237892848Y-206401483D01*
X237978119Y-206414510D01*
X238074357Y-206429067D01*
X238161950Y-206442113D01*
X238241657Y-206453733D01*
X238314241Y-206464009D01*
X238380463Y-206473025D01*
X238441084Y-206480866D01*
X238496865Y-206487614D01*
X238548567Y-206493354D01*
X238596953Y-206498170D01*
X238642782Y-206502145D01*
X238686817Y-206505363D01*
X238729818Y-206507907D01*
X238772547Y-206509862D01*
X238815765Y-206511311D01*
X238860234Y-206512338D01*
X238906714Y-206513027D01*
X238909087Y-206513054D01*
X238952599Y-206513641D01*
X238996879Y-206514381D01*
X239039739Y-206515227D01*
X239078995Y-206516132D01*
X239112459Y-206517050D01*
X239137946Y-206517936D01*
X239216879Y-206522135D01*
X239358997Y-206534369D01*
X239505264Y-206552859D01*
X239656353Y-206577722D01*
X239812939Y-206609074D01*
X239975697Y-206647030D01*
X240145301Y-206691708D01*
X240150782Y-206693208D01*
X240164231Y-206696403D01*
X240176168Y-206697839D01*
X240189471Y-206697508D01*
X240207020Y-206695405D01*
X240231696Y-206691525D01*
X240369440Y-206670228D01*
X240537876Y-206647807D01*
X240699664Y-206630553D01*
X240855932Y-206618382D01*
X241007807Y-206611209D01*
X241156418Y-206608952D01*
X241302892Y-206611524D01*
X241341237Y-206612810D01*
X241389407Y-206614385D01*
X241438295Y-206615945D01*
X241485182Y-206617405D01*
X241527348Y-206618678D01*
X241562076Y-206619680D01*
X241685385Y-206624570D01*
X241855730Y-206636591D01*
X242021340Y-206654850D01*
X242184399Y-206679695D01*
X242347093Y-206711473D01*
X242511606Y-206750530D01*
X242680123Y-206797214D01*
X242712405Y-206805933D01*
X242791661Y-206820376D01*
X242870021Y-206824857D01*
X242947117Y-206819516D01*
X243022578Y-206804491D01*
X243096034Y-206779922D01*
X243167115Y-206745948D01*
X243235453Y-206702708D01*
X243300676Y-206650341D01*
X243362414Y-206588987D01*
X243420299Y-206518784D01*
X243433694Y-206500334D01*
X243477172Y-206432380D01*
X243517153Y-206357549D01*
X243552831Y-206277955D01*
X243583396Y-206195710D01*
X243608039Y-206112927D01*
X243625953Y-206031718D01*
X243636329Y-205954198D01*
X243636833Y-205948568D01*
X243639288Y-205929530D01*
X243642320Y-205919311D01*
X243646220Y-205916817D01*
X243649860Y-205918719D01*
X243660793Y-205927029D01*
X243677076Y-205940923D01*
X243697627Y-205959372D01*
X243721361Y-205981345D01*
X243747195Y-206005813D01*
X243774046Y-206031745D01*
X243800831Y-206058111D01*
X243826465Y-206083881D01*
X243849864Y-206108025D01*
X243869947Y-206129512D01*
X243948719Y-206219640D01*
X244043273Y-206339516D01*
X244128124Y-206461645D01*
X244203449Y-206586327D01*
X244269428Y-206713860D01*
X244326239Y-206844545D01*
X244374058Y-206978683D01*
X244384472Y-207012338D01*
X244405512Y-207088440D01*
X244423430Y-207166377D01*
X244432282Y-207213833D01*
X244438823Y-207248895D01*
G37*
G36*
X241673174Y-197808231D02*
G01*
X241675129Y-197846324D01*
X241676358Y-197890114D01*
X241676859Y-197936961D01*
X241676632Y-197984227D01*
X241675675Y-198029273D01*
X241673987Y-198069459D01*
X241671567Y-198102147D01*
X241667178Y-198141414D01*
X241646585Y-198266154D01*
X241616116Y-198388524D01*
X241575786Y-198508487D01*
X241525611Y-198626008D01*
X241465606Y-198741049D01*
X241395786Y-198853574D01*
X241316166Y-198963547D01*
X241312601Y-198968121D01*
X241292943Y-198992936D01*
X241273652Y-199016440D01*
X241253638Y-199039836D01*
X241231812Y-199064327D01*
X241207085Y-199091118D01*
X241178367Y-199121412D01*
X241144568Y-199156413D01*
X241104601Y-199197325D01*
X241066124Y-199237103D01*
X241029111Y-199277004D01*
X240998273Y-199312612D01*
X240972781Y-199345149D01*
X240951808Y-199375838D01*
X240934524Y-199405902D01*
X240920103Y-199436564D01*
X240907716Y-199469046D01*
X240896535Y-199504571D01*
X240885316Y-199552098D01*
X240877203Y-199621129D01*
X240877567Y-199694670D01*
X240886427Y-199772967D01*
X240903802Y-199856266D01*
X240929710Y-199944813D01*
X240937825Y-199968957D01*
X240946055Y-199992466D01*
X240954772Y-200016195D01*
X240964437Y-200041275D01*
X240975513Y-200068835D01*
X240988463Y-200100006D01*
X241003749Y-200135918D01*
X241021833Y-200177702D01*
X241043178Y-200226487D01*
X241068247Y-200283405D01*
X241081670Y-200313900D01*
X241111758Y-200383043D01*
X241137917Y-200444533D01*
X241160529Y-200499421D01*
X241179978Y-200548757D01*
X241196645Y-200593592D01*
X241210914Y-200634975D01*
X241223168Y-200673959D01*
X241233787Y-200711592D01*
X241243156Y-200748925D01*
X241251657Y-200787010D01*
X241255385Y-200804442D01*
X241260820Y-200830258D01*
X241263572Y-200847752D01*
X241262945Y-200858043D01*
X241258239Y-200862249D01*
X241248759Y-200861490D01*
X241233808Y-200856886D01*
X241212686Y-200849555D01*
X241196552Y-200844407D01*
X241153238Y-200834241D01*
X241114044Y-200830525D01*
X241080171Y-200833311D01*
X241052821Y-200842649D01*
X241030873Y-200859888D01*
X241013952Y-200885286D01*
X241002594Y-200917876D01*
X240997089Y-200956820D01*
X240997729Y-201001282D01*
X240998732Y-201012224D01*
X241006886Y-201068709D01*
X241020286Y-201131742D01*
X241038425Y-201199869D01*
X241060797Y-201271638D01*
X241086894Y-201345597D01*
X241116211Y-201420293D01*
X241148242Y-201494274D01*
X241182480Y-201566087D01*
X241218418Y-201634280D01*
X241232044Y-201658507D01*
X241261366Y-201708601D01*
X241291866Y-201757781D01*
X241324213Y-201806946D01*
X241359075Y-201856995D01*
X241397122Y-201908828D01*
X241439021Y-201963343D01*
X241485441Y-202021441D01*
X241537051Y-202084019D01*
X241594519Y-202151978D01*
X241658514Y-202226216D01*
X241688325Y-202260639D01*
X241745922Y-202327911D01*
X241797319Y-202389172D01*
X241843133Y-202445271D01*
X241883981Y-202497057D01*
X241920478Y-202545379D01*
X241953241Y-202591086D01*
X241982887Y-202635025D01*
X242010032Y-202678046D01*
X242035292Y-202720997D01*
X242059284Y-202764728D01*
X242082625Y-202810086D01*
X242089134Y-202823071D01*
X242103321Y-202851373D01*
X242113217Y-202872026D01*
X242118814Y-202886168D01*
X242120105Y-202894934D01*
X242117084Y-202899464D01*
X242109743Y-202900894D01*
X242098076Y-202900362D01*
X242082074Y-202899005D01*
X242048824Y-202898028D01*
X242010729Y-202902112D01*
X241980431Y-202912282D01*
X241958084Y-202928418D01*
X241943838Y-202950398D01*
X241937847Y-202978103D01*
X241940261Y-203011412D01*
X241940572Y-203013052D01*
X241949270Y-203045859D01*
X241963303Y-203083985D01*
X241981672Y-203124979D01*
X242003380Y-203166393D01*
X242009748Y-203177163D01*
X242021703Y-203196605D01*
X242038114Y-203222834D01*
X242058392Y-203254936D01*
X242081948Y-203291996D01*
X242108194Y-203333101D01*
X242136541Y-203377335D01*
X242166400Y-203423785D01*
X242197183Y-203471535D01*
X242228300Y-203519672D01*
X242259163Y-203567281D01*
X242289183Y-203613448D01*
X242317771Y-203657258D01*
X242344339Y-203697796D01*
X242368298Y-203734149D01*
X242389059Y-203765402D01*
X242402599Y-203785606D01*
X242475838Y-203892261D01*
X242546994Y-203991060D01*
X242586554Y-204043043D01*
X242617287Y-204083428D01*
X242687937Y-204170788D01*
X242760164Y-204254562D01*
X242835186Y-204336173D01*
X242914225Y-204417045D01*
X242998498Y-204498599D01*
X243089227Y-204582259D01*
X243127314Y-204617201D01*
X243176845Y-204664911D01*
X243220048Y-204709810D01*
X243258266Y-204753456D01*
X243292843Y-204797410D01*
X243325123Y-204843232D01*
X243356451Y-204892483D01*
X243376024Y-204925790D01*
X243425219Y-205021513D01*
X243467019Y-205122520D01*
X243501636Y-205229435D01*
X243529280Y-205342878D01*
X243550163Y-205463471D01*
X243552003Y-205478344D01*
X243555177Y-205515566D01*
X243557501Y-205559756D01*
X243558976Y-205608785D01*
X243559603Y-205660521D01*
X243559383Y-205712836D01*
X243558316Y-205763600D01*
X243556403Y-205810681D01*
X243553644Y-205851951D01*
X243550040Y-205885280D01*
X243532675Y-205988453D01*
X243506807Y-206099646D01*
X243474571Y-206203640D01*
X243436052Y-206300227D01*
X243391336Y-206389196D01*
X243340507Y-206470339D01*
X243283650Y-206543446D01*
X243278450Y-206549374D01*
X243225604Y-206602277D01*
X243168627Y-206646321D01*
X243106557Y-206682259D01*
X243093629Y-206688567D01*
X243067198Y-206700490D01*
X243043881Y-206709047D01*
X243019740Y-206715572D01*
X242990837Y-206721395D01*
X242966321Y-206725245D01*
X242929767Y-206728290D01*
X242893163Y-206727570D01*
X242854251Y-206722885D01*
X242810775Y-206714031D01*
X242760478Y-206700807D01*
X242619319Y-206663447D01*
X242454214Y-206626334D01*
X242282852Y-206594619D01*
X242104580Y-206568196D01*
X241918747Y-206546959D01*
X241724701Y-206530799D01*
X241657934Y-206526588D01*
X241466778Y-206518500D01*
X241270205Y-206515735D01*
X241070551Y-206518215D01*
X240870153Y-206525862D01*
X240671348Y-206538597D01*
X240476473Y-206556341D01*
X240287865Y-206579017D01*
X240259089Y-206582911D01*
X240232929Y-206586411D01*
X240211916Y-206589181D01*
X240197692Y-206591004D01*
X240191898Y-206591663D01*
X240191675Y-206591577D01*
X240189683Y-206585781D01*
X240187463Y-206572696D01*
X240185455Y-206554838D01*
X240184447Y-206543672D01*
X240182177Y-206518448D01*
X240179609Y-206489824D01*
X240177128Y-206462091D01*
X240174909Y-206428811D01*
X240173348Y-206387566D01*
X240172433Y-206340566D01*
X240172149Y-206290007D01*
X240172483Y-206238081D01*
X240173420Y-206186985D01*
X240174946Y-206138911D01*
X240177048Y-206096055D01*
X240179710Y-206060610D01*
X240182550Y-206032505D01*
X240203320Y-205885450D01*
X240233744Y-205741468D01*
X240273853Y-205600469D01*
X240323677Y-205462365D01*
X240383249Y-205327067D01*
X240452600Y-205194485D01*
X240531762Y-205064532D01*
X240581992Y-204990693D01*
X240674786Y-204867585D01*
X240777326Y-204746826D01*
X240889491Y-204628539D01*
X241011165Y-204512846D01*
X241142229Y-204399869D01*
X241282564Y-204289729D01*
X241305917Y-204272416D01*
X241346360Y-204243124D01*
X241390420Y-204211894D01*
X241436143Y-204180071D01*
X241481574Y-204148998D01*
X241524760Y-204120022D01*
X241563746Y-204094485D01*
X241596577Y-204073731D01*
X241605859Y-204067925D01*
X241620989Y-204057964D01*
X241631008Y-204050670D01*
X241634107Y-204047314D01*
X241629347Y-204047979D01*
X241616869Y-204051533D01*
X241598676Y-204057426D01*
X241576736Y-204065047D01*
X241464657Y-204108542D01*
X241331712Y-204169693D01*
X241204301Y-204239297D01*
X241082138Y-204317513D01*
X240964937Y-204404500D01*
X240939893Y-204425276D01*
X240905330Y-204455786D01*
X240867076Y-204491118D01*
X240826721Y-204529702D01*
X240785855Y-204569965D01*
X240746069Y-204610339D01*
X240708954Y-204649252D01*
X240676099Y-204685133D01*
X240649095Y-204716413D01*
X240593590Y-204785565D01*
X240515989Y-204889995D01*
X240441797Y-204999609D01*
X240370222Y-205115651D01*
X240300472Y-205239364D01*
X240231753Y-205371995D01*
X240190000Y-205455848D01*
X240185725Y-205371995D01*
X240185279Y-205363250D01*
X240180246Y-205264765D01*
X240175680Y-205175940D01*
X240171551Y-205096323D01*
X240167831Y-205025459D01*
X240164490Y-204962895D01*
X240161498Y-204908178D01*
X240158827Y-204860855D01*
X240156447Y-204820472D01*
X240154329Y-204786576D01*
X240152444Y-204758714D01*
X240150762Y-204736432D01*
X240149254Y-204719277D01*
X240147890Y-204706795D01*
X240146642Y-204698534D01*
X240145481Y-204694040D01*
X240144376Y-204692859D01*
X240143298Y-204694539D01*
X240142219Y-204698625D01*
X240139335Y-204712242D01*
X240134655Y-204734343D01*
X240128781Y-204762093D01*
X240122183Y-204793277D01*
X240115328Y-204825676D01*
X240110226Y-204849523D01*
X240080105Y-204981456D01*
X240045183Y-205121180D01*
X240005718Y-205267858D01*
X239961969Y-205420651D01*
X239914195Y-205578721D01*
X239862653Y-205741231D01*
X239807603Y-205907341D01*
X239749303Y-206076213D01*
X239688012Y-206247010D01*
X239623988Y-206418894D01*
X239618696Y-206433046D01*
X239609386Y-206458164D01*
X239601717Y-206476212D01*
X239594011Y-206488036D01*
X239584592Y-206494486D01*
X239571781Y-206496410D01*
X239553902Y-206494655D01*
X239529278Y-206490071D01*
X239496229Y-206483506D01*
X239467042Y-206478129D01*
X239392393Y-206466269D01*
X239317499Y-206456853D01*
X239247210Y-206450522D01*
X239193848Y-206446845D01*
X239192211Y-206416353D01*
X239192098Y-206413947D01*
X239192060Y-206389410D01*
X239193458Y-206356051D01*
X239196169Y-206314954D01*
X239200071Y-206267201D01*
X239205041Y-206213877D01*
X239210957Y-206156064D01*
X239217696Y-206094845D01*
X239225135Y-206031305D01*
X239233151Y-205966527D01*
X239241623Y-205901593D01*
X239250427Y-205837587D01*
X239259441Y-205775594D01*
X239268542Y-205716695D01*
X239277607Y-205661974D01*
X239281202Y-205640102D01*
X239284026Y-205620760D01*
X239285579Y-205607307D01*
X239285591Y-205601799D01*
X239284925Y-205602091D01*
X239281603Y-205608959D01*
X239276357Y-205623237D01*
X239269730Y-205643211D01*
X239262260Y-205667164D01*
X239254490Y-205693384D01*
X239246959Y-205720154D01*
X239240208Y-205745760D01*
X239234827Y-205767787D01*
X239223511Y-205818215D01*
X239211084Y-205878600D01*
X239197561Y-205948849D01*
X239182963Y-206028866D01*
X239167306Y-206118558D01*
X239150608Y-206217830D01*
X239145607Y-206247971D01*
X239138263Y-206291902D01*
X239131489Y-206332036D01*
X239125463Y-206367334D01*
X239120366Y-206396758D01*
X239116375Y-206419268D01*
X239113670Y-206433826D01*
X239112430Y-206439392D01*
X239110191Y-206440176D01*
X239099383Y-206441656D01*
X239081257Y-206443240D01*
X239057583Y-206444782D01*
X239030133Y-206446136D01*
X239023723Y-206446416D01*
X238988583Y-206448200D01*
X238951463Y-206450429D01*
X238916410Y-206452847D01*
X238887470Y-206455197D01*
X238885893Y-206455339D01*
X238861952Y-206457246D01*
X238841985Y-206458383D01*
X238828037Y-206458663D01*
X238822154Y-206457997D01*
X238821657Y-206456783D01*
X238821495Y-206447035D01*
X238823076Y-206428932D01*
X238826240Y-206403670D01*
X238830828Y-206372449D01*
X238836680Y-206336468D01*
X238843636Y-206296925D01*
X238851086Y-206257898D01*
X238863861Y-206197887D01*
X238878845Y-206135059D01*
X238896387Y-206068103D01*
X238916834Y-205995711D01*
X238940534Y-205916572D01*
X238967835Y-205829378D01*
X238972722Y-205814018D01*
X239001596Y-205721815D01*
X239026949Y-205637936D01*
X239048983Y-205561410D01*
X239067899Y-205491268D01*
X239083899Y-205426541D01*
X239097185Y-205366258D01*
X239107958Y-205309451D01*
X239116419Y-205255149D01*
X239122770Y-205202384D01*
X239127213Y-205150185D01*
X239129949Y-205097583D01*
X239131180Y-205043609D01*
X239131992Y-204961703D01*
X239100350Y-204917872D01*
X239098198Y-204914880D01*
X239056270Y-204852530D01*
X239013502Y-204781602D01*
X238970573Y-204703489D01*
X238928162Y-204619586D01*
X238886946Y-204531287D01*
X238847604Y-204439985D01*
X238810814Y-204347074D01*
X238777255Y-204253948D01*
X238767248Y-204224226D01*
X238718834Y-204065455D01*
X238677740Y-203903781D01*
X238644262Y-203740802D01*
X238618696Y-203578113D01*
X238601340Y-203417312D01*
X238592490Y-203259995D01*
X238590957Y-203162589D01*
X238592595Y-203064599D01*
X238597844Y-202974426D01*
X238606863Y-202891132D01*
X238619812Y-202813779D01*
X238636850Y-202741431D01*
X238658137Y-202673151D01*
X238683832Y-202608001D01*
X238714094Y-202545044D01*
X238735194Y-202504561D01*
X238793644Y-202389450D01*
X238846403Y-202280644D01*
X238893975Y-202176937D01*
X238936869Y-202077119D01*
X238975591Y-201979985D01*
X239010647Y-201884325D01*
X239042545Y-201788934D01*
X239071790Y-201692603D01*
X239072004Y-201691865D01*
X239108252Y-201555722D01*
X239136859Y-201424238D01*
X239158065Y-201295668D01*
X239172111Y-201168264D01*
X239179237Y-201040280D01*
X239179684Y-200909970D01*
X239178804Y-200875584D01*
X239176052Y-200809776D01*
X239171836Y-200749718D01*
X239165873Y-200692461D01*
X239157880Y-200635057D01*
X239147574Y-200574556D01*
X239123600Y-200462205D01*
X239085005Y-200325244D01*
X239036554Y-200190457D01*
X238978308Y-200057935D01*
X238910326Y-199927766D01*
X238832667Y-199800043D01*
X238745390Y-199674854D01*
X238648556Y-199552291D01*
X238542224Y-199432442D01*
X238426454Y-199315398D01*
X238301305Y-199201250D01*
X238166836Y-199090088D01*
X238124591Y-199055912D01*
X238055415Y-198995418D01*
X237994978Y-198936249D01*
X237943429Y-198878607D01*
X237900919Y-198822699D01*
X237867596Y-198768727D01*
X237843609Y-198716897D01*
X237829108Y-198667412D01*
X237824241Y-198620478D01*
X237823786Y-198602827D01*
X237821311Y-198591122D01*
X237815160Y-198581370D01*
X237803672Y-198569459D01*
X237779830Y-198543152D01*
X237750182Y-198501725D01*
X237723662Y-198454828D01*
X237701729Y-198405115D01*
X237685843Y-198355239D01*
X237683860Y-198347131D01*
X237679933Y-198328273D01*
X237677276Y-198309309D01*
X237675672Y-198287727D01*
X237674906Y-198261013D01*
X237674761Y-198226657D01*
X237675466Y-198187650D01*
X237678751Y-198139359D01*
X237685276Y-198094121D01*
X237695656Y-198047984D01*
X237710505Y-197996997D01*
X237715255Y-197981600D01*
X237719516Y-197964918D01*
X237721058Y-197951026D01*
X237720221Y-197935901D01*
X237717341Y-197915517D01*
X237716563Y-197910232D01*
X237713818Y-197865169D01*
X237718473Y-197825916D01*
X237729927Y-197792973D01*
X237747581Y-197766844D01*
X237770835Y-197748029D01*
X237799090Y-197737031D01*
X237831747Y-197734353D01*
X237868205Y-197740495D01*
X237907867Y-197755961D01*
X237923861Y-197764057D01*
X237944245Y-197775839D01*
X237957950Y-197787130D01*
X237966695Y-197800017D01*
X237972197Y-197816586D01*
X237976176Y-197838925D01*
X237977766Y-197851835D01*
X237978619Y-197896645D01*
X237972265Y-197938464D01*
X237959083Y-197975572D01*
X237939451Y-198006250D01*
X237938997Y-198006785D01*
X237932207Y-198014051D01*
X237925107Y-198018811D01*
X237915236Y-198021841D01*
X237900135Y-198023914D01*
X237877347Y-198025805D01*
X237874697Y-198026001D01*
X237855102Y-198027427D01*
X237841206Y-198029416D01*
X237831604Y-198033504D01*
X237824887Y-198041229D01*
X237819649Y-198054128D01*
X237814482Y-198073739D01*
X237807980Y-198101599D01*
X237805746Y-198112034D01*
X237800519Y-198147079D01*
X237797353Y-198186277D01*
X237796275Y-198226814D01*
X237797311Y-198265873D01*
X237800488Y-198300640D01*
X237805832Y-198328297D01*
X237807775Y-198334991D01*
X237825059Y-198380761D01*
X237848237Y-198425240D01*
X237875070Y-198464041D01*
X237880720Y-198470633D01*
X237901850Y-198491743D01*
X237929071Y-198515355D01*
X237960267Y-198539782D01*
X237993317Y-198563336D01*
X238026103Y-198584331D01*
X238061605Y-198604496D01*
X238141861Y-198643221D01*
X238229425Y-198677084D01*
X238322993Y-198705662D01*
X238421260Y-198728532D01*
X238522920Y-198745272D01*
X238539569Y-198747496D01*
X238567257Y-198751352D01*
X238591238Y-198754883D01*
X238609388Y-198757772D01*
X238619579Y-198759701D01*
X238622504Y-198760429D01*
X238628519Y-198762500D01*
X238628206Y-198764906D01*
X238620500Y-198768716D01*
X238604333Y-198775001D01*
X238559037Y-198788880D01*
X238497474Y-198798759D01*
X238430401Y-198800322D01*
X238357772Y-198793562D01*
X238279541Y-198778471D01*
X238195665Y-198755043D01*
X238106096Y-198723270D01*
X238010790Y-198683146D01*
X238010490Y-198683011D01*
X237988782Y-198673564D01*
X237970572Y-198666278D01*
X237957761Y-198661870D01*
X237952251Y-198661058D01*
X237951827Y-198662461D01*
X237954031Y-198671280D01*
X237960243Y-198685931D01*
X237969431Y-198704413D01*
X237980568Y-198724722D01*
X237992622Y-198744856D01*
X238004564Y-198762811D01*
X238007337Y-198766665D01*
X238041488Y-198809607D01*
X238083551Y-198855629D01*
X238132362Y-198903579D01*
X238186752Y-198952305D01*
X238245554Y-199000655D01*
X238275452Y-199024471D01*
X238407006Y-199135665D01*
X238530137Y-199250582D01*
X238644667Y-199368979D01*
X238750414Y-199490612D01*
X238847197Y-199615237D01*
X238934835Y-199742611D01*
X239013148Y-199872489D01*
X239081955Y-200004629D01*
X239141076Y-200138786D01*
X239190329Y-200274716D01*
X239219817Y-200373650D01*
X239253996Y-200518142D01*
X239278329Y-200664873D01*
X239292824Y-200813926D01*
X239297487Y-200965388D01*
X239292327Y-201119343D01*
X239277350Y-201275876D01*
X239267476Y-201347133D01*
X239244790Y-201477116D01*
X239215843Y-201607871D01*
X239180403Y-201740067D01*
X239138238Y-201874373D01*
X239089117Y-202011457D01*
X239032809Y-202151987D01*
X238969081Y-202296633D01*
X238897702Y-202446064D01*
X238818441Y-202600947D01*
X238794202Y-202651239D01*
X238767439Y-202720833D01*
X238745854Y-202795966D01*
X238729309Y-202877355D01*
X238717664Y-202965717D01*
X238710778Y-203061768D01*
X238708514Y-203166225D01*
X238710707Y-203267142D01*
X238717308Y-203375145D01*
X238728061Y-203487009D01*
X238742706Y-203601657D01*
X238760984Y-203718014D01*
X238782637Y-203835002D01*
X238807405Y-203951546D01*
X238835030Y-204066568D01*
X238865253Y-204178992D01*
X238897816Y-204287742D01*
X238932458Y-204391741D01*
X238968921Y-204489912D01*
X239006947Y-204581179D01*
X239046276Y-204664466D01*
X239086650Y-204738695D01*
X239096940Y-204755907D01*
X239107118Y-204772314D01*
X239114475Y-204783454D01*
X239117881Y-204787561D01*
X239118740Y-204783618D01*
X239117314Y-204773585D01*
X239114274Y-204759610D01*
X239124656Y-204772315D01*
X239126918Y-204775295D01*
X239135471Y-204788121D01*
X239146373Y-204805882D01*
X239157821Y-204825676D01*
X239162679Y-204834264D01*
X239173028Y-204852024D01*
X239181422Y-204865725D01*
X239186395Y-204872941D01*
X239187538Y-204874386D01*
X239194569Y-204887105D01*
X239203389Y-204907780D01*
X239213487Y-204934808D01*
X239224349Y-204966590D01*
X239235463Y-205001524D01*
X239246315Y-205038009D01*
X239256394Y-205074444D01*
X239265186Y-205109229D01*
X239272179Y-205140762D01*
X239272405Y-205141884D01*
X239280158Y-205184236D01*
X239287848Y-205232909D01*
X239295140Y-205285192D01*
X239301698Y-205338372D01*
X239307188Y-205389737D01*
X239311274Y-205436576D01*
X239313621Y-205476176D01*
X239314622Y-205475650D01*
X239317781Y-205467020D01*
X239322693Y-205451050D01*
X239328944Y-205429090D01*
X239336124Y-205402487D01*
X239346982Y-205362418D01*
X239381459Y-205248461D01*
X239418817Y-205143908D01*
X239459176Y-205048465D01*
X239502656Y-204961842D01*
X239549379Y-204883745D01*
X239568474Y-204855508D01*
X239589916Y-204826342D01*
X239613008Y-204797872D01*
X239639290Y-204768296D01*
X239670302Y-204735814D01*
X239707581Y-204698625D01*
X239728439Y-204677561D01*
X239774944Y-204624813D01*
X239813715Y-204570952D01*
X239845634Y-204514279D01*
X239871584Y-204453098D01*
X239892445Y-204385708D01*
X239909100Y-204310412D01*
X239911416Y-204296030D01*
X239915259Y-204260812D01*
X239918081Y-204218452D01*
X239919882Y-204170928D01*
X239920663Y-204120216D01*
X239920421Y-204068293D01*
X239919157Y-204017137D01*
X239916870Y-203968725D01*
X239913560Y-203925034D01*
X239909225Y-203888041D01*
X239908161Y-203880720D01*
X239904807Y-203856445D01*
X239902326Y-203836541D01*
X239900939Y-203822900D01*
X239900871Y-203817413D01*
X239902492Y-203817668D01*
X239909850Y-203823287D01*
X239921676Y-203834345D01*
X239936574Y-203849358D01*
X239953151Y-203866842D01*
X239970012Y-203885313D01*
X239985764Y-203903287D01*
X239999011Y-203919280D01*
X240008360Y-203931808D01*
X240032827Y-203971390D01*
X240067221Y-204042381D01*
X240093304Y-204119081D01*
X240111027Y-204201333D01*
X240120339Y-204288981D01*
X240123952Y-204353047D01*
X240140874Y-204307309D01*
X240154467Y-204268611D01*
X240176621Y-204197011D01*
X240197299Y-204119663D01*
X240214977Y-204043043D01*
X241640847Y-204043043D01*
X241643388Y-204045584D01*
X241645929Y-204043043D01*
X241643388Y-204040502D01*
X241640847Y-204043043D01*
X240214977Y-204043043D01*
X240215833Y-204039332D01*
X240231555Y-203958782D01*
X240243800Y-203880778D01*
X240245920Y-203863550D01*
X240249962Y-203820251D01*
X240253250Y-203770351D01*
X240255727Y-203716236D01*
X240257334Y-203660292D01*
X240258014Y-203604903D01*
X240257709Y-203552455D01*
X240256359Y-203505335D01*
X240253908Y-203465926D01*
X240247281Y-203400485D01*
X240227368Y-203265279D01*
X240199011Y-203131598D01*
X240161832Y-202997798D01*
X240115454Y-202862234D01*
X240111916Y-202852689D01*
X240103533Y-202829536D01*
X240096988Y-202810671D01*
X240092874Y-202797832D01*
X240091781Y-202792756D01*
X240093266Y-202792451D01*
X240101545Y-202796007D01*
X240115203Y-202804705D01*
X240132704Y-202817364D01*
X240152511Y-202832803D01*
X240173089Y-202849841D01*
X240192902Y-202867296D01*
X240210412Y-202883987D01*
X240233870Y-202908640D01*
X240268564Y-202950762D01*
X240298922Y-202996197D01*
X240327377Y-203048363D01*
X240336816Y-203068587D01*
X240351008Y-203102926D01*
X240365195Y-203141119D01*
X240378249Y-203179928D01*
X240389039Y-203216113D01*
X240396437Y-203246435D01*
X240399910Y-203261737D01*
X240403409Y-203273639D01*
X240405887Y-203278197D01*
X240406853Y-203276915D01*
X240410342Y-203267624D01*
X240415666Y-203250477D01*
X240422471Y-203226812D01*
X240430403Y-203197968D01*
X240439107Y-203165282D01*
X240448230Y-203130093D01*
X240457419Y-203093738D01*
X240466318Y-203057556D01*
X240474575Y-203022885D01*
X240481834Y-202991062D01*
X240507693Y-202866111D01*
X240540802Y-202669021D01*
X240564290Y-202472695D01*
X240564505Y-202470386D01*
X240566863Y-202437210D01*
X240568729Y-202395895D01*
X240570109Y-202348104D01*
X240571012Y-202295499D01*
X240571443Y-202239744D01*
X240571411Y-202182502D01*
X240570921Y-202125437D01*
X240569982Y-202070211D01*
X240568599Y-202018487D01*
X240566781Y-201971930D01*
X240564535Y-201932202D01*
X240561866Y-201900966D01*
X240542109Y-201749182D01*
X240515708Y-201600463D01*
X240482603Y-201456921D01*
X240442330Y-201316947D01*
X240394425Y-201178932D01*
X240338424Y-201041268D01*
X240273864Y-200902347D01*
X240267681Y-200889849D01*
X240203965Y-200767391D01*
X240137548Y-200651515D01*
X240066484Y-200538973D01*
X239988828Y-200426516D01*
X239932669Y-200348405D01*
X239947412Y-200346873D01*
X239952285Y-200346731D01*
X239969365Y-200348260D01*
X239992839Y-200351979D01*
X240020377Y-200357406D01*
X240049647Y-200364063D01*
X240078319Y-200371468D01*
X240104061Y-200379141D01*
X240135816Y-200390943D01*
X240173920Y-200407608D01*
X240214405Y-200427299D01*
X240254308Y-200448509D01*
X240290666Y-200469725D01*
X240320514Y-200489438D01*
X240348216Y-200510281D01*
X240411896Y-200564698D01*
X240473049Y-200625868D01*
X240529244Y-200691443D01*
X240543292Y-200709230D01*
X240540358Y-200666032D01*
X240537900Y-200633810D01*
X240532364Y-200575935D01*
X240525493Y-200517217D01*
X240517734Y-200461326D01*
X240509532Y-200411931D01*
X240506822Y-200397532D01*
X240476227Y-200264568D01*
X240436073Y-200134363D01*
X240386324Y-200006860D01*
X240326943Y-199882005D01*
X240257893Y-199759741D01*
X240179139Y-199640012D01*
X240090644Y-199522764D01*
X239992371Y-199407940D01*
X239884285Y-199295485D01*
X239766349Y-199185342D01*
X239638526Y-199077457D01*
X239601184Y-199047892D01*
X239563168Y-199019031D01*
X239526313Y-198992641D01*
X239489545Y-198968140D01*
X239451787Y-198944948D01*
X239411963Y-198922484D01*
X239368995Y-198900168D01*
X239321808Y-198877419D01*
X239269325Y-198853658D01*
X239210470Y-198828302D01*
X239144167Y-198800772D01*
X239069339Y-198770488D01*
X239044796Y-198760562D01*
X238967584Y-198727965D01*
X238898854Y-198696480D01*
X238837469Y-198665385D01*
X238782290Y-198633956D01*
X238732181Y-198601469D01*
X238686003Y-198567203D01*
X238642618Y-198530432D01*
X238600889Y-198490435D01*
X238559679Y-198446487D01*
X238531581Y-198415708D01*
X238492657Y-198376344D01*
X240720999Y-198376344D01*
X240721447Y-198377505D01*
X240726464Y-198385175D01*
X240735868Y-198397915D01*
X240748179Y-198413692D01*
X240795650Y-198479104D01*
X240843663Y-198561237D01*
X240883662Y-198649457D01*
X240915580Y-198743589D01*
X240939351Y-198843461D01*
X240954907Y-198948899D01*
X240956211Y-198962642D01*
X240958425Y-198991203D01*
X240960598Y-199024879D01*
X240962535Y-199060555D01*
X240964042Y-199095113D01*
X240967478Y-199187372D01*
X241023776Y-199130094D01*
X241107478Y-199040034D01*
X241195009Y-198933370D01*
X241273401Y-198823302D01*
X241342512Y-198710085D01*
X241402200Y-198593975D01*
X241452324Y-198475226D01*
X241492741Y-198354095D01*
X241523309Y-198230835D01*
X241526663Y-198214369D01*
X241537121Y-198159266D01*
X241544973Y-198109896D01*
X241550543Y-198063138D01*
X241554153Y-198015874D01*
X241556125Y-197964981D01*
X241556784Y-197907340D01*
X241556994Y-197788764D01*
X241542735Y-197776478D01*
X241536961Y-197772133D01*
X241524686Y-197766653D01*
X241509149Y-197764637D01*
X241488794Y-197766132D01*
X241462063Y-197771183D01*
X241427402Y-197779835D01*
X241375237Y-197795179D01*
X241279607Y-197831143D01*
X241188844Y-197875968D01*
X241102899Y-197929691D01*
X241021723Y-197992347D01*
X240945265Y-198063972D01*
X240873475Y-198144605D01*
X240856774Y-198166901D01*
X240806304Y-198234280D01*
X240795766Y-198250015D01*
X240782195Y-198271121D01*
X240767847Y-198294105D01*
X240753767Y-198317230D01*
X240740997Y-198338754D01*
X240730583Y-198356941D01*
X240723569Y-198370051D01*
X240720999Y-198376344D01*
X238492657Y-198376344D01*
X238451851Y-198335076D01*
X238371019Y-198263477D01*
X238338795Y-198238888D01*
X239059716Y-198238888D01*
X239062478Y-198266200D01*
X239069503Y-198286733D01*
X239081165Y-198302062D01*
X239092695Y-198309954D01*
X239107698Y-198315513D01*
X239117932Y-198316189D01*
X239138654Y-198310853D01*
X239157897Y-198297635D01*
X239175093Y-198278065D01*
X239189677Y-198253676D01*
X239201079Y-198225998D01*
X239208733Y-198196563D01*
X239212073Y-198166901D01*
X239210531Y-198138545D01*
X239203539Y-198113026D01*
X239190530Y-198091874D01*
X239181703Y-198082824D01*
X239170199Y-198075974D01*
X239155969Y-198074196D01*
X239153207Y-198074264D01*
X239130162Y-198080207D01*
X239108935Y-198094820D01*
X239090425Y-198116794D01*
X239075530Y-198144822D01*
X239065147Y-198177594D01*
X239060175Y-198213801D01*
X239059716Y-198238888D01*
X238338795Y-198238888D01*
X238287940Y-198200083D01*
X238201472Y-198144065D01*
X238110471Y-198094594D01*
X238013793Y-198050841D01*
X238002395Y-198046119D01*
X237984934Y-198038773D01*
X237972609Y-198033439D01*
X237967557Y-198031031D01*
X237967668Y-198029811D01*
X237971441Y-198022411D01*
X237978769Y-198010885D01*
X237984139Y-198002569D01*
X238003530Y-197961504D01*
X238013395Y-197917309D01*
X238013663Y-197870507D01*
X238004265Y-197821625D01*
X238003631Y-197818434D01*
X238004895Y-197815934D01*
X238009939Y-197816227D01*
X238020119Y-197819696D01*
X238036789Y-197826722D01*
X238061305Y-197837686D01*
X238081247Y-197846533D01*
X238177575Y-197884262D01*
X238271235Y-197912322D01*
X238362693Y-197930686D01*
X238452415Y-197939328D01*
X238540868Y-197938221D01*
X238628517Y-197927339D01*
X238715829Y-197906655D01*
X238803270Y-197876142D01*
X238891306Y-197835776D01*
X238980403Y-197785528D01*
X239009065Y-197768179D01*
X239069555Y-197733722D01*
X239125503Y-197705229D01*
X239178751Y-197681863D01*
X239231145Y-197662783D01*
X239284526Y-197647151D01*
X239329161Y-197636553D01*
X239428753Y-197620021D01*
X239531099Y-197612651D01*
X239636349Y-197614469D01*
X239744656Y-197625499D01*
X239856169Y-197645766D01*
X239971040Y-197675295D01*
X240089419Y-197714110D01*
X240211458Y-197762236D01*
X240337306Y-197819698D01*
X240345015Y-197823455D01*
X240377494Y-197839460D01*
X240408953Y-197855222D01*
X240437356Y-197869703D01*
X240460665Y-197881869D01*
X240476844Y-197890682D01*
X240514741Y-197912248D01*
X240598812Y-197871547D01*
X240676567Y-197835525D01*
X240817050Y-197778581D01*
X240958287Y-197731746D01*
X241100246Y-197695025D01*
X241242896Y-197668428D01*
X241386203Y-197651963D01*
X241530136Y-197645636D01*
X241630329Y-197644764D01*
X241643326Y-197657699D01*
X241647473Y-197662386D01*
X241652511Y-197670699D01*
X241656724Y-197682121D01*
X241660418Y-197698060D01*
X241663898Y-197719921D01*
X241667470Y-197749110D01*
X241671440Y-197787032D01*
X241671582Y-197788764D01*
X241673174Y-197808231D01*
G37*
%TD*%
D12*
%TO.C,H5*%
X247317710Y-63980654D03*
X247800984Y-62813928D03*
X247800984Y-65147380D03*
X248967710Y-62330654D03*
D13*
X248967710Y-63980654D03*
D12*
X248967710Y-65630654D03*
X250134436Y-62813928D03*
X250134436Y-65147380D03*
X250617710Y-63980654D03*
%TD*%
D14*
%TO.C,TP6*%
X176600000Y-197500000D03*
%TD*%
%TO.C,TP5*%
X140750000Y-199000000D03*
%TD*%
D12*
%TO.C,H9*%
X175347710Y-230520654D03*
X175830984Y-229353928D03*
X175830984Y-231687380D03*
X176997710Y-228870654D03*
D13*
X176997710Y-230520654D03*
D12*
X176997710Y-232170654D03*
X178164436Y-229353928D03*
X178164436Y-231687380D03*
X178647710Y-230520654D03*
%TD*%
D15*
%TO.C,TPg5*%
X253797710Y-197620654D03*
%TD*%
D14*
%TO.C,TP7*%
X201997710Y-213520654D03*
%TD*%
D16*
%TO.C,TPg6*%
X259250000Y-207020654D03*
%TD*%
D14*
%TO.C,TP2*%
X140750000Y-203000000D03*
%TD*%
D12*
%TO.C,H10*%
X221347710Y-230520654D03*
X221830984Y-229353928D03*
X221830984Y-231687380D03*
X222997710Y-228870654D03*
D13*
X222997710Y-230520654D03*
D12*
X222997710Y-232170654D03*
X224164436Y-229353928D03*
X224164436Y-231687380D03*
X224647710Y-230520654D03*
%TD*%
D15*
%TO.C,TPg3*%
X217500000Y-209000000D03*
%TD*%
D14*
%TO.C,TP4*%
X217500000Y-213500000D03*
%TD*%
D12*
%TO.C,H7*%
X148687710Y-63280654D03*
X149170984Y-62113928D03*
X149170984Y-64447380D03*
X150337710Y-61630654D03*
D13*
X150337710Y-63280654D03*
D12*
X150337710Y-64930654D03*
X151504436Y-62113928D03*
X151504436Y-64447380D03*
X151987710Y-63280654D03*
%TD*%
%TO.C,H4*%
X247327710Y-220710654D03*
X247810984Y-219543928D03*
X247810984Y-221877380D03*
X248977710Y-219060654D03*
D13*
X248977710Y-220710654D03*
D12*
X248977710Y-222360654D03*
X250144436Y-219543928D03*
X250144436Y-221877380D03*
X250627710Y-220710654D03*
%TD*%
D17*
%TO.C,RV1*%
X241397710Y-220470654D03*
X232597710Y-220470654D03*
D18*
X234497710Y-213470654D03*
X236997710Y-213470654D03*
X239497710Y-213470654D03*
%TD*%
D15*
%TO.C,TPg4*%
X144750000Y-199000000D03*
%TD*%
D14*
%TO.C,TP1*%
X140750000Y-207000000D03*
%TD*%
D12*
%TO.C,H3*%
X254397710Y-213650654D03*
X254880984Y-212483928D03*
X254880984Y-214817380D03*
X256047710Y-212000654D03*
D13*
X256047710Y-213650654D03*
D12*
X256047710Y-215300654D03*
X257214436Y-212483928D03*
X257214436Y-214817380D03*
X257697710Y-213650654D03*
%TD*%
D15*
%TO.C,TPg1*%
X172600000Y-197500000D03*
%TD*%
D12*
%TO.C,H1*%
X142317710Y-213640654D03*
X142800984Y-212473928D03*
X142800984Y-214807380D03*
X143967710Y-211990654D03*
D13*
X143967710Y-213640654D03*
D12*
X143967710Y-215290654D03*
X145134436Y-212473928D03*
X145134436Y-214807380D03*
X145617710Y-213640654D03*
%TD*%
%TO.C,H8*%
X141607710Y-70350654D03*
X142090984Y-69183928D03*
X142090984Y-71517380D03*
X143257710Y-68700654D03*
D13*
X143257710Y-70350654D03*
D12*
X143257710Y-72000654D03*
X144424436Y-69183928D03*
X144424436Y-71517380D03*
X144907710Y-70350654D03*
%TD*%
D14*
%TO.C,TP3*%
X253797710Y-202120654D03*
%TD*%
D12*
%TO.C,H6*%
X254387710Y-71050654D03*
X254870984Y-69883928D03*
X254870984Y-72217380D03*
X256037710Y-69400654D03*
D13*
X256037710Y-71050654D03*
D12*
X256037710Y-72700654D03*
X257204436Y-69883928D03*
X257204436Y-72217380D03*
X257687710Y-71050654D03*
%TD*%
D15*
%TO.C,TPg2*%
X197497710Y-213520654D03*
%TD*%
D12*
%TO.C,H2*%
X149387710Y-220710654D03*
X149870984Y-219543928D03*
X149870984Y-221877380D03*
X151037710Y-219060654D03*
D13*
X151037710Y-220710654D03*
D12*
X151037710Y-222360654D03*
X152204436Y-219543928D03*
X152204436Y-221877380D03*
X152687710Y-220710654D03*
%TD*%
D19*
%TO.C,J2*%
X165997710Y-211020654D03*
D20*
X165997710Y-209020654D03*
%TD*%
D21*
%TO.C,J1*%
X165997710Y-202520654D03*
D22*
X165997710Y-204520654D03*
%TD*%
D16*
%TO.C,J3*%
X229997710Y-191820654D03*
%TD*%
D23*
%TO.C,HS1*%
X183495415Y-197541312D03*
X183495415Y-230541312D03*
X216495415Y-197541312D03*
X216495415Y-230541312D03*
%TD*%
M02*
