%TF.GenerationSoftware,KiCad,Pcbnew,8.0.7*%
%TF.CreationDate,2025-01-02T06:30:12+11:00*%
%TF.ProjectId,plasma toroid unified,706c6173-6d61-4207-946f-726f69642075,v1.02*%
%TF.SameCoordinates,Original*%
%TF.FileFunction,Legend,Top*%
%TF.FilePolarity,Positive*%
%FSLAX46Y46*%
G04 Gerber Fmt 4.6, Leading zero omitted, Abs format (unit mm)*
G04 Created by KiCad (PCBNEW 8.0.7) date 2025-01-02 06:30:12*
%MOMM*%
%LPD*%
G01*
G04 APERTURE LIST*
G04 Aperture macros list*
%AMRoundRect*
0 Rectangle with rounded corners*
0 $1 Rounding radius*
0 $2 $3 $4 $5 $6 $7 $8 $9 X,Y pos of 4 corners*
0 Add a 4 corners polygon primitive as box body*
4,1,4,$2,$3,$4,$5,$6,$7,$8,$9,$2,$3,0*
0 Add four circle primitives for the rounded corners*
1,1,$1+$1,$2,$3*
1,1,$1+$1,$4,$5*
1,1,$1+$1,$6,$7*
1,1,$1+$1,$8,$9*
0 Add four rect primitives between the rounded corners*
20,1,$1+$1,$2,$3,$4,$5,0*
20,1,$1+$1,$4,$5,$6,$7,0*
20,1,$1+$1,$6,$7,$8,$9,0*
20,1,$1+$1,$8,$9,$2,$3,0*%
%AMFreePoly0*
4,1,13,0.900000,0.500000,2.600000,0.500000,2.600000,-0.500000,0.900000,-0.500000,0.400000,-1.000000,-0.400000,-1.000000,-0.900000,-0.500000,-2.600000,-0.500000,-2.600000,0.500000,-0.900000,0.500000,-0.400000,1.000000,0.400000,1.000000,0.900000,0.500000,0.900000,0.500000,$1*%
G04 Aperture macros list end*
%ADD10C,0.250000*%
%ADD11C,0.150000*%
%ADD12C,0.200000*%
%ADD13C,0.300000*%
%ADD14C,0.120000*%
%ADD15C,0.000000*%
%ADD16C,0.010000*%
%ADD17C,0.560000*%
%ADD18RoundRect,0.250000X-0.625000X0.312500X-0.625000X-0.312500X0.625000X-0.312500X0.625000X0.312500X0*%
%ADD19C,0.700000*%
%ADD20C,4.100000*%
%ADD21R,1.500000X0.700000*%
%ADD22FreePoly0,180.000000*%
%ADD23R,1.300000X1.550000*%
%ADD24RoundRect,0.793333X-0.406667X0.056667X-0.406667X-0.056667X0.406667X-0.056667X0.406667X0.056667X0*%
%ADD25RoundRect,0.816667X-0.383333X0.058333X-0.383333X-0.058333X0.383333X-0.058333X0.383333X0.058333X0*%
%ADD26RoundRect,0.225000X-0.375000X0.225000X-0.375000X-0.225000X0.375000X-0.225000X0.375000X0.225000X0*%
%ADD27C,2.000000*%
%ADD28RoundRect,0.150000X0.150000X-0.587500X0.150000X0.587500X-0.150000X0.587500X-0.150000X-0.587500X0*%
%ADD29RoundRect,0.250000X2.050000X0.300000X-2.050000X0.300000X-2.050000X-0.300000X2.050000X-0.300000X0*%
%ADD30RoundRect,0.250002X4.449998X5.149998X-4.449998X5.149998X-4.449998X-5.149998X4.449998X-5.149998X0*%
%ADD31RoundRect,0.225000X0.225000X0.250000X-0.225000X0.250000X-0.225000X-0.250000X0.225000X-0.250000X0*%
%ADD32RoundRect,0.200000X-0.275000X0.200000X-0.275000X-0.200000X0.275000X-0.200000X0.275000X0.200000X0*%
%ADD33RoundRect,0.250000X0.325000X0.650000X-0.325000X0.650000X-0.325000X-0.650000X0.325000X-0.650000X0*%
%ADD34RoundRect,0.225000X0.250000X-0.225000X0.250000X0.225000X-0.250000X0.225000X-0.250000X-0.225000X0*%
%ADD35RoundRect,0.150000X-0.512500X-0.150000X0.512500X-0.150000X0.512500X0.150000X-0.512500X0.150000X0*%
%ADD36R,1.000000X1.000000*%
%ADD37RoundRect,0.200000X0.200000X0.275000X-0.200000X0.275000X-0.200000X-0.275000X0.200000X-0.275000X0*%
%ADD38RoundRect,0.250000X0.625000X-0.312500X0.625000X0.312500X-0.625000X0.312500X-0.625000X-0.312500X0*%
%ADD39C,2.500000*%
%ADD40RoundRect,1.500000X-0.212132X-0.282843X0.282843X0.212132X0.212132X0.282843X-0.282843X-0.212132X0*%
%ADD41RoundRect,1.500000X0.282843X-0.212132X-0.212132X0.282843X-0.282843X0.212132X0.212132X-0.282843X0*%
%ADD42RoundRect,1.500000X0.212132X0.282843X-0.282843X-0.212132X-0.212132X-0.282843X0.282843X0.212132X0*%
%ADD43RoundRect,0.250000X0.625000X-0.375000X0.625000X0.375000X-0.625000X0.375000X-0.625000X-0.375000X0*%
%ADD44RoundRect,0.250000X0.362500X1.075000X-0.362500X1.075000X-0.362500X-1.075000X0.362500X-1.075000X0*%
%ADD45RoundRect,0.200000X0.275000X-0.200000X0.275000X0.200000X-0.275000X0.200000X-0.275000X-0.200000X0*%
%ADD46R,0.300000X1.400000*%
%ADD47RoundRect,0.250000X-0.650000X0.325000X-0.650000X-0.325000X0.650000X-0.325000X0.650000X0.325000X0*%
%ADD48RoundRect,0.250000X0.375000X0.625000X-0.375000X0.625000X-0.375000X-0.625000X0.375000X-0.625000X0*%
%ADD49R,1.220000X0.650000*%
%ADD50C,4.000000*%
%ADD51C,1.800000*%
%ADD52R,2.900000X5.400000*%
%ADD53RoundRect,0.250000X-1.450000X0.312500X-1.450000X-0.312500X1.450000X-0.312500X1.450000X0.312500X0*%
%ADD54RoundRect,0.200000X-0.200000X-0.275000X0.200000X-0.275000X0.200000X0.275000X-0.200000X0.275000X0*%
%ADD55RoundRect,0.225000X-0.225000X-0.250000X0.225000X-0.250000X0.225000X0.250000X-0.225000X0.250000X0*%
%ADD56RoundRect,0.150000X0.587500X0.150000X-0.587500X0.150000X-0.587500X-0.150000X0.587500X-0.150000X0*%
%ADD57RoundRect,0.250000X0.650000X-0.325000X0.650000X0.325000X-0.650000X0.325000X-0.650000X-0.325000X0*%
%ADD58RoundRect,0.800000X-0.200000X0.700000X-0.200000X-0.700000X0.200000X-0.700000X0.200000X0.700000X0*%
%ADD59R,1.350000X1.350000*%
%ADD60O,1.350000X1.350000*%
%ADD61RoundRect,0.250000X-0.625000X0.350000X-0.625000X-0.350000X0.625000X-0.350000X0.625000X0.350000X0*%
%ADD62O,1.750000X1.200000*%
%ADD63C,4.200000*%
G04 APERTURE END LIST*
D10*
X238250000Y-229300000D02*
X238550000Y-228700000D01*
X238250000Y-229300000D02*
X237750000Y-228800000D01*
D11*
X213900000Y-195000000D02*
X211500000Y-191500000D01*
X231497710Y-190020654D02*
X230997710Y-189520654D01*
X195800000Y-195000000D02*
X198300000Y-191500000D01*
X225497710Y-191520654D02*
X225497710Y-194020654D01*
X227497710Y-189520654D02*
X225497710Y-191520654D01*
X198300000Y-191500000D02*
X211500000Y-191500000D01*
X225497710Y-194020654D02*
X226497710Y-195020654D01*
D10*
X236750000Y-230800000D02*
G75*
G02*
X238250000Y-229300000I0J1500000D01*
G01*
D11*
X231497710Y-194520654D02*
X231497710Y-190020654D01*
X226497710Y-195020654D02*
X230997710Y-195020654D01*
X230997710Y-195020654D02*
X231497710Y-194520654D01*
X195800000Y-195000000D02*
X195800000Y-197000000D01*
X230997710Y-189520654D02*
X227497710Y-189520654D01*
X213900000Y-195000000D02*
X213900000Y-197000000D01*
D12*
X199867383Y-193387873D02*
X199867383Y-192387873D01*
X199867383Y-192864063D02*
X200438811Y-192864063D01*
X200438811Y-193387873D02*
X200438811Y-192387873D01*
X200772145Y-192387873D02*
X201105478Y-193387873D01*
X201105478Y-193387873D02*
X201438811Y-192387873D01*
D13*
X236204510Y-229329400D02*
X237347368Y-229329400D01*
X236775939Y-229900828D02*
X236775939Y-228757971D01*
X258792857Y-209229400D02*
X259707143Y-209229400D01*
X142178571Y-204350054D02*
X143321429Y-204350054D01*
X142750000Y-204921482D02*
X142750000Y-203778625D01*
D11*
X154334489Y-227690473D02*
X154334489Y-226690473D01*
X154334489Y-226690473D02*
X154572584Y-226690473D01*
X154572584Y-226690473D02*
X154715441Y-226738092D01*
X154715441Y-226738092D02*
X154810679Y-226833330D01*
X154810679Y-226833330D02*
X154858298Y-226928568D01*
X154858298Y-226928568D02*
X154905917Y-227119044D01*
X154905917Y-227119044D02*
X154905917Y-227261901D01*
X154905917Y-227261901D02*
X154858298Y-227452377D01*
X154858298Y-227452377D02*
X154810679Y-227547615D01*
X154810679Y-227547615D02*
X154715441Y-227642854D01*
X154715441Y-227642854D02*
X154572584Y-227690473D01*
X154572584Y-227690473D02*
X154334489Y-227690473D01*
X155524965Y-226690473D02*
X155715441Y-226690473D01*
X155715441Y-226690473D02*
X155810679Y-226738092D01*
X155810679Y-226738092D02*
X155905917Y-226833330D01*
X155905917Y-226833330D02*
X155953536Y-227023806D01*
X155953536Y-227023806D02*
X155953536Y-227357139D01*
X155953536Y-227357139D02*
X155905917Y-227547615D01*
X155905917Y-227547615D02*
X155810679Y-227642854D01*
X155810679Y-227642854D02*
X155715441Y-227690473D01*
X155715441Y-227690473D02*
X155524965Y-227690473D01*
X155524965Y-227690473D02*
X155429727Y-227642854D01*
X155429727Y-227642854D02*
X155334489Y-227547615D01*
X155334489Y-227547615D02*
X155286870Y-227357139D01*
X155286870Y-227357139D02*
X155286870Y-227023806D01*
X155286870Y-227023806D02*
X155334489Y-226833330D01*
X155334489Y-226833330D02*
X155429727Y-226738092D01*
X155429727Y-226738092D02*
X155524965Y-226690473D01*
X157144013Y-227690473D02*
X157144013Y-226690473D01*
X157144013Y-226690473D02*
X157715441Y-227690473D01*
X157715441Y-227690473D02*
X157715441Y-226690473D01*
X158382108Y-226690473D02*
X158572584Y-226690473D01*
X158572584Y-226690473D02*
X158667822Y-226738092D01*
X158667822Y-226738092D02*
X158763060Y-226833330D01*
X158763060Y-226833330D02*
X158810679Y-227023806D01*
X158810679Y-227023806D02*
X158810679Y-227357139D01*
X158810679Y-227357139D02*
X158763060Y-227547615D01*
X158763060Y-227547615D02*
X158667822Y-227642854D01*
X158667822Y-227642854D02*
X158572584Y-227690473D01*
X158572584Y-227690473D02*
X158382108Y-227690473D01*
X158382108Y-227690473D02*
X158286870Y-227642854D01*
X158286870Y-227642854D02*
X158191632Y-227547615D01*
X158191632Y-227547615D02*
X158144013Y-227357139D01*
X158144013Y-227357139D02*
X158144013Y-227023806D01*
X158144013Y-227023806D02*
X158191632Y-226833330D01*
X158191632Y-226833330D02*
X158286870Y-226738092D01*
X158286870Y-226738092D02*
X158382108Y-226690473D01*
X159096394Y-226690473D02*
X159667822Y-226690473D01*
X159382108Y-227690473D02*
X159382108Y-226690473D01*
X161334489Y-227690473D02*
X161001156Y-227214282D01*
X160763061Y-227690473D02*
X160763061Y-226690473D01*
X160763061Y-226690473D02*
X161144013Y-226690473D01*
X161144013Y-226690473D02*
X161239251Y-226738092D01*
X161239251Y-226738092D02*
X161286870Y-226785711D01*
X161286870Y-226785711D02*
X161334489Y-226880949D01*
X161334489Y-226880949D02*
X161334489Y-227023806D01*
X161334489Y-227023806D02*
X161286870Y-227119044D01*
X161286870Y-227119044D02*
X161239251Y-227166663D01*
X161239251Y-227166663D02*
X161144013Y-227214282D01*
X161144013Y-227214282D02*
X160763061Y-227214282D01*
X161763061Y-226690473D02*
X161763061Y-227499996D01*
X161763061Y-227499996D02*
X161810680Y-227595234D01*
X161810680Y-227595234D02*
X161858299Y-227642854D01*
X161858299Y-227642854D02*
X161953537Y-227690473D01*
X161953537Y-227690473D02*
X162144013Y-227690473D01*
X162144013Y-227690473D02*
X162239251Y-227642854D01*
X162239251Y-227642854D02*
X162286870Y-227595234D01*
X162286870Y-227595234D02*
X162334489Y-227499996D01*
X162334489Y-227499996D02*
X162334489Y-226690473D01*
X162810680Y-227690473D02*
X162810680Y-226690473D01*
X162810680Y-226690473D02*
X163382108Y-227690473D01*
X163382108Y-227690473D02*
X163382108Y-226690473D01*
X164620204Y-226690473D02*
X164620204Y-227499996D01*
X164620204Y-227499996D02*
X164667823Y-227595234D01*
X164667823Y-227595234D02*
X164715442Y-227642854D01*
X164715442Y-227642854D02*
X164810680Y-227690473D01*
X164810680Y-227690473D02*
X165001156Y-227690473D01*
X165001156Y-227690473D02*
X165096394Y-227642854D01*
X165096394Y-227642854D02*
X165144013Y-227595234D01*
X165144013Y-227595234D02*
X165191632Y-227499996D01*
X165191632Y-227499996D02*
X165191632Y-226690473D01*
X165667823Y-227690473D02*
X165667823Y-226690473D01*
X165667823Y-226690473D02*
X166239251Y-227690473D01*
X166239251Y-227690473D02*
X166239251Y-226690473D01*
X166667823Y-227404758D02*
X167144013Y-227404758D01*
X166572585Y-227690473D02*
X166905918Y-226690473D01*
X166905918Y-226690473D02*
X167239251Y-227690473D01*
X167429728Y-226690473D02*
X168001156Y-226690473D01*
X167715442Y-227690473D02*
X167715442Y-226690473D01*
X168191633Y-226690473D02*
X168763061Y-226690473D01*
X168477347Y-227690473D02*
X168477347Y-226690473D01*
X169096395Y-227166663D02*
X169429728Y-227166663D01*
X169572585Y-227690473D02*
X169096395Y-227690473D01*
X169096395Y-227690473D02*
X169096395Y-226690473D01*
X169096395Y-226690473D02*
X169572585Y-226690473D01*
X170001157Y-227690473D02*
X170001157Y-226690473D01*
X170001157Y-226690473D02*
X170572585Y-227690473D01*
X170572585Y-227690473D02*
X170572585Y-226690473D01*
X171048776Y-227690473D02*
X171048776Y-226690473D01*
X171048776Y-226690473D02*
X171286871Y-226690473D01*
X171286871Y-226690473D02*
X171429728Y-226738092D01*
X171429728Y-226738092D02*
X171524966Y-226833330D01*
X171524966Y-226833330D02*
X171572585Y-226928568D01*
X171572585Y-226928568D02*
X171620204Y-227119044D01*
X171620204Y-227119044D02*
X171620204Y-227261901D01*
X171620204Y-227261901D02*
X171572585Y-227452377D01*
X171572585Y-227452377D02*
X171524966Y-227547615D01*
X171524966Y-227547615D02*
X171429728Y-227642854D01*
X171429728Y-227642854D02*
X171286871Y-227690473D01*
X171286871Y-227690473D02*
X171048776Y-227690473D01*
X172048776Y-227166663D02*
X172382109Y-227166663D01*
X172524966Y-227690473D02*
X172048776Y-227690473D01*
X172048776Y-227690473D02*
X172048776Y-226690473D01*
X172048776Y-226690473D02*
X172524966Y-226690473D01*
X172953538Y-227690473D02*
X172953538Y-226690473D01*
X172953538Y-226690473D02*
X173191633Y-226690473D01*
X173191633Y-226690473D02*
X173334490Y-226738092D01*
X173334490Y-226738092D02*
X173429728Y-226833330D01*
X173429728Y-226833330D02*
X173477347Y-226928568D01*
X173477347Y-226928568D02*
X173524966Y-227119044D01*
X173524966Y-227119044D02*
X173524966Y-227261901D01*
X173524966Y-227261901D02*
X173477347Y-227452377D01*
X173477347Y-227452377D02*
X173429728Y-227547615D01*
X173429728Y-227547615D02*
X173334490Y-227642854D01*
X173334490Y-227642854D02*
X173191633Y-227690473D01*
X173191633Y-227690473D02*
X172953538Y-227690473D01*
D12*
X229367383Y-194587873D02*
X229367383Y-193587873D01*
X229367383Y-194064063D02*
X229938811Y-194064063D01*
X229938811Y-194587873D02*
X229938811Y-193587873D01*
X230272145Y-193587873D02*
X230605478Y-194587873D01*
X230605478Y-194587873D02*
X230938811Y-193587873D01*
D11*
X154334489Y-223780529D02*
X154334489Y-222780529D01*
X154334489Y-222780529D02*
X154572584Y-222780529D01*
X154572584Y-222780529D02*
X154715441Y-222828148D01*
X154715441Y-222828148D02*
X154810679Y-222923386D01*
X154810679Y-222923386D02*
X154858298Y-223018624D01*
X154858298Y-223018624D02*
X154905917Y-223209100D01*
X154905917Y-223209100D02*
X154905917Y-223351957D01*
X154905917Y-223351957D02*
X154858298Y-223542433D01*
X154858298Y-223542433D02*
X154810679Y-223637671D01*
X154810679Y-223637671D02*
X154715441Y-223732910D01*
X154715441Y-223732910D02*
X154572584Y-223780529D01*
X154572584Y-223780529D02*
X154334489Y-223780529D01*
X155524965Y-222780529D02*
X155715441Y-222780529D01*
X155715441Y-222780529D02*
X155810679Y-222828148D01*
X155810679Y-222828148D02*
X155905917Y-222923386D01*
X155905917Y-222923386D02*
X155953536Y-223113862D01*
X155953536Y-223113862D02*
X155953536Y-223447195D01*
X155953536Y-223447195D02*
X155905917Y-223637671D01*
X155905917Y-223637671D02*
X155810679Y-223732910D01*
X155810679Y-223732910D02*
X155715441Y-223780529D01*
X155715441Y-223780529D02*
X155524965Y-223780529D01*
X155524965Y-223780529D02*
X155429727Y-223732910D01*
X155429727Y-223732910D02*
X155334489Y-223637671D01*
X155334489Y-223637671D02*
X155286870Y-223447195D01*
X155286870Y-223447195D02*
X155286870Y-223113862D01*
X155286870Y-223113862D02*
X155334489Y-222923386D01*
X155334489Y-222923386D02*
X155429727Y-222828148D01*
X155429727Y-222828148D02*
X155524965Y-222780529D01*
X157144013Y-223780529D02*
X157144013Y-222780529D01*
X157144013Y-222780529D02*
X157715441Y-223780529D01*
X157715441Y-223780529D02*
X157715441Y-222780529D01*
X158382108Y-222780529D02*
X158572584Y-222780529D01*
X158572584Y-222780529D02*
X158667822Y-222828148D01*
X158667822Y-222828148D02*
X158763060Y-222923386D01*
X158763060Y-222923386D02*
X158810679Y-223113862D01*
X158810679Y-223113862D02*
X158810679Y-223447195D01*
X158810679Y-223447195D02*
X158763060Y-223637671D01*
X158763060Y-223637671D02*
X158667822Y-223732910D01*
X158667822Y-223732910D02*
X158572584Y-223780529D01*
X158572584Y-223780529D02*
X158382108Y-223780529D01*
X158382108Y-223780529D02*
X158286870Y-223732910D01*
X158286870Y-223732910D02*
X158191632Y-223637671D01*
X158191632Y-223637671D02*
X158144013Y-223447195D01*
X158144013Y-223447195D02*
X158144013Y-223113862D01*
X158144013Y-223113862D02*
X158191632Y-222923386D01*
X158191632Y-222923386D02*
X158286870Y-222828148D01*
X158286870Y-222828148D02*
X158382108Y-222780529D01*
X159096394Y-222780529D02*
X159667822Y-222780529D01*
X159382108Y-223780529D02*
X159382108Y-222780529D01*
X160763061Y-222780529D02*
X160763061Y-223590052D01*
X160763061Y-223590052D02*
X160810680Y-223685290D01*
X160810680Y-223685290D02*
X160858299Y-223732910D01*
X160858299Y-223732910D02*
X160953537Y-223780529D01*
X160953537Y-223780529D02*
X161144013Y-223780529D01*
X161144013Y-223780529D02*
X161239251Y-223732910D01*
X161239251Y-223732910D02*
X161286870Y-223685290D01*
X161286870Y-223685290D02*
X161334489Y-223590052D01*
X161334489Y-223590052D02*
X161334489Y-222780529D01*
X161763061Y-223732910D02*
X161905918Y-223780529D01*
X161905918Y-223780529D02*
X162144013Y-223780529D01*
X162144013Y-223780529D02*
X162239251Y-223732910D01*
X162239251Y-223732910D02*
X162286870Y-223685290D01*
X162286870Y-223685290D02*
X162334489Y-223590052D01*
X162334489Y-223590052D02*
X162334489Y-223494814D01*
X162334489Y-223494814D02*
X162286870Y-223399576D01*
X162286870Y-223399576D02*
X162239251Y-223351957D01*
X162239251Y-223351957D02*
X162144013Y-223304338D01*
X162144013Y-223304338D02*
X161953537Y-223256719D01*
X161953537Y-223256719D02*
X161858299Y-223209100D01*
X161858299Y-223209100D02*
X161810680Y-223161481D01*
X161810680Y-223161481D02*
X161763061Y-223066243D01*
X161763061Y-223066243D02*
X161763061Y-222971005D01*
X161763061Y-222971005D02*
X161810680Y-222875767D01*
X161810680Y-222875767D02*
X161858299Y-222828148D01*
X161858299Y-222828148D02*
X161953537Y-222780529D01*
X161953537Y-222780529D02*
X162191632Y-222780529D01*
X162191632Y-222780529D02*
X162334489Y-222828148D01*
X162763061Y-223256719D02*
X163096394Y-223256719D01*
X163239251Y-223780529D02*
X162763061Y-223780529D01*
X162763061Y-223780529D02*
X162763061Y-222780529D01*
X162763061Y-222780529D02*
X163239251Y-222780529D01*
X164429728Y-223780529D02*
X164429728Y-222780529D01*
X164429728Y-222780529D02*
X165001156Y-223780529D01*
X165001156Y-223780529D02*
X165001156Y-222780529D01*
X165477347Y-223256719D02*
X165810680Y-223256719D01*
X165953537Y-223780529D02*
X165477347Y-223780529D01*
X165477347Y-223780529D02*
X165477347Y-222780529D01*
X165477347Y-222780529D02*
X165953537Y-222780529D01*
X166334490Y-223494814D02*
X166810680Y-223494814D01*
X166239252Y-223780529D02*
X166572585Y-222780529D01*
X166572585Y-222780529D02*
X166905918Y-223780529D01*
X167810680Y-223780529D02*
X167477347Y-223304338D01*
X167239252Y-223780529D02*
X167239252Y-222780529D01*
X167239252Y-222780529D02*
X167620204Y-222780529D01*
X167620204Y-222780529D02*
X167715442Y-222828148D01*
X167715442Y-222828148D02*
X167763061Y-222875767D01*
X167763061Y-222875767D02*
X167810680Y-222971005D01*
X167810680Y-222971005D02*
X167810680Y-223113862D01*
X167810680Y-223113862D02*
X167763061Y-223209100D01*
X167763061Y-223209100D02*
X167715442Y-223256719D01*
X167715442Y-223256719D02*
X167620204Y-223304338D01*
X167620204Y-223304338D02*
X167239252Y-223304338D01*
X154286870Y-225342854D02*
X154429727Y-225390473D01*
X154429727Y-225390473D02*
X154667822Y-225390473D01*
X154667822Y-225390473D02*
X154763060Y-225342854D01*
X154763060Y-225342854D02*
X154810679Y-225295234D01*
X154810679Y-225295234D02*
X154858298Y-225199996D01*
X154858298Y-225199996D02*
X154858298Y-225104758D01*
X154858298Y-225104758D02*
X154810679Y-225009520D01*
X154810679Y-225009520D02*
X154763060Y-224961901D01*
X154763060Y-224961901D02*
X154667822Y-224914282D01*
X154667822Y-224914282D02*
X154477346Y-224866663D01*
X154477346Y-224866663D02*
X154382108Y-224819044D01*
X154382108Y-224819044D02*
X154334489Y-224771425D01*
X154334489Y-224771425D02*
X154286870Y-224676187D01*
X154286870Y-224676187D02*
X154286870Y-224580949D01*
X154286870Y-224580949D02*
X154334489Y-224485711D01*
X154334489Y-224485711D02*
X154382108Y-224438092D01*
X154382108Y-224438092D02*
X154477346Y-224390473D01*
X154477346Y-224390473D02*
X154715441Y-224390473D01*
X154715441Y-224390473D02*
X154858298Y-224438092D01*
X155286870Y-224866663D02*
X155620203Y-224866663D01*
X155763060Y-225390473D02*
X155286870Y-225390473D01*
X155286870Y-225390473D02*
X155286870Y-224390473D01*
X155286870Y-224390473D02*
X155763060Y-224390473D01*
X156191632Y-225390473D02*
X156191632Y-224390473D01*
X156191632Y-224390473D02*
X156763060Y-225390473D01*
X156763060Y-225390473D02*
X156763060Y-224390473D01*
X157191632Y-225342854D02*
X157334489Y-225390473D01*
X157334489Y-225390473D02*
X157572584Y-225390473D01*
X157572584Y-225390473D02*
X157667822Y-225342854D01*
X157667822Y-225342854D02*
X157715441Y-225295234D01*
X157715441Y-225295234D02*
X157763060Y-225199996D01*
X157763060Y-225199996D02*
X157763060Y-225104758D01*
X157763060Y-225104758D02*
X157715441Y-225009520D01*
X157715441Y-225009520D02*
X157667822Y-224961901D01*
X157667822Y-224961901D02*
X157572584Y-224914282D01*
X157572584Y-224914282D02*
X157382108Y-224866663D01*
X157382108Y-224866663D02*
X157286870Y-224819044D01*
X157286870Y-224819044D02*
X157239251Y-224771425D01*
X157239251Y-224771425D02*
X157191632Y-224676187D01*
X157191632Y-224676187D02*
X157191632Y-224580949D01*
X157191632Y-224580949D02*
X157239251Y-224485711D01*
X157239251Y-224485711D02*
X157286870Y-224438092D01*
X157286870Y-224438092D02*
X157382108Y-224390473D01*
X157382108Y-224390473D02*
X157620203Y-224390473D01*
X157620203Y-224390473D02*
X157763060Y-224438092D01*
X158191632Y-225390473D02*
X158191632Y-224390473D01*
X158524965Y-224390473D02*
X159096393Y-224390473D01*
X158810679Y-225390473D02*
X158810679Y-224390473D01*
X159429727Y-225390473D02*
X159429727Y-224390473D01*
X159763060Y-224390473D02*
X160096393Y-225390473D01*
X160096393Y-225390473D02*
X160429726Y-224390473D01*
X160763060Y-224866663D02*
X161096393Y-224866663D01*
X161239250Y-225390473D02*
X160763060Y-225390473D01*
X160763060Y-225390473D02*
X160763060Y-224390473D01*
X160763060Y-224390473D02*
X161239250Y-224390473D01*
X162429727Y-224866663D02*
X162763060Y-224866663D01*
X162905917Y-225390473D02*
X162429727Y-225390473D01*
X162429727Y-225390473D02*
X162429727Y-224390473D01*
X162429727Y-224390473D02*
X162905917Y-224390473D01*
X164001155Y-225485711D02*
X163905917Y-225438092D01*
X163905917Y-225438092D02*
X163810679Y-225342854D01*
X163810679Y-225342854D02*
X163667822Y-225199996D01*
X163667822Y-225199996D02*
X163572584Y-225152377D01*
X163572584Y-225152377D02*
X163477346Y-225152377D01*
X163524965Y-225390473D02*
X163429727Y-225342854D01*
X163429727Y-225342854D02*
X163334489Y-225247615D01*
X163334489Y-225247615D02*
X163286870Y-225057139D01*
X163286870Y-225057139D02*
X163286870Y-224723806D01*
X163286870Y-224723806D02*
X163334489Y-224533330D01*
X163334489Y-224533330D02*
X163429727Y-224438092D01*
X163429727Y-224438092D02*
X163524965Y-224390473D01*
X163524965Y-224390473D02*
X163715441Y-224390473D01*
X163715441Y-224390473D02*
X163810679Y-224438092D01*
X163810679Y-224438092D02*
X163905917Y-224533330D01*
X163905917Y-224533330D02*
X163953536Y-224723806D01*
X163953536Y-224723806D02*
X163953536Y-225057139D01*
X163953536Y-225057139D02*
X163905917Y-225247615D01*
X163905917Y-225247615D02*
X163810679Y-225342854D01*
X163810679Y-225342854D02*
X163715441Y-225390473D01*
X163715441Y-225390473D02*
X163524965Y-225390473D01*
X164382108Y-224390473D02*
X164382108Y-225199996D01*
X164382108Y-225199996D02*
X164429727Y-225295234D01*
X164429727Y-225295234D02*
X164477346Y-225342854D01*
X164477346Y-225342854D02*
X164572584Y-225390473D01*
X164572584Y-225390473D02*
X164763060Y-225390473D01*
X164763060Y-225390473D02*
X164858298Y-225342854D01*
X164858298Y-225342854D02*
X164905917Y-225295234D01*
X164905917Y-225295234D02*
X164953536Y-225199996D01*
X164953536Y-225199996D02*
X164953536Y-224390473D01*
X165429727Y-225390473D02*
X165429727Y-224390473D01*
X165905917Y-225390473D02*
X165905917Y-224390473D01*
X165905917Y-224390473D02*
X166286869Y-224390473D01*
X166286869Y-224390473D02*
X166382107Y-224438092D01*
X166382107Y-224438092D02*
X166429726Y-224485711D01*
X166429726Y-224485711D02*
X166477345Y-224580949D01*
X166477345Y-224580949D02*
X166477345Y-224723806D01*
X166477345Y-224723806D02*
X166429726Y-224819044D01*
X166429726Y-224819044D02*
X166382107Y-224866663D01*
X166382107Y-224866663D02*
X166286869Y-224914282D01*
X166286869Y-224914282D02*
X165905917Y-224914282D01*
X166905917Y-225390473D02*
X166905917Y-224390473D01*
X166905917Y-224390473D02*
X167239250Y-225104758D01*
X167239250Y-225104758D02*
X167572583Y-224390473D01*
X167572583Y-224390473D02*
X167572583Y-225390473D01*
X168048774Y-224866663D02*
X168382107Y-224866663D01*
X168524964Y-225390473D02*
X168048774Y-225390473D01*
X168048774Y-225390473D02*
X168048774Y-224390473D01*
X168048774Y-224390473D02*
X168524964Y-224390473D01*
X168953536Y-225390473D02*
X168953536Y-224390473D01*
X168953536Y-224390473D02*
X169524964Y-225390473D01*
X169524964Y-225390473D02*
X169524964Y-224390473D01*
X169858298Y-224390473D02*
X170429726Y-224390473D01*
X170144012Y-225390473D02*
X170144012Y-224390473D01*
D13*
X142292857Y-208250054D02*
X143207143Y-208250054D01*
D11*
X159174824Y-211663511D02*
X158698633Y-211996844D01*
X159174824Y-212234939D02*
X158174824Y-212234939D01*
X158174824Y-212234939D02*
X158174824Y-211853987D01*
X158174824Y-211853987D02*
X158222443Y-211758749D01*
X158222443Y-211758749D02*
X158270062Y-211711130D01*
X158270062Y-211711130D02*
X158365300Y-211663511D01*
X158365300Y-211663511D02*
X158508157Y-211663511D01*
X158508157Y-211663511D02*
X158603395Y-211711130D01*
X158603395Y-211711130D02*
X158651014Y-211758749D01*
X158651014Y-211758749D02*
X158698633Y-211853987D01*
X158698633Y-211853987D02*
X158698633Y-212234939D01*
X159174824Y-210711130D02*
X159174824Y-211282558D01*
X159174824Y-210996844D02*
X158174824Y-210996844D01*
X158174824Y-210996844D02*
X158317681Y-211092082D01*
X158317681Y-211092082D02*
X158412919Y-211187320D01*
X158412919Y-211187320D02*
X158460538Y-211282558D01*
X159174824Y-209758749D02*
X159174824Y-210330177D01*
X159174824Y-210044463D02*
X158174824Y-210044463D01*
X158174824Y-210044463D02*
X158317681Y-210139701D01*
X158317681Y-210139701D02*
X158412919Y-210234939D01*
X158412919Y-210234939D02*
X158460538Y-210330177D01*
D14*
%TO.C,R11*%
X157810005Y-210293590D02*
X157810005Y-211747718D01*
X155990005Y-210293590D02*
X155990005Y-211747718D01*
D15*
%TO.C,kibuzzard-6619ED77*%
G36*
X149756483Y-210591076D02*
G01*
X149409773Y-210591076D01*
X149409773Y-211669307D01*
X149165933Y-211669307D01*
X149165933Y-210591076D01*
X148819223Y-210591076D01*
X148819223Y-210373906D01*
X149756483Y-210373906D01*
X149756483Y-210591076D01*
G37*
G36*
X146782778Y-210888256D02*
G01*
X147220928Y-210888256D01*
X147220928Y-210373906D01*
X147464768Y-210373906D01*
X147464768Y-211669307D01*
X147220928Y-211669307D01*
X147220928Y-211103521D01*
X146782778Y-211103521D01*
X146782778Y-211669307D01*
X146538937Y-211669307D01*
X146538937Y-210373906D01*
X146782778Y-210373906D01*
X146782778Y-210888256D01*
G37*
G36*
X148266878Y-210361524D02*
G01*
X148368796Y-210381526D01*
X148450605Y-210414864D01*
X148542521Y-210495588D01*
X148603005Y-210617746D01*
X148627876Y-210726543D01*
X148642798Y-210862433D01*
X148647773Y-211025416D01*
X148642798Y-211186072D01*
X148627876Y-211320057D01*
X148603005Y-211427371D01*
X148542521Y-211547863D01*
X148450605Y-211627397D01*
X148368796Y-211660205D01*
X148266878Y-211679890D01*
X148144853Y-211686452D01*
X148022827Y-211679890D01*
X147920909Y-211660205D01*
X147839100Y-211627397D01*
X147747184Y-211547863D01*
X147686700Y-211427371D01*
X147661829Y-211320057D01*
X147646907Y-211186072D01*
X147641933Y-211025416D01*
X147881963Y-211025416D01*
X147887916Y-211182341D01*
X147905775Y-211298784D01*
X147937684Y-211381175D01*
X147985785Y-211435944D01*
X148053651Y-211466662D01*
X148144853Y-211476902D01*
X148235816Y-211466662D01*
X148302967Y-211435944D01*
X148350354Y-211381175D01*
X148382025Y-211298784D01*
X148399884Y-211182341D01*
X148405837Y-211025416D01*
X148399884Y-210863730D01*
X148382025Y-210744429D01*
X148350354Y-210660609D01*
X148302967Y-210605364D01*
X148235816Y-210574646D01*
X148144853Y-210564406D01*
X148053651Y-210574646D01*
X147985785Y-210605364D01*
X147937684Y-210660847D01*
X147905775Y-210745381D01*
X147887916Y-210864920D01*
X147881963Y-211025416D01*
X147641933Y-211025416D01*
X147646907Y-210862433D01*
X147661829Y-210726543D01*
X147686700Y-210617746D01*
X147747184Y-210495588D01*
X147839100Y-210414864D01*
X147920909Y-210381526D01*
X148022827Y-210361524D01*
X148144853Y-210354856D01*
X148266878Y-210361524D01*
G37*
D14*
%TO.C,U2*%
X159535420Y-213681308D02*
X162255420Y-213681308D01*
X159535420Y-214011308D02*
X159535420Y-213681308D01*
X159535420Y-218401308D02*
X159535420Y-218071308D01*
X162255420Y-213681308D02*
X162255420Y-214011308D01*
X162255420Y-218401308D02*
X159535420Y-218401308D01*
X162255420Y-218401308D02*
X162255420Y-218071308D01*
X163435420Y-218071308D02*
X162255420Y-218071308D01*
%TO.C,SW1*%
X220767710Y-217290654D02*
X220797710Y-217290654D01*
X220767710Y-223750654D02*
X220767710Y-217290654D01*
X220797710Y-223750654D02*
X220767710Y-223750654D01*
X222697710Y-217290654D02*
X225297710Y-217290654D01*
X222697710Y-223750654D02*
X225297710Y-223750654D01*
X227227710Y-217290654D02*
X227197710Y-217290654D01*
X227227710Y-223750654D02*
X227197710Y-223750654D01*
X227227710Y-223750654D02*
X227227710Y-217290654D01*
%TO.C,Cp4*%
X196790000Y-196359402D02*
X196790000Y-198681906D01*
X199400000Y-196359402D02*
X199400000Y-198681906D01*
%TO.C,D5*%
X212000000Y-218660654D02*
X212000000Y-222670654D01*
X214000000Y-218660654D02*
X212000000Y-218660654D01*
X214000000Y-218660654D02*
X214000000Y-222670654D01*
%TO.C,TP6*%
X177800000Y-197500000D02*
G75*
G02*
X175400000Y-197500000I-1200000J0D01*
G01*
X175400000Y-197500000D02*
G75*
G02*
X177800000Y-197500000I1200000J0D01*
G01*
%TO.C,D4*%
X244000210Y-201070654D02*
X244000210Y-200420654D01*
X244000210Y-201070654D02*
X244000210Y-202745654D01*
X247120210Y-201070654D02*
X247120210Y-200420654D01*
X247120210Y-201070654D02*
X247120210Y-201720654D01*
%TO.C,C3*%
X245640580Y-204210654D02*
X245359420Y-204210654D01*
X245640580Y-205230654D02*
X245359420Y-205230654D01*
%TO.C,R4*%
X156377505Y-202783396D02*
X156377505Y-203257912D01*
X157422505Y-202783396D02*
X157422505Y-203257912D01*
D16*
%TO.C,SYM1*%
X161414570Y-196622353D02*
X161477435Y-196955821D01*
X161709400Y-197051445D01*
X161941364Y-197147068D01*
X162219644Y-196957839D01*
X162297577Y-196905151D01*
X162368024Y-196858108D01*
X162427699Y-196818858D01*
X162473312Y-196789548D01*
X162501577Y-196772325D01*
X162509275Y-196768611D01*
X162523142Y-196778161D01*
X162552775Y-196804566D01*
X162594851Y-196844451D01*
X162646049Y-196894443D01*
X162703049Y-196951170D01*
X162762529Y-197011258D01*
X162821165Y-197071335D01*
X162875639Y-197128027D01*
X162922628Y-197177964D01*
X162958811Y-197217768D01*
X162980867Y-197244070D01*
X162986140Y-197252872D01*
X162978551Y-197269099D01*
X162957278Y-197304651D01*
X162924556Y-197356050D01*
X162882623Y-197419816D01*
X162833714Y-197492475D01*
X162805373Y-197533917D01*
X162753716Y-197609590D01*
X162707815Y-197677879D01*
X162669893Y-197735382D01*
X162642181Y-197778700D01*
X162626903Y-197804437D01*
X162624607Y-197809845D01*
X162629812Y-197825215D01*
X162643997Y-197861040D01*
X162665024Y-197912278D01*
X162690752Y-197973897D01*
X162719041Y-198040857D01*
X162747749Y-198108123D01*
X162774737Y-198170658D01*
X162797864Y-198223425D01*
X162814988Y-198261387D01*
X162823972Y-198279508D01*
X162824503Y-198280221D01*
X162838607Y-198283681D01*
X162876173Y-198291400D01*
X162933304Y-198302620D01*
X163006108Y-198316581D01*
X163090691Y-198332524D01*
X163140041Y-198341718D01*
X163230422Y-198358926D01*
X163312057Y-198375301D01*
X163380817Y-198389946D01*
X163432570Y-198401965D01*
X163463188Y-198410464D01*
X163469342Y-198413160D01*
X163475371Y-198431409D01*
X163480234Y-198472624D01*
X163483937Y-198531985D01*
X163486483Y-198604673D01*
X163487873Y-198685868D01*
X163488113Y-198770752D01*
X163487204Y-198854504D01*
X163485152Y-198932305D01*
X163481957Y-198999334D01*
X163477625Y-199050773D01*
X163472159Y-199081801D01*
X163468880Y-199088261D01*
X163449283Y-199096003D01*
X163407754Y-199107073D01*
X163349789Y-199120168D01*
X163280882Y-199133989D01*
X163256828Y-199138459D01*
X163140853Y-199159703D01*
X163049240Y-199176811D01*
X162978964Y-199190464D01*
X162926998Y-199201340D01*
X162890312Y-199210123D01*
X162865882Y-199217489D01*
X162850681Y-199224121D01*
X162841679Y-199230697D01*
X162840419Y-199231996D01*
X162827848Y-199252931D01*
X162808670Y-199293674D01*
X162784801Y-199349236D01*
X162758155Y-199414627D01*
X162730646Y-199484860D01*
X162704192Y-199554943D01*
X162680707Y-199619888D01*
X162662104Y-199674709D01*
X162650300Y-199714412D01*
X162647209Y-199734011D01*
X162647467Y-199734698D01*
X162657940Y-199750718D01*
X162681701Y-199785967D01*
X162716252Y-199836773D01*
X162759098Y-199899470D01*
X162807739Y-199970390D01*
X162821591Y-199990544D01*
X162870983Y-200063609D01*
X162914447Y-200130275D01*
X162949613Y-200186713D01*
X162974114Y-200229094D01*
X162985585Y-200253589D01*
X162986140Y-200256598D01*
X162976504Y-200272417D01*
X162949876Y-200303752D01*
X162909679Y-200347237D01*
X162859337Y-200399504D01*
X162802274Y-200457187D01*
X162741913Y-200516915D01*
X162681674Y-200575324D01*
X162624983Y-200629043D01*
X162575263Y-200674706D01*
X162535936Y-200708944D01*
X162510425Y-200728391D01*
X162503368Y-200731565D01*
X162486941Y-200724088D01*
X162453310Y-200703919D01*
X162407950Y-200674456D01*
X162373051Y-200650741D01*
X162309815Y-200607227D01*
X162234929Y-200555992D01*
X162159814Y-200504837D01*
X162119429Y-200477459D01*
X161982737Y-200385004D01*
X161867995Y-200447044D01*
X161815721Y-200474222D01*
X161771270Y-200495348D01*
X161741192Y-200507396D01*
X161733536Y-200509073D01*
X161724331Y-200496695D01*
X161706169Y-200461715D01*
X161680406Y-200407360D01*
X161648401Y-200336858D01*
X161611505Y-200253434D01*
X161571077Y-200160314D01*
X161528473Y-200060728D01*
X161485046Y-199957898D01*
X161442154Y-199855055D01*
X161401153Y-199755422D01*
X161363398Y-199662227D01*
X161330245Y-199578697D01*
X161303048Y-199508057D01*
X161283166Y-199453537D01*
X161271953Y-199418359D01*
X161270150Y-199406278D01*
X161284442Y-199390868D01*
X161315737Y-199365853D01*
X161357489Y-199336430D01*
X161360993Y-199334102D01*
X161468908Y-199247720D01*
X161555921Y-199146943D01*
X161621282Y-199034992D01*
X161664233Y-198915088D01*
X161684024Y-198790456D01*
X161679898Y-198664318D01*
X161651102Y-198539894D01*
X161596880Y-198420411D01*
X161580929Y-198394270D01*
X161497957Y-198288708D01*
X161399936Y-198203940D01*
X161290258Y-198140407D01*
X161172316Y-198098550D01*
X161049502Y-198078810D01*
X160925211Y-198081627D01*
X160802832Y-198107442D01*
X160685760Y-198156697D01*
X160577386Y-198229831D01*
X160543863Y-198259515D01*
X160458544Y-198352432D01*
X160396374Y-198450247D01*
X160353727Y-198559889D01*
X160329976Y-198668470D01*
X160324113Y-198790549D01*
X160343664Y-198913234D01*
X160386645Y-199032377D01*
X160451068Y-199143833D01*
X160534950Y-199243454D01*
X160636303Y-199327096D01*
X160649623Y-199335911D01*
X160691823Y-199364785D01*
X160723903Y-199389800D01*
X160739239Y-199405774D01*
X160739463Y-199406278D01*
X160736170Y-199423556D01*
X160723117Y-199462771D01*
X160701661Y-199520696D01*
X160673160Y-199594105D01*
X160638966Y-199679771D01*
X160600438Y-199774472D01*
X160558932Y-199874978D01*
X160515804Y-199978067D01*
X160472412Y-200080510D01*
X160430109Y-200179081D01*
X160390254Y-200270557D01*
X160354203Y-200351710D01*
X160323312Y-200419315D01*
X160298937Y-200470145D01*
X160282434Y-200500976D01*
X160275787Y-200509073D01*
X160255480Y-200502767D01*
X160217484Y-200485858D01*
X160168348Y-200461363D01*
X160141330Y-200447044D01*
X160026586Y-200385004D01*
X159889894Y-200477459D01*
X159820117Y-200524825D01*
X159743722Y-200576948D01*
X159672132Y-200626027D01*
X159636273Y-200650741D01*
X159585840Y-200684608D01*
X159543133Y-200711446D01*
X159513726Y-200727857D01*
X159504175Y-200731325D01*
X159490273Y-200721967D01*
X159459505Y-200695843D01*
X159414855Y-200655662D01*
X159359304Y-200604140D01*
X159295837Y-200543989D01*
X159255697Y-200505368D01*
X159185472Y-200436368D01*
X159124780Y-200374652D01*
X159076078Y-200322862D01*
X159041817Y-200283637D01*
X159024453Y-200259616D01*
X159022786Y-200254741D01*
X159030517Y-200236199D01*
X159051882Y-200198707D01*
X159084508Y-200146063D01*
X159126028Y-200082059D01*
X159174070Y-200010496D01*
X159187734Y-199990544D01*
X159237516Y-199918028D01*
X159282177Y-199852741D01*
X159319222Y-199798349D01*
X159346155Y-199758523D01*
X159360475Y-199736930D01*
X159361858Y-199734698D01*
X159359790Y-199717490D01*
X159348807Y-199679656D01*
X159330826Y-199626184D01*
X159307761Y-199562063D01*
X159281527Y-199492283D01*
X159254041Y-199421834D01*
X159227215Y-199355702D01*
X159202965Y-199298879D01*
X159183207Y-199256351D01*
X159169854Y-199233110D01*
X159168906Y-199231996D01*
X159160740Y-199225354D01*
X159146949Y-199218785D01*
X159124506Y-199211611D01*
X159090384Y-199203151D01*
X159041554Y-199192723D01*
X158974990Y-199179650D01*
X158887666Y-199163252D01*
X158776554Y-199142846D01*
X158752497Y-199138459D01*
X158681196Y-199124684D01*
X158619037Y-199111207D01*
X158571513Y-199099330D01*
X158544117Y-199090354D01*
X158540443Y-199088261D01*
X158534391Y-199069708D01*
X158529471Y-199028246D01*
X158525686Y-198968695D01*
X158523042Y-198895876D01*
X158521540Y-198814607D01*
X158521183Y-198729709D01*
X158521978Y-198646000D01*
X158523924Y-198568300D01*
X158527026Y-198501430D01*
X158531289Y-198450208D01*
X158536713Y-198419454D01*
X158539983Y-198413160D01*
X158558187Y-198406810D01*
X158599641Y-198396481D01*
X158660214Y-198383067D01*
X158735776Y-198367465D01*
X158822199Y-198350572D01*
X158869284Y-198341718D01*
X158958621Y-198325018D01*
X159038287Y-198309889D01*
X159104391Y-198297091D01*
X159153036Y-198287382D01*
X159180330Y-198281521D01*
X159184822Y-198280221D01*
X159192415Y-198265572D01*
X159208464Y-198230287D01*
X159230832Y-198179407D01*
X159257377Y-198117973D01*
X159285961Y-198051025D01*
X159314446Y-197983606D01*
X159340690Y-197920756D01*
X159362556Y-197867515D01*
X159377904Y-197828925D01*
X159384594Y-197810028D01*
X159384718Y-197809201D01*
X159377134Y-197794294D01*
X159355873Y-197759988D01*
X159323169Y-197709693D01*
X159281256Y-197646817D01*
X159232371Y-197574774D01*
X159203952Y-197533392D01*
X159152167Y-197457516D01*
X159106173Y-197388627D01*
X159068214Y-197330212D01*
X159040533Y-197285757D01*
X159025374Y-197258743D01*
X159023185Y-197252688D01*
X159032596Y-197238592D01*
X159058614Y-197208498D01*
X159097914Y-197165775D01*
X159147172Y-197113794D01*
X159203068Y-197055928D01*
X159262276Y-196995549D01*
X159321474Y-196936027D01*
X159377335Y-196880734D01*
X159426540Y-196833043D01*
X159465763Y-196796325D01*
X159491682Y-196773951D01*
X159500352Y-196768611D01*
X159514470Y-196776120D01*
X159548238Y-196797213D01*
X159598371Y-196829745D01*
X159661587Y-196871568D01*
X159734602Y-196920534D01*
X159789681Y-196957839D01*
X160067961Y-197147068D01*
X160531890Y-196955821D01*
X160594755Y-196622353D01*
X160657620Y-196288885D01*
X161351705Y-196288885D01*
X161414570Y-196622353D01*
G36*
X161414570Y-196622353D02*
G01*
X161477435Y-196955821D01*
X161709400Y-197051445D01*
X161941364Y-197147068D01*
X162219644Y-196957839D01*
X162297577Y-196905151D01*
X162368024Y-196858108D01*
X162427699Y-196818858D01*
X162473312Y-196789548D01*
X162501577Y-196772325D01*
X162509275Y-196768611D01*
X162523142Y-196778161D01*
X162552775Y-196804566D01*
X162594851Y-196844451D01*
X162646049Y-196894443D01*
X162703049Y-196951170D01*
X162762529Y-197011258D01*
X162821165Y-197071335D01*
X162875639Y-197128027D01*
X162922628Y-197177964D01*
X162958811Y-197217768D01*
X162980867Y-197244070D01*
X162986140Y-197252872D01*
X162978551Y-197269099D01*
X162957278Y-197304651D01*
X162924556Y-197356050D01*
X162882623Y-197419816D01*
X162833714Y-197492475D01*
X162805373Y-197533917D01*
X162753716Y-197609590D01*
X162707815Y-197677879D01*
X162669893Y-197735382D01*
X162642181Y-197778700D01*
X162626903Y-197804437D01*
X162624607Y-197809845D01*
X162629812Y-197825215D01*
X162643997Y-197861040D01*
X162665024Y-197912278D01*
X162690752Y-197973897D01*
X162719041Y-198040857D01*
X162747749Y-198108123D01*
X162774737Y-198170658D01*
X162797864Y-198223425D01*
X162814988Y-198261387D01*
X162823972Y-198279508D01*
X162824503Y-198280221D01*
X162838607Y-198283681D01*
X162876173Y-198291400D01*
X162933304Y-198302620D01*
X163006108Y-198316581D01*
X163090691Y-198332524D01*
X163140041Y-198341718D01*
X163230422Y-198358926D01*
X163312057Y-198375301D01*
X163380817Y-198389946D01*
X163432570Y-198401965D01*
X163463188Y-198410464D01*
X163469342Y-198413160D01*
X163475371Y-198431409D01*
X163480234Y-198472624D01*
X163483937Y-198531985D01*
X163486483Y-198604673D01*
X163487873Y-198685868D01*
X163488113Y-198770752D01*
X163487204Y-198854504D01*
X163485152Y-198932305D01*
X163481957Y-198999334D01*
X163477625Y-199050773D01*
X163472159Y-199081801D01*
X163468880Y-199088261D01*
X163449283Y-199096003D01*
X163407754Y-199107073D01*
X163349789Y-199120168D01*
X163280882Y-199133989D01*
X163256828Y-199138459D01*
X163140853Y-199159703D01*
X163049240Y-199176811D01*
X162978964Y-199190464D01*
X162926998Y-199201340D01*
X162890312Y-199210123D01*
X162865882Y-199217489D01*
X162850681Y-199224121D01*
X162841679Y-199230697D01*
X162840419Y-199231996D01*
X162827848Y-199252931D01*
X162808670Y-199293674D01*
X162784801Y-199349236D01*
X162758155Y-199414627D01*
X162730646Y-199484860D01*
X162704192Y-199554943D01*
X162680707Y-199619888D01*
X162662104Y-199674709D01*
X162650300Y-199714412D01*
X162647209Y-199734011D01*
X162647467Y-199734698D01*
X162657940Y-199750718D01*
X162681701Y-199785967D01*
X162716252Y-199836773D01*
X162759098Y-199899470D01*
X162807739Y-199970390D01*
X162821591Y-199990544D01*
X162870983Y-200063609D01*
X162914447Y-200130275D01*
X162949613Y-200186713D01*
X162974114Y-200229094D01*
X162985585Y-200253589D01*
X162986140Y-200256598D01*
X162976504Y-200272417D01*
X162949876Y-200303752D01*
X162909679Y-200347237D01*
X162859337Y-200399504D01*
X162802274Y-200457187D01*
X162741913Y-200516915D01*
X162681674Y-200575324D01*
X162624983Y-200629043D01*
X162575263Y-200674706D01*
X162535936Y-200708944D01*
X162510425Y-200728391D01*
X162503368Y-200731565D01*
X162486941Y-200724088D01*
X162453310Y-200703919D01*
X162407950Y-200674456D01*
X162373051Y-200650741D01*
X162309815Y-200607227D01*
X162234929Y-200555992D01*
X162159814Y-200504837D01*
X162119429Y-200477459D01*
X161982737Y-200385004D01*
X161867995Y-200447044D01*
X161815721Y-200474222D01*
X161771270Y-200495348D01*
X161741192Y-200507396D01*
X161733536Y-200509073D01*
X161724331Y-200496695D01*
X161706169Y-200461715D01*
X161680406Y-200407360D01*
X161648401Y-200336858D01*
X161611505Y-200253434D01*
X161571077Y-200160314D01*
X161528473Y-200060728D01*
X161485046Y-199957898D01*
X161442154Y-199855055D01*
X161401153Y-199755422D01*
X161363398Y-199662227D01*
X161330245Y-199578697D01*
X161303048Y-199508057D01*
X161283166Y-199453537D01*
X161271953Y-199418359D01*
X161270150Y-199406278D01*
X161284442Y-199390868D01*
X161315737Y-199365853D01*
X161357489Y-199336430D01*
X161360993Y-199334102D01*
X161468908Y-199247720D01*
X161555921Y-199146943D01*
X161621282Y-199034992D01*
X161664233Y-198915088D01*
X161684024Y-198790456D01*
X161679898Y-198664318D01*
X161651102Y-198539894D01*
X161596880Y-198420411D01*
X161580929Y-198394270D01*
X161497957Y-198288708D01*
X161399936Y-198203940D01*
X161290258Y-198140407D01*
X161172316Y-198098550D01*
X161049502Y-198078810D01*
X160925211Y-198081627D01*
X160802832Y-198107442D01*
X160685760Y-198156697D01*
X160577386Y-198229831D01*
X160543863Y-198259515D01*
X160458544Y-198352432D01*
X160396374Y-198450247D01*
X160353727Y-198559889D01*
X160329976Y-198668470D01*
X160324113Y-198790549D01*
X160343664Y-198913234D01*
X160386645Y-199032377D01*
X160451068Y-199143833D01*
X160534950Y-199243454D01*
X160636303Y-199327096D01*
X160649623Y-199335911D01*
X160691823Y-199364785D01*
X160723903Y-199389800D01*
X160739239Y-199405774D01*
X160739463Y-199406278D01*
X160736170Y-199423556D01*
X160723117Y-199462771D01*
X160701661Y-199520696D01*
X160673160Y-199594105D01*
X160638966Y-199679771D01*
X160600438Y-199774472D01*
X160558932Y-199874978D01*
X160515804Y-199978067D01*
X160472412Y-200080510D01*
X160430109Y-200179081D01*
X160390254Y-200270557D01*
X160354203Y-200351710D01*
X160323312Y-200419315D01*
X160298937Y-200470145D01*
X160282434Y-200500976D01*
X160275787Y-200509073D01*
X160255480Y-200502767D01*
X160217484Y-200485858D01*
X160168348Y-200461363D01*
X160141330Y-200447044D01*
X160026586Y-200385004D01*
X159889894Y-200477459D01*
X159820117Y-200524825D01*
X159743722Y-200576948D01*
X159672132Y-200626027D01*
X159636273Y-200650741D01*
X159585840Y-200684608D01*
X159543133Y-200711446D01*
X159513726Y-200727857D01*
X159504175Y-200731325D01*
X159490273Y-200721967D01*
X159459505Y-200695843D01*
X159414855Y-200655662D01*
X159359304Y-200604140D01*
X159295837Y-200543989D01*
X159255697Y-200505368D01*
X159185472Y-200436368D01*
X159124780Y-200374652D01*
X159076078Y-200322862D01*
X159041817Y-200283637D01*
X159024453Y-200259616D01*
X159022786Y-200254741D01*
X159030517Y-200236199D01*
X159051882Y-200198707D01*
X159084508Y-200146063D01*
X159126028Y-200082059D01*
X159174070Y-200010496D01*
X159187734Y-199990544D01*
X159237516Y-199918028D01*
X159282177Y-199852741D01*
X159319222Y-199798349D01*
X159346155Y-199758523D01*
X159360475Y-199736930D01*
X159361858Y-199734698D01*
X159359790Y-199717490D01*
X159348807Y-199679656D01*
X159330826Y-199626184D01*
X159307761Y-199562063D01*
X159281527Y-199492283D01*
X159254041Y-199421834D01*
X159227215Y-199355702D01*
X159202965Y-199298879D01*
X159183207Y-199256351D01*
X159169854Y-199233110D01*
X159168906Y-199231996D01*
X159160740Y-199225354D01*
X159146949Y-199218785D01*
X159124506Y-199211611D01*
X159090384Y-199203151D01*
X159041554Y-199192723D01*
X158974990Y-199179650D01*
X158887666Y-199163252D01*
X158776554Y-199142846D01*
X158752497Y-199138459D01*
X158681196Y-199124684D01*
X158619037Y-199111207D01*
X158571513Y-199099330D01*
X158544117Y-199090354D01*
X158540443Y-199088261D01*
X158534391Y-199069708D01*
X158529471Y-199028246D01*
X158525686Y-198968695D01*
X158523042Y-198895876D01*
X158521540Y-198814607D01*
X158521183Y-198729709D01*
X158521978Y-198646000D01*
X158523924Y-198568300D01*
X158527026Y-198501430D01*
X158531289Y-198450208D01*
X158536713Y-198419454D01*
X158539983Y-198413160D01*
X158558187Y-198406810D01*
X158599641Y-198396481D01*
X158660214Y-198383067D01*
X158735776Y-198367465D01*
X158822199Y-198350572D01*
X158869284Y-198341718D01*
X158958621Y-198325018D01*
X159038287Y-198309889D01*
X159104391Y-198297091D01*
X159153036Y-198287382D01*
X159180330Y-198281521D01*
X159184822Y-198280221D01*
X159192415Y-198265572D01*
X159208464Y-198230287D01*
X159230832Y-198179407D01*
X159257377Y-198117973D01*
X159285961Y-198051025D01*
X159314446Y-197983606D01*
X159340690Y-197920756D01*
X159362556Y-197867515D01*
X159377904Y-197828925D01*
X159384594Y-197810028D01*
X159384718Y-197809201D01*
X159377134Y-197794294D01*
X159355873Y-197759988D01*
X159323169Y-197709693D01*
X159281256Y-197646817D01*
X159232371Y-197574774D01*
X159203952Y-197533392D01*
X159152167Y-197457516D01*
X159106173Y-197388627D01*
X159068214Y-197330212D01*
X159040533Y-197285757D01*
X159025374Y-197258743D01*
X159023185Y-197252688D01*
X159032596Y-197238592D01*
X159058614Y-197208498D01*
X159097914Y-197165775D01*
X159147172Y-197113794D01*
X159203068Y-197055928D01*
X159262276Y-196995549D01*
X159321474Y-196936027D01*
X159377335Y-196880734D01*
X159426540Y-196833043D01*
X159465763Y-196796325D01*
X159491682Y-196773951D01*
X159500352Y-196768611D01*
X159514470Y-196776120D01*
X159548238Y-196797213D01*
X159598371Y-196829745D01*
X159661587Y-196871568D01*
X159734602Y-196920534D01*
X159789681Y-196957839D01*
X160067961Y-197147068D01*
X160531890Y-196955821D01*
X160594755Y-196622353D01*
X160657620Y-196288885D01*
X161351705Y-196288885D01*
X161414570Y-196622353D01*
G37*
D14*
%TO.C,C6*%
X240508962Y-196110654D02*
X239086458Y-196110654D01*
X240508962Y-197930654D02*
X239086458Y-197930654D01*
%TO.C,C1*%
X250240000Y-213661234D02*
X250240000Y-213380074D01*
X251260000Y-213661234D02*
X251260000Y-213380074D01*
%TO.C,U4*%
X179997710Y-218460654D02*
X178197710Y-218460654D01*
X179997710Y-218460654D02*
X180797710Y-218460654D01*
X179997710Y-221580654D02*
X179197710Y-221580654D01*
X179997710Y-221580654D02*
X180797710Y-221580654D01*
%TO.C,TP5*%
X141950000Y-199000000D02*
G75*
G02*
X139550000Y-199000000I-1200000J0D01*
G01*
X139550000Y-199000000D02*
G75*
G02*
X141950000Y-199000000I1200000J0D01*
G01*
%TO.C,TPg5*%
X253097710Y-196920654D02*
X254497710Y-196920654D01*
X253097710Y-198320654D02*
X253097710Y-196920654D01*
X254497710Y-196920654D02*
X254497710Y-198320654D01*
X254497710Y-198320654D02*
X253097710Y-198320654D01*
%TO.C,R1*%
X217734968Y-224498154D02*
X217260452Y-224498154D01*
X217734968Y-225543154D02*
X217260452Y-225543154D01*
%TO.C,R8*%
X208087710Y-221747718D02*
X208087710Y-220293590D01*
X209907710Y-221747718D02*
X209907710Y-220293590D01*
%TO.C,TP7*%
X203197710Y-213520654D02*
G75*
G02*
X200797710Y-213520654I-1200000J0D01*
G01*
X200797710Y-213520654D02*
G75*
G02*
X203197710Y-213520654I1200000J0D01*
G01*
%TO.C,TPg6*%
X260700000Y-207020654D02*
G75*
G02*
X257800000Y-207020654I-1450000J0D01*
G01*
X257800000Y-207020654D02*
G75*
G02*
X260700000Y-207020654I1450000J0D01*
G01*
D11*
%TO.C,T1*%
X231696699Y-207974874D02*
X231696699Y-203025126D01*
X234525126Y-200196699D02*
X239474874Y-200196699D01*
X239474874Y-210803301D02*
X234525126Y-210803301D01*
X242303301Y-203025126D02*
X242303301Y-207974874D01*
D17*
X231976699Y-200196699D02*
G75*
G02*
X231416699Y-200196699I-280000J0D01*
G01*
X231416699Y-200196699D02*
G75*
G02*
X231976699Y-200196699I280000J0D01*
G01*
D15*
%TO.C,kibuzzard-6619ED63*%
G36*
X149540265Y-207383557D02*
G01*
X149545980Y-207383557D01*
X149519310Y-207113046D01*
X149519310Y-206368191D01*
X149753625Y-206368191D01*
X149753625Y-207663591D01*
X149456445Y-207663591D01*
X148991625Y-206648226D01*
X148985910Y-206648226D01*
X149012580Y-206918736D01*
X149012580Y-207663591D01*
X148778265Y-207663591D01*
X148778265Y-206368191D01*
X149075445Y-206368191D01*
X149540265Y-207383557D01*
G37*
G36*
X147894345Y-207233062D02*
G01*
X147916253Y-207374984D01*
X147988643Y-207446421D01*
X148132470Y-207467376D01*
X148264867Y-207446421D01*
X148331543Y-207375937D01*
X148351545Y-207234967D01*
X148351545Y-206368191D01*
X148595385Y-206368191D01*
X148595385Y-207240682D01*
X148584908Y-207394034D01*
X148553475Y-207507382D01*
X148497278Y-207587391D01*
X148412505Y-207640732D01*
X148292966Y-207670735D01*
X148132470Y-207680737D01*
X147965306Y-207670735D01*
X147841005Y-207640732D01*
X147752899Y-207587391D01*
X147694320Y-207507382D01*
X147661459Y-207394510D01*
X147650505Y-207242586D01*
X147650505Y-206368191D01*
X147894345Y-206368191D01*
X147894345Y-207233062D01*
G37*
G36*
X147010108Y-206364593D02*
G01*
X147118375Y-206376658D01*
X147205688Y-206396766D01*
X147304271Y-206444391D01*
X147369518Y-206514876D01*
X147405951Y-206612984D01*
X147418095Y-206743476D01*
X147398093Y-206896829D01*
X147330465Y-206982554D01*
X147195210Y-207025416D01*
X147195210Y-207042562D01*
X147314273Y-207101617D01*
X147351182Y-207164005D01*
X147383805Y-207259731D01*
X147492390Y-207663591D01*
X147231405Y-207663591D01*
X147141870Y-207276876D01*
X147073290Y-207163529D01*
X147029475Y-207148976D01*
X147006615Y-207141383D01*
X146905650Y-207134001D01*
X146783730Y-207134001D01*
X146783730Y-207663591D01*
X146541795Y-207663591D01*
X146541795Y-206573931D01*
X146783730Y-206573931D01*
X146783730Y-206922546D01*
X147029475Y-206922546D01*
X147146633Y-206881589D01*
X147178065Y-206733951D01*
X147145680Y-206616794D01*
X147025665Y-206577741D01*
X146933273Y-206573455D01*
X146865645Y-206572026D01*
X146783730Y-206573931D01*
X146541795Y-206573931D01*
X146541795Y-206370096D01*
X146768490Y-206362476D01*
X146880885Y-206360571D01*
X147010108Y-206364593D01*
G37*
D14*
%TO.C,C12*%
X171138290Y-216510654D02*
X170857130Y-216510654D01*
X171138290Y-217530654D02*
X170857130Y-217530654D01*
%TO.C,C10*%
X161611257Y-206110654D02*
X160188753Y-206110654D01*
X161611257Y-207930654D02*
X160188753Y-207930654D01*
%TO.C,D2*%
X216365000Y-219420654D02*
X216365000Y-223305654D01*
X216365000Y-223305654D02*
X218635000Y-223305654D01*
X218635000Y-223305654D02*
X218635000Y-219420654D01*
%TO.C,Rg3*%
X204927064Y-203160654D02*
X201872936Y-203160654D01*
X204927064Y-205880654D02*
X201872936Y-205880654D01*
%TO.C,R10*%
X212087710Y-204793590D02*
X212087710Y-206247718D01*
X213907710Y-204793590D02*
X213907710Y-206247718D01*
%TO.C,TP2*%
X141950000Y-203000000D02*
G75*
G02*
X139550000Y-203000000I-1200000J0D01*
G01*
X139550000Y-203000000D02*
G75*
G02*
X141950000Y-203000000I1200000J0D01*
G01*
%TO.C,R2*%
X252575210Y-207257912D02*
X252575210Y-206783396D01*
X253620210Y-207257912D02*
X253620210Y-206783396D01*
D11*
%TO.C,U1*%
X247825000Y-205345654D02*
X248125000Y-205345654D01*
X247825000Y-208695654D02*
X247825000Y-205345654D01*
X247825000Y-208695654D02*
X248050000Y-208695654D01*
X248050000Y-208695654D02*
X248050000Y-209920654D01*
X251175000Y-205345654D02*
X250875000Y-205345654D01*
X251175000Y-208695654D02*
X250875000Y-208695654D01*
X251175000Y-208695654D02*
X251175000Y-205345654D01*
D14*
%TO.C,Rg1*%
X205024774Y-216160654D02*
X201970646Y-216160654D01*
X205024774Y-218880654D02*
X201970646Y-218880654D01*
%TO.C,TPg3*%
X216800000Y-208300000D02*
X218200000Y-208300000D01*
X216800000Y-209700000D02*
X216800000Y-208300000D01*
X218200000Y-208300000D02*
X218200000Y-209700000D01*
X218200000Y-209700000D02*
X216800000Y-209700000D01*
%TO.C,C14*%
X208087710Y-204809402D02*
X208087710Y-206231906D01*
X209907710Y-204809402D02*
X209907710Y-206231906D01*
%TO.C,D7*%
X150897710Y-212155654D02*
X154782710Y-212155654D01*
X154782710Y-209885654D02*
X150897710Y-209885654D01*
X154782710Y-212155654D02*
X154782710Y-209885654D01*
%TO.C,TP4*%
X218700000Y-213500000D02*
G75*
G02*
X216300000Y-213500000I-1200000J0D01*
G01*
X216300000Y-213500000D02*
G75*
G02*
X218700000Y-213500000I1200000J0D01*
G01*
%TO.C,C2*%
X244587710Y-212809402D02*
X244587710Y-214231906D01*
X246407710Y-212809402D02*
X246407710Y-214231906D01*
D15*
%TO.C,kibuzzard-66C559FC*%
G36*
X244376623Y-187411713D02*
G01*
X244089465Y-187411713D01*
X244089465Y-187147078D01*
X244376623Y-187147078D01*
X244376623Y-187411713D01*
G37*
G36*
X253385490Y-187411713D02*
G01*
X253098332Y-187411713D01*
X253098332Y-187147078D01*
X253385490Y-187147078D01*
X253385490Y-187411713D01*
G37*
G36*
X249994852Y-185852138D02*
G01*
X250010092Y-185852138D01*
X250282507Y-185137763D01*
X250524442Y-185137763D01*
X250114867Y-186132173D01*
X249890077Y-186132173D01*
X249480502Y-185137763D01*
X249722437Y-185137763D01*
X249994852Y-185852138D01*
G37*
G36*
X245426662Y-185869283D02*
G01*
X245436187Y-185869283D01*
X245689552Y-185137763D01*
X245929582Y-185137763D01*
X245396182Y-186541748D01*
X245156152Y-186541748D01*
X245308552Y-186126458D01*
X244933267Y-185137763D01*
X245169487Y-185137763D01*
X245426662Y-185869283D01*
G37*
G36*
X258918436Y-188398935D02*
G01*
X258914682Y-188427088D01*
X258901544Y-188462748D01*
X258702598Y-188871901D01*
X258479253Y-188871901D01*
X258618140Y-188436472D01*
X258621894Y-188406442D01*
X258621894Y-188231896D01*
X258918436Y-188231896D01*
X258918436Y-188398935D01*
G37*
G36*
X240991822Y-185934053D02*
G01*
X241317577Y-185934053D01*
X241317577Y-186132173D01*
X240414607Y-186132173D01*
X240414607Y-185934053D01*
X240763222Y-185934053D01*
X240763222Y-184943453D01*
X240433657Y-184943453D01*
X240433657Y-184745333D01*
X240991822Y-184745333D01*
X240991822Y-185934053D01*
G37*
G36*
X244369115Y-188320107D02*
G01*
X244682549Y-188320107D01*
X244682549Y-188513423D01*
X243817322Y-188513423D01*
X243817322Y-188320107D01*
X244143894Y-188320107D01*
X244143894Y-187727024D01*
X243836091Y-187727024D01*
X243836091Y-187533708D01*
X244369115Y-187533708D01*
X244369115Y-188320107D01*
G37*
G36*
X244420822Y-185934053D02*
G01*
X244746577Y-185934053D01*
X244746577Y-186132173D01*
X243843607Y-186132173D01*
X243843607Y-185934053D01*
X244192222Y-185934053D01*
X244192222Y-184943453D01*
X243862657Y-184943453D01*
X243862657Y-184745333D01*
X244420822Y-184745333D01*
X244420822Y-185934053D01*
G37*
G36*
X245468948Y-188318231D02*
G01*
X245789889Y-188318231D01*
X245789889Y-188513423D01*
X244900263Y-188513423D01*
X244900263Y-188318231D01*
X245243726Y-188318231D01*
X245243726Y-187342270D01*
X244919032Y-187342270D01*
X244919032Y-187147078D01*
X245468948Y-187147078D01*
X245468948Y-188318231D01*
G37*
G36*
X247596254Y-190702323D02*
G01*
X247912521Y-190702323D01*
X247912521Y-190894673D01*
X247035851Y-190894673D01*
X247035851Y-190702323D01*
X247374312Y-190702323D01*
X247374312Y-189740576D01*
X247054346Y-189740576D01*
X247054346Y-189548226D01*
X247596254Y-189548226D01*
X247596254Y-190702323D01*
G37*
G36*
X252225598Y-188318231D02*
G01*
X252546539Y-188318231D01*
X252546539Y-188513423D01*
X251656913Y-188513423D01*
X251656913Y-188318231D01*
X252000376Y-188318231D01*
X252000376Y-187342270D01*
X251675682Y-187342270D01*
X251675682Y-187147078D01*
X252225598Y-187147078D01*
X252225598Y-188318231D01*
G37*
G36*
X253377982Y-188320107D02*
G01*
X253691416Y-188320107D01*
X253691416Y-188513423D01*
X252826189Y-188513423D01*
X252826189Y-188320107D01*
X253152761Y-188320107D01*
X253152761Y-187727024D01*
X252844958Y-187727024D01*
X252844958Y-187533708D01*
X253377982Y-187533708D01*
X253377982Y-188320107D01*
G37*
G36*
X256662353Y-185574008D02*
G01*
X257083358Y-185137763D01*
X257357678Y-185137763D01*
X256921433Y-185581628D01*
X257401493Y-186132173D01*
X257110028Y-186132173D01*
X256662353Y-185591153D01*
X256662353Y-186132173D01*
X256433753Y-186132173D01*
X256433753Y-184745333D01*
X256662353Y-184745333D01*
X256662353Y-185574008D01*
G37*
G36*
X250112268Y-188237526D02*
G01*
X250117899Y-188237526D01*
X250091623Y-187971014D01*
X250091623Y-187237167D01*
X250322475Y-187237167D01*
X250322475Y-188513423D01*
X250029687Y-188513423D01*
X249571736Y-187513063D01*
X249566106Y-187513063D01*
X249592381Y-187779575D01*
X249592381Y-188513423D01*
X249361529Y-188513423D01*
X249361529Y-187237167D01*
X249654317Y-187237167D01*
X250112268Y-188237526D01*
G37*
G36*
X242881582Y-185903573D02*
G01*
X242885392Y-185903573D01*
X243024457Y-185137763D01*
X243266392Y-185137763D01*
X243403552Y-185903573D01*
X243407362Y-185903573D01*
X243491182Y-185135858D01*
X243696922Y-185135858D01*
X243540712Y-186132173D01*
X243272107Y-186132173D01*
X243150187Y-185330168D01*
X243140662Y-185330168D01*
X243016837Y-186132173D01*
X242748232Y-186132173D01*
X242592022Y-185135858D01*
X242797762Y-185135858D01*
X242881582Y-185903573D01*
G37*
G36*
X254396919Y-189920903D02*
G01*
X254511589Y-189923678D01*
X254511589Y-190145619D01*
X254398769Y-190143770D01*
X254271152Y-190146082D01*
X254176827Y-190153017D01*
X254097298Y-190201105D01*
X254027016Y-190303753D01*
X253999273Y-190419347D01*
X253999273Y-190894673D01*
X253777332Y-190894673D01*
X253777332Y-189929226D01*
X253980778Y-189929226D01*
X253971531Y-190127124D01*
X253991875Y-190127124D01*
X254050598Y-190031874D01*
X254089900Y-189975464D01*
X254152783Y-189929226D01*
X254274851Y-189919979D01*
X254396919Y-189920903D01*
G37*
G36*
X241942288Y-189929226D02*
G01*
X242302943Y-189929226D01*
X242302943Y-190119726D01*
X241942288Y-190119726D01*
X241942288Y-190578406D01*
X241952460Y-190665333D01*
X241996849Y-190706022D01*
X242101346Y-190718969D01*
X242198908Y-190713420D01*
X242332536Y-190696775D01*
X242332536Y-190890974D01*
X242162843Y-190909006D01*
X242038463Y-190915017D01*
X241921481Y-190906232D01*
X241836866Y-190879877D01*
X241744390Y-190775379D01*
X241726357Y-190693307D01*
X241720346Y-190585804D01*
X241720346Y-190119726D01*
X241481759Y-190119726D01*
X241526147Y-189929226D01*
X241727744Y-189929226D01*
X241727744Y-189733178D01*
X241942288Y-189642551D01*
X241942288Y-189929226D01*
G37*
G36*
X243109751Y-187533708D02*
G01*
X243475736Y-187533708D01*
X243475736Y-187727024D01*
X243109751Y-187727024D01*
X243109751Y-188192482D01*
X243120073Y-188280694D01*
X243165118Y-188321984D01*
X243271160Y-188335122D01*
X243370163Y-188329492D01*
X243505766Y-188312600D01*
X243505766Y-188509669D01*
X243333565Y-188527968D01*
X243207347Y-188534068D01*
X243088636Y-188525153D01*
X243002771Y-188498408D01*
X242908928Y-188392366D01*
X242890629Y-188309081D01*
X242884529Y-188199989D01*
X242884529Y-187727024D01*
X242642416Y-187727024D01*
X242687460Y-187533708D01*
X242892037Y-187533708D01*
X242892037Y-187334763D01*
X243109751Y-187242797D01*
X243109751Y-187533708D01*
G37*
G36*
X245183461Y-192324334D02*
G01*
X245538939Y-192324334D01*
X245538939Y-192512100D01*
X245183461Y-192512100D01*
X245183461Y-192964195D01*
X245193487Y-193049875D01*
X245237238Y-193089980D01*
X245340236Y-193102741D01*
X245436397Y-193097272D01*
X245568106Y-193080865D01*
X245568106Y-193272277D01*
X245400849Y-193290051D01*
X245278255Y-193295975D01*
X245162952Y-193287316D01*
X245079551Y-193261339D01*
X244988403Y-193158341D01*
X244970629Y-193077447D01*
X244964705Y-192971487D01*
X244964705Y-192512100D01*
X244729542Y-192512100D01*
X244773293Y-192324334D01*
X244971996Y-192324334D01*
X244971996Y-192131100D01*
X245183461Y-192041774D01*
X245183461Y-192324334D01*
G37*
G36*
X248490672Y-188089255D02*
G01*
X248512256Y-188229080D01*
X248583576Y-188299462D01*
X248725278Y-188320107D01*
X248855719Y-188299462D01*
X248921408Y-188230019D01*
X248941115Y-188091132D01*
X248941115Y-187237167D01*
X249181352Y-187237167D01*
X249181352Y-188096763D01*
X249171029Y-188247849D01*
X249140061Y-188359521D01*
X249084694Y-188438349D01*
X249001174Y-188490901D01*
X248883402Y-188520461D01*
X248725278Y-188530314D01*
X248560585Y-188520461D01*
X248438120Y-188490901D01*
X248351316Y-188438349D01*
X248293603Y-188359521D01*
X248261227Y-188248318D01*
X248250436Y-188098639D01*
X248250436Y-187237167D01*
X248490672Y-187237167D01*
X248490672Y-188089255D01*
G37*
G36*
X251746140Y-192324334D02*
G01*
X252101618Y-192324334D01*
X252101618Y-192512100D01*
X251746140Y-192512100D01*
X251746140Y-192964195D01*
X251756166Y-193049875D01*
X251799917Y-193089980D01*
X251902915Y-193102741D01*
X251999077Y-193097272D01*
X252130786Y-193080865D01*
X252130786Y-193272277D01*
X251963529Y-193290051D01*
X251840934Y-193295975D01*
X251725632Y-193287316D01*
X251642231Y-193261339D01*
X251551083Y-193158341D01*
X251533309Y-193077447D01*
X251527384Y-192971487D01*
X251527384Y-192512100D01*
X251292221Y-192512100D01*
X251335972Y-192324334D01*
X251534676Y-192324334D01*
X251534676Y-192131100D01*
X251746140Y-192041774D01*
X251746140Y-192324334D01*
G37*
G36*
X252839920Y-192324334D02*
G01*
X253195398Y-192324334D01*
X253195398Y-192512100D01*
X252839920Y-192512100D01*
X252839920Y-192964195D01*
X252849946Y-193049875D01*
X252893697Y-193089980D01*
X252996695Y-193102741D01*
X253092856Y-193097272D01*
X253224566Y-193080865D01*
X253224566Y-193272277D01*
X253057309Y-193290051D01*
X252934714Y-193295975D01*
X252819411Y-193287316D01*
X252736011Y-193261339D01*
X252644862Y-193158341D01*
X252627089Y-193077447D01*
X252621164Y-192971487D01*
X252621164Y-192512100D01*
X252386001Y-192512100D01*
X252429752Y-192324334D01*
X252628456Y-192324334D01*
X252628456Y-192131100D01*
X252839920Y-192041774D01*
X252839920Y-192324334D01*
G37*
G36*
X256623051Y-187533708D02*
G01*
X256989037Y-187533708D01*
X256989037Y-187727024D01*
X256623051Y-187727024D01*
X256623051Y-188192482D01*
X256633374Y-188280694D01*
X256678418Y-188321984D01*
X256784460Y-188335122D01*
X256883464Y-188329492D01*
X257019066Y-188312600D01*
X257019066Y-188509669D01*
X256846865Y-188527968D01*
X256720647Y-188534068D01*
X256601937Y-188525153D01*
X256516071Y-188498408D01*
X256422229Y-188392366D01*
X256403929Y-188309081D01*
X256397830Y-188199989D01*
X256397830Y-187727024D01*
X256155716Y-187727024D01*
X256200761Y-187533708D01*
X256405337Y-187533708D01*
X256405337Y-187334763D01*
X256623051Y-187242797D01*
X256623051Y-187533708D01*
G37*
G36*
X240622928Y-188156822D02*
G01*
X240657650Y-188297585D01*
X240789968Y-188335122D01*
X240941992Y-188308846D01*
X241017066Y-188219696D01*
X241033958Y-188143449D01*
X241039588Y-188040457D01*
X241039588Y-187533708D01*
X241268564Y-187533708D01*
X241268564Y-188513423D01*
X241039588Y-188513423D01*
X241039588Y-188376413D01*
X241024573Y-188376413D01*
X240972256Y-188450783D01*
X240912901Y-188497469D01*
X240834308Y-188522103D01*
X240724278Y-188530314D01*
X240609556Y-188521868D01*
X240524394Y-188496531D01*
X240464100Y-188451018D01*
X240423982Y-188382043D01*
X240401460Y-188284447D01*
X240393953Y-188153068D01*
X240393953Y-187533708D01*
X240622928Y-187533708D01*
X240622928Y-188156822D01*
G37*
G36*
X245447581Y-189913736D02*
G01*
X245539594Y-189939398D01*
X245604558Y-189985174D01*
X245647790Y-190054068D01*
X245672065Y-190151861D01*
X245680157Y-190284333D01*
X245680157Y-190894673D01*
X245454516Y-190894673D01*
X245454516Y-190280634D01*
X245416601Y-190141920D01*
X245275113Y-190104930D01*
X245135475Y-190130823D01*
X245065193Y-190218675D01*
X245049241Y-190293349D01*
X245043924Y-190393454D01*
X245043924Y-190894673D01*
X244818283Y-190894673D01*
X244818283Y-189929226D01*
X245043924Y-189929226D01*
X245043924Y-190062391D01*
X245058720Y-190062391D01*
X245111431Y-189986099D01*
X245165992Y-189938474D01*
X245233037Y-189913505D01*
X245323201Y-189905182D01*
X245447581Y-189913736D01*
G37*
G36*
X246053016Y-192451942D02*
G01*
X246067599Y-192451942D01*
X246115908Y-192379479D01*
X246169685Y-192333449D01*
X246237135Y-192308839D01*
X246326461Y-192300636D01*
X246450422Y-192308839D01*
X246541571Y-192333449D01*
X246605602Y-192377884D01*
X246648214Y-192445561D01*
X246672141Y-192541495D01*
X246680116Y-192670698D01*
X246680116Y-193275923D01*
X246457714Y-193275923D01*
X246457714Y-192667052D01*
X246420343Y-192527595D01*
X246279063Y-192490224D01*
X246141429Y-192515746D01*
X246073068Y-192603248D01*
X246058029Y-192678445D01*
X246053016Y-192780076D01*
X246053016Y-193275923D01*
X245830614Y-193275923D01*
X245830614Y-191948803D01*
X246053016Y-191948803D01*
X246053016Y-192451942D01*
G37*
G36*
X249886415Y-189913736D02*
G01*
X249978429Y-189939398D01*
X250043393Y-189985174D01*
X250086625Y-190054068D01*
X250110900Y-190151861D01*
X250118992Y-190284333D01*
X250118992Y-190894673D01*
X249893351Y-190894673D01*
X249893351Y-190280634D01*
X249855436Y-190141920D01*
X249713948Y-190104930D01*
X249574310Y-190130823D01*
X249504028Y-190218675D01*
X249488076Y-190293349D01*
X249482759Y-190393454D01*
X249482759Y-190894673D01*
X249257118Y-190894673D01*
X249257118Y-189929226D01*
X249482759Y-189929226D01*
X249482759Y-190062391D01*
X249497555Y-190062391D01*
X249550266Y-189986099D01*
X249604827Y-189938474D01*
X249671872Y-189913505D01*
X249762036Y-189905182D01*
X249886415Y-189913736D01*
G37*
G36*
X250424489Y-192929559D02*
G01*
X250458214Y-193066282D01*
X250586733Y-193102741D01*
X250734394Y-193077219D01*
X250807312Y-192990628D01*
X250823719Y-192916570D01*
X250829188Y-192816535D01*
X250829188Y-192324334D01*
X251051590Y-192324334D01*
X251051590Y-193275923D01*
X250829188Y-193275923D01*
X250829188Y-193142846D01*
X250814604Y-193142846D01*
X250763789Y-193215081D01*
X250706138Y-193260427D01*
X250629801Y-193284354D01*
X250522929Y-193292329D01*
X250411501Y-193284126D01*
X250328784Y-193259516D01*
X250270221Y-193215309D01*
X250231255Y-193148315D01*
X250209379Y-193053521D01*
X250202087Y-192925913D01*
X250202087Y-192324334D01*
X250424489Y-192324334D01*
X250424489Y-192929559D01*
G37*
G36*
X255201117Y-192309067D02*
G01*
X255291810Y-192334360D01*
X255355842Y-192379479D01*
X255398453Y-192447384D01*
X255422380Y-192543774D01*
X255430355Y-192674344D01*
X255430355Y-193275923D01*
X255207953Y-193275923D01*
X255207953Y-192670698D01*
X255170583Y-192533975D01*
X255031126Y-192497516D01*
X254893492Y-192523038D01*
X254824219Y-192609628D01*
X254808496Y-192683231D01*
X254803255Y-192781899D01*
X254803255Y-193275923D01*
X254580853Y-193275923D01*
X254580853Y-192324334D01*
X254803255Y-192324334D01*
X254803255Y-192455588D01*
X254817839Y-192455588D01*
X254869793Y-192380390D01*
X254923571Y-192333449D01*
X254989653Y-192308839D01*
X255078523Y-192300636D01*
X255201117Y-192309067D01*
G37*
G36*
X242162412Y-187517990D02*
G01*
X242255785Y-187544031D01*
X242321710Y-187590483D01*
X242365581Y-187660396D01*
X242390214Y-187759634D01*
X242398426Y-187894063D01*
X242398426Y-188513423D01*
X242169450Y-188513423D01*
X242169450Y-187890309D01*
X242130975Y-187749546D01*
X242075843Y-187721393D01*
X241987396Y-187712009D01*
X241845694Y-187738285D01*
X241774374Y-187827435D01*
X241758186Y-187903213D01*
X241752790Y-188004797D01*
X241752790Y-188513423D01*
X241523815Y-188513423D01*
X241523815Y-187533708D01*
X241752790Y-187533708D01*
X241752790Y-187668841D01*
X241767805Y-187668841D01*
X241821295Y-187591421D01*
X241876662Y-187543093D01*
X241944698Y-187517755D01*
X242036194Y-187509309D01*
X242162412Y-187517990D01*
G37*
G36*
X242824506Y-190058692D02*
G01*
X242839303Y-190058692D01*
X242888315Y-189985174D01*
X242942875Y-189938474D01*
X243011307Y-189913505D01*
X243101934Y-189905182D01*
X243227701Y-189913505D01*
X243320176Y-189938474D01*
X243385141Y-189983556D01*
X243428373Y-190052219D01*
X243452648Y-190149550D01*
X243460739Y-190280634D01*
X243460739Y-190894673D01*
X243235099Y-190894673D01*
X243235099Y-190276935D01*
X243197184Y-190135447D01*
X243142392Y-190107011D01*
X243053846Y-190097532D01*
X242914208Y-190123425D01*
X242844851Y-190212202D01*
X242829593Y-190288494D01*
X242824506Y-190391605D01*
X242824506Y-190894673D01*
X242598866Y-190894673D01*
X242598866Y-189548226D01*
X242824506Y-189548226D01*
X242824506Y-190058692D01*
G37*
G36*
X252494689Y-185121808D02*
G01*
X252589462Y-185148240D01*
X252656376Y-185195389D01*
X252700905Y-185266350D01*
X252725908Y-185367077D01*
X252734243Y-185503523D01*
X252734243Y-186132173D01*
X252501833Y-186132173D01*
X252501833Y-185499713D01*
X252492069Y-185411606D01*
X252462780Y-185356838D01*
X252406821Y-185328263D01*
X252317048Y-185318738D01*
X252173220Y-185345408D01*
X252100830Y-185435895D01*
X252084399Y-185512810D01*
X252078923Y-185615918D01*
X252078923Y-186132173D01*
X251846513Y-186132173D01*
X251846513Y-185137763D01*
X252078923Y-185137763D01*
X252078923Y-185274923D01*
X252094163Y-185274923D01*
X252148455Y-185196341D01*
X252204653Y-185147288D01*
X252273709Y-185121570D01*
X252366577Y-185112998D01*
X252494689Y-185121808D01*
G37*
G36*
X255266091Y-187665088D02*
G01*
X255281106Y-187665088D01*
X255330842Y-187590483D01*
X255386209Y-187543093D01*
X255455652Y-187517755D01*
X255547618Y-187509309D01*
X255675243Y-187517755D01*
X255769086Y-187543093D01*
X255835010Y-187588841D01*
X255878881Y-187658519D01*
X255903515Y-187757288D01*
X255911726Y-187890309D01*
X255911726Y-188513423D01*
X255682751Y-188513423D01*
X255682751Y-187886556D01*
X255673132Y-187798109D01*
X255644275Y-187742977D01*
X255588674Y-187714120D01*
X255498820Y-187704502D01*
X255357118Y-187730777D01*
X255286736Y-187820866D01*
X255271252Y-187898286D01*
X255266091Y-188002920D01*
X255266091Y-188513423D01*
X255037115Y-188513423D01*
X255037115Y-187147078D01*
X255266091Y-187147078D01*
X255266091Y-187665088D01*
G37*
G36*
X258209689Y-185121808D02*
G01*
X258304463Y-185148240D01*
X258371376Y-185195389D01*
X258415905Y-185266350D01*
X258440908Y-185367077D01*
X258449243Y-185503523D01*
X258449243Y-186132173D01*
X258216833Y-186132173D01*
X258216833Y-185499713D01*
X258207069Y-185411606D01*
X258177780Y-185356838D01*
X258121821Y-185328263D01*
X258032048Y-185318738D01*
X257888220Y-185345408D01*
X257815830Y-185435895D01*
X257799399Y-185512810D01*
X257793923Y-185615918D01*
X257793923Y-186132173D01*
X257561513Y-186132173D01*
X257561513Y-185137763D01*
X257793923Y-185137763D01*
X257793923Y-185274923D01*
X257809163Y-185274923D01*
X257863455Y-185196341D01*
X257919653Y-185147288D01*
X257988709Y-185121570D01*
X258081578Y-185112998D01*
X258209689Y-185121808D01*
G37*
G36*
X247619502Y-187233621D02*
G01*
X247726170Y-187245508D01*
X247812192Y-187265319D01*
X247909319Y-187312240D01*
X247973601Y-187381684D01*
X248009495Y-187478341D01*
X248021460Y-187606905D01*
X248001753Y-187757992D01*
X247935125Y-187842450D01*
X247801869Y-187884679D01*
X247801869Y-187901570D01*
X247919172Y-187959753D01*
X247955536Y-188021219D01*
X247987677Y-188115531D01*
X248094657Y-188513423D01*
X247837529Y-188513423D01*
X247749317Y-188132423D01*
X247681751Y-188020750D01*
X247638583Y-188006412D01*
X247616061Y-187998932D01*
X247516588Y-187991659D01*
X247396470Y-187991659D01*
X247396470Y-188513423D01*
X247158110Y-188513423D01*
X247158110Y-187439866D01*
X247396470Y-187439866D01*
X247396470Y-187783329D01*
X247638583Y-187783329D01*
X247754009Y-187742977D01*
X247784977Y-187597521D01*
X247753071Y-187482095D01*
X247634830Y-187443620D01*
X247477174Y-187437989D01*
X247396470Y-187439866D01*
X247158110Y-187439866D01*
X247158110Y-187239043D01*
X247381455Y-187231536D01*
X247492189Y-187229659D01*
X247619502Y-187233621D01*
G37*
G36*
X244290709Y-189916742D02*
G01*
X244403992Y-189951420D01*
X244484908Y-190013379D01*
X244539006Y-190106779D01*
X244569523Y-190238095D01*
X244579696Y-190413799D01*
X244577846Y-190485930D01*
X244357754Y-190485930D01*
X243921269Y-190485930D01*
X243950861Y-190628343D01*
X244020218Y-190699549D01*
X244152458Y-190720818D01*
X244273601Y-190694925D01*
X244333710Y-190598750D01*
X244563050Y-190598750D01*
X244538544Y-190706947D01*
X244502016Y-190787401D01*
X244449767Y-190844505D01*
X244378099Y-190882651D01*
X244281462Y-190904151D01*
X244154307Y-190911318D01*
X243993862Y-190899990D01*
X243875031Y-190866005D01*
X243791109Y-190804740D01*
X243735392Y-190711571D01*
X243704182Y-190579793D01*
X243693778Y-190402702D01*
X243699814Y-190297279D01*
X243923118Y-190297279D01*
X244357754Y-190297279D01*
X244330936Y-190174287D01*
X244265278Y-190113253D01*
X244139511Y-190095682D01*
X244019293Y-190113253D01*
X243954560Y-190174287D01*
X243923118Y-190297279D01*
X243699814Y-190297279D01*
X243703719Y-190229079D01*
X243733543Y-190100306D01*
X243787179Y-190009449D01*
X243868557Y-189949571D01*
X243983921Y-189916279D01*
X244139511Y-189905182D01*
X244290709Y-189916742D01*
G37*
G36*
X247498172Y-192312029D02*
G01*
X247609829Y-192346210D01*
X247689584Y-192407279D01*
X247742906Y-192499339D01*
X247772984Y-192628770D01*
X247783011Y-192801951D01*
X247781188Y-192873047D01*
X247564255Y-192873047D01*
X247134035Y-192873047D01*
X247163202Y-193013416D01*
X247231563Y-193083600D01*
X247361906Y-193104564D01*
X247481310Y-193079042D01*
X247540556Y-192984248D01*
X247766604Y-192984248D01*
X247742450Y-193090892D01*
X247706446Y-193170191D01*
X247654947Y-193226475D01*
X247584307Y-193264073D01*
X247489057Y-193285265D01*
X247363728Y-193292329D01*
X247205586Y-193281164D01*
X247088461Y-193247667D01*
X247005743Y-193187281D01*
X246950827Y-193095449D01*
X246920064Y-192965563D01*
X246909810Y-192791014D01*
X246915759Y-192687105D01*
X247135858Y-192687105D01*
X247564255Y-192687105D01*
X247537822Y-192565877D01*
X247473106Y-192505719D01*
X247349145Y-192488401D01*
X247230652Y-192505719D01*
X247166848Y-192565877D01*
X247135858Y-192687105D01*
X246915759Y-192687105D01*
X246919608Y-192619883D01*
X246949004Y-192492959D01*
X247001870Y-192403405D01*
X247082080Y-192344387D01*
X247195788Y-192311573D01*
X247349145Y-192300636D01*
X247498172Y-192312029D01*
G37*
G36*
X248736711Y-189916511D02*
G01*
X248854849Y-189950495D01*
X248938077Y-190011298D01*
X248993562Y-190103080D01*
X249024773Y-190233471D01*
X249035176Y-190410100D01*
X249024773Y-190585110D01*
X248993562Y-190714345D01*
X248937846Y-190805434D01*
X248853924Y-190866005D01*
X248735555Y-190899990D01*
X248576497Y-190911318D01*
X248417439Y-190899990D01*
X248299070Y-190866005D01*
X248215148Y-190805434D01*
X248159431Y-190714345D01*
X248128221Y-190585110D01*
X248117817Y-190410100D01*
X248343458Y-190410100D01*
X248348775Y-190518065D01*
X248364727Y-190597826D01*
X248435009Y-190691226D01*
X248576497Y-190718969D01*
X248717985Y-190691226D01*
X248788266Y-190597826D01*
X248804218Y-190518065D01*
X248809536Y-190410100D01*
X248804218Y-190300516D01*
X248788266Y-190219600D01*
X248717985Y-190124350D01*
X248576497Y-190095682D01*
X248435009Y-190124350D01*
X248364727Y-190219600D01*
X248348775Y-190300516D01*
X248343458Y-190410100D01*
X248117817Y-190410100D01*
X248128221Y-190233471D01*
X248159431Y-190103080D01*
X248214917Y-190011298D01*
X248298145Y-189950495D01*
X248416283Y-189916511D01*
X248576497Y-189905182D01*
X248736711Y-189916511D01*
G37*
G36*
X253183175Y-189920210D02*
G01*
X253290909Y-189954195D01*
X253366971Y-190014997D01*
X253417601Y-190106779D01*
X253446037Y-190236708D01*
X253455516Y-190411949D01*
X253446269Y-190585573D01*
X253418526Y-190714345D01*
X253368820Y-190805434D01*
X253293684Y-190866005D01*
X253187105Y-190899990D01*
X253043074Y-190911318D01*
X252989439Y-190902815D01*
X252891414Y-190887275D01*
X252791540Y-190796648D01*
X252776744Y-190796648D01*
X252776744Y-191292318D01*
X252552953Y-191292318D01*
X252552953Y-190411949D01*
X252773045Y-190411949D01*
X252777900Y-190518528D01*
X252792465Y-190597826D01*
X252858123Y-190691226D01*
X252989439Y-190718969D01*
X253134625Y-190691226D01*
X253206756Y-190597826D01*
X253222709Y-190518528D01*
X253228026Y-190411949D01*
X253222709Y-190303753D01*
X253206756Y-190223299D01*
X253134625Y-190128974D01*
X252989439Y-190101231D01*
X252858123Y-190128974D01*
X252792465Y-190223299D01*
X252777900Y-190303753D01*
X252773045Y-190411949D01*
X252552953Y-190411949D01*
X252552953Y-189929226D01*
X252776744Y-189929226D01*
X252776744Y-190023551D01*
X252791540Y-190023551D01*
X252902511Y-189932925D01*
X253037526Y-189908881D01*
X253183175Y-189920210D01*
G37*
G36*
X253607209Y-185121094D02*
G01*
X253715318Y-185145383D01*
X253792232Y-185188960D01*
X253843905Y-185254920D01*
X253874147Y-185348027D01*
X253886768Y-185473043D01*
X253656263Y-185473043D01*
X253603875Y-185346360D01*
X253473383Y-185313023D01*
X253384086Y-185320405D01*
X253318125Y-185342550D01*
X253240973Y-185441610D01*
X253223828Y-185525668D01*
X253218113Y-185638778D01*
X253223828Y-185746886D01*
X253240973Y-185827373D01*
X253319077Y-185921670D01*
X253385753Y-185942387D01*
X253475288Y-185949293D01*
X253601970Y-185919765D01*
X253658168Y-185810228D01*
X253886768Y-185810228D01*
X253874147Y-185928338D01*
X253843905Y-186015968D01*
X253792470Y-186077880D01*
X253716270Y-186118838D01*
X253609352Y-186141698D01*
X253465763Y-186149318D01*
X253298599Y-186137888D01*
X253174298Y-186103598D01*
X253086429Y-186041923D01*
X253028565Y-185948340D01*
X253004752Y-185865049D01*
X252990465Y-185761227D01*
X252985703Y-185636873D01*
X252990465Y-185510084D01*
X253004752Y-185404039D01*
X253028565Y-185318738D01*
X253086191Y-185222773D01*
X253173345Y-185159670D01*
X253296456Y-185124666D01*
X253461953Y-185112998D01*
X253607209Y-185121094D01*
G37*
G36*
X254067916Y-192311801D02*
G01*
X254184358Y-192345298D01*
X254266391Y-192405228D01*
X254321080Y-192495693D01*
X254351843Y-192624212D01*
X254362097Y-192798305D01*
X254351843Y-192970804D01*
X254321080Y-193098183D01*
X254266163Y-193187965D01*
X254183446Y-193247667D01*
X254066776Y-193281164D01*
X253910001Y-193292329D01*
X253753226Y-193281164D01*
X253636556Y-193247667D01*
X253553839Y-193187965D01*
X253498922Y-193098183D01*
X253468160Y-192970804D01*
X253457906Y-192798305D01*
X253680307Y-192798305D01*
X253685548Y-192904721D01*
X253701272Y-192983337D01*
X253770544Y-193075396D01*
X253910001Y-193102741D01*
X254049458Y-193075396D01*
X254118731Y-192983337D01*
X254134454Y-192904721D01*
X254139695Y-192798305D01*
X254134454Y-192690295D01*
X254118731Y-192610540D01*
X254049458Y-192516657D01*
X253910001Y-192488401D01*
X253770544Y-192516657D01*
X253701272Y-192610540D01*
X253685548Y-192690295D01*
X253680307Y-192798305D01*
X253457906Y-192798305D01*
X253468160Y-192624212D01*
X253498922Y-192495693D01*
X253553611Y-192405228D01*
X253635645Y-192345298D01*
X253752087Y-192311801D01*
X253910001Y-192300636D01*
X254067916Y-192311801D01*
G37*
G36*
X255387797Y-189916742D02*
G01*
X255501079Y-189951420D01*
X255581996Y-190013379D01*
X255636094Y-190106779D01*
X255666611Y-190238095D01*
X255676783Y-190413799D01*
X255674934Y-190485930D01*
X255454841Y-190485930D01*
X255018356Y-190485930D01*
X255047948Y-190628343D01*
X255117305Y-190699549D01*
X255249545Y-190720818D01*
X255370689Y-190694925D01*
X255430798Y-190598750D01*
X255660138Y-190598750D01*
X255635631Y-190706947D01*
X255599104Y-190787401D01*
X255546855Y-190844505D01*
X255475186Y-190882651D01*
X255378549Y-190904151D01*
X255251395Y-190911318D01*
X255090949Y-190899990D01*
X254972118Y-190866005D01*
X254888196Y-190804740D01*
X254832480Y-190711571D01*
X254801269Y-190579793D01*
X254790866Y-190402702D01*
X254796902Y-190297279D01*
X255020206Y-190297279D01*
X255454841Y-190297279D01*
X255428023Y-190174287D01*
X255362366Y-190113253D01*
X255236599Y-190095682D01*
X255116380Y-190113253D01*
X255051647Y-190174287D01*
X255020206Y-190297279D01*
X254796902Y-190297279D01*
X254800807Y-190229079D01*
X254830630Y-190100306D01*
X254884266Y-190009449D01*
X254965645Y-189949571D01*
X255081008Y-189916279D01*
X255236599Y-189905182D01*
X255387797Y-189916742D01*
G37*
G36*
X249332532Y-192397253D02*
G01*
X249347116Y-192397253D01*
X249451025Y-192304282D01*
X249516652Y-192285140D01*
X249604154Y-192278760D01*
X249742928Y-192290154D01*
X249845697Y-192324334D01*
X249918160Y-192385631D01*
X249966013Y-192478375D01*
X249992674Y-192609401D01*
X250001561Y-192785545D01*
X249992674Y-192963056D01*
X249966013Y-193094538D01*
X249918160Y-193187281D01*
X249845697Y-193248578D01*
X249742928Y-193282759D01*
X249604154Y-193294152D01*
X249542173Y-193283493D01*
X249461051Y-193269542D01*
X249347116Y-193175660D01*
X249332532Y-193175660D01*
X249332532Y-193275923D01*
X249111953Y-193275923D01*
X249112627Y-192785545D01*
X249328886Y-192785545D01*
X249333672Y-192895606D01*
X249348028Y-192977868D01*
X249412743Y-193074485D01*
X249542173Y-193102741D01*
X249685276Y-193074485D01*
X249756372Y-192978779D01*
X249772095Y-192896746D01*
X249777336Y-192785545D01*
X249772095Y-192675711D01*
X249756372Y-192594133D01*
X249685276Y-192498427D01*
X249542173Y-192470171D01*
X249412743Y-192498427D01*
X249348028Y-192594133D01*
X249333672Y-192675711D01*
X249328886Y-192785545D01*
X249112627Y-192785545D01*
X249113776Y-191948803D01*
X249334355Y-191948803D01*
X249332532Y-192397253D01*
G37*
G36*
X254732111Y-185124904D02*
G01*
X254848793Y-185160623D01*
X254932136Y-185224440D01*
X254987858Y-185320643D01*
X255011141Y-185405733D01*
X255025111Y-185511143D01*
X255029768Y-185636873D01*
X255027863Y-185711168D01*
X254801168Y-185711168D01*
X254351588Y-185711168D01*
X254382068Y-185857853D01*
X254453505Y-185931195D01*
X254589713Y-185953103D01*
X254714490Y-185926433D01*
X254776403Y-185827373D01*
X255012623Y-185827373D01*
X254987381Y-185938815D01*
X254949758Y-186021683D01*
X254895941Y-186080500D01*
X254822123Y-186119790D01*
X254722586Y-186141936D01*
X254591618Y-186149318D01*
X254426359Y-186137650D01*
X254303963Y-186102645D01*
X254217523Y-186039542D01*
X254160135Y-185943578D01*
X254136322Y-185858276D01*
X254122035Y-185752231D01*
X254117273Y-185625443D01*
X254121246Y-185516858D01*
X254353493Y-185516858D01*
X254801168Y-185516858D01*
X254773545Y-185390175D01*
X254705918Y-185327310D01*
X254576378Y-185309213D01*
X254452553Y-185327310D01*
X254385878Y-185390175D01*
X254353493Y-185516858D01*
X254121246Y-185516858D01*
X254121823Y-185501089D01*
X254135476Y-185397266D01*
X254158230Y-185313975D01*
X254213475Y-185220392D01*
X254297295Y-185158718D01*
X254416119Y-185124428D01*
X254576378Y-185112998D01*
X254732111Y-185124904D01*
G37*
G36*
X260078018Y-185213963D02*
G01*
X260093258Y-185213963D01*
X260201843Y-185116808D01*
X260270423Y-185096805D01*
X260361863Y-185090138D01*
X260506881Y-185102044D01*
X260614275Y-185137763D01*
X260689999Y-185201818D01*
X260740005Y-185298735D01*
X260760642Y-185384778D01*
X260773025Y-185491775D01*
X260777153Y-185619728D01*
X260773025Y-185748739D01*
X260760642Y-185856371D01*
X260740005Y-185942625D01*
X260689999Y-186039542D01*
X260614275Y-186103598D01*
X260506881Y-186139316D01*
X260361863Y-186151223D01*
X260297093Y-186140084D01*
X260212320Y-186125505D01*
X260093258Y-186027398D01*
X260078018Y-186027398D01*
X260078018Y-186132173D01*
X259847513Y-186132173D01*
X259848217Y-185619728D01*
X260074208Y-185619728D01*
X260079208Y-185734742D01*
X260094210Y-185820705D01*
X260161838Y-185921670D01*
X260297093Y-185951198D01*
X260446635Y-185921670D01*
X260520930Y-185821658D01*
X260537361Y-185735933D01*
X260542838Y-185619728D01*
X260537361Y-185504951D01*
X260520930Y-185419703D01*
X260446635Y-185319690D01*
X260297093Y-185290163D01*
X260161838Y-185319690D01*
X260094210Y-185419703D01*
X260079208Y-185504951D01*
X260074208Y-185619728D01*
X259848217Y-185619728D01*
X259849418Y-184745333D01*
X260079923Y-184745333D01*
X260078018Y-185213963D01*
G37*
G36*
X242166493Y-185124666D02*
G01*
X242288175Y-185159670D01*
X242373900Y-185222297D01*
X242431050Y-185316833D01*
X242454862Y-185401076D01*
X242469150Y-185506486D01*
X242473912Y-185633063D01*
X242469150Y-185758475D01*
X242454862Y-185862933D01*
X242431050Y-185946435D01*
X242373662Y-186040256D01*
X242287222Y-186102645D01*
X242165302Y-186137650D01*
X242001472Y-186149318D01*
X241837642Y-186137650D01*
X241715722Y-186102645D01*
X241629283Y-186040256D01*
X241571895Y-185946435D01*
X241548082Y-185862933D01*
X241533795Y-185758475D01*
X241529032Y-185633063D01*
X241761442Y-185633063D01*
X241766919Y-185744267D01*
X241783350Y-185826420D01*
X241855740Y-185922623D01*
X242001472Y-185951198D01*
X242147205Y-185922623D01*
X242219595Y-185826420D01*
X242236026Y-185744267D01*
X242241502Y-185633063D01*
X242236026Y-185520191D01*
X242219595Y-185436848D01*
X242147205Y-185338740D01*
X242001472Y-185309213D01*
X241855740Y-185338740D01*
X241783350Y-185436848D01*
X241766919Y-185520191D01*
X241761442Y-185633063D01*
X241529032Y-185633063D01*
X241533795Y-185506486D01*
X241548082Y-185401076D01*
X241571895Y-185316833D01*
X241629045Y-185222297D01*
X241714770Y-185159670D01*
X241836452Y-185124666D01*
X242001472Y-185112998D01*
X242166493Y-185124666D01*
G37*
G36*
X249299527Y-186132173D02*
G01*
X249069022Y-186132173D01*
X249069022Y-186029303D01*
X249053782Y-186029303D01*
X248953770Y-186125505D01*
X248883047Y-186144793D01*
X248849947Y-186146926D01*
X248783272Y-186151223D01*
X248639683Y-186139555D01*
X248532765Y-186104550D01*
X248457041Y-186041685D01*
X248407035Y-185946435D01*
X248386397Y-185861663D01*
X248374015Y-185755935D01*
X248369887Y-185629253D01*
X248604202Y-185629253D01*
X248609679Y-185740933D01*
X248626110Y-185824515D01*
X248700405Y-185922623D01*
X248849947Y-185951198D01*
X248985202Y-185921670D01*
X249052830Y-185823563D01*
X249067832Y-185740695D01*
X249072832Y-185629253D01*
X249067832Y-185518048D01*
X249052830Y-185435895D01*
X248985202Y-185339693D01*
X248849947Y-185311118D01*
X248700405Y-185339693D01*
X248626110Y-185435895D01*
X248609679Y-185518048D01*
X248604202Y-185629253D01*
X248369887Y-185629253D01*
X248374015Y-185503840D01*
X248386397Y-185399383D01*
X248407035Y-185315880D01*
X248457041Y-185222059D01*
X248532765Y-185159670D01*
X248639683Y-185124666D01*
X248783272Y-185112998D01*
X248891857Y-185119189D01*
X248966152Y-185137763D01*
X249053782Y-185231108D01*
X249069022Y-185231108D01*
X249069022Y-184745333D01*
X249299527Y-184745333D01*
X249299527Y-186132173D01*
G37*
G36*
X259311493Y-185124666D02*
G01*
X259433175Y-185159670D01*
X259518900Y-185222297D01*
X259576050Y-185316833D01*
X259599863Y-185401076D01*
X259614150Y-185506486D01*
X259618913Y-185633063D01*
X259614150Y-185758475D01*
X259599863Y-185862933D01*
X259576050Y-185946435D01*
X259518662Y-186040256D01*
X259432223Y-186102645D01*
X259310303Y-186137650D01*
X259146473Y-186149318D01*
X258982643Y-186137650D01*
X258860723Y-186102645D01*
X258774283Y-186040256D01*
X258716895Y-185946435D01*
X258693083Y-185862933D01*
X258678795Y-185758475D01*
X258674033Y-185633063D01*
X258906443Y-185633063D01*
X258911919Y-185744267D01*
X258928350Y-185826420D01*
X259000740Y-185922623D01*
X259146473Y-185951198D01*
X259292205Y-185922623D01*
X259364595Y-185826420D01*
X259381026Y-185744267D01*
X259386503Y-185633063D01*
X259381026Y-185520191D01*
X259364595Y-185436848D01*
X259292205Y-185338740D01*
X259146473Y-185309213D01*
X259000740Y-185338740D01*
X258928350Y-185436848D01*
X258911919Y-185520191D01*
X258906443Y-185633063D01*
X258674033Y-185633063D01*
X258678795Y-185506486D01*
X258693083Y-185401076D01*
X258716895Y-185316833D01*
X258774045Y-185222297D01*
X258859770Y-185159670D01*
X258981452Y-185124666D01*
X259146473Y-185112998D01*
X259311493Y-185124666D01*
G37*
G36*
X256488720Y-189911887D02*
G01*
X256595992Y-189932000D01*
X256671822Y-189968066D01*
X256721759Y-190022627D01*
X256749964Y-190100075D01*
X256760599Y-190204804D01*
X256538657Y-190204804D01*
X256493344Y-190118801D01*
X256342608Y-190095682D01*
X256245971Y-190100769D01*
X256185400Y-190116027D01*
X256142861Y-190191857D01*
X256201121Y-190244568D01*
X256286892Y-190271617D01*
X256427686Y-190306527D01*
X256550679Y-190339587D01*
X256642230Y-190375884D01*
X256750426Y-190471134D01*
X256782793Y-190619095D01*
X256773083Y-190720818D01*
X256743953Y-190796648D01*
X256691473Y-190850284D01*
X256611713Y-190885425D01*
X256499124Y-190904845D01*
X256348157Y-190911318D01*
X256191179Y-190903920D01*
X256075354Y-190881726D01*
X255994206Y-190841499D01*
X255941264Y-190780003D01*
X255913059Y-190693076D01*
X255906123Y-190576556D01*
X256133613Y-190576556D01*
X256155807Y-190664408D01*
X256225164Y-190707872D01*
X256364803Y-190720818D01*
X256514613Y-190699549D01*
X256555303Y-190620945D01*
X256532184Y-190558986D01*
X256453579Y-190515522D01*
X256386534Y-190497027D01*
X256296371Y-190478532D01*
X256165286Y-190449171D01*
X256067956Y-190416573D01*
X255953286Y-190329646D01*
X255919070Y-190190008D01*
X255928548Y-190090365D01*
X255956985Y-190017078D01*
X256008309Y-189965523D01*
X256086451Y-189931076D01*
X256196728Y-189911656D01*
X256344458Y-189905182D01*
X256488720Y-189911887D01*
G37*
G36*
X257598429Y-189911887D02*
G01*
X257705701Y-189932000D01*
X257781531Y-189968066D01*
X257831468Y-190022627D01*
X257859673Y-190100075D01*
X257870307Y-190204804D01*
X257648366Y-190204804D01*
X257603053Y-190118801D01*
X257452317Y-190095682D01*
X257355680Y-190100769D01*
X257295108Y-190116027D01*
X257252570Y-190191857D01*
X257310829Y-190244568D01*
X257396601Y-190271617D01*
X257537395Y-190306527D01*
X257660388Y-190339587D01*
X257751939Y-190375884D01*
X257860135Y-190471134D01*
X257892502Y-190619095D01*
X257882792Y-190720818D01*
X257853662Y-190796648D01*
X257801182Y-190850284D01*
X257721422Y-190885425D01*
X257608832Y-190904845D01*
X257457866Y-190911318D01*
X257300888Y-190903920D01*
X257185062Y-190881726D01*
X257103915Y-190841499D01*
X257050973Y-190780003D01*
X257022767Y-190693076D01*
X257015832Y-190576556D01*
X257243322Y-190576556D01*
X257265516Y-190664408D01*
X257334873Y-190707872D01*
X257474511Y-190720818D01*
X257624322Y-190699549D01*
X257665011Y-190620945D01*
X257641892Y-190558986D01*
X257563288Y-190515522D01*
X257496243Y-190497027D01*
X257406079Y-190478532D01*
X257274995Y-190449171D01*
X257177664Y-190416573D01*
X257062994Y-190329646D01*
X257028778Y-190190008D01*
X257038257Y-190090365D01*
X257066693Y-190017078D01*
X257118017Y-189965523D01*
X257196159Y-189931076D01*
X257306437Y-189911656D01*
X257454167Y-189905182D01*
X257598429Y-189911887D01*
G37*
G36*
X247857681Y-185121094D02*
G01*
X247966980Y-185145383D01*
X248044371Y-185188721D01*
X248095567Y-185253968D01*
X248124142Y-185346360D01*
X248133667Y-185471138D01*
X248133667Y-186132173D01*
X247916497Y-186132173D01*
X247916497Y-186014063D01*
X247901257Y-186014063D01*
X247846489Y-186079785D01*
X247788862Y-186120743D01*
X247717901Y-186142174D01*
X247663132Y-186146302D01*
X247623127Y-186149318D01*
X247500017Y-186142412D01*
X247408815Y-186121695D01*
X247302135Y-186028350D01*
X247278561Y-185949055D01*
X247270702Y-185842613D01*
X247272204Y-185825468D01*
X247503112Y-185825468D01*
X247536450Y-185924528D01*
X247663132Y-185951198D01*
X247809817Y-185926433D01*
X247883160Y-185842613D01*
X247900543Y-185770699D01*
X247908877Y-185673068D01*
X247720282Y-185674973D01*
X247587885Y-185690213D01*
X247522162Y-185734980D01*
X247503112Y-185825468D01*
X247272204Y-185825468D01*
X247281656Y-185717597D01*
X247314517Y-185624490D01*
X247373572Y-185558530D01*
X247463107Y-185514953D01*
X247589790Y-185490664D01*
X247760287Y-185482568D01*
X247910782Y-185482568D01*
X247910782Y-185471138D01*
X247868872Y-185341598D01*
X247808389Y-185315880D01*
X247710757Y-185307308D01*
X247568835Y-185334930D01*
X247535497Y-185440658D01*
X247303087Y-185440658D01*
X247307612Y-185326120D01*
X247332615Y-185241585D01*
X247381192Y-185182054D01*
X247456440Y-185142525D01*
X247564311Y-185120380D01*
X247710757Y-185112998D01*
X247857681Y-185121094D01*
G37*
G36*
X251286681Y-185121094D02*
G01*
X251395980Y-185145383D01*
X251473371Y-185188721D01*
X251524567Y-185253968D01*
X251553142Y-185346360D01*
X251562667Y-185471138D01*
X251562667Y-186132173D01*
X251345497Y-186132173D01*
X251345497Y-186014063D01*
X251330257Y-186014063D01*
X251275489Y-186079785D01*
X251217862Y-186120743D01*
X251146901Y-186142174D01*
X251092132Y-186146302D01*
X251052127Y-186149318D01*
X250929017Y-186142412D01*
X250837815Y-186121695D01*
X250731135Y-186028350D01*
X250707561Y-185949055D01*
X250699702Y-185842613D01*
X250701204Y-185825468D01*
X250932112Y-185825468D01*
X250965450Y-185924528D01*
X251092132Y-185951198D01*
X251238817Y-185926433D01*
X251312160Y-185842613D01*
X251329543Y-185770699D01*
X251337877Y-185673068D01*
X251149282Y-185674973D01*
X251016885Y-185690213D01*
X250951163Y-185734980D01*
X250932112Y-185825468D01*
X250701204Y-185825468D01*
X250710656Y-185717597D01*
X250743517Y-185624490D01*
X250802572Y-185558530D01*
X250892108Y-185514953D01*
X251018790Y-185490664D01*
X251189288Y-185482568D01*
X251339782Y-185482568D01*
X251339782Y-185471138D01*
X251297872Y-185341598D01*
X251237389Y-185315880D01*
X251139758Y-185307308D01*
X250997835Y-185334930D01*
X250964497Y-185440658D01*
X250732087Y-185440658D01*
X250736612Y-185326120D01*
X250761615Y-185241585D01*
X250810192Y-185182054D01*
X250885440Y-185142525D01*
X250993311Y-185120380D01*
X251139758Y-185112998D01*
X251286681Y-185121094D01*
G37*
G36*
X257871155Y-187516113D02*
G01*
X257980012Y-187536524D01*
X258056963Y-187573122D01*
X258107638Y-187628489D01*
X258136259Y-187707082D01*
X258147051Y-187813359D01*
X257921830Y-187813359D01*
X257875847Y-187726085D01*
X257816492Y-187708490D01*
X257722884Y-187702625D01*
X257624819Y-187707786D01*
X257563352Y-187723270D01*
X257520184Y-187800221D01*
X257579305Y-187853711D01*
X257666344Y-187881160D01*
X257809219Y-187916585D01*
X257934029Y-187950134D01*
X258026933Y-187986967D01*
X258136729Y-188083625D01*
X258161362Y-188150253D01*
X258169573Y-188233772D01*
X258159720Y-188336999D01*
X258130160Y-188413950D01*
X258076904Y-188468378D01*
X257995965Y-188504038D01*
X257881712Y-188523745D01*
X257728514Y-188530314D01*
X257569217Y-188522807D01*
X257451679Y-188500285D01*
X257369333Y-188459463D01*
X257315608Y-188397058D01*
X257286986Y-188308846D01*
X257279948Y-188190605D01*
X257510800Y-188190605D01*
X257533322Y-188279755D01*
X257603704Y-188323861D01*
X257745406Y-188336999D01*
X257897431Y-188315415D01*
X257938721Y-188235649D01*
X257915261Y-188172775D01*
X257835495Y-188128669D01*
X257767459Y-188109901D01*
X257675963Y-188091132D01*
X257542941Y-188061337D01*
X257444172Y-188028258D01*
X257327807Y-187940046D01*
X257293086Y-187798344D01*
X257302705Y-187697229D01*
X257331561Y-187622859D01*
X257383644Y-187570542D01*
X257462940Y-187535585D01*
X257574847Y-187515878D01*
X257724761Y-187509309D01*
X257871155Y-187516113D01*
G37*
G36*
X239873826Y-184825819D02*
G01*
X239994555Y-184850108D01*
X240080518Y-184893923D01*
X240138382Y-184960598D01*
X240170767Y-185055371D01*
X240180292Y-185183483D01*
X239938357Y-185183483D01*
X239910735Y-185087280D01*
X239840250Y-185039655D01*
X239704042Y-185025368D01*
X239564025Y-185038703D01*
X239494492Y-185082518D01*
X239473537Y-185172053D01*
X239546880Y-185270160D01*
X239649036Y-185317071D01*
X239808817Y-185372078D01*
X239947168Y-185422084D01*
X240049800Y-185473043D01*
X240122428Y-185529955D01*
X240170767Y-185597820D01*
X240197914Y-185681402D01*
X240206962Y-185785463D01*
X240196009Y-185912145D01*
X240163147Y-186006443D01*
X240104331Y-186073118D01*
X240015510Y-186116933D01*
X239889542Y-186141221D01*
X239719282Y-186149318D01*
X239543784Y-186140269D01*
X239413530Y-186113123D01*
X239321852Y-186064069D01*
X239262082Y-185989298D01*
X239230650Y-185883570D01*
X239223982Y-185741648D01*
X239462107Y-185741648D01*
X239492587Y-185864520D01*
X239573550Y-185924528D01*
X239641892Y-185937386D01*
X239734522Y-185941673D01*
X239876445Y-185928338D01*
X239947882Y-185881665D01*
X239968837Y-185787368D01*
X239938357Y-185690213D01*
X239838345Y-185616870D01*
X239754287Y-185582342D01*
X239641177Y-185545433D01*
X239499493Y-185497570D01*
X239394480Y-185449230D01*
X239320423Y-185396128D01*
X239271607Y-185333978D01*
X239244461Y-185258254D01*
X239235412Y-185164433D01*
X239246128Y-185044418D01*
X239278275Y-184954883D01*
X239335901Y-184891303D01*
X239423055Y-184849155D01*
X239546166Y-184825581D01*
X239711662Y-184817723D01*
X239873826Y-184825819D01*
G37*
G36*
X250852556Y-189916048D02*
G01*
X250917057Y-189937549D01*
X251004909Y-190043896D01*
X251019706Y-190043896D01*
X251019706Y-189929226D01*
X251236099Y-189929226D01*
X251236099Y-190922415D01*
X251226389Y-191054887D01*
X251197259Y-191152680D01*
X251144779Y-191221574D01*
X251065019Y-191267350D01*
X250951967Y-191293012D01*
X250799613Y-191301566D01*
X250652114Y-191294168D01*
X250542531Y-191271974D01*
X250464851Y-191232440D01*
X250413065Y-191173025D01*
X250383010Y-191089103D01*
X250370526Y-190976051D01*
X250598016Y-190976051D01*
X250618361Y-191062979D01*
X250676621Y-191104593D01*
X250801463Y-191116614D01*
X250930004Y-191097195D01*
X250993812Y-191032462D01*
X251014157Y-190903920D01*
X251016006Y-190763357D01*
X251001210Y-190763357D01*
X250945725Y-190847510D01*
X250867121Y-190888199D01*
X250788516Y-190895247D01*
X250733031Y-190900221D01*
X250598016Y-190889124D01*
X250496293Y-190855833D01*
X250423006Y-190796417D01*
X250373300Y-190706947D01*
X250344864Y-190580949D01*
X250335385Y-190411949D01*
X250561026Y-190411949D01*
X250566112Y-190515291D01*
X250581371Y-190592277D01*
X250650727Y-190682903D01*
X250788516Y-190709721D01*
X250925380Y-190682903D01*
X250993812Y-190592277D01*
X251009071Y-190515291D01*
X251014157Y-190411949D01*
X251009071Y-190303753D01*
X250993812Y-190223299D01*
X250925380Y-190128049D01*
X250788516Y-190099381D01*
X250650727Y-190128049D01*
X250581371Y-190223299D01*
X250566112Y-190303753D01*
X250561026Y-190411949D01*
X250335385Y-190411949D01*
X250344864Y-190236708D01*
X250373300Y-190106779D01*
X250424624Y-190014997D01*
X250502766Y-189954195D01*
X250613043Y-189920210D01*
X250760773Y-189908881D01*
X250852556Y-189916048D01*
G37*
G36*
X254403914Y-187520336D02*
G01*
X254469369Y-187542154D01*
X254558519Y-187650073D01*
X254573534Y-187650073D01*
X254573534Y-187533708D01*
X254793125Y-187533708D01*
X254793125Y-188541575D01*
X254783272Y-188676005D01*
X254753711Y-188775243D01*
X254700456Y-188845155D01*
X254619517Y-188891607D01*
X254504795Y-188917649D01*
X254350189Y-188926329D01*
X254200511Y-188918822D01*
X254089307Y-188896300D01*
X254010480Y-188856182D01*
X253957928Y-188795888D01*
X253927429Y-188710726D01*
X253914761Y-188596004D01*
X254145613Y-188596004D01*
X254166258Y-188684216D01*
X254225379Y-188726445D01*
X254352066Y-188738644D01*
X254482507Y-188718937D01*
X254547258Y-188653248D01*
X254567904Y-188522807D01*
X254569780Y-188380167D01*
X254554766Y-188380167D01*
X254498460Y-188465563D01*
X254418694Y-188506854D01*
X254338928Y-188514005D01*
X254282623Y-188519053D01*
X254145613Y-188507792D01*
X254042386Y-188474009D01*
X253968016Y-188413715D01*
X253917576Y-188322923D01*
X253888719Y-188195062D01*
X253879101Y-188023566D01*
X254108076Y-188023566D01*
X254113237Y-188128434D01*
X254128721Y-188206558D01*
X254199103Y-188298524D01*
X254338928Y-188325738D01*
X254477815Y-188298524D01*
X254547258Y-188206558D01*
X254562742Y-188128434D01*
X254567904Y-188023566D01*
X254562742Y-187913770D01*
X254547258Y-187832127D01*
X254477815Y-187735469D01*
X254338928Y-187706378D01*
X254199103Y-187735469D01*
X254128721Y-187832127D01*
X254113237Y-187913770D01*
X254108076Y-188023566D01*
X253879101Y-188023566D01*
X253888719Y-187845734D01*
X253917576Y-187713886D01*
X253969658Y-187620747D01*
X254048955Y-187559046D01*
X254160862Y-187524559D01*
X254310775Y-187513063D01*
X254403914Y-187520336D01*
G37*
D14*
%TO.C,D8*%
X209927710Y-212010654D02*
X207497710Y-212010654D01*
X209947710Y-212020654D02*
X209947710Y-213020654D01*
X209947710Y-214020654D02*
X209947710Y-215070654D01*
X209947710Y-215070654D02*
X208097710Y-215070654D01*
%TO.C,Cp2*%
X205787710Y-196359402D02*
X205787710Y-198681906D01*
X208397710Y-196359402D02*
X208397710Y-198681906D01*
%TO.C,RV1*%
X232027710Y-214350654D02*
X232027710Y-218215654D01*
X232027710Y-222725654D02*
X232027710Y-226590654D01*
X233627710Y-214350654D02*
X232027710Y-214350654D01*
X236126710Y-214350654D02*
X235367710Y-214350654D01*
X238626710Y-214350654D02*
X237867710Y-214350654D01*
X241967710Y-214350654D02*
X240368710Y-214350654D01*
X241967710Y-214350654D02*
X241967710Y-218215654D01*
X241967710Y-222725654D02*
X241967710Y-226590654D01*
X241967710Y-226590654D02*
X232027710Y-226590654D01*
%TO.C,R9*%
X156375210Y-207257912D02*
X156375210Y-206783396D01*
X157420210Y-207257912D02*
X157420210Y-206783396D01*
%TO.C,C7*%
X175238290Y-216510654D02*
X174957130Y-216510654D01*
X175238290Y-217530654D02*
X174957130Y-217530654D01*
%TO.C,TPg4*%
X144050000Y-198300000D02*
X145450000Y-198300000D01*
X144050000Y-199700000D02*
X144050000Y-198300000D01*
X145450000Y-198300000D02*
X145450000Y-199700000D01*
X145450000Y-199700000D02*
X144050000Y-199700000D01*
%TO.C,TP1*%
X141950000Y-207000000D02*
G75*
G02*
X139550000Y-207000000I-1200000J0D01*
G01*
X139550000Y-207000000D02*
G75*
G02*
X141950000Y-207000000I1200000J0D01*
G01*
%TO.C,TPg1*%
X171900000Y-196800000D02*
X173300000Y-196800000D01*
X171900000Y-198200000D02*
X171900000Y-196800000D01*
X173300000Y-196800000D02*
X173300000Y-198200000D01*
X173300000Y-198200000D02*
X171900000Y-198200000D01*
%TO.C,GD1*%
X247787710Y-198634402D02*
X247787710Y-201406906D01*
X251207710Y-198634402D02*
X251207710Y-201406906D01*
%TO.C,R12*%
X212087710Y-214247718D02*
X212087710Y-212793590D01*
X213907710Y-214247718D02*
X213907710Y-212793590D01*
%TO.C,C4*%
X161611257Y-210110654D02*
X160188753Y-210110654D01*
X161611257Y-211930654D02*
X160188753Y-211930654D01*
%TO.C,R5*%
X245260452Y-206498154D02*
X245734968Y-206498154D01*
X245260452Y-207543154D02*
X245734968Y-207543154D01*
%TO.C,Rg2*%
X205024774Y-221160654D02*
X201970646Y-221160654D01*
X205024774Y-223880654D02*
X201970646Y-223880654D01*
%TO.C,Cp3*%
X201287710Y-196359402D02*
X201287710Y-198681906D01*
X203897710Y-196359402D02*
X203897710Y-198681906D01*
%TO.C,R3*%
X247727500Y-213757912D02*
X247727500Y-213283396D01*
X248772500Y-213757912D02*
X248772500Y-213283396D01*
%TO.C,C13*%
X216987710Y-205661234D02*
X216987710Y-205380074D01*
X218007710Y-205661234D02*
X218007710Y-205380074D01*
D15*
%TO.C,kibuzzard-6619ED70*%
G36*
X147830527Y-203395939D02*
G01*
X147832432Y-203395939D01*
X147845767Y-203159719D01*
X147967687Y-202376764D01*
X148242007Y-202376764D01*
X148360117Y-203159719D01*
X148375357Y-203395939D01*
X148377262Y-203395939D01*
X148453462Y-202376764D01*
X148663012Y-202376764D01*
X148508707Y-203672164D01*
X148255342Y-203672164D01*
X148108657Y-202544404D01*
X148101037Y-202544404D01*
X147952447Y-203672164D01*
X147700987Y-203672164D01*
X147546682Y-202376764D01*
X147756232Y-202376764D01*
X147830527Y-203395939D01*
G37*
G36*
X146980157Y-202375176D02*
G01*
X147103664Y-202387559D01*
X147202830Y-202408196D01*
X147314272Y-202458441D01*
X147387615Y-202534879D01*
X147428334Y-202642988D01*
X147441907Y-202788244D01*
X147430239Y-202931595D01*
X147395235Y-203037799D01*
X147332132Y-203112808D01*
X147236167Y-203162576D01*
X147150866Y-203183214D01*
X147044821Y-203195597D01*
X146918032Y-203199724D01*
X146898982Y-203199724D01*
X146778967Y-203199724D01*
X146778967Y-203672164D01*
X146535127Y-203672164D01*
X146535127Y-202988269D01*
X146778967Y-202988269D01*
X146898982Y-202988269D01*
X147003757Y-202983506D01*
X147081862Y-202969219D01*
X147173302Y-202906354D01*
X147199972Y-202780624D01*
X147169492Y-202660609D01*
X147067575Y-202600601D01*
X146981136Y-202587028D01*
X146864692Y-202582504D01*
X146778967Y-202582504D01*
X146778967Y-202988269D01*
X146535127Y-202988269D01*
X146535127Y-202376764D01*
X146832307Y-202371049D01*
X146980157Y-202375176D01*
G37*
G36*
X149278010Y-202373166D02*
G01*
X149386277Y-202385231D01*
X149473590Y-202405339D01*
X149572174Y-202452964D01*
X149637420Y-202523449D01*
X149673853Y-202621556D01*
X149685998Y-202752049D01*
X149665995Y-202905401D01*
X149598367Y-202991127D01*
X149463113Y-203033989D01*
X149463113Y-203051134D01*
X149582175Y-203110189D01*
X149619084Y-203172578D01*
X149651707Y-203268304D01*
X149760293Y-203672164D01*
X149499307Y-203672164D01*
X149409772Y-203285449D01*
X149341192Y-203172101D01*
X149297377Y-203157549D01*
X149274517Y-203149956D01*
X149173552Y-203142574D01*
X149051632Y-203142574D01*
X149051632Y-203672164D01*
X148809697Y-203672164D01*
X148809697Y-202582504D01*
X149051632Y-202582504D01*
X149051632Y-202931119D01*
X149297377Y-202931119D01*
X149414535Y-202890161D01*
X149445967Y-202742524D01*
X149413582Y-202625366D01*
X149293567Y-202586314D01*
X149201175Y-202582028D01*
X149133547Y-202580599D01*
X149051632Y-202582504D01*
X148809697Y-202582504D01*
X148809697Y-202378669D01*
X149036392Y-202371049D01*
X149148787Y-202369144D01*
X149278010Y-202373166D01*
G37*
D14*
%TO.C,Cp1*%
X210287710Y-196359402D02*
X210287710Y-198681906D01*
X212897710Y-196359402D02*
X212897710Y-198681906D01*
%TO.C,D6*%
X150897710Y-208155654D02*
X154782710Y-208155654D01*
X154782710Y-205885654D02*
X150897710Y-205885654D01*
X154782710Y-208155654D02*
X154782710Y-205885654D01*
%TO.C,C11*%
X170884420Y-214510654D02*
X171165580Y-214510654D01*
X170884420Y-215530654D02*
X171165580Y-215530654D01*
%TO.C,TP3*%
X254997710Y-202120654D02*
G75*
G02*
X252597710Y-202120654I-1200000J0D01*
G01*
X252597710Y-202120654D02*
G75*
G02*
X254997710Y-202120654I1200000J0D01*
G01*
%TO.C,U3*%
X174997710Y-218460654D02*
X174347710Y-218460654D01*
X174997710Y-218460654D02*
X175647710Y-218460654D01*
X174997710Y-221580654D02*
X174347710Y-221580654D01*
X174997710Y-221580654D02*
X176672710Y-221580654D01*
%TO.C,Rg4*%
X204927064Y-208160654D02*
X201872936Y-208160654D01*
X204927064Y-210880654D02*
X201872936Y-210880654D01*
%TO.C,D3*%
X150897710Y-204155654D02*
X154782710Y-204155654D01*
X154782710Y-201885654D02*
X150897710Y-201885654D01*
X154782710Y-204155654D02*
X154782710Y-201885654D01*
%TO.C,C5*%
X164983130Y-216752560D02*
X164983130Y-215330056D01*
X166803130Y-216752560D02*
X166803130Y-215330056D01*
%TO.C,TPg2*%
X196797710Y-212820654D02*
X198197710Y-212820654D01*
X196797710Y-214220654D02*
X196797710Y-212820654D01*
X198197710Y-212820654D02*
X198197710Y-214220654D01*
X198197710Y-214220654D02*
X196797710Y-214220654D01*
%TO.C,T2*%
D17*
X224277710Y-210520654D02*
G75*
G02*
X223717710Y-210520654I-280000J0D01*
G01*
X223717710Y-210520654D02*
G75*
G02*
X224277710Y-210520654I280000J0D01*
G01*
D14*
%TO.C,R6*%
X245734968Y-208698154D02*
X245260452Y-208698154D01*
X245734968Y-209743154D02*
X245260452Y-209743154D01*
%TO.C,R7*%
X175312668Y-214498154D02*
X174838152Y-214498154D01*
X175312668Y-215543154D02*
X174838152Y-215543154D01*
%TO.C,C9*%
X161608962Y-202110654D02*
X160186458Y-202110654D01*
X161608962Y-203930654D02*
X160186458Y-203930654D01*
D15*
%TO.C,kibuzzard-66C555BE*%
G36*
X247000762Y-182579170D02*
G01*
X247093155Y-182583456D01*
X247213170Y-182622509D01*
X247245555Y-182739666D01*
X247214122Y-182887304D01*
X247096965Y-182928261D01*
X246851220Y-182928261D01*
X246851220Y-182579646D01*
X246933135Y-182577741D01*
X247000762Y-182579170D01*
G37*
G36*
X252853399Y-182574646D02*
G01*
X252920550Y-182605364D01*
X252967937Y-182660609D01*
X252999607Y-182744429D01*
X253017467Y-182863730D01*
X253023420Y-183025416D01*
X253017467Y-183182341D01*
X252999607Y-183298784D01*
X252967937Y-183381175D01*
X252920550Y-183435944D01*
X252853399Y-183466662D01*
X252762435Y-183476902D01*
X252671233Y-183466662D01*
X252603368Y-183435944D01*
X252555266Y-183381175D01*
X252523357Y-183298784D01*
X252505498Y-183182341D01*
X252499545Y-183025416D01*
X252505498Y-182864920D01*
X252523357Y-182745381D01*
X252555266Y-182660847D01*
X252603368Y-182605364D01*
X252671233Y-182574646D01*
X252762435Y-182564406D01*
X252853399Y-182574646D01*
G37*
G36*
X256775000Y-184083327D02*
G01*
X256378125Y-184083327D01*
X256378125Y-183669307D01*
X256378125Y-183320691D01*
X256016175Y-183320691D01*
X256016175Y-183669307D01*
X256378125Y-183669307D01*
X256378125Y-184083327D01*
X255052245Y-184083327D01*
X254393115Y-184083327D01*
X252762435Y-184083327D01*
X251975670Y-184083327D01*
X250598355Y-184083327D01*
X249381060Y-184083327D01*
X248199960Y-184083327D01*
X247559880Y-184083327D01*
X246026355Y-184083327D01*
X244765245Y-184083327D01*
X244106115Y-184083327D01*
X242831670Y-184083327D01*
X242117295Y-184083327D01*
X241720420Y-184083327D01*
X241720420Y-183457851D01*
X242117295Y-183457851D01*
X242117295Y-183669307D01*
X242831670Y-183669307D01*
X243130755Y-183669307D01*
X243365070Y-183669307D01*
X243365070Y-182924451D01*
X243338400Y-182653941D01*
X243344115Y-182653941D01*
X243808935Y-183669307D01*
X244106115Y-183669307D01*
X244106115Y-183278781D01*
X244269945Y-183278781D01*
X244276612Y-183420704D01*
X244308045Y-183526431D01*
X244367814Y-183601203D01*
X244459492Y-183650257D01*
X244589747Y-183677403D01*
X244765245Y-183686452D01*
X244935504Y-183678355D01*
X245061472Y-183654066D01*
X245150293Y-183610251D01*
X245209110Y-183543576D01*
X245241971Y-183449279D01*
X245252925Y-183322596D01*
X245243876Y-183218536D01*
X245216730Y-183134954D01*
X245168391Y-183067088D01*
X245095762Y-183010176D01*
X244993131Y-182959218D01*
X244854780Y-182909211D01*
X244694998Y-182854205D01*
X244592842Y-182807294D01*
X244519500Y-182709186D01*
X244540455Y-182619651D01*
X244609987Y-182575836D01*
X244750005Y-182562501D01*
X244886212Y-182576789D01*
X244956697Y-182624414D01*
X244984320Y-182720616D01*
X245226255Y-182720616D01*
X245216730Y-182592505D01*
X245216242Y-182591076D01*
X245435805Y-182591076D01*
X245782515Y-182591076D01*
X245782515Y-183669307D01*
X246026355Y-183669307D01*
X246026355Y-182591076D01*
X246373065Y-182591076D01*
X246373065Y-182375811D01*
X246609285Y-182375811D01*
X246609285Y-183669307D01*
X246851220Y-183669307D01*
X246851220Y-183139716D01*
X246973140Y-183139716D01*
X247074105Y-183147098D01*
X247140780Y-183169244D01*
X247209360Y-183282591D01*
X247298895Y-183669307D01*
X247559880Y-183669307D01*
X247451295Y-183265446D01*
X247445452Y-183248301D01*
X247717995Y-183248301D01*
X247728949Y-183400225D01*
X247761810Y-183513096D01*
X247820389Y-183593106D01*
X247908495Y-183646446D01*
X248032796Y-183676450D01*
X248199960Y-183686452D01*
X248360456Y-183676450D01*
X248479995Y-183646446D01*
X248564767Y-183593106D01*
X248620965Y-183513096D01*
X248652397Y-183399749D01*
X248662875Y-183246396D01*
X248662875Y-183023511D01*
X248870520Y-183023511D01*
X248875600Y-183184167D01*
X248890840Y-183318151D01*
X248916240Y-183425466D01*
X248977676Y-183546196D01*
X249070545Y-183626444D01*
X249153307Y-183659781D01*
X249256812Y-183679784D01*
X249381060Y-183686452D01*
X249533222Y-183678117D01*
X249646807Y-183653114D01*
X249728484Y-183607870D01*
X249784920Y-183538814D01*
X249820162Y-183440945D01*
X249838260Y-183309261D01*
X249600135Y-183309261D01*
X249539175Y-183443564D01*
X249476786Y-183469996D01*
X249381060Y-183478807D01*
X249288191Y-183468567D01*
X249219135Y-183437849D01*
X249170319Y-183382842D01*
X249138172Y-183299737D01*
X249120313Y-183182103D01*
X249114360Y-183023511D01*
X249120313Y-182863015D01*
X249138172Y-182743476D01*
X249170319Y-182658942D01*
X249219135Y-182603459D01*
X249288191Y-182572741D01*
X249381060Y-182562501D01*
X249467737Y-182572026D01*
X249525840Y-182600601D01*
X249563464Y-182655370D01*
X249588705Y-182743476D01*
X249826830Y-182743476D01*
X249812066Y-182608460D01*
X249806368Y-182591076D01*
X250007805Y-182591076D01*
X250354515Y-182591076D01*
X250354515Y-183669307D01*
X250598355Y-183669307D01*
X250598355Y-183457851D01*
X251261295Y-183457851D01*
X251261295Y-183669307D01*
X251975670Y-183669307D01*
X251975670Y-183457851D01*
X251737545Y-183457851D01*
X251737545Y-183025416D01*
X252259515Y-183025416D01*
X252264489Y-183186072D01*
X252279412Y-183320057D01*
X252304282Y-183427371D01*
X252364766Y-183547863D01*
X252456683Y-183627397D01*
X252538492Y-183660205D01*
X252640409Y-183679890D01*
X252762435Y-183686452D01*
X252884461Y-183679890D01*
X252939253Y-183669307D01*
X253417755Y-183669307D01*
X253652070Y-183669307D01*
X253652070Y-182924451D01*
X253625400Y-182653941D01*
X253631115Y-182653941D01*
X254095935Y-183669307D01*
X254393115Y-183669307D01*
X254393115Y-183278781D01*
X254556945Y-183278781D01*
X254563613Y-183420704D01*
X254595045Y-183526431D01*
X254654814Y-183601203D01*
X254746493Y-183650257D01*
X254876747Y-183677403D01*
X255052245Y-183686452D01*
X255222504Y-183678355D01*
X255348473Y-183654066D01*
X255437293Y-183610251D01*
X255496110Y-183543576D01*
X255528971Y-183449279D01*
X255539925Y-183322596D01*
X255530876Y-183218536D01*
X255503730Y-183134954D01*
X255455391Y-183067088D01*
X255382763Y-183010176D01*
X255280131Y-182959218D01*
X255141780Y-182909211D01*
X255119645Y-182901591D01*
X256016175Y-182901591D01*
X256378125Y-182901591D01*
X256378125Y-182552976D01*
X256016175Y-182552976D01*
X256016175Y-182901591D01*
X255119645Y-182901591D01*
X254981998Y-182854205D01*
X254879843Y-182807294D01*
X254806500Y-182709186D01*
X254827455Y-182619651D01*
X254896988Y-182575836D01*
X255037005Y-182562501D01*
X255173213Y-182576789D01*
X255243698Y-182624414D01*
X255271320Y-182720616D01*
X255513255Y-182720616D01*
X255503730Y-182592505D01*
X255471345Y-182497731D01*
X255413481Y-182431056D01*
X255327518Y-182387241D01*
X255206788Y-182362953D01*
X255044625Y-182354856D01*
X254879128Y-182362715D01*
X254756018Y-182386289D01*
X254668864Y-182428437D01*
X254611238Y-182492016D01*
X254579091Y-182581551D01*
X254568375Y-182701566D01*
X254577424Y-182795388D01*
X254604570Y-182871111D01*
X254653386Y-182933262D01*
X254727443Y-182986364D01*
X254832456Y-183034703D01*
X254974140Y-183082566D01*
X255087249Y-183119476D01*
X255171308Y-183154004D01*
X255271320Y-183227346D01*
X255301800Y-183324501D01*
X255280845Y-183418799D01*
X255209408Y-183465471D01*
X255067485Y-183478807D01*
X254974854Y-183474520D01*
X254906513Y-183461661D01*
X254825550Y-183401654D01*
X254795070Y-183278781D01*
X254556945Y-183278781D01*
X254393115Y-183278781D01*
X254393115Y-182373906D01*
X254158800Y-182373906D01*
X254158800Y-183118761D01*
X254185470Y-183389272D01*
X254179755Y-183389272D01*
X253714935Y-182373906D01*
X253417755Y-182373906D01*
X253417755Y-183669307D01*
X252939253Y-183669307D01*
X252986378Y-183660205D01*
X253068187Y-183627397D01*
X253160104Y-183547863D01*
X253220588Y-183427371D01*
X253245458Y-183320057D01*
X253260381Y-183186072D01*
X253265355Y-183025416D01*
X253260381Y-182862433D01*
X253245458Y-182726543D01*
X253220588Y-182617746D01*
X253160104Y-182495588D01*
X253068187Y-182414864D01*
X252986378Y-182381526D01*
X252884461Y-182361524D01*
X252762435Y-182354856D01*
X252640409Y-182361524D01*
X252538492Y-182381526D01*
X252456683Y-182414864D01*
X252364766Y-182495588D01*
X252304282Y-182617746D01*
X252279412Y-182726543D01*
X252264489Y-182862433D01*
X252259515Y-183025416D01*
X251737545Y-183025416D01*
X251737545Y-182585361D01*
X251962335Y-182585361D01*
X251962335Y-182373906D01*
X251274630Y-182373906D01*
X251274630Y-182585361D01*
X251499420Y-182585361D01*
X251499420Y-183457851D01*
X251261295Y-183457851D01*
X250598355Y-183457851D01*
X250598355Y-182591076D01*
X250945065Y-182591076D01*
X250945065Y-182373906D01*
X250007805Y-182373906D01*
X250007805Y-182591076D01*
X249806368Y-182591076D01*
X249779205Y-182508209D01*
X249724436Y-182437248D01*
X249643950Y-182390099D01*
X249531555Y-182363667D01*
X249381060Y-182354856D01*
X249256812Y-182361524D01*
X249153307Y-182381526D01*
X249070545Y-182414864D01*
X248977676Y-182495588D01*
X248916240Y-182617746D01*
X248890840Y-182726331D01*
X248875600Y-182861586D01*
X248870520Y-183023511D01*
X248662875Y-183023511D01*
X248662875Y-182373906D01*
X248419035Y-182373906D01*
X248419035Y-183240682D01*
X248399032Y-183381652D01*
X248332357Y-183452136D01*
X248199960Y-183473091D01*
X248056132Y-183452136D01*
X247983742Y-183380699D01*
X247961835Y-183238776D01*
X247961835Y-182373906D01*
X247717995Y-182373906D01*
X247717995Y-183248301D01*
X247445452Y-183248301D01*
X247418672Y-183169720D01*
X247381762Y-183107332D01*
X247262700Y-183048277D01*
X247262700Y-183031131D01*
X247397955Y-182988269D01*
X247465582Y-182902544D01*
X247485585Y-182749191D01*
X247473441Y-182618699D01*
X247437007Y-182520591D01*
X247371761Y-182450106D01*
X247273177Y-182402481D01*
X247185865Y-182382373D01*
X247077597Y-182370308D01*
X246948375Y-182366286D01*
X246835980Y-182368191D01*
X246609285Y-182375811D01*
X246373065Y-182375811D01*
X246373065Y-182373906D01*
X245435805Y-182373906D01*
X245435805Y-182591076D01*
X245216242Y-182591076D01*
X245184345Y-182497731D01*
X245126481Y-182431056D01*
X245040517Y-182387241D01*
X244919788Y-182362953D01*
X244757625Y-182354856D01*
X244592128Y-182362715D01*
X244469017Y-182386289D01*
X244381864Y-182428437D01*
X244324237Y-182492016D01*
X244292091Y-182581551D01*
X244281375Y-182701566D01*
X244290424Y-182795388D01*
X244317570Y-182871111D01*
X244366386Y-182933262D01*
X244440442Y-182986364D01*
X244545456Y-183034703D01*
X244687140Y-183082566D01*
X244800249Y-183119476D01*
X244884307Y-183154004D01*
X244984320Y-183227346D01*
X245014800Y-183324501D01*
X244993845Y-183418799D01*
X244922407Y-183465471D01*
X244780485Y-183478807D01*
X244687854Y-183474520D01*
X244619512Y-183461661D01*
X244538550Y-183401654D01*
X244508070Y-183278781D01*
X244269945Y-183278781D01*
X244106115Y-183278781D01*
X244106115Y-182373906D01*
X243871800Y-182373906D01*
X243871800Y-183118761D01*
X243898470Y-183389272D01*
X243892755Y-183389272D01*
X243427935Y-182373906D01*
X243130755Y-182373906D01*
X243130755Y-183669307D01*
X242831670Y-183669307D01*
X242831670Y-183457851D01*
X242593545Y-183457851D01*
X242593545Y-182585361D01*
X242818335Y-182585361D01*
X242818335Y-182373906D01*
X242130630Y-182373906D01*
X242130630Y-182585361D01*
X242355420Y-182585361D01*
X242355420Y-183457851D01*
X242117295Y-183457851D01*
X241720420Y-183457851D01*
X241720420Y-181957981D01*
X242117295Y-181957981D01*
X256378125Y-181957981D01*
X256775000Y-181957981D01*
X256775000Y-184083327D01*
G37*
%TD*%
%LPC*%
%TO.C,kibuzzard-66C556ED*%
G36*
X198428625Y-231045101D02*
G01*
X197584075Y-231045101D01*
X197584075Y-230800627D01*
X198428625Y-230800627D01*
X198428625Y-231045101D01*
G37*
G36*
X202202430Y-230280561D02*
G01*
X201862387Y-230280561D01*
X201862387Y-229967189D01*
X202202430Y-229967189D01*
X202202430Y-230280561D01*
G37*
G36*
X196668405Y-231278464D02*
G01*
X196679517Y-231278464D01*
X196975110Y-230425024D01*
X197255145Y-230425024D01*
X196632845Y-232063007D01*
X196352810Y-232063007D01*
X196530610Y-231578502D01*
X196092777Y-230425024D01*
X196368367Y-230425024D01*
X196668405Y-231278464D01*
G37*
G36*
X202193540Y-231356251D02*
G01*
X202564697Y-231356251D01*
X202564697Y-231585169D01*
X201540125Y-231585169D01*
X201540125Y-231356251D01*
X201926840Y-231356251D01*
X201926840Y-230653941D01*
X201562350Y-230653941D01*
X201562350Y-230425024D01*
X202193540Y-230425024D01*
X202193540Y-231356251D01*
G37*
G36*
X195108210Y-230933977D02*
G01*
X195599382Y-230425024D01*
X195919422Y-230425024D01*
X195410470Y-230942867D01*
X195970540Y-231585169D01*
X195630497Y-231585169D01*
X195108210Y-230953979D01*
X195108210Y-231585169D01*
X194841510Y-231585169D01*
X194841510Y-229967189D01*
X195108210Y-229967189D01*
X195108210Y-230933977D01*
G37*
G36*
X200424430Y-231162894D02*
G01*
X200465546Y-231329581D01*
X200622232Y-231374031D01*
X200726134Y-231366253D01*
X200802255Y-231342917D01*
X200891155Y-231237348D01*
X200911157Y-231147059D01*
X200917825Y-231025099D01*
X200917825Y-230425024D01*
X201188970Y-230425024D01*
X201188970Y-231585169D01*
X200917825Y-231585169D01*
X200917825Y-231422927D01*
X200900045Y-231422927D01*
X200838093Y-231510993D01*
X200767806Y-231566278D01*
X200674739Y-231595448D01*
X200544445Y-231605172D01*
X200408595Y-231595170D01*
X200307749Y-231565167D01*
X200236351Y-231511271D01*
X200188845Y-231429594D01*
X200162175Y-231314024D01*
X200153285Y-231158449D01*
X200153285Y-230425024D01*
X200424430Y-230425024D01*
X200424430Y-231162894D01*
G37*
G36*
X204857762Y-230410022D02*
G01*
X204993890Y-230451694D01*
X205091124Y-230526148D01*
X205156133Y-230638384D01*
X205183296Y-230737656D01*
X205199595Y-230860634D01*
X205205028Y-231007319D01*
X205202805Y-231093996D01*
X204938328Y-231093996D01*
X204413818Y-231093996D01*
X204449378Y-231265129D01*
X204532721Y-231350695D01*
X204691630Y-231376254D01*
X204837204Y-231345139D01*
X204909435Y-231229569D01*
X205185025Y-231229569D01*
X205155577Y-231359585D01*
X205111683Y-231456264D01*
X205048897Y-231524884D01*
X204962775Y-231570723D01*
X204846649Y-231596559D01*
X204693853Y-231605172D01*
X204501051Y-231591559D01*
X204358255Y-231550720D01*
X204257409Y-231477100D01*
X204190456Y-231365141D01*
X204162675Y-231265623D01*
X204146006Y-231141904D01*
X204140450Y-230993984D01*
X204145086Y-230867302D01*
X204416040Y-230867302D01*
X204938328Y-230867302D01*
X204906101Y-230719505D01*
X204827203Y-230646163D01*
X204676073Y-230625049D01*
X204531610Y-230646163D01*
X204453823Y-230719505D01*
X204416040Y-230867302D01*
X204145086Y-230867302D01*
X204145759Y-230848904D01*
X204161687Y-230727778D01*
X204188234Y-230630605D01*
X204252686Y-230521425D01*
X204350476Y-230449471D01*
X204489105Y-230409466D01*
X204676073Y-230396131D01*
X204857762Y-230410022D01*
G37*
G36*
X203853748Y-231585169D02*
G01*
X203584825Y-231585169D01*
X203584825Y-231465154D01*
X203567045Y-231465154D01*
X203450364Y-231577390D01*
X203367853Y-231599893D01*
X203329238Y-231602381D01*
X203251450Y-231607394D01*
X203083929Y-231593781D01*
X202959191Y-231552943D01*
X202870847Y-231479600D01*
X202812506Y-231368475D01*
X202788429Y-231269574D01*
X202773983Y-231146225D01*
X202769168Y-230998429D01*
X203042535Y-230998429D01*
X203048925Y-231128723D01*
X203068094Y-231226235D01*
X203154771Y-231340694D01*
X203329238Y-231374031D01*
X203487035Y-231339583D01*
X203565934Y-231225124D01*
X203583436Y-231128445D01*
X203589270Y-230998429D01*
X203583436Y-230868691D01*
X203565934Y-230772845D01*
X203487035Y-230660609D01*
X203329238Y-230627272D01*
X203154771Y-230660609D01*
X203068094Y-230772845D01*
X203048925Y-230868691D01*
X203042535Y-230998429D01*
X202769168Y-230998429D01*
X202773983Y-230852114D01*
X202788429Y-230730247D01*
X202812506Y-230632828D01*
X202870847Y-230523370D01*
X202959191Y-230450583D01*
X203083929Y-230409744D01*
X203251450Y-230396131D01*
X203378133Y-230403355D01*
X203464810Y-230425024D01*
X203567045Y-230533926D01*
X203584825Y-230533926D01*
X203584825Y-229967189D01*
X203853748Y-229967189D01*
X203853748Y-231585169D01*
G37*
G36*
X206520748Y-231585169D02*
G01*
X206251825Y-231585169D01*
X206251825Y-231465154D01*
X206234045Y-231465154D01*
X206117364Y-231577390D01*
X206034853Y-231599893D01*
X205996238Y-231602381D01*
X205918450Y-231607394D01*
X205750929Y-231593781D01*
X205626191Y-231552943D01*
X205537847Y-231479600D01*
X205479506Y-231368475D01*
X205455429Y-231269574D01*
X205440983Y-231146225D01*
X205436168Y-230998429D01*
X205709535Y-230998429D01*
X205715925Y-231128723D01*
X205735094Y-231226235D01*
X205821771Y-231340694D01*
X205996238Y-231374031D01*
X206154035Y-231339583D01*
X206232934Y-231225124D01*
X206250436Y-231128445D01*
X206256270Y-230998429D01*
X206250436Y-230868691D01*
X206232934Y-230772845D01*
X206154035Y-230660609D01*
X205996238Y-230627272D01*
X205821771Y-230660609D01*
X205735094Y-230772845D01*
X205715925Y-230868691D01*
X205709535Y-230998429D01*
X205436168Y-230998429D01*
X205440983Y-230852114D01*
X205455429Y-230730247D01*
X205479506Y-230632828D01*
X205537847Y-230523370D01*
X205626191Y-230450583D01*
X205750929Y-230409744D01*
X205918450Y-230396131D01*
X206045133Y-230403355D01*
X206131810Y-230425024D01*
X206234045Y-230533926D01*
X206251825Y-230533926D01*
X206251825Y-229967189D01*
X206520748Y-229967189D01*
X206520748Y-231585169D01*
G37*
G36*
X194179205Y-230404188D02*
G01*
X194308110Y-230428358D01*
X194399232Y-230471696D01*
X194459240Y-230537260D01*
X194493133Y-230630327D01*
X194505912Y-230756176D01*
X194239212Y-230756176D01*
X194184761Y-230652830D01*
X194114475Y-230631994D01*
X194003627Y-230625049D01*
X193887502Y-230631161D01*
X193814715Y-230649496D01*
X193763597Y-230740619D01*
X193833606Y-230803960D01*
X193936675Y-230836464D01*
X194105862Y-230878414D01*
X194253659Y-230918141D01*
X194363672Y-230961758D01*
X194493689Y-231076216D01*
X194522859Y-231155115D01*
X194532582Y-231254016D01*
X194520914Y-231376254D01*
X194485910Y-231467377D01*
X194422847Y-231531829D01*
X194327001Y-231574056D01*
X194191707Y-231597393D01*
X194010295Y-231605172D01*
X193821660Y-231596282D01*
X193682476Y-231569612D01*
X193584964Y-231521272D01*
X193521345Y-231447374D01*
X193487452Y-231342917D01*
X193479117Y-231202899D01*
X193752485Y-231202899D01*
X193779155Y-231308468D01*
X193862499Y-231360697D01*
X194030297Y-231376254D01*
X194140867Y-231369864D01*
X194210320Y-231350695D01*
X194259215Y-231256239D01*
X194231434Y-231181785D01*
X194136977Y-231129556D01*
X194056412Y-231107331D01*
X193948065Y-231085107D01*
X193790545Y-231049824D01*
X193673586Y-231010653D01*
X193535791Y-230906195D01*
X193494675Y-230738396D01*
X193506065Y-230618659D01*
X193540236Y-230530593D01*
X193601911Y-230468641D01*
X193695811Y-230427246D01*
X193828328Y-230403910D01*
X194005850Y-230396131D01*
X194179205Y-230404188D01*
G37*
G36*
X199407914Y-230409189D02*
G01*
X199485424Y-230435025D01*
X199590992Y-230562819D01*
X199608772Y-230562819D01*
X199608772Y-230425024D01*
X199868805Y-230425024D01*
X199868805Y-231618507D01*
X199857137Y-231777693D01*
X199822132Y-231895208D01*
X199759069Y-231977996D01*
X199663224Y-232033003D01*
X199527373Y-232063840D01*
X199344295Y-232074119D01*
X199167051Y-232065229D01*
X199035367Y-232038559D01*
X198942022Y-231991053D01*
X198879792Y-231919655D01*
X198843677Y-231818809D01*
X198828675Y-231682959D01*
X199102042Y-231682959D01*
X199126490Y-231787417D01*
X199196499Y-231837423D01*
X199346517Y-231851869D01*
X199500981Y-231828533D01*
X199577657Y-231750745D01*
X199602105Y-231596282D01*
X199604327Y-231427371D01*
X199586547Y-231427371D01*
X199519872Y-231528495D01*
X199425416Y-231577390D01*
X199330960Y-231585859D01*
X199264285Y-231591836D01*
X199102042Y-231578501D01*
X198979805Y-231538496D01*
X198891738Y-231467099D01*
X198832009Y-231359585D01*
X198797838Y-231208177D01*
X198786447Y-231005097D01*
X199057592Y-231005097D01*
X199063704Y-231129279D01*
X199082040Y-231221790D01*
X199165384Y-231330693D01*
X199330960Y-231362919D01*
X199495425Y-231330693D01*
X199577657Y-231221790D01*
X199595993Y-231129279D01*
X199602105Y-231005097D01*
X199595993Y-230875080D01*
X199577657Y-230778402D01*
X199495425Y-230663943D01*
X199330960Y-230629494D01*
X199165384Y-230663943D01*
X199082040Y-230778402D01*
X199063704Y-230875080D01*
X199057592Y-231005097D01*
X198786447Y-231005097D01*
X198791510Y-230858658D01*
X198806697Y-230736421D01*
X198832009Y-230638384D01*
X198893683Y-230528092D01*
X198987584Y-230455028D01*
X199120100Y-230414189D01*
X199297622Y-230400576D01*
X199407914Y-230409189D01*
G37*
%TO.C,kibuzzard-66C556E1*%
G36*
X194050300Y-233899724D02*
G01*
X193654060Y-233899724D01*
X193849640Y-233173284D01*
X193854720Y-233173284D01*
X194050300Y-233899724D01*
G37*
G36*
X198622300Y-233899724D02*
G01*
X198226060Y-233899724D01*
X198421640Y-233173284D01*
X198426720Y-233173284D01*
X198622300Y-233899724D01*
G37*
G36*
X204457950Y-233132009D02*
G01*
X204581140Y-233137724D01*
X204741160Y-233189794D01*
X204784340Y-233346004D01*
X204742430Y-233542854D01*
X204586220Y-233597464D01*
X204258560Y-233597464D01*
X204258560Y-233132644D01*
X204367780Y-233130104D01*
X204457950Y-233132009D01*
G37*
G36*
X190829897Y-233138676D02*
G01*
X190945150Y-233156774D01*
X191081040Y-233236784D01*
X191121680Y-233396804D01*
X191086120Y-233564444D01*
X190964200Y-233648264D01*
X190860060Y-233667314D01*
X190720360Y-233673664D01*
X190560340Y-233673664D01*
X190560340Y-233132644D01*
X190674640Y-233132644D01*
X190829897Y-233138676D01*
G37*
G36*
X208891520Y-233130739D02*
G01*
X209010900Y-233140264D01*
X209157267Y-233167886D01*
X209266170Y-233215194D01*
X209343322Y-233288219D01*
X209394440Y-233392994D01*
X209423015Y-233536821D01*
X209432540Y-233727004D01*
X209422697Y-233927981D01*
X209393170Y-234078794D01*
X209340147Y-234187061D01*
X209259820Y-234260404D01*
X209146155Y-234304854D01*
X208993120Y-234326444D01*
X208792460Y-234318824D01*
X208792460Y-233127564D01*
X208891520Y-233130739D01*
G37*
G36*
X203117465Y-233125976D02*
G01*
X203207000Y-233166934D01*
X203270182Y-233240594D01*
X203312410Y-233352354D01*
X203336222Y-233511421D01*
X203344160Y-233727004D01*
X203336222Y-233936237D01*
X203312410Y-234091494D01*
X203270182Y-234201349D01*
X203207000Y-234274374D01*
X203117465Y-234315331D01*
X202996180Y-234328984D01*
X202874577Y-234315331D01*
X202784090Y-234274374D01*
X202719955Y-234201349D01*
X202677410Y-234091494D01*
X202653597Y-233936237D01*
X202645660Y-233727004D01*
X202653597Y-233513009D01*
X202677410Y-233353624D01*
X202719955Y-233240911D01*
X202784090Y-233166934D01*
X202874577Y-233125976D01*
X202996180Y-233112324D01*
X203117465Y-233125976D01*
G37*
G36*
X206165465Y-233125976D02*
G01*
X206255000Y-233166934D01*
X206318182Y-233240594D01*
X206360410Y-233352354D01*
X206384222Y-233511421D01*
X206392160Y-233727004D01*
X206384222Y-233936237D01*
X206360410Y-234091494D01*
X206318182Y-234201349D01*
X206255000Y-234274374D01*
X206165465Y-234315331D01*
X206044180Y-234328984D01*
X205922577Y-234315331D01*
X205832090Y-234274374D01*
X205767955Y-234201349D01*
X205725410Y-234091494D01*
X205701597Y-233936237D01*
X205693660Y-233727004D01*
X205701597Y-233513009D01*
X205725410Y-233353624D01*
X205767955Y-233240911D01*
X205832090Y-233166934D01*
X205922577Y-233125976D01*
X206044180Y-233112324D01*
X206165465Y-233125976D01*
G37*
G36*
X210428247Y-232310580D02*
G01*
X210565789Y-232330983D01*
X210700670Y-232364768D01*
X210831590Y-232411612D01*
X210957287Y-232471063D01*
X211076552Y-232542547D01*
X211188236Y-232625378D01*
X211291264Y-232718757D01*
X211384643Y-232821784D01*
X211467473Y-232933468D01*
X211538958Y-233052734D01*
X211598408Y-233178431D01*
X211645252Y-233309351D01*
X211679038Y-233444231D01*
X211699441Y-233581774D01*
X211706263Y-233720654D01*
X211699441Y-233859534D01*
X211679038Y-233997077D01*
X211645252Y-234131957D01*
X211598408Y-234262877D01*
X211538958Y-234388574D01*
X211467473Y-234507840D01*
X211384643Y-234619524D01*
X211291264Y-234722551D01*
X211188236Y-234815930D01*
X211076552Y-234898761D01*
X210957287Y-234970245D01*
X210831590Y-235029696D01*
X210700670Y-235076540D01*
X210565789Y-235110325D01*
X210428247Y-235130728D01*
X210289367Y-235137551D01*
X209760200Y-235137551D01*
X208916920Y-235137551D01*
X208043160Y-235137551D01*
X206044180Y-235137551D01*
X205203440Y-235137551D01*
X202996180Y-235137551D01*
X201634740Y-235137551D01*
X199145540Y-235137551D01*
X197575820Y-235137551D01*
X195381260Y-235137551D01*
X194573540Y-235137551D01*
X192973340Y-235137551D01*
X190560340Y-235137551D01*
X190235220Y-235137551D01*
X189706053Y-235137551D01*
X189567173Y-235130728D01*
X189429630Y-235110325D01*
X189294750Y-235076540D01*
X189163830Y-235029696D01*
X189038133Y-234970245D01*
X188918868Y-234898761D01*
X188807184Y-234815930D01*
X188704156Y-234722551D01*
X188610777Y-234619524D01*
X188527947Y-234507840D01*
X188456462Y-234388574D01*
X188397012Y-234262877D01*
X188350168Y-234131957D01*
X188316382Y-233997077D01*
X188295979Y-233859534D01*
X188289157Y-233720654D01*
X188295979Y-233581774D01*
X188316382Y-233444231D01*
X188350168Y-233309351D01*
X188397012Y-233178431D01*
X188456462Y-233052734D01*
X188527947Y-232933468D01*
X188583677Y-232858324D01*
X190235220Y-232858324D01*
X190235220Y-234585524D01*
X190560340Y-234585524D01*
X193130820Y-234585524D01*
X193453400Y-234585524D01*
X193577860Y-234171504D01*
X194126500Y-234171504D01*
X194250960Y-234585524D01*
X194573540Y-234585524D01*
X194418096Y-234064824D01*
X194720860Y-234064824D01*
X194729750Y-234254054D01*
X194771660Y-234395024D01*
X194851352Y-234494719D01*
X194973590Y-234560124D01*
X195147262Y-234596319D01*
X195381260Y-234608384D01*
X195608272Y-234597589D01*
X195670845Y-234585524D01*
X196227080Y-234585524D01*
X196526800Y-234585524D01*
X196526800Y-233711764D01*
X196496320Y-233262184D01*
X196506480Y-233262184D01*
X196773180Y-234008944D01*
X197029720Y-234008944D01*
X197296420Y-233262184D01*
X197306580Y-233262184D01*
X197276100Y-233711764D01*
X197276100Y-234585524D01*
X197575820Y-234585524D01*
X197702820Y-234585524D01*
X198025400Y-234585524D01*
X198149860Y-234171504D01*
X198698500Y-234171504D01*
X198822960Y-234585524D01*
X199145540Y-234585524D01*
X198716362Y-233147884D01*
X200847340Y-233147884D01*
X201309620Y-233147884D01*
X201309620Y-234585524D01*
X201634740Y-234585524D01*
X201634740Y-233727004D01*
X202325620Y-233727004D01*
X202332252Y-233941211D01*
X202352149Y-234119857D01*
X202385310Y-234262944D01*
X202465955Y-234423599D01*
X202588510Y-234529644D01*
X202697589Y-234573388D01*
X202833479Y-234599635D01*
X202996180Y-234608384D01*
X203158881Y-234599635D01*
X203294771Y-234573388D01*
X203403850Y-234529644D01*
X203526405Y-234423599D01*
X203607050Y-234262944D01*
X203640211Y-234119857D01*
X203660108Y-233941211D01*
X203666740Y-233727004D01*
X203660108Y-233509693D01*
X203640211Y-233328506D01*
X203607050Y-233183444D01*
X203526405Y-233020566D01*
X203403850Y-232912934D01*
X203294771Y-232868484D01*
X203255945Y-232860864D01*
X203935980Y-232860864D01*
X203935980Y-234585524D01*
X204258560Y-234585524D01*
X204258560Y-233879404D01*
X204421120Y-233879404D01*
X204555740Y-233889246D01*
X204644640Y-233918774D01*
X204736080Y-234069904D01*
X204855460Y-234585524D01*
X205203440Y-234585524D01*
X205058660Y-234047044D01*
X205015162Y-233919409D01*
X204965950Y-233836224D01*
X204807200Y-233757484D01*
X204807200Y-233734624D01*
X204831245Y-233727004D01*
X205373620Y-233727004D01*
X205380252Y-233941211D01*
X205400149Y-234119857D01*
X205433310Y-234262944D01*
X205513955Y-234423599D01*
X205636510Y-234529644D01*
X205745589Y-234573388D01*
X205881479Y-234599635D01*
X206044180Y-234608384D01*
X206206881Y-234599635D01*
X206342771Y-234573388D01*
X206451850Y-234529644D01*
X206574405Y-234423599D01*
X206634650Y-234303584D01*
X207090660Y-234303584D01*
X207090660Y-234585524D01*
X208043160Y-234585524D01*
X208043160Y-234303584D01*
X207725660Y-234303584D01*
X207725660Y-233140264D01*
X208025380Y-233140264D01*
X208025380Y-232858324D01*
X208467340Y-232858324D01*
X208467340Y-234585524D01*
X208633569Y-234596813D01*
X208783429Y-234603586D01*
X208916920Y-234605844D01*
X209120402Y-234597095D01*
X209290582Y-234570848D01*
X209427460Y-234527104D01*
X209581765Y-234422011D01*
X209684000Y-234264214D01*
X209726333Y-234124655D01*
X209751733Y-233951512D01*
X209760200Y-233744784D01*
X209752862Y-233547087D01*
X209730849Y-233380717D01*
X209694160Y-233245674D01*
X209604942Y-233089146D01*
X209469370Y-232977704D01*
X209349002Y-232925211D01*
X209199566Y-232886264D01*
X209021060Y-232860864D01*
X208899140Y-232851339D01*
X208761980Y-232848164D01*
X208622280Y-232850704D01*
X208467340Y-232858324D01*
X208025380Y-232858324D01*
X207108440Y-232858324D01*
X207108440Y-233140264D01*
X207408160Y-233140264D01*
X207408160Y-234303584D01*
X207090660Y-234303584D01*
X206634650Y-234303584D01*
X206655050Y-234262944D01*
X206688211Y-234119857D01*
X206708108Y-233941211D01*
X206714740Y-233727004D01*
X206708108Y-233509693D01*
X206688211Y-233328506D01*
X206655050Y-233183444D01*
X206574405Y-233020566D01*
X206451850Y-232912934D01*
X206342771Y-232868484D01*
X206206881Y-232841814D01*
X206044180Y-232832924D01*
X205881479Y-232841814D01*
X205745589Y-232868484D01*
X205636510Y-232912934D01*
X205513955Y-233020566D01*
X205433310Y-233183444D01*
X205400149Y-233328506D01*
X205380252Y-233509693D01*
X205373620Y-233727004D01*
X204831245Y-233727004D01*
X204987540Y-233677474D01*
X205077710Y-233563174D01*
X205104380Y-233358704D01*
X205088187Y-233184714D01*
X205039610Y-233053904D01*
X204952615Y-232959924D01*
X204821170Y-232896424D01*
X204704753Y-232869613D01*
X204560397Y-232853526D01*
X204388100Y-232848164D01*
X204238240Y-232850704D01*
X203935980Y-232860864D01*
X203255945Y-232860864D01*
X203158881Y-232841814D01*
X202996180Y-232832924D01*
X202833479Y-232841814D01*
X202697589Y-232868484D01*
X202588510Y-232912934D01*
X202465955Y-233020566D01*
X202385310Y-233183444D01*
X202352149Y-233328506D01*
X202332252Y-233509693D01*
X202325620Y-233727004D01*
X201634740Y-233727004D01*
X201634740Y-233147884D01*
X202097020Y-233147884D01*
X202097020Y-232858324D01*
X200847340Y-232858324D01*
X200847340Y-233147884D01*
X198716362Y-233147884D01*
X198629920Y-232858324D01*
X198218440Y-232858324D01*
X197702820Y-234585524D01*
X197575820Y-234585524D01*
X197575820Y-232858324D01*
X197197360Y-232858324D01*
X196915420Y-233686364D01*
X196887480Y-233686364D01*
X196610620Y-232858324D01*
X196227080Y-232858324D01*
X196227080Y-234585524D01*
X195670845Y-234585524D01*
X195776230Y-234565204D01*
X195894657Y-234506784D01*
X195973080Y-234417884D01*
X196016895Y-234292154D01*
X196031500Y-234123244D01*
X196019435Y-233984496D01*
X195983240Y-233873054D01*
X195918787Y-233782566D01*
X195821950Y-233706684D01*
X195685107Y-233638739D01*
X195500640Y-233572064D01*
X195287597Y-233498721D01*
X195151390Y-233436174D01*
X195053600Y-233305364D01*
X195081540Y-233185984D01*
X195174250Y-233127564D01*
X195360940Y-233109784D01*
X195542550Y-233128834D01*
X195636530Y-233192334D01*
X195673360Y-233320604D01*
X195995940Y-233320604D01*
X195983240Y-233149789D01*
X195940060Y-233023424D01*
X195862907Y-232934524D01*
X195748290Y-232876104D01*
X195587317Y-232843719D01*
X195371100Y-232832924D01*
X195150437Y-232843401D01*
X194986290Y-232874834D01*
X194870085Y-232931031D01*
X194793250Y-233015804D01*
X194750387Y-233135184D01*
X194736100Y-233295204D01*
X194748165Y-233420299D01*
X194784360Y-233521264D01*
X194849447Y-233604131D01*
X194948190Y-233674934D01*
X195088207Y-233739386D01*
X195277120Y-233803204D01*
X195427932Y-233852416D01*
X195540010Y-233898454D01*
X195673360Y-233996244D01*
X195714000Y-234125784D01*
X195686060Y-234251514D01*
X195590810Y-234313744D01*
X195401580Y-234331524D01*
X195278072Y-234325809D01*
X195186950Y-234308664D01*
X195079000Y-234228654D01*
X195038360Y-234064824D01*
X194720860Y-234064824D01*
X194418096Y-234064824D01*
X194057920Y-232858324D01*
X193646440Y-232858324D01*
X193130820Y-234585524D01*
X190560340Y-234585524D01*
X190560340Y-234582984D01*
X191774460Y-234582984D01*
X192973340Y-234582984D01*
X192973340Y-234298504D01*
X192099580Y-234298504D01*
X192099580Y-232858324D01*
X191774460Y-232858324D01*
X191774460Y-234582984D01*
X190560340Y-234582984D01*
X190560340Y-233955604D01*
X190745760Y-233955604D01*
X190914811Y-233950101D01*
X191056204Y-233933591D01*
X191169940Y-233906074D01*
X191297892Y-233839717D01*
X191382030Y-233739704D01*
X191428702Y-233598099D01*
X191444260Y-233406964D01*
X191426162Y-233213289D01*
X191371870Y-233069144D01*
X191274080Y-232967226D01*
X191125490Y-232900234D01*
X190993269Y-232872717D01*
X190828592Y-232856207D01*
X190631460Y-232850704D01*
X190235220Y-232858324D01*
X188583677Y-232858324D01*
X188610777Y-232821784D01*
X188704156Y-232718757D01*
X188807184Y-232625378D01*
X188918868Y-232542547D01*
X189038133Y-232471063D01*
X189163830Y-232411612D01*
X189294750Y-232364768D01*
X189429630Y-232330983D01*
X189567173Y-232310580D01*
X189706053Y-232303757D01*
X190235220Y-232303757D01*
X209760200Y-232303757D01*
X210289367Y-232303757D01*
X210428247Y-232310580D01*
G37*
%TD*%
D18*
%TO.C,R11*%
X156900005Y-209558154D03*
X156900005Y-212483154D03*
%TD*%
D19*
%TO.C,H5*%
X247317710Y-63980654D03*
X247800984Y-62813928D03*
X247800984Y-65147380D03*
X248967710Y-62330654D03*
D20*
X248967710Y-63980654D03*
D19*
X248967710Y-65630654D03*
X250134436Y-62813928D03*
X250134436Y-65147380D03*
X250617710Y-63980654D03*
%TD*%
D21*
%TO.C,U2*%
X162745420Y-217541308D03*
D22*
X160895420Y-216041308D03*
D21*
X162745420Y-214541308D03*
X159045420Y-214541308D03*
X159045420Y-217541308D03*
%TD*%
D23*
%TO.C,SW1*%
X221747710Y-224495654D03*
X221747710Y-216545654D03*
X226247710Y-224495654D03*
X226247710Y-216545654D03*
%TD*%
D24*
%TO.C,Cp4*%
X198100000Y-195370654D03*
D25*
X198100000Y-199745654D03*
%TD*%
D26*
%TO.C,D5*%
X213000000Y-219370654D03*
X213000000Y-222670654D03*
%TD*%
D27*
%TO.C,TP6*%
X176600000Y-197500000D03*
%TD*%
D28*
%TO.C,D4*%
X244610210Y-202008154D03*
X246510210Y-202008154D03*
X245560210Y-200133154D03*
%TD*%
D29*
%TO.C,Q2*%
X197647710Y-209560654D03*
D30*
X188497710Y-207020654D03*
D29*
X197647710Y-204480654D03*
%TD*%
D31*
%TO.C,C3*%
X246275000Y-204720654D03*
X244725000Y-204720654D03*
%TD*%
D32*
%TO.C,R4*%
X156900005Y-202195654D03*
X156900005Y-203845654D03*
%TD*%
D33*
%TO.C,C6*%
X241272710Y-197020654D03*
X238322710Y-197020654D03*
%TD*%
D34*
%TO.C,C1*%
X250750000Y-214295654D03*
X250750000Y-212745654D03*
%TD*%
D35*
%TO.C,U4*%
X178860210Y-219070654D03*
X178860210Y-220020654D03*
X178860210Y-220970654D03*
X181135210Y-220970654D03*
X181135210Y-219070654D03*
%TD*%
D27*
%TO.C,TP5*%
X140750000Y-199000000D03*
%TD*%
D19*
%TO.C,H9*%
X175347710Y-230520654D03*
X175830984Y-229353928D03*
X175830984Y-231687380D03*
X176997710Y-228870654D03*
D20*
X176997710Y-230520654D03*
D19*
X176997710Y-232170654D03*
X178164436Y-229353928D03*
X178164436Y-231687380D03*
X178647710Y-230520654D03*
%TD*%
D36*
%TO.C,TPg5*%
X253797710Y-197620654D03*
%TD*%
D37*
%TO.C,R1*%
X218322710Y-225020654D03*
X216672710Y-225020654D03*
%TD*%
D38*
%TO.C,R8*%
X208997710Y-222483154D03*
X208997710Y-219558154D03*
%TD*%
D27*
%TO.C,TP7*%
X201997710Y-213520654D03*
%TD*%
D39*
%TO.C,TPg6*%
X259250000Y-207020654D03*
%TD*%
D40*
%TO.C,T1*%
X233464466Y-201964466D03*
D41*
X233464466Y-209035534D03*
D42*
X240535534Y-209035534D03*
D41*
X240535534Y-201964466D03*
%TD*%
D31*
%TO.C,C12*%
X171772710Y-217020654D03*
X170222710Y-217020654D03*
%TD*%
D33*
%TO.C,C10*%
X162375005Y-207020654D03*
X159425005Y-207020654D03*
%TD*%
D43*
%TO.C,D2*%
X217500000Y-222420654D03*
X217500000Y-219620654D03*
%TD*%
D44*
%TO.C,Rg3*%
X205712500Y-204520654D03*
X201087500Y-204520654D03*
%TD*%
D18*
%TO.C,R10*%
X212997710Y-204058154D03*
X212997710Y-206983154D03*
%TD*%
D27*
%TO.C,TP2*%
X140750000Y-203000000D03*
%TD*%
D45*
%TO.C,R2*%
X253097710Y-207845654D03*
X253097710Y-206195654D03*
%TD*%
D29*
%TO.C,Q1*%
X197650000Y-222560654D03*
D30*
X188500000Y-220020654D03*
D29*
X197650000Y-217480654D03*
%TD*%
D46*
%TO.C,U1*%
X248500000Y-209220654D03*
X249000000Y-209220654D03*
X249500000Y-209220654D03*
X250000000Y-209220654D03*
X250500000Y-209220654D03*
X250500000Y-204820654D03*
X250000000Y-204820654D03*
X249500000Y-204820654D03*
X249000000Y-204820654D03*
X248500000Y-204820654D03*
%TD*%
D19*
%TO.C,H10*%
X221347710Y-230520654D03*
X221830984Y-229353928D03*
X221830984Y-231687380D03*
X222997710Y-228870654D03*
D20*
X222997710Y-230520654D03*
D19*
X222997710Y-232170654D03*
X224164436Y-229353928D03*
X224164436Y-231687380D03*
X224647710Y-230520654D03*
%TD*%
D44*
%TO.C,Rg1*%
X205810210Y-217520654D03*
X201185210Y-217520654D03*
%TD*%
D36*
%TO.C,TPg3*%
X217500000Y-209000000D03*
%TD*%
D47*
%TO.C,C14*%
X208997710Y-204045654D03*
X208997710Y-206995654D03*
%TD*%
D48*
%TO.C,D7*%
X153897710Y-211020654D03*
X151097710Y-211020654D03*
%TD*%
D27*
%TO.C,TP4*%
X217500000Y-213500000D03*
%TD*%
D47*
%TO.C,C2*%
X245497710Y-212045654D03*
X245497710Y-214995654D03*
%TD*%
D19*
%TO.C,H7*%
X148687710Y-63280654D03*
X149170984Y-62113928D03*
X149170984Y-64447380D03*
X150337710Y-61630654D03*
D20*
X150337710Y-63280654D03*
D19*
X150337710Y-64930654D03*
X151504436Y-62113928D03*
X151504436Y-64447380D03*
X151987710Y-63280654D03*
%TD*%
%TO.C,H4*%
X247327710Y-220710654D03*
X247810984Y-219543928D03*
X247810984Y-221877380D03*
X248977710Y-219060654D03*
D20*
X248977710Y-220710654D03*
D19*
X248977710Y-222360654D03*
X250144436Y-219543928D03*
X250144436Y-221877380D03*
X250627710Y-220710654D03*
%TD*%
D49*
%TO.C,D8*%
X207687710Y-212570654D03*
X207687710Y-214470654D03*
X210307710Y-213520654D03*
%TD*%
D24*
%TO.C,Cp2*%
X207097710Y-195370654D03*
D25*
X207097710Y-199745654D03*
%TD*%
D50*
%TO.C,RV1*%
X241397710Y-220470654D03*
X232597710Y-220470654D03*
D51*
X234497710Y-213470654D03*
X236997710Y-213470654D03*
X239497710Y-213470654D03*
%TD*%
D45*
%TO.C,R9*%
X156897710Y-207845654D03*
X156897710Y-206195654D03*
%TD*%
D31*
%TO.C,C7*%
X175872710Y-217020654D03*
X174322710Y-217020654D03*
%TD*%
D52*
%TO.C,L1*%
X170147710Y-207020654D03*
X179847710Y-207020654D03*
%TD*%
D36*
%TO.C,TPg4*%
X144750000Y-199000000D03*
%TD*%
D27*
%TO.C,TP1*%
X140750000Y-207000000D03*
%TD*%
D19*
%TO.C,H3*%
X254397710Y-213650654D03*
X254880984Y-212483928D03*
X254880984Y-214817380D03*
X256047710Y-212000654D03*
D20*
X256047710Y-213650654D03*
D19*
X256047710Y-215300654D03*
X257214436Y-212483928D03*
X257214436Y-214817380D03*
X257697710Y-213650654D03*
%TD*%
D36*
%TO.C,TPg1*%
X172600000Y-197500000D03*
%TD*%
D53*
%TO.C,GD1*%
X249497710Y-197883154D03*
X249497710Y-202158154D03*
%TD*%
D19*
%TO.C,H1*%
X142317710Y-213640654D03*
X142800984Y-212473928D03*
X142800984Y-214807380D03*
X143967710Y-211990654D03*
D20*
X143967710Y-213640654D03*
D19*
X143967710Y-215290654D03*
X145134436Y-212473928D03*
X145134436Y-214807380D03*
X145617710Y-213640654D03*
%TD*%
D38*
%TO.C,R12*%
X212997710Y-214983154D03*
X212997710Y-212058154D03*
%TD*%
D33*
%TO.C,C4*%
X162375005Y-211020654D03*
X159425005Y-211020654D03*
%TD*%
D54*
%TO.C,R5*%
X244672710Y-207020654D03*
X246322710Y-207020654D03*
%TD*%
D44*
%TO.C,Rg2*%
X205810210Y-222520654D03*
X201185210Y-222520654D03*
%TD*%
D24*
%TO.C,Cp3*%
X202597710Y-195370654D03*
D25*
X202597710Y-199745654D03*
%TD*%
D45*
%TO.C,R3*%
X248250000Y-214345654D03*
X248250000Y-212695654D03*
%TD*%
D34*
%TO.C,C13*%
X217497710Y-206295654D03*
X217497710Y-204745654D03*
%TD*%
D24*
%TO.C,Cp1*%
X211597710Y-195370654D03*
D25*
X211597710Y-199745654D03*
%TD*%
D48*
%TO.C,D6*%
X153897710Y-207020654D03*
X151097710Y-207020654D03*
%TD*%
D55*
%TO.C,C11*%
X170250000Y-215020654D03*
X171800000Y-215020654D03*
%TD*%
D19*
%TO.C,H8*%
X141607710Y-70350654D03*
X142090984Y-69183928D03*
X142090984Y-71517380D03*
X143257710Y-68700654D03*
D20*
X143257710Y-70350654D03*
D19*
X143257710Y-72000654D03*
X144424436Y-69183928D03*
X144424436Y-71517380D03*
X144907710Y-70350654D03*
%TD*%
D27*
%TO.C,TP3*%
X253797710Y-202120654D03*
%TD*%
D56*
%TO.C,U3*%
X175935210Y-220970654D03*
X175935210Y-219070654D03*
X174060210Y-220020654D03*
%TD*%
D44*
%TO.C,Rg4*%
X205712500Y-209520654D03*
X201087500Y-209520654D03*
%TD*%
D19*
%TO.C,H6*%
X254387710Y-71050654D03*
X254870984Y-69883928D03*
X254870984Y-72217380D03*
X256037710Y-69400654D03*
D20*
X256037710Y-71050654D03*
D19*
X256037710Y-72700654D03*
X257204436Y-69883928D03*
X257204436Y-72217380D03*
X257687710Y-71050654D03*
%TD*%
D48*
%TO.C,D3*%
X153897710Y-203020654D03*
X151097710Y-203020654D03*
%TD*%
D57*
%TO.C,C5*%
X165893130Y-217516308D03*
X165893130Y-214566308D03*
%TD*%
D36*
%TO.C,TPg2*%
X197497710Y-213520654D03*
%TD*%
D58*
%TO.C,T2*%
X226497710Y-209920654D03*
X221497710Y-209920654D03*
X220947710Y-193070654D03*
X227047710Y-193070654D03*
%TD*%
D37*
%TO.C,R6*%
X246322710Y-209220654D03*
X244672710Y-209220654D03*
%TD*%
D19*
%TO.C,H2*%
X149387710Y-220710654D03*
X149870984Y-219543928D03*
X149870984Y-221877380D03*
X151037710Y-219060654D03*
D20*
X151037710Y-220710654D03*
D19*
X151037710Y-222360654D03*
X152204436Y-219543928D03*
X152204436Y-221877380D03*
X152687710Y-220710654D03*
%TD*%
D37*
%TO.C,R7*%
X175900410Y-215020654D03*
X174250410Y-215020654D03*
%TD*%
D33*
%TO.C,C9*%
X162372710Y-203020654D03*
X159422710Y-203020654D03*
%TD*%
D59*
%TO.C,J2*%
X165997710Y-211020654D03*
D60*
X165997710Y-209020654D03*
%TD*%
D61*
%TO.C,J1*%
X165997710Y-202520654D03*
D62*
X165997710Y-204520654D03*
%TD*%
D39*
%TO.C,J3*%
X229997710Y-191820654D03*
%TD*%
D63*
%TO.C,HS1*%
X183495415Y-197541312D03*
X183495415Y-230541312D03*
X216495415Y-197541312D03*
X216495415Y-230541312D03*
%TD*%
%LPD*%
M02*
