%TF.GenerationSoftware,KiCad,Pcbnew,8.0.7*%
%TF.CreationDate,2025-01-02T06:30:12+11:00*%
%TF.ProjectId,plasma toroid unified,706c6173-6d61-4207-946f-726f69642075,v1.02*%
%TF.SameCoordinates,Original*%
%TF.FileFunction,Soldermask,Top*%
%TF.FilePolarity,Negative*%
%FSLAX46Y46*%
G04 Gerber Fmt 4.6, Leading zero omitted, Abs format (unit mm)*
G04 Created by KiCad (PCBNEW 8.0.7) date 2025-01-02 06:30:12*
%MOMM*%
%LPD*%
G01*
G04 APERTURE LIST*
G04 Aperture macros list*
%AMRoundRect*
0 Rectangle with rounded corners*
0 $1 Rounding radius*
0 $2 $3 $4 $5 $6 $7 $8 $9 X,Y pos of 4 corners*
0 Add a 4 corners polygon primitive as box body*
4,1,4,$2,$3,$4,$5,$6,$7,$8,$9,$2,$3,0*
0 Add four circle primitives for the rounded corners*
1,1,$1+$1,$2,$3*
1,1,$1+$1,$4,$5*
1,1,$1+$1,$6,$7*
1,1,$1+$1,$8,$9*
0 Add four rect primitives between the rounded corners*
20,1,$1+$1,$2,$3,$4,$5,0*
20,1,$1+$1,$4,$5,$6,$7,0*
20,1,$1+$1,$6,$7,$8,$9,0*
20,1,$1+$1,$8,$9,$2,$3,0*%
%AMFreePoly0*
4,1,13,0.900000,0.500000,2.600000,0.500000,2.600000,-0.500000,0.900000,-0.500000,0.400000,-1.000000,-0.400000,-1.000000,-0.900000,-0.500000,-2.600000,-0.500000,-2.600000,0.500000,-0.900000,0.500000,-0.400000,1.000000,0.400000,1.000000,0.900000,0.500000,0.900000,0.500000,$1*%
G04 Aperture macros list end*
%ADD10C,0.000000*%
%ADD11RoundRect,0.250000X-0.625000X0.312500X-0.625000X-0.312500X0.625000X-0.312500X0.625000X0.312500X0*%
%ADD12C,0.700000*%
%ADD13C,4.100000*%
%ADD14R,1.500000X0.700000*%
%ADD15FreePoly0,180.000000*%
%ADD16R,1.300000X1.550000*%
%ADD17RoundRect,0.793333X-0.406667X0.056667X-0.406667X-0.056667X0.406667X-0.056667X0.406667X0.056667X0*%
%ADD18RoundRect,0.816667X-0.383333X0.058333X-0.383333X-0.058333X0.383333X-0.058333X0.383333X0.058333X0*%
%ADD19RoundRect,0.225000X-0.375000X0.225000X-0.375000X-0.225000X0.375000X-0.225000X0.375000X0.225000X0*%
%ADD20C,2.000000*%
%ADD21RoundRect,0.150000X0.150000X-0.587500X0.150000X0.587500X-0.150000X0.587500X-0.150000X-0.587500X0*%
%ADD22RoundRect,0.250000X2.050000X0.300000X-2.050000X0.300000X-2.050000X-0.300000X2.050000X-0.300000X0*%
%ADD23RoundRect,0.250002X4.449998X5.149998X-4.449998X5.149998X-4.449998X-5.149998X4.449998X-5.149998X0*%
%ADD24RoundRect,0.225000X0.225000X0.250000X-0.225000X0.250000X-0.225000X-0.250000X0.225000X-0.250000X0*%
%ADD25RoundRect,0.200000X-0.275000X0.200000X-0.275000X-0.200000X0.275000X-0.200000X0.275000X0.200000X0*%
%ADD26RoundRect,0.250000X0.325000X0.650000X-0.325000X0.650000X-0.325000X-0.650000X0.325000X-0.650000X0*%
%ADD27RoundRect,0.225000X0.250000X-0.225000X0.250000X0.225000X-0.250000X0.225000X-0.250000X-0.225000X0*%
%ADD28RoundRect,0.150000X-0.512500X-0.150000X0.512500X-0.150000X0.512500X0.150000X-0.512500X0.150000X0*%
%ADD29R,1.000000X1.000000*%
%ADD30RoundRect,0.200000X0.200000X0.275000X-0.200000X0.275000X-0.200000X-0.275000X0.200000X-0.275000X0*%
%ADD31RoundRect,0.250000X0.625000X-0.312500X0.625000X0.312500X-0.625000X0.312500X-0.625000X-0.312500X0*%
%ADD32C,2.500000*%
%ADD33RoundRect,1.500000X-0.212132X-0.282843X0.282843X0.212132X0.212132X0.282843X-0.282843X-0.212132X0*%
%ADD34RoundRect,1.500000X0.282843X-0.212132X-0.212132X0.282843X-0.282843X0.212132X0.212132X-0.282843X0*%
%ADD35RoundRect,1.500000X0.212132X0.282843X-0.282843X-0.212132X-0.212132X-0.282843X0.282843X0.212132X0*%
%ADD36RoundRect,0.250000X0.625000X-0.375000X0.625000X0.375000X-0.625000X0.375000X-0.625000X-0.375000X0*%
%ADD37RoundRect,0.250000X0.362500X1.075000X-0.362500X1.075000X-0.362500X-1.075000X0.362500X-1.075000X0*%
%ADD38RoundRect,0.200000X0.275000X-0.200000X0.275000X0.200000X-0.275000X0.200000X-0.275000X-0.200000X0*%
%ADD39R,0.300000X1.400000*%
%ADD40RoundRect,0.250000X-0.650000X0.325000X-0.650000X-0.325000X0.650000X-0.325000X0.650000X0.325000X0*%
%ADD41RoundRect,0.250000X0.375000X0.625000X-0.375000X0.625000X-0.375000X-0.625000X0.375000X-0.625000X0*%
%ADD42R,1.220000X0.650000*%
%ADD43C,4.000000*%
%ADD44C,1.800000*%
%ADD45R,2.900000X5.400000*%
%ADD46RoundRect,0.250000X-1.450000X0.312500X-1.450000X-0.312500X1.450000X-0.312500X1.450000X0.312500X0*%
%ADD47RoundRect,0.200000X-0.200000X-0.275000X0.200000X-0.275000X0.200000X0.275000X-0.200000X0.275000X0*%
%ADD48RoundRect,0.225000X-0.225000X-0.250000X0.225000X-0.250000X0.225000X0.250000X-0.225000X0.250000X0*%
%ADD49RoundRect,0.150000X0.587500X0.150000X-0.587500X0.150000X-0.587500X-0.150000X0.587500X-0.150000X0*%
%ADD50RoundRect,0.250000X0.650000X-0.325000X0.650000X0.325000X-0.650000X0.325000X-0.650000X-0.325000X0*%
%ADD51RoundRect,0.800000X-0.200000X0.700000X-0.200000X-0.700000X0.200000X-0.700000X0.200000X0.700000X0*%
%ADD52R,1.350000X1.350000*%
%ADD53O,1.350000X1.350000*%
%ADD54RoundRect,0.250000X-0.625000X0.350000X-0.625000X-0.350000X0.625000X-0.350000X0.625000X0.350000X0*%
%ADD55O,1.750000X1.200000*%
%ADD56C,4.200000*%
G04 APERTURE END LIST*
D10*
%TO.C,kibuzzard-66C556ED*%
G36*
X198428625Y-231045101D02*
G01*
X197584075Y-231045101D01*
X197584075Y-230800627D01*
X198428625Y-230800627D01*
X198428625Y-231045101D01*
G37*
G36*
X202202430Y-230280561D02*
G01*
X201862387Y-230280561D01*
X201862387Y-229967189D01*
X202202430Y-229967189D01*
X202202430Y-230280561D01*
G37*
G36*
X196668405Y-231278464D02*
G01*
X196679517Y-231278464D01*
X196975110Y-230425024D01*
X197255145Y-230425024D01*
X196632845Y-232063007D01*
X196352810Y-232063007D01*
X196530610Y-231578502D01*
X196092777Y-230425024D01*
X196368367Y-230425024D01*
X196668405Y-231278464D01*
G37*
G36*
X202193540Y-231356251D02*
G01*
X202564697Y-231356251D01*
X202564697Y-231585169D01*
X201540125Y-231585169D01*
X201540125Y-231356251D01*
X201926840Y-231356251D01*
X201926840Y-230653941D01*
X201562350Y-230653941D01*
X201562350Y-230425024D01*
X202193540Y-230425024D01*
X202193540Y-231356251D01*
G37*
G36*
X195108210Y-230933977D02*
G01*
X195599382Y-230425024D01*
X195919422Y-230425024D01*
X195410470Y-230942867D01*
X195970540Y-231585169D01*
X195630497Y-231585169D01*
X195108210Y-230953979D01*
X195108210Y-231585169D01*
X194841510Y-231585169D01*
X194841510Y-229967189D01*
X195108210Y-229967189D01*
X195108210Y-230933977D01*
G37*
G36*
X200424430Y-231162894D02*
G01*
X200465546Y-231329581D01*
X200622232Y-231374031D01*
X200726134Y-231366253D01*
X200802255Y-231342917D01*
X200891155Y-231237348D01*
X200911157Y-231147059D01*
X200917825Y-231025099D01*
X200917825Y-230425024D01*
X201188970Y-230425024D01*
X201188970Y-231585169D01*
X200917825Y-231585169D01*
X200917825Y-231422927D01*
X200900045Y-231422927D01*
X200838093Y-231510993D01*
X200767806Y-231566278D01*
X200674739Y-231595448D01*
X200544445Y-231605172D01*
X200408595Y-231595170D01*
X200307749Y-231565167D01*
X200236351Y-231511271D01*
X200188845Y-231429594D01*
X200162175Y-231314024D01*
X200153285Y-231158449D01*
X200153285Y-230425024D01*
X200424430Y-230425024D01*
X200424430Y-231162894D01*
G37*
G36*
X204857762Y-230410022D02*
G01*
X204993890Y-230451694D01*
X205091124Y-230526148D01*
X205156133Y-230638384D01*
X205183296Y-230737656D01*
X205199595Y-230860634D01*
X205205028Y-231007319D01*
X205202805Y-231093996D01*
X204938328Y-231093996D01*
X204413818Y-231093996D01*
X204449378Y-231265129D01*
X204532721Y-231350695D01*
X204691630Y-231376254D01*
X204837204Y-231345139D01*
X204909435Y-231229569D01*
X205185025Y-231229569D01*
X205155577Y-231359585D01*
X205111683Y-231456264D01*
X205048897Y-231524884D01*
X204962775Y-231570723D01*
X204846649Y-231596559D01*
X204693853Y-231605172D01*
X204501051Y-231591559D01*
X204358255Y-231550720D01*
X204257409Y-231477100D01*
X204190456Y-231365141D01*
X204162675Y-231265623D01*
X204146006Y-231141904D01*
X204140450Y-230993984D01*
X204145086Y-230867302D01*
X204416040Y-230867302D01*
X204938328Y-230867302D01*
X204906101Y-230719505D01*
X204827203Y-230646163D01*
X204676073Y-230625049D01*
X204531610Y-230646163D01*
X204453823Y-230719505D01*
X204416040Y-230867302D01*
X204145086Y-230867302D01*
X204145759Y-230848904D01*
X204161687Y-230727778D01*
X204188234Y-230630605D01*
X204252686Y-230521425D01*
X204350476Y-230449471D01*
X204489105Y-230409466D01*
X204676073Y-230396131D01*
X204857762Y-230410022D01*
G37*
G36*
X203853748Y-231585169D02*
G01*
X203584825Y-231585169D01*
X203584825Y-231465154D01*
X203567045Y-231465154D01*
X203450364Y-231577390D01*
X203367853Y-231599893D01*
X203329238Y-231602381D01*
X203251450Y-231607394D01*
X203083929Y-231593781D01*
X202959191Y-231552943D01*
X202870847Y-231479600D01*
X202812506Y-231368475D01*
X202788429Y-231269574D01*
X202773983Y-231146225D01*
X202769168Y-230998429D01*
X203042535Y-230998429D01*
X203048925Y-231128723D01*
X203068094Y-231226235D01*
X203154771Y-231340694D01*
X203329238Y-231374031D01*
X203487035Y-231339583D01*
X203565934Y-231225124D01*
X203583436Y-231128445D01*
X203589270Y-230998429D01*
X203583436Y-230868691D01*
X203565934Y-230772845D01*
X203487035Y-230660609D01*
X203329238Y-230627272D01*
X203154771Y-230660609D01*
X203068094Y-230772845D01*
X203048925Y-230868691D01*
X203042535Y-230998429D01*
X202769168Y-230998429D01*
X202773983Y-230852114D01*
X202788429Y-230730247D01*
X202812506Y-230632828D01*
X202870847Y-230523370D01*
X202959191Y-230450583D01*
X203083929Y-230409744D01*
X203251450Y-230396131D01*
X203378133Y-230403355D01*
X203464810Y-230425024D01*
X203567045Y-230533926D01*
X203584825Y-230533926D01*
X203584825Y-229967189D01*
X203853748Y-229967189D01*
X203853748Y-231585169D01*
G37*
G36*
X206520748Y-231585169D02*
G01*
X206251825Y-231585169D01*
X206251825Y-231465154D01*
X206234045Y-231465154D01*
X206117364Y-231577390D01*
X206034853Y-231599893D01*
X205996238Y-231602381D01*
X205918450Y-231607394D01*
X205750929Y-231593781D01*
X205626191Y-231552943D01*
X205537847Y-231479600D01*
X205479506Y-231368475D01*
X205455429Y-231269574D01*
X205440983Y-231146225D01*
X205436168Y-230998429D01*
X205709535Y-230998429D01*
X205715925Y-231128723D01*
X205735094Y-231226235D01*
X205821771Y-231340694D01*
X205996238Y-231374031D01*
X206154035Y-231339583D01*
X206232934Y-231225124D01*
X206250436Y-231128445D01*
X206256270Y-230998429D01*
X206250436Y-230868691D01*
X206232934Y-230772845D01*
X206154035Y-230660609D01*
X205996238Y-230627272D01*
X205821771Y-230660609D01*
X205735094Y-230772845D01*
X205715925Y-230868691D01*
X205709535Y-230998429D01*
X205436168Y-230998429D01*
X205440983Y-230852114D01*
X205455429Y-230730247D01*
X205479506Y-230632828D01*
X205537847Y-230523370D01*
X205626191Y-230450583D01*
X205750929Y-230409744D01*
X205918450Y-230396131D01*
X206045133Y-230403355D01*
X206131810Y-230425024D01*
X206234045Y-230533926D01*
X206251825Y-230533926D01*
X206251825Y-229967189D01*
X206520748Y-229967189D01*
X206520748Y-231585169D01*
G37*
G36*
X194179205Y-230404188D02*
G01*
X194308110Y-230428358D01*
X194399232Y-230471696D01*
X194459240Y-230537260D01*
X194493133Y-230630327D01*
X194505912Y-230756176D01*
X194239212Y-230756176D01*
X194184761Y-230652830D01*
X194114475Y-230631994D01*
X194003627Y-230625049D01*
X193887502Y-230631161D01*
X193814715Y-230649496D01*
X193763597Y-230740619D01*
X193833606Y-230803960D01*
X193936675Y-230836464D01*
X194105862Y-230878414D01*
X194253659Y-230918141D01*
X194363672Y-230961758D01*
X194493689Y-231076216D01*
X194522859Y-231155115D01*
X194532582Y-231254016D01*
X194520914Y-231376254D01*
X194485910Y-231467377D01*
X194422847Y-231531829D01*
X194327001Y-231574056D01*
X194191707Y-231597393D01*
X194010295Y-231605172D01*
X193821660Y-231596282D01*
X193682476Y-231569612D01*
X193584964Y-231521272D01*
X193521345Y-231447374D01*
X193487452Y-231342917D01*
X193479117Y-231202899D01*
X193752485Y-231202899D01*
X193779155Y-231308468D01*
X193862499Y-231360697D01*
X194030297Y-231376254D01*
X194140867Y-231369864D01*
X194210320Y-231350695D01*
X194259215Y-231256239D01*
X194231434Y-231181785D01*
X194136977Y-231129556D01*
X194056412Y-231107331D01*
X193948065Y-231085107D01*
X193790545Y-231049824D01*
X193673586Y-231010653D01*
X193535791Y-230906195D01*
X193494675Y-230738396D01*
X193506065Y-230618659D01*
X193540236Y-230530593D01*
X193601911Y-230468641D01*
X193695811Y-230427246D01*
X193828328Y-230403910D01*
X194005850Y-230396131D01*
X194179205Y-230404188D01*
G37*
G36*
X199407914Y-230409189D02*
G01*
X199485424Y-230435025D01*
X199590992Y-230562819D01*
X199608772Y-230562819D01*
X199608772Y-230425024D01*
X199868805Y-230425024D01*
X199868805Y-231618507D01*
X199857137Y-231777693D01*
X199822132Y-231895208D01*
X199759069Y-231977996D01*
X199663224Y-232033003D01*
X199527373Y-232063840D01*
X199344295Y-232074119D01*
X199167051Y-232065229D01*
X199035367Y-232038559D01*
X198942022Y-231991053D01*
X198879792Y-231919655D01*
X198843677Y-231818809D01*
X198828675Y-231682959D01*
X199102042Y-231682959D01*
X199126490Y-231787417D01*
X199196499Y-231837423D01*
X199346517Y-231851869D01*
X199500981Y-231828533D01*
X199577657Y-231750745D01*
X199602105Y-231596282D01*
X199604327Y-231427371D01*
X199586547Y-231427371D01*
X199519872Y-231528495D01*
X199425416Y-231577390D01*
X199330960Y-231585859D01*
X199264285Y-231591836D01*
X199102042Y-231578501D01*
X198979805Y-231538496D01*
X198891738Y-231467099D01*
X198832009Y-231359585D01*
X198797838Y-231208177D01*
X198786447Y-231005097D01*
X199057592Y-231005097D01*
X199063704Y-231129279D01*
X199082040Y-231221790D01*
X199165384Y-231330693D01*
X199330960Y-231362919D01*
X199495425Y-231330693D01*
X199577657Y-231221790D01*
X199595993Y-231129279D01*
X199602105Y-231005097D01*
X199595993Y-230875080D01*
X199577657Y-230778402D01*
X199495425Y-230663943D01*
X199330960Y-230629494D01*
X199165384Y-230663943D01*
X199082040Y-230778402D01*
X199063704Y-230875080D01*
X199057592Y-231005097D01*
X198786447Y-231005097D01*
X198791510Y-230858658D01*
X198806697Y-230736421D01*
X198832009Y-230638384D01*
X198893683Y-230528092D01*
X198987584Y-230455028D01*
X199120100Y-230414189D01*
X199297622Y-230400576D01*
X199407914Y-230409189D01*
G37*
%TO.C,kibuzzard-66C556E1*%
G36*
X194050300Y-233899724D02*
G01*
X193654060Y-233899724D01*
X193849640Y-233173284D01*
X193854720Y-233173284D01*
X194050300Y-233899724D01*
G37*
G36*
X198622300Y-233899724D02*
G01*
X198226060Y-233899724D01*
X198421640Y-233173284D01*
X198426720Y-233173284D01*
X198622300Y-233899724D01*
G37*
G36*
X204457950Y-233132009D02*
G01*
X204581140Y-233137724D01*
X204741160Y-233189794D01*
X204784340Y-233346004D01*
X204742430Y-233542854D01*
X204586220Y-233597464D01*
X204258560Y-233597464D01*
X204258560Y-233132644D01*
X204367780Y-233130104D01*
X204457950Y-233132009D01*
G37*
G36*
X190829897Y-233138676D02*
G01*
X190945150Y-233156774D01*
X191081040Y-233236784D01*
X191121680Y-233396804D01*
X191086120Y-233564444D01*
X190964200Y-233648264D01*
X190860060Y-233667314D01*
X190720360Y-233673664D01*
X190560340Y-233673664D01*
X190560340Y-233132644D01*
X190674640Y-233132644D01*
X190829897Y-233138676D01*
G37*
G36*
X208891520Y-233130739D02*
G01*
X209010900Y-233140264D01*
X209157267Y-233167886D01*
X209266170Y-233215194D01*
X209343322Y-233288219D01*
X209394440Y-233392994D01*
X209423015Y-233536821D01*
X209432540Y-233727004D01*
X209422697Y-233927981D01*
X209393170Y-234078794D01*
X209340147Y-234187061D01*
X209259820Y-234260404D01*
X209146155Y-234304854D01*
X208993120Y-234326444D01*
X208792460Y-234318824D01*
X208792460Y-233127564D01*
X208891520Y-233130739D01*
G37*
G36*
X203117465Y-233125976D02*
G01*
X203207000Y-233166934D01*
X203270182Y-233240594D01*
X203312410Y-233352354D01*
X203336222Y-233511421D01*
X203344160Y-233727004D01*
X203336222Y-233936237D01*
X203312410Y-234091494D01*
X203270182Y-234201349D01*
X203207000Y-234274374D01*
X203117465Y-234315331D01*
X202996180Y-234328984D01*
X202874577Y-234315331D01*
X202784090Y-234274374D01*
X202719955Y-234201349D01*
X202677410Y-234091494D01*
X202653597Y-233936237D01*
X202645660Y-233727004D01*
X202653597Y-233513009D01*
X202677410Y-233353624D01*
X202719955Y-233240911D01*
X202784090Y-233166934D01*
X202874577Y-233125976D01*
X202996180Y-233112324D01*
X203117465Y-233125976D01*
G37*
G36*
X206165465Y-233125976D02*
G01*
X206255000Y-233166934D01*
X206318182Y-233240594D01*
X206360410Y-233352354D01*
X206384222Y-233511421D01*
X206392160Y-233727004D01*
X206384222Y-233936237D01*
X206360410Y-234091494D01*
X206318182Y-234201349D01*
X206255000Y-234274374D01*
X206165465Y-234315331D01*
X206044180Y-234328984D01*
X205922577Y-234315331D01*
X205832090Y-234274374D01*
X205767955Y-234201349D01*
X205725410Y-234091494D01*
X205701597Y-233936237D01*
X205693660Y-233727004D01*
X205701597Y-233513009D01*
X205725410Y-233353624D01*
X205767955Y-233240911D01*
X205832090Y-233166934D01*
X205922577Y-233125976D01*
X206044180Y-233112324D01*
X206165465Y-233125976D01*
G37*
G36*
X210428247Y-232310580D02*
G01*
X210565789Y-232330983D01*
X210700670Y-232364768D01*
X210831590Y-232411612D01*
X210957287Y-232471063D01*
X211076552Y-232542547D01*
X211188236Y-232625378D01*
X211291264Y-232718757D01*
X211384643Y-232821784D01*
X211467473Y-232933468D01*
X211538958Y-233052734D01*
X211598408Y-233178431D01*
X211645252Y-233309351D01*
X211679038Y-233444231D01*
X211699441Y-233581774D01*
X211706263Y-233720654D01*
X211699441Y-233859534D01*
X211679038Y-233997077D01*
X211645252Y-234131957D01*
X211598408Y-234262877D01*
X211538958Y-234388574D01*
X211467473Y-234507840D01*
X211384643Y-234619524D01*
X211291264Y-234722551D01*
X211188236Y-234815930D01*
X211076552Y-234898761D01*
X210957287Y-234970245D01*
X210831590Y-235029696D01*
X210700670Y-235076540D01*
X210565789Y-235110325D01*
X210428247Y-235130728D01*
X210289367Y-235137551D01*
X209760200Y-235137551D01*
X208916920Y-235137551D01*
X208043160Y-235137551D01*
X206044180Y-235137551D01*
X205203440Y-235137551D01*
X202996180Y-235137551D01*
X201634740Y-235137551D01*
X199145540Y-235137551D01*
X197575820Y-235137551D01*
X195381260Y-235137551D01*
X194573540Y-235137551D01*
X192973340Y-235137551D01*
X190560340Y-235137551D01*
X190235220Y-235137551D01*
X189706053Y-235137551D01*
X189567173Y-235130728D01*
X189429630Y-235110325D01*
X189294750Y-235076540D01*
X189163830Y-235029696D01*
X189038133Y-234970245D01*
X188918868Y-234898761D01*
X188807184Y-234815930D01*
X188704156Y-234722551D01*
X188610777Y-234619524D01*
X188527947Y-234507840D01*
X188456462Y-234388574D01*
X188397012Y-234262877D01*
X188350168Y-234131957D01*
X188316382Y-233997077D01*
X188295979Y-233859534D01*
X188289157Y-233720654D01*
X188295979Y-233581774D01*
X188316382Y-233444231D01*
X188350168Y-233309351D01*
X188397012Y-233178431D01*
X188456462Y-233052734D01*
X188527947Y-232933468D01*
X188583677Y-232858324D01*
X190235220Y-232858324D01*
X190235220Y-234585524D01*
X190560340Y-234585524D01*
X193130820Y-234585524D01*
X193453400Y-234585524D01*
X193577860Y-234171504D01*
X194126500Y-234171504D01*
X194250960Y-234585524D01*
X194573540Y-234585524D01*
X194418096Y-234064824D01*
X194720860Y-234064824D01*
X194729750Y-234254054D01*
X194771660Y-234395024D01*
X194851352Y-234494719D01*
X194973590Y-234560124D01*
X195147262Y-234596319D01*
X195381260Y-234608384D01*
X195608272Y-234597589D01*
X195670845Y-234585524D01*
X196227080Y-234585524D01*
X196526800Y-234585524D01*
X196526800Y-233711764D01*
X196496320Y-233262184D01*
X196506480Y-233262184D01*
X196773180Y-234008944D01*
X197029720Y-234008944D01*
X197296420Y-233262184D01*
X197306580Y-233262184D01*
X197276100Y-233711764D01*
X197276100Y-234585524D01*
X197575820Y-234585524D01*
X197702820Y-234585524D01*
X198025400Y-234585524D01*
X198149860Y-234171504D01*
X198698500Y-234171504D01*
X198822960Y-234585524D01*
X199145540Y-234585524D01*
X198716362Y-233147884D01*
X200847340Y-233147884D01*
X201309620Y-233147884D01*
X201309620Y-234585524D01*
X201634740Y-234585524D01*
X201634740Y-233727004D01*
X202325620Y-233727004D01*
X202332252Y-233941211D01*
X202352149Y-234119857D01*
X202385310Y-234262944D01*
X202465955Y-234423599D01*
X202588510Y-234529644D01*
X202697589Y-234573388D01*
X202833479Y-234599635D01*
X202996180Y-234608384D01*
X203158881Y-234599635D01*
X203294771Y-234573388D01*
X203403850Y-234529644D01*
X203526405Y-234423599D01*
X203607050Y-234262944D01*
X203640211Y-234119857D01*
X203660108Y-233941211D01*
X203666740Y-233727004D01*
X203660108Y-233509693D01*
X203640211Y-233328506D01*
X203607050Y-233183444D01*
X203526405Y-233020566D01*
X203403850Y-232912934D01*
X203294771Y-232868484D01*
X203255945Y-232860864D01*
X203935980Y-232860864D01*
X203935980Y-234585524D01*
X204258560Y-234585524D01*
X204258560Y-233879404D01*
X204421120Y-233879404D01*
X204555740Y-233889246D01*
X204644640Y-233918774D01*
X204736080Y-234069904D01*
X204855460Y-234585524D01*
X205203440Y-234585524D01*
X205058660Y-234047044D01*
X205015162Y-233919409D01*
X204965950Y-233836224D01*
X204807200Y-233757484D01*
X204807200Y-233734624D01*
X204831245Y-233727004D01*
X205373620Y-233727004D01*
X205380252Y-233941211D01*
X205400149Y-234119857D01*
X205433310Y-234262944D01*
X205513955Y-234423599D01*
X205636510Y-234529644D01*
X205745589Y-234573388D01*
X205881479Y-234599635D01*
X206044180Y-234608384D01*
X206206881Y-234599635D01*
X206342771Y-234573388D01*
X206451850Y-234529644D01*
X206574405Y-234423599D01*
X206634650Y-234303584D01*
X207090660Y-234303584D01*
X207090660Y-234585524D01*
X208043160Y-234585524D01*
X208043160Y-234303584D01*
X207725660Y-234303584D01*
X207725660Y-233140264D01*
X208025380Y-233140264D01*
X208025380Y-232858324D01*
X208467340Y-232858324D01*
X208467340Y-234585524D01*
X208633569Y-234596813D01*
X208783429Y-234603586D01*
X208916920Y-234605844D01*
X209120402Y-234597095D01*
X209290582Y-234570848D01*
X209427460Y-234527104D01*
X209581765Y-234422011D01*
X209684000Y-234264214D01*
X209726333Y-234124655D01*
X209751733Y-233951512D01*
X209760200Y-233744784D01*
X209752862Y-233547087D01*
X209730849Y-233380717D01*
X209694160Y-233245674D01*
X209604942Y-233089146D01*
X209469370Y-232977704D01*
X209349002Y-232925211D01*
X209199566Y-232886264D01*
X209021060Y-232860864D01*
X208899140Y-232851339D01*
X208761980Y-232848164D01*
X208622280Y-232850704D01*
X208467340Y-232858324D01*
X208025380Y-232858324D01*
X207108440Y-232858324D01*
X207108440Y-233140264D01*
X207408160Y-233140264D01*
X207408160Y-234303584D01*
X207090660Y-234303584D01*
X206634650Y-234303584D01*
X206655050Y-234262944D01*
X206688211Y-234119857D01*
X206708108Y-233941211D01*
X206714740Y-233727004D01*
X206708108Y-233509693D01*
X206688211Y-233328506D01*
X206655050Y-233183444D01*
X206574405Y-233020566D01*
X206451850Y-232912934D01*
X206342771Y-232868484D01*
X206206881Y-232841814D01*
X206044180Y-232832924D01*
X205881479Y-232841814D01*
X205745589Y-232868484D01*
X205636510Y-232912934D01*
X205513955Y-233020566D01*
X205433310Y-233183444D01*
X205400149Y-233328506D01*
X205380252Y-233509693D01*
X205373620Y-233727004D01*
X204831245Y-233727004D01*
X204987540Y-233677474D01*
X205077710Y-233563174D01*
X205104380Y-233358704D01*
X205088187Y-233184714D01*
X205039610Y-233053904D01*
X204952615Y-232959924D01*
X204821170Y-232896424D01*
X204704753Y-232869613D01*
X204560397Y-232853526D01*
X204388100Y-232848164D01*
X204238240Y-232850704D01*
X203935980Y-232860864D01*
X203255945Y-232860864D01*
X203158881Y-232841814D01*
X202996180Y-232832924D01*
X202833479Y-232841814D01*
X202697589Y-232868484D01*
X202588510Y-232912934D01*
X202465955Y-233020566D01*
X202385310Y-233183444D01*
X202352149Y-233328506D01*
X202332252Y-233509693D01*
X202325620Y-233727004D01*
X201634740Y-233727004D01*
X201634740Y-233147884D01*
X202097020Y-233147884D01*
X202097020Y-232858324D01*
X200847340Y-232858324D01*
X200847340Y-233147884D01*
X198716362Y-233147884D01*
X198629920Y-232858324D01*
X198218440Y-232858324D01*
X197702820Y-234585524D01*
X197575820Y-234585524D01*
X197575820Y-232858324D01*
X197197360Y-232858324D01*
X196915420Y-233686364D01*
X196887480Y-233686364D01*
X196610620Y-232858324D01*
X196227080Y-232858324D01*
X196227080Y-234585524D01*
X195670845Y-234585524D01*
X195776230Y-234565204D01*
X195894657Y-234506784D01*
X195973080Y-234417884D01*
X196016895Y-234292154D01*
X196031500Y-234123244D01*
X196019435Y-233984496D01*
X195983240Y-233873054D01*
X195918787Y-233782566D01*
X195821950Y-233706684D01*
X195685107Y-233638739D01*
X195500640Y-233572064D01*
X195287597Y-233498721D01*
X195151390Y-233436174D01*
X195053600Y-233305364D01*
X195081540Y-233185984D01*
X195174250Y-233127564D01*
X195360940Y-233109784D01*
X195542550Y-233128834D01*
X195636530Y-233192334D01*
X195673360Y-233320604D01*
X195995940Y-233320604D01*
X195983240Y-233149789D01*
X195940060Y-233023424D01*
X195862907Y-232934524D01*
X195748290Y-232876104D01*
X195587317Y-232843719D01*
X195371100Y-232832924D01*
X195150437Y-232843401D01*
X194986290Y-232874834D01*
X194870085Y-232931031D01*
X194793250Y-233015804D01*
X194750387Y-233135184D01*
X194736100Y-233295204D01*
X194748165Y-233420299D01*
X194784360Y-233521264D01*
X194849447Y-233604131D01*
X194948190Y-233674934D01*
X195088207Y-233739386D01*
X195277120Y-233803204D01*
X195427932Y-233852416D01*
X195540010Y-233898454D01*
X195673360Y-233996244D01*
X195714000Y-234125784D01*
X195686060Y-234251514D01*
X195590810Y-234313744D01*
X195401580Y-234331524D01*
X195278072Y-234325809D01*
X195186950Y-234308664D01*
X195079000Y-234228654D01*
X195038360Y-234064824D01*
X194720860Y-234064824D01*
X194418096Y-234064824D01*
X194057920Y-232858324D01*
X193646440Y-232858324D01*
X193130820Y-234585524D01*
X190560340Y-234585524D01*
X190560340Y-234582984D01*
X191774460Y-234582984D01*
X192973340Y-234582984D01*
X192973340Y-234298504D01*
X192099580Y-234298504D01*
X192099580Y-232858324D01*
X191774460Y-232858324D01*
X191774460Y-234582984D01*
X190560340Y-234582984D01*
X190560340Y-233955604D01*
X190745760Y-233955604D01*
X190914811Y-233950101D01*
X191056204Y-233933591D01*
X191169940Y-233906074D01*
X191297892Y-233839717D01*
X191382030Y-233739704D01*
X191428702Y-233598099D01*
X191444260Y-233406964D01*
X191426162Y-233213289D01*
X191371870Y-233069144D01*
X191274080Y-232967226D01*
X191125490Y-232900234D01*
X190993269Y-232872717D01*
X190828592Y-232856207D01*
X190631460Y-232850704D01*
X190235220Y-232858324D01*
X188583677Y-232858324D01*
X188610777Y-232821784D01*
X188704156Y-232718757D01*
X188807184Y-232625378D01*
X188918868Y-232542547D01*
X189038133Y-232471063D01*
X189163830Y-232411612D01*
X189294750Y-232364768D01*
X189429630Y-232330983D01*
X189567173Y-232310580D01*
X189706053Y-232303757D01*
X190235220Y-232303757D01*
X209760200Y-232303757D01*
X210289367Y-232303757D01*
X210428247Y-232310580D01*
G37*
%TD*%
D11*
%TO.C,R11*%
X156900005Y-209558154D03*
X156900005Y-212483154D03*
%TD*%
D12*
%TO.C,H5*%
X247317710Y-63980654D03*
X247800984Y-62813928D03*
X247800984Y-65147380D03*
X248967710Y-62330654D03*
D13*
X248967710Y-63980654D03*
D12*
X248967710Y-65630654D03*
X250134436Y-62813928D03*
X250134436Y-65147380D03*
X250617710Y-63980654D03*
%TD*%
D14*
%TO.C,U2*%
X162745420Y-217541308D03*
D15*
X160895420Y-216041308D03*
D14*
X162745420Y-214541308D03*
X159045420Y-214541308D03*
X159045420Y-217541308D03*
%TD*%
D16*
%TO.C,SW1*%
X221747710Y-224495654D03*
X221747710Y-216545654D03*
X226247710Y-224495654D03*
X226247710Y-216545654D03*
%TD*%
D17*
%TO.C,Cp4*%
X198100000Y-195370654D03*
D18*
X198100000Y-199745654D03*
%TD*%
D19*
%TO.C,D5*%
X213000000Y-219370654D03*
X213000000Y-222670654D03*
%TD*%
D20*
%TO.C,TP6*%
X176600000Y-197500000D03*
%TD*%
D21*
%TO.C,D4*%
X244610210Y-202008154D03*
X246510210Y-202008154D03*
X245560210Y-200133154D03*
%TD*%
D22*
%TO.C,Q2*%
X197647710Y-209560654D03*
D23*
X188497710Y-207020654D03*
D22*
X197647710Y-204480654D03*
%TD*%
D24*
%TO.C,C3*%
X246275000Y-204720654D03*
X244725000Y-204720654D03*
%TD*%
D25*
%TO.C,R4*%
X156900005Y-202195654D03*
X156900005Y-203845654D03*
%TD*%
D26*
%TO.C,C6*%
X241272710Y-197020654D03*
X238322710Y-197020654D03*
%TD*%
D27*
%TO.C,C1*%
X250750000Y-214295654D03*
X250750000Y-212745654D03*
%TD*%
D28*
%TO.C,U4*%
X178860210Y-219070654D03*
X178860210Y-220020654D03*
X178860210Y-220970654D03*
X181135210Y-220970654D03*
X181135210Y-219070654D03*
%TD*%
D20*
%TO.C,TP5*%
X140750000Y-199000000D03*
%TD*%
D12*
%TO.C,H9*%
X175347710Y-230520654D03*
X175830984Y-229353928D03*
X175830984Y-231687380D03*
X176997710Y-228870654D03*
D13*
X176997710Y-230520654D03*
D12*
X176997710Y-232170654D03*
X178164436Y-229353928D03*
X178164436Y-231687380D03*
X178647710Y-230520654D03*
%TD*%
D29*
%TO.C,TPg5*%
X253797710Y-197620654D03*
%TD*%
D30*
%TO.C,R1*%
X218322710Y-225020654D03*
X216672710Y-225020654D03*
%TD*%
D31*
%TO.C,R8*%
X208997710Y-222483154D03*
X208997710Y-219558154D03*
%TD*%
D20*
%TO.C,TP7*%
X201997710Y-213520654D03*
%TD*%
D32*
%TO.C,TPg6*%
X259250000Y-207020654D03*
%TD*%
D33*
%TO.C,T1*%
X233464466Y-201964466D03*
D34*
X233464466Y-209035534D03*
D35*
X240535534Y-209035534D03*
D34*
X240535534Y-201964466D03*
%TD*%
D24*
%TO.C,C12*%
X171772710Y-217020654D03*
X170222710Y-217020654D03*
%TD*%
D26*
%TO.C,C10*%
X162375005Y-207020654D03*
X159425005Y-207020654D03*
%TD*%
D36*
%TO.C,D2*%
X217500000Y-222420654D03*
X217500000Y-219620654D03*
%TD*%
D37*
%TO.C,Rg3*%
X205712500Y-204520654D03*
X201087500Y-204520654D03*
%TD*%
D11*
%TO.C,R10*%
X212997710Y-204058154D03*
X212997710Y-206983154D03*
%TD*%
D20*
%TO.C,TP2*%
X140750000Y-203000000D03*
%TD*%
D38*
%TO.C,R2*%
X253097710Y-207845654D03*
X253097710Y-206195654D03*
%TD*%
D22*
%TO.C,Q1*%
X197650000Y-222560654D03*
D23*
X188500000Y-220020654D03*
D22*
X197650000Y-217480654D03*
%TD*%
D39*
%TO.C,U1*%
X248500000Y-209220654D03*
X249000000Y-209220654D03*
X249500000Y-209220654D03*
X250000000Y-209220654D03*
X250500000Y-209220654D03*
X250500000Y-204820654D03*
X250000000Y-204820654D03*
X249500000Y-204820654D03*
X249000000Y-204820654D03*
X248500000Y-204820654D03*
%TD*%
D12*
%TO.C,H10*%
X221347710Y-230520654D03*
X221830984Y-229353928D03*
X221830984Y-231687380D03*
X222997710Y-228870654D03*
D13*
X222997710Y-230520654D03*
D12*
X222997710Y-232170654D03*
X224164436Y-229353928D03*
X224164436Y-231687380D03*
X224647710Y-230520654D03*
%TD*%
D37*
%TO.C,Rg1*%
X205810210Y-217520654D03*
X201185210Y-217520654D03*
%TD*%
D29*
%TO.C,TPg3*%
X217500000Y-209000000D03*
%TD*%
D40*
%TO.C,C14*%
X208997710Y-204045654D03*
X208997710Y-206995654D03*
%TD*%
D41*
%TO.C,D7*%
X153897710Y-211020654D03*
X151097710Y-211020654D03*
%TD*%
D20*
%TO.C,TP4*%
X217500000Y-213500000D03*
%TD*%
D40*
%TO.C,C2*%
X245497710Y-212045654D03*
X245497710Y-214995654D03*
%TD*%
D12*
%TO.C,H7*%
X148687710Y-63280654D03*
X149170984Y-62113928D03*
X149170984Y-64447380D03*
X150337710Y-61630654D03*
D13*
X150337710Y-63280654D03*
D12*
X150337710Y-64930654D03*
X151504436Y-62113928D03*
X151504436Y-64447380D03*
X151987710Y-63280654D03*
%TD*%
%TO.C,H4*%
X247327710Y-220710654D03*
X247810984Y-219543928D03*
X247810984Y-221877380D03*
X248977710Y-219060654D03*
D13*
X248977710Y-220710654D03*
D12*
X248977710Y-222360654D03*
X250144436Y-219543928D03*
X250144436Y-221877380D03*
X250627710Y-220710654D03*
%TD*%
D42*
%TO.C,D8*%
X207687710Y-212570654D03*
X207687710Y-214470654D03*
X210307710Y-213520654D03*
%TD*%
D17*
%TO.C,Cp2*%
X207097710Y-195370654D03*
D18*
X207097710Y-199745654D03*
%TD*%
D43*
%TO.C,RV1*%
X241397710Y-220470654D03*
X232597710Y-220470654D03*
D44*
X234497710Y-213470654D03*
X236997710Y-213470654D03*
X239497710Y-213470654D03*
%TD*%
D38*
%TO.C,R9*%
X156897710Y-207845654D03*
X156897710Y-206195654D03*
%TD*%
D24*
%TO.C,C7*%
X175872710Y-217020654D03*
X174322710Y-217020654D03*
%TD*%
D45*
%TO.C,L1*%
X170147710Y-207020654D03*
X179847710Y-207020654D03*
%TD*%
D29*
%TO.C,TPg4*%
X144750000Y-199000000D03*
%TD*%
D20*
%TO.C,TP1*%
X140750000Y-207000000D03*
%TD*%
D12*
%TO.C,H3*%
X254397710Y-213650654D03*
X254880984Y-212483928D03*
X254880984Y-214817380D03*
X256047710Y-212000654D03*
D13*
X256047710Y-213650654D03*
D12*
X256047710Y-215300654D03*
X257214436Y-212483928D03*
X257214436Y-214817380D03*
X257697710Y-213650654D03*
%TD*%
D29*
%TO.C,TPg1*%
X172600000Y-197500000D03*
%TD*%
D46*
%TO.C,GD1*%
X249497710Y-197883154D03*
X249497710Y-202158154D03*
%TD*%
D12*
%TO.C,H1*%
X142317710Y-213640654D03*
X142800984Y-212473928D03*
X142800984Y-214807380D03*
X143967710Y-211990654D03*
D13*
X143967710Y-213640654D03*
D12*
X143967710Y-215290654D03*
X145134436Y-212473928D03*
X145134436Y-214807380D03*
X145617710Y-213640654D03*
%TD*%
D31*
%TO.C,R12*%
X212997710Y-214983154D03*
X212997710Y-212058154D03*
%TD*%
D26*
%TO.C,C4*%
X162375005Y-211020654D03*
X159425005Y-211020654D03*
%TD*%
D47*
%TO.C,R5*%
X244672710Y-207020654D03*
X246322710Y-207020654D03*
%TD*%
D37*
%TO.C,Rg2*%
X205810210Y-222520654D03*
X201185210Y-222520654D03*
%TD*%
D17*
%TO.C,Cp3*%
X202597710Y-195370654D03*
D18*
X202597710Y-199745654D03*
%TD*%
D38*
%TO.C,R3*%
X248250000Y-214345654D03*
X248250000Y-212695654D03*
%TD*%
D27*
%TO.C,C13*%
X217497710Y-206295654D03*
X217497710Y-204745654D03*
%TD*%
D17*
%TO.C,Cp1*%
X211597710Y-195370654D03*
D18*
X211597710Y-199745654D03*
%TD*%
D41*
%TO.C,D6*%
X153897710Y-207020654D03*
X151097710Y-207020654D03*
%TD*%
D48*
%TO.C,C11*%
X170250000Y-215020654D03*
X171800000Y-215020654D03*
%TD*%
D12*
%TO.C,H8*%
X141607710Y-70350654D03*
X142090984Y-69183928D03*
X142090984Y-71517380D03*
X143257710Y-68700654D03*
D13*
X143257710Y-70350654D03*
D12*
X143257710Y-72000654D03*
X144424436Y-69183928D03*
X144424436Y-71517380D03*
X144907710Y-70350654D03*
%TD*%
D20*
%TO.C,TP3*%
X253797710Y-202120654D03*
%TD*%
D49*
%TO.C,U3*%
X175935210Y-220970654D03*
X175935210Y-219070654D03*
X174060210Y-220020654D03*
%TD*%
D37*
%TO.C,Rg4*%
X205712500Y-209520654D03*
X201087500Y-209520654D03*
%TD*%
D12*
%TO.C,H6*%
X254387710Y-71050654D03*
X254870984Y-69883928D03*
X254870984Y-72217380D03*
X256037710Y-69400654D03*
D13*
X256037710Y-71050654D03*
D12*
X256037710Y-72700654D03*
X257204436Y-69883928D03*
X257204436Y-72217380D03*
X257687710Y-71050654D03*
%TD*%
D41*
%TO.C,D3*%
X153897710Y-203020654D03*
X151097710Y-203020654D03*
%TD*%
D50*
%TO.C,C5*%
X165893130Y-217516308D03*
X165893130Y-214566308D03*
%TD*%
D29*
%TO.C,TPg2*%
X197497710Y-213520654D03*
%TD*%
D51*
%TO.C,T2*%
X226497710Y-209920654D03*
X221497710Y-209920654D03*
X220947710Y-193070654D03*
X227047710Y-193070654D03*
%TD*%
D30*
%TO.C,R6*%
X246322710Y-209220654D03*
X244672710Y-209220654D03*
%TD*%
D12*
%TO.C,H2*%
X149387710Y-220710654D03*
X149870984Y-219543928D03*
X149870984Y-221877380D03*
X151037710Y-219060654D03*
D13*
X151037710Y-220710654D03*
D12*
X151037710Y-222360654D03*
X152204436Y-219543928D03*
X152204436Y-221877380D03*
X152687710Y-220710654D03*
%TD*%
D30*
%TO.C,R7*%
X175900410Y-215020654D03*
X174250410Y-215020654D03*
%TD*%
D26*
%TO.C,C9*%
X162372710Y-203020654D03*
X159422710Y-203020654D03*
%TD*%
D52*
%TO.C,J2*%
X165997710Y-211020654D03*
D53*
X165997710Y-209020654D03*
%TD*%
D54*
%TO.C,J1*%
X165997710Y-202520654D03*
D55*
X165997710Y-204520654D03*
%TD*%
D32*
%TO.C,J3*%
X229997710Y-191820654D03*
%TD*%
D56*
%TO.C,HS1*%
X183495415Y-197541312D03*
X183495415Y-230541312D03*
X216495415Y-197541312D03*
X216495415Y-230541312D03*
%TD*%
M02*
